<?xml version="1.0" encoding="UTF-8"?>
<svg width="40px" height="36px" viewBox="0 0 60 54" version="1.1" xmlns="http://www.w3.org/2000/svg" xmlns:xlink="http://www.w3.org/1999/xlink">
    <!-- Generator: Sketch 51.3 (57544) - http://www.bohemiancoding.com/sketch -->
    <title>conversations-4872_af60b258-251e-41af-b238-dfb706d7b3d4</title>
    <desc>Created with Sketch.</desc>
    <defs></defs>
    <g id="Welcome" stroke="none" stroke-width="1" fill="none" fill-rule="evenodd">
        <g id="Liên-hệ" transform="translate(-290.000000, -525.000000)" fill-rule="nonzero">
            <g id="Group-4" transform="translate(140.000000, 362.000000)">
                <g id="conversations-4872_af60b258-251e-41af-b238-dfb706d7b3d4" transform="translate(150.000000, 163.000000)">
                    <path d="M50,15.5 C50,7.21572875 43.2842712,0.5 35,0.5 L15,0.5 C7.73997563,0.556326269 1.56245502,5.80406291 0.333006838,12.9594513 C-0.896441347,20.1148398 3.17515321,27.1235928 10,29.6 L10,41.5 L21,30.5 L35,30.5 C43.2842712,30.5 50,23.7842712 50,15.5 Z" id="Path" fill="#0091FF"></path>
                    <path d="M52.4,23 C49.4104245,29.9586662 42.5736437,34.4772283 35,34.5 L26.1,34.5 C26.615097,40.1433721 31.3332384,44.4719423 37,44.5 L42.9,44.5 L52,53.5 L52,44 C56.6229258,42.655436 59.8342971,38.4607765 59.925985,33.6471616 C60.0176729,28.8335467 56.9683696,24.5196363 52.4,23 Z" id="Path" fill="#0352CC"></path>
                </g>
            </g>
        </g>
    </g>
</svg>