<?xml version="1.0" encoding="UTF-8"?>
<svg width="40px" height="40px" viewBox="0 0 54 54" version="1.1" xmlns="http://www.w3.org/2000/svg" xmlns:xlink="http://www.w3.org/1999/xlink">
    <!-- Generator: Sketch 51.3 (57544) - http://www.bohemiancoding.com/sketch -->
    <title>calendar</title>
    <desc>Created with Sketch.</desc>
    <defs></defs>
    <g id="Welcome" stroke="none" stroke-width="1" fill="none" fill-rule="evenodd">
        <g id="Liên-hệ" transform="translate(-1094.000000, -525.000000)" fill-rule="nonzero">
            <g id="Group-9" transform="translate(941.000000, 362.000000)">
                <g id="calendar" transform="translate(153.000000, 163.000000)">
                    <circle id="Oval" fill="#0091FF" cx="40.7109375" cy="22.1484375" r="2.109375"></circle>
                    <path d="M45.5625,4.21875 L42.8203125,4.21875 L42.8203125,2.109375 C42.8203125,0.944367188 41.8759453,0 40.7109375,0 C39.5459297,0 38.6015625,0.944367188 38.6015625,2.109375 L38.6015625,4.21875 L29.0039062,4.21875 L29.0039062,2.109375 C29.0039062,0.944367188 28.0595391,0 26.8945312,0 C25.7295234,0 24.7851562,0.944367188 24.7851562,2.109375 L24.7851562,4.21875 L15.2929688,4.21875 L15.2929688,2.109375 C15.2929688,0.944367188 14.3486016,0 13.1835938,0 C12.0185859,0 11.0742188,0.944367188 11.0742188,2.109375 L11.0742188,4.21875 L8.4375,4.21875 C3.7850625,4.21875 0,8.0038125 0,12.65625 L0,45.5625 C0,50.2149375 3.7850625,54 8.4375,54 L24.5742188,54 C25.7392266,54 26.6835938,53.0556328 26.6835938,51.890625 C26.6835938,50.7256172 25.7392266,49.78125 24.5742188,49.78125 L8.4375,49.78125 C6.11128125,49.78125 4.21875,47.8887187 4.21875,45.5625 L4.21875,12.65625 C4.21875,10.3300313 6.11128125,8.4375 8.4375,8.4375 L11.0742188,8.4375 L11.0742188,10.546875 C11.0742188,11.7118828 12.0185859,12.65625 13.1835938,12.65625 C14.3486016,12.65625 15.2929688,11.7118828 15.2929688,10.546875 L15.2929688,8.4375 L24.7851562,8.4375 L24.7851562,10.546875 C24.7851562,11.7118828 25.7295234,12.65625 26.8945312,12.65625 C28.0595391,12.65625 29.0039062,11.7118828 29.0039062,10.546875 L29.0039062,8.4375 L38.6015625,8.4375 L38.6015625,10.546875 C38.6015625,11.7118828 39.5459297,12.65625 40.7109375,12.65625 C41.8759453,12.65625 42.8203125,11.7118828 42.8203125,10.546875 L42.8203125,8.4375 L45.5625,8.4375 C47.8887187,8.4375 49.78125,10.3300313 49.78125,12.65625 L49.78125,24.6796875 C49.78125,25.8446953 50.7256172,26.7890625 51.890625,26.7890625 C53.0556328,26.7890625 54,25.8446953 54,24.6796875 L54,12.65625 C54,8.0038125 50.2149375,4.21875 45.5625,4.21875 Z" id="Path" fill="#0091FF"></path>
                    <path d="M41.2382812,28.4765625 C34.2014062,28.4765625 28.4765625,34.2014062 28.4765625,41.2382812 C28.4765625,48.2751563 34.2014062,54 41.2382812,54 C48.2751563,54 54,48.2751563 54,41.2382812 C54,34.2014062 48.2751563,28.4765625 41.2382812,28.4765625 Z M41.2382812,49.78125 C36.5277305,49.78125 32.6953125,45.9489375 32.6953125,41.2382812 C32.6953125,36.527625 36.5277305,32.6953125 41.2382812,32.6953125 C45.948832,32.6953125 49.78125,36.527625 49.78125,41.2382812 C49.78125,45.9489375 45.948832,49.78125 41.2382812,49.78125 Z" id="Shape" fill="#0352CC"></path>
                    <path d="M44.296875,39.1289062 L43.3476562,39.1289062 L43.3476562,36.9140625 C43.3476562,35.7490547 42.4032891,34.8046875 41.2382812,34.8046875 C40.0732734,34.8046875 39.1289062,35.7490547 39.1289062,36.9140625 L39.1289062,41.2382812 C39.1289062,42.4032891 40.0732734,43.3476562 41.2382812,43.3476562 L44.296875,43.3476562 C45.4618828,43.3476562 46.40625,42.4032891 46.40625,41.2382812 C46.40625,40.0732734 45.4618828,39.1289062 44.296875,39.1289062 Z" id="Path" fill="#0352CC"></path>
                    <circle id="Oval" fill="#0091FF" cx="31.5351562" cy="22.1484375" r="2.109375"></circle>
                    <circle id="Oval" fill="#0091FF" cx="22.359375" cy="31.3242188" r="2.109375"></circle>
                    <circle id="Oval" fill="#0091FF" cx="13.1835938" cy="22.1484375" r="2.109375"></circle>
                    <circle id="Oval" fill="#0091FF" cx="13.1835938" cy="31.3242188" r="2.109375"></circle>
                    <circle id="Oval" fill="#0091FF" cx="13.1835938" cy="40.5" r="2.109375"></circle>
                    <circle id="Oval" fill="#0091FF" cx="22.359375" cy="40.5" r="2.109375"></circle>
                    <circle id="Oval" fill="#0091FF" cx="22.359375" cy="22.1484375" r="2.109375"></circle>
                </g>
            </g>
        </g>
    </g>
</svg>