<svg width="22" height="16" viewBox="0 0 22 16" fill="none" xmlns="http://www.w3.org/2000/svg">
<path d="M17.0157 8.89737C17.1002 9.77312 16.5843 10.396 15.6561 10.4295C15.6125 11.4442 15.222 11.8866 14.2608 11.9846C14.2959 12.3716 14.2167 12.7315 13.9378 13.0233C13.6631 13.3102 13.3166 13.4114 12.9304 13.3959C12.9474 14.6348 11.7121 15.1219 10.8949 14.5528C10.5857 15.0111 10.1633 15.2624 9.59952 15.1613C9.05279 15.0633 8.71222 14.7183 8.56079 14.186C7.71705 14.5267 6.93388 14.0263 6.76758 13.2208C6.3319 13.3805 5.91003 13.3555 5.52323 13.0877C5.14227 12.8242 4.96215 12.4467 4.94993 11.9771C4.73953 11.9771 4.53125 12.0102 4.33785 11.9718C3.35225 11.7748 2.91391 10.6505 3.49252 9.82529C3.6296 9.62991 3.78262 9.44624 3.9282 9.25672C3.95636 9.21999 4.00683 9.18378 4.00843 9.14545C4.02065 8.82283 4.05837 8.49542 4.0148 8.17973C3.99355 8.02374 3.81768 7.88958 3.71833 7.75489C3.55202 7.8619 3.43938 7.95879 3.30868 8.01203C3.08393 8.10306 2.86131 8.06047 2.67056 7.91248C2.19397 7.54301 1.71737 7.17248 1.25087 6.79023C0.942173 6.53735 0.919326 6.14446 1.17702 5.79363C2.1589 4.45737 3.14237 3.12271 4.12532 1.78752C4.24699 1.62195 4.36495 1.45318 4.49246 1.29188C4.75547 0.959142 5.15821 0.903775 5.49347 1.16251C5.95519 1.51867 6.41106 1.88334 6.86694 2.24695C7.06778 2.4072 7.16182 2.61962 7.13366 2.87782C7.10816 3.10887 7.23833 3.27177 7.48115 3.27976C7.75265 3.28881 8.02469 3.28242 8.29619 3.28295C8.39555 3.28295 8.49544 3.27603 8.59426 3.28402C9.0326 3.32075 9.40081 3.2542 9.75626 2.91455C10.2233 2.46842 10.8439 2.47321 11.4639 2.57543C12.4697 2.741 13.4798 2.88048 14.4887 3.02901C14.8724 3.08544 15.154 2.84907 15.4563 2.67818C15.486 2.66167 15.4919 2.58661 15.4929 2.53816C15.5009 2.22087 15.6454 1.99514 15.9345 1.86524C16.5205 1.60278 17.1055 1.33872 17.6942 1.08319C18.0959 0.909099 18.4747 1.05976 18.6394 1.46596C19.4082 3.35642 20.1728 5.24848 20.9353 7.14213C21.0963 7.54141 20.9475 7.90715 20.5575 8.08337C19.9725 8.34742 19.3827 8.6019 18.7972 8.86436C18.5815 8.96125 18.378 8.94315 18.1655 8.84945C18.064 8.80473 17.9423 8.77705 17.8334 8.78663C17.5635 8.80952 17.2957 8.8585 17.0146 8.89843L17.0157 8.89737ZM11.1956 14.0955C11.482 14.3169 11.8566 14.3111 12.1191 14.0891C12.3762 13.8719 12.4522 13.48 12.2758 13.1856C12.2094 13.0754 12.1111 12.9769 12.0096 12.896C11.465 12.4621 10.914 12.0368 10.3678 11.605C10.2206 11.489 10.1941 11.325 10.2977 11.2063C10.4151 11.0721 10.5506 11.0785 10.6866 11.1786C10.7828 11.2494 10.8752 11.325 10.9693 11.3979C11.5234 11.8302 12.0744 12.2668 12.6328 12.6937C13.0754 13.0318 13.6535 12.8087 13.722 12.2774C13.7576 12 13.6349 11.7908 13.4123 11.6316C12.7917 11.1887 12.1727 10.7442 11.5532 10.3002C11.4995 10.2618 11.4416 10.2262 11.3954 10.1799C11.2923 10.0766 11.2679 9.93762 11.3688 9.84339C11.4406 9.77685 11.5744 9.75821 11.6812 9.75555C11.7407 9.75396 11.804 9.82636 11.863 9.86895C12.5207 10.3396 13.1753 10.8144 13.8357 11.2813C14.213 11.5475 14.6912 11.4757 14.9521 11.1264C15.2204 10.7671 15.1481 10.289 14.7799 9.99459C14.7023 9.93283 14.6205 9.87534 14.5408 9.81624C13.9181 9.35414 13.2949 8.89204 12.6716 8.42994C12.4453 8.26171 12.3916 8.1217 12.4974 7.97423C12.6073 7.81984 12.7598 7.82996 12.9968 8.00564C13.0977 8.08071 13.1992 8.15577 13.3002 8.23083C13.9712 8.72807 14.6407 9.22797 15.3144 9.72148C15.5811 9.91686 15.8712 9.93017 16.1534 9.76088C16.4105 9.60649 16.5099 9.36213 16.4886 9.0656C16.4812 8.96178 16.4493 8.90695 16.3261 8.89098C15.842 8.83029 15.4116 8.63331 15.0302 8.32986C14.8277 8.16855 14.6264 8.00617 14.425 7.84433C13.6131 7.19271 12.7997 6.54321 11.9905 5.88786C11.6483 5.61102 11.2923 5.56417 10.9044 5.78085C10.7892 5.84527 10.6701 5.90436 10.5501 5.95973C9.85243 6.28075 9.14843 6.2882 8.42637 6.03107C7.63098 5.74784 7.57572 4.87049 8.11129 4.43235C8.32648 4.25613 8.49278 4.02082 8.68246 3.81107C8.44709 3.81107 8.19099 3.81107 7.93489 3.81107C7.52631 3.81107 7.10391 3.86856 6.79202 3.49324C5.8383 4.78691 4.90583 6.0513 3.96008 7.33379C4.36707 7.57069 4.5966 7.90981 4.56685 8.42142C5.06098 7.97157 5.58539 7.83901 6.16028 8.09029C6.7373 8.3421 6.97639 8.83189 6.9902 9.44305C7.4498 9.36692 7.83766 9.48085 8.16124 9.78803C8.48322 10.0936 8.60011 10.4838 8.57673 10.93C8.95716 10.9028 9.27807 11.0002 9.54639 11.2473C9.82002 11.4991 9.92894 11.8244 9.93851 12.1874C10.9746 12.0453 11.7503 13.0744 11.1961 14.0955H11.1956ZM15.7007 3.16423C15.5599 3.24143 15.4377 3.30478 15.3192 3.37452C15.0137 3.55393 14.6853 3.59492 14.341 3.54435C13.28 3.38783 12.2179 3.23664 11.1579 3.07267C10.6606 2.99547 10.2445 3.13549 9.88697 3.48046C9.41462 3.93618 8.93856 4.38869 8.46675 4.84547C8.19046 5.11325 8.24306 5.37092 8.6033 5.51626C9.29986 5.79735 9.96401 5.70206 10.6037 5.33579C11.2296 4.9775 11.8098 5.04564 12.3682 5.50135C13.3496 6.30204 14.3389 7.09262 15.332 7.87894C15.5062 8.01682 15.706 8.12968 15.9079 8.22445C16.5125 8.50714 17.1273 8.34317 17.7585 8.25053C17.071 6.55173 16.3887 4.86517 15.7007 3.16423ZM20.482 7.46049C20.4528 7.37797 20.4374 7.3274 20.4178 7.27895C19.6744 5.43694 18.9306 3.59492 18.1862 1.75344C18.0964 1.53198 18.047 1.51228 17.8265 1.6097C17.2947 1.84554 16.7628 2.08245 16.2315 2.31989C15.9972 2.42423 15.9865 2.45085 16.0859 2.69734C16.4328 3.55713 16.7803 4.41638 17.1283 5.27563C17.5231 6.25147 17.92 7.22678 18.3111 8.20422C18.3732 8.3602 18.4529 8.43899 18.6245 8.36286C19.1925 8.11052 19.7626 7.8619 20.3285 7.60583C20.3917 7.57708 20.4353 7.50627 20.4815 7.46209L20.482 7.46049ZM6.62572 2.78359C6.57684 2.72556 6.53911 2.6638 6.48598 2.62174C6.06677 2.28635 5.64224 1.95841 5.22515 1.62088C5.07957 1.50323 4.97968 1.51175 4.86651 1.6672C3.78687 3.144 2.70457 4.61815 1.61801 6.09016C1.50484 6.24348 1.52875 6.34357 1.67274 6.45484C2.08717 6.77426 2.49469 7.10273 2.90594 7.42695C3.08074 7.5643 3.14025 7.55578 3.27521 7.37265C4.36016 5.9001 5.44459 4.42702 6.52796 2.95288C6.56249 2.90603 6.5864 2.85226 6.62519 2.78412L6.62572 2.78359ZM5.50782 8.49968C5.37127 8.50235 5.15821 8.57155 5.01528 8.7483C4.6322 9.22158 4.25071 9.69752 3.89791 10.1937C3.65351 10.5376 3.75499 11.0205 4.08069 11.2851C4.41595 11.5582 4.91433 11.5582 5.19593 11.2292C5.59974 10.7569 5.99557 10.2714 6.33455 9.75183C6.69054 9.20614 6.25326 8.49809 5.50888 8.50022L5.50782 8.49968ZM8.09695 10.7761C8.05975 10.4205 7.84723 10.1224 7.51568 9.99725C7.21177 9.88279 6.8765 9.97063 6.65972 10.2416C6.32924 10.6558 6.0062 11.0758 5.68528 11.4975C5.38986 11.8856 5.43715 12.3525 5.79261 12.6272C6.13265 12.8902 6.60872 12.8215 6.9036 12.4589C7.22558 12.0634 7.55022 11.6694 7.85626 11.2616C7.96305 11.1195 8.01831 10.9385 8.09695 10.7756V10.7761ZM8.0215 13.7633C8.03159 13.7792 8.04169 13.7952 8.05178 13.8117C8.20534 13.7207 8.39608 13.6616 8.50553 13.5327C8.78448 13.2053 9.03739 12.854 9.28179 12.4994C9.4906 12.1965 9.41622 11.8068 9.13515 11.5928C8.85036 11.3761 8.46462 11.4107 8.22393 11.6934C7.95721 12.0064 7.70005 12.3275 7.44927 12.6533C7.27606 12.8779 7.25321 13.1324 7.39188 13.3821C7.52631 13.6243 7.73724 13.7606 8.0215 13.7633ZM10.8742 13.3959C10.8513 13.0983 10.676 12.847 10.4061 12.747C10.1261 12.6437 9.8264 12.7235 9.63937 12.9583C9.4906 13.1446 9.34183 13.331 9.20369 13.5253C8.97097 13.8532 9.04748 14.2701 9.37531 14.5065C9.7026 14.7428 10.1287 14.688 10.3614 14.3664C10.5086 14.1631 10.6425 13.9485 10.7658 13.7303C10.8221 13.6302 10.8391 13.5077 10.8742 13.3959Z" fill="url(#paint0_linear_3697_70442)" stroke="url(#paint1_linear_3697_70442)" stroke-width="0.3"/>
<defs>
<linearGradient id="paint0_linear_3697_70442" x1="7.94419" y1="12.205" x2="25.4216" y2="9.45398" gradientUnits="userSpaceOnUse">
<stop stop-color="#00B5F1"/>
<stop offset="1" stop-color="#00E0FF"/>
</linearGradient>
<linearGradient id="paint1_linear_3697_70442" x1="7.94419" y1="12.205" x2="25.4216" y2="9.45398" gradientUnits="userSpaceOnUse">
<stop stop-color="#00B5F1"/>
<stop offset="1" stop-color="#00E0FF"/>
</linearGradient>
</defs>
</svg>
