<svg width="40" height="42" viewBox="0 0 40 42" fill="none" xmlns="http://www.w3.org/2000/svg">
<g clip-path="url(#clip0_952_6726)">
<path d="M40 20.6558V26.3859C40 29.4516 38.2318 31.9591 36.0628 31.9591H34.884V33.923C34.8821 35.5382 34.2343 37.0868 33.0825 38.229C31.9308 39.3711 30.3692 40.0136 28.7404 40.0154H26.9457C26.8225 40.5037 26.5384 40.9373 26.1386 41.2473C25.7387 41.5574 25.2459 41.7262 24.7383 41.727H20.5486C19.9461 41.7249 19.3689 41.4863 18.9432 41.0633C18.5176 40.6403 18.2782 40.0674 18.2775 39.4699V38.5269C18.2795 37.9303 18.5195 37.3587 18.945 36.9369C19.3705 36.5151 19.947 36.2774 20.5486 36.2756H24.7383C25.2426 36.277 25.7322 36.4443 26.1304 36.7512C26.5286 37.0581 26.8129 37.4873 26.9388 37.9716H28.7335C29.817 37.9706 30.8558 37.5433 31.622 36.7835C32.3881 36.0237 32.819 34.9936 32.8201 33.9191V31.9591H30.9271C30.2856 31.9591 29.766 31.2236 29.766 30.3166V16.7251C29.766 15.8181 30.2856 15.0817 30.9271 15.0817H31.209V14.3364C31.2051 11.8099 30.1906 9.38813 28.3882 7.60251C26.5857 5.8169 24.1426 4.81334 21.5948 4.81205H18.5908C16.0441 4.81489 13.6025 5.81913 11.8013 7.60458C10.0001 9.39002 8.98644 11.8109 8.98254 14.3364V15.0778H9.08077C9.72224 15.0778 10.2409 15.8143 10.2409 16.7212V30.3127C10.2409 31.2197 9.72224 31.9552 9.08077 31.9552H3.93723C1.77608 31.9552 0 29.4477 0 26.382V20.6558C0 17.5902 1.76822 15.0817 3.93723 15.0817H4.40384V14.3364C4.40384 6.57919 10.7675 0.268555 18.5898 0.268555H21.5948C29.4153 0.268555 35.7799 6.57919 35.7799 14.3364V15.0778H36.0598C38.2279 15.0817 40 17.5902 40 20.6558Z" fill="url(#paint0_linear_952_6726)"/>
</g>
<defs>
<linearGradient id="paint0_linear_952_6726" x1="2.60771e-07" y1="20.9977" x2="40" y2="20.9977" gradientUnits="userSpaceOnUse">
<stop stop-color="#FF3B30"/>
<stop offset="1" stop-color="#FF5777"/>
</linearGradient>
<clipPath id="clip0_952_6726">
<rect width="40" height="41.4545" fill="white" transform="translate(0 0.272949)"/>
</clipPath>
</defs>
</svg>
