<svg width="22" height="22" viewBox="0 0 22 22" fill="none" xmlns="http://www.w3.org/2000/svg">
<path d="M11 5.54892V18.6106M3.66145 2.76033C5.69496 2.99012 8.42701 3.60829 10.3737 4.97241C10.7479 5.23458 11.2521 5.23458 11.6262 4.97241C13.5729 3.60829 16.305 2.99012 18.3385 2.76033C19.3449 2.64661 20.1666 3.48702 20.1666 4.52391V14.85C20.1666 15.8868 19.3449 16.7276 18.3385 16.8413C16.305 17.0711 13.5729 17.6893 11.6262 19.0534C11.2521 19.3155 10.7479 19.3155 10.3737 19.0534C8.42701 17.6893 5.69496 17.0711 3.66145 16.8413C2.65503 16.7276 1.83331 15.8868 1.83331 14.85V4.52391C1.83331 3.48702 2.65503 2.64661 3.66145 2.76033Z" stroke="url(#paint0_linear_1131_34922)" stroke-width="1.5" stroke-linecap="round"/>
<path d="M4 7.50586C5.5 7.5 7.44478 8.13054 8.5 8.5" stroke="#FF3B30" stroke-width="1.5" stroke-linecap="round"/>
<path d="M4.12817 10.5327C4.90489 10.5323 5.91306 10.8708 6.46013 11.0691" stroke="#FF3B30" stroke-width="1.5" stroke-linecap="round"/>
<defs>
<linearGradient id="paint0_linear_1131_34922" x1="8.19905" y1="15.785" x2="24.3688" y2="13.7794" gradientUnits="userSpaceOnUse">
<stop stop-color="#00B5F1"/>
<stop offset="1" stop-color="#00E0FF"/>
</linearGradient>
</defs>
</svg>
