<svg id="Layer_1" data-name="Layer 1" xmlns="http://www.w3.org/2000/svg" viewBox="0 0 274 49"><defs><style>.cls-1{isolation:isolate;}.cls-2{fill:#0e4741;}.cls-3{fill:#fff;}.cls-4{fill:#006cbb;}.cls-5{fill:#1a1818;}.cls-6{fill:#007b33;}</style></defs><title>logo-color-DaLieu</title><g class="cls-1"><path class="cls-2" d="M56.84,12.56V5.81h3.29a2.13,2.13,0,0,1,1.66.6,1.62,1.62,0,0,1,.41,1.12,1.51,1.51,0,0,1-.3,1,1.36,1.36,0,0,1-.52.38,1.56,1.56,0,0,1,.84.69,2.12,2.12,0,0,1,.07,1.71,1.89,1.89,0,0,1-.43.63,2,2,0,0,1-.69.45,4.69,4.69,0,0,1-1.45.17ZM58.2,7V8.44h1.65a1.27,1.27,0,0,0,.71-.17.66.66,0,0,0,.29-.58.6.6,0,0,0-.26-.56A1.49,1.49,0,0,0,59.81,7Zm0,2.62v1.8h1.73a1.22,1.22,0,0,0,.82-.24A1,1,0,0,0,61,10.4a.69.69,0,0,0-.29-.61,1.24,1.24,0,0,0-.72-.2Z"/><path class="cls-2" d="M68.68,5.81V7H65.1V8.43H68.4V9.61H65.1v1.75h3.74v1.2H63.71V5.81Zm-2-2,1.07,1.37H66.72l-.6-.77-.58.77H64.47l1.07-1.37Zm.07,10.43H65.56V13.11H66.8Z"/><path class="cls-2" d="M74.18,5.81h1.31v6.75H74.08L71.34,7.75l0,4.81H70V5.81h1.49l2.67,4.7Z"/><path class="cls-2" d="M80.93,9.54H78.3v3H76.89V5.81H78.3V8.37h2.63V5.81h1.41v6.75H80.93Z"/><path class="cls-2" d="M90.26,5.81h1.46l-2.29,6.75H88.1L85.82,5.81h1.51l1.45,5.11Z"/><path class="cls-2" d="M94,5.81v6.75H92.58V5.81Z"/><path class="cls-2" d="M100.2,5.81V7H96.63V8.43h3.29V9.61H96.63v1.75h3.74v1.2H95.24V5.81Zm-2-2,1.07,1.37H98.25l-.6-.77-.58.77H96l1.07-1.37Zm.07,10.43H97.09V13.11h1.24Z"/><path class="cls-2" d="M105.7,5.81H107v6.75h-1.41l-2.74-4.81,0,4.81h-1.32V5.81H103l2.67,4.7Z"/><path class="cls-2" d="M111,12.56V5.81h3a2.43,2.43,0,0,1,2.23,1.12A3.88,3.88,0,0,1,116.74,9a4.4,4.4,0,0,1-.56,2.3,2.44,2.44,0,0,1-2.24,1.23ZM112.39,7V11.4h1.37a1.28,1.28,0,0,0,1.19-.72,3.19,3.19,0,0,0,.33-1.56,2.42,2.42,0,0,0-.55-1.81,1.41,1.41,0,0,0-1-.33Z"/><path class="cls-2" d="M119.13,11.17l-.47,1.39h-1.49l2.4-6.75h1.64l2.37,6.75h-1.52l-.43-1.39Zm.38-1.17h1.73l-.84-2.67Z"/><path class="cls-2" d="M128.29,5.81v5.53h3.36v1.22h-4.77V5.81Z"/><path class="cls-2" d="M134,5.81v6.75h-1.41V5.81Z"/><path class="cls-2" d="M140.2,5.81V7h-3.57V8.43h3.29V9.61h-3.29v1.75h3.74v1.2h-5.13V5.81Zm-.79-3.64a1.75,1.75,0,0,1-.37.92.89.89,0,0,1-.7.32,1.41,1.41,0,0,1-.33,0l-.34-.09-.17-.06-.15,0-.21-.06-.12,0a.27.27,0,0,0-.14,0l-.1.08a.43.43,0,0,0,0,.11,1.26,1.26,0,0,0,0,.17h-.76l0-.14,0-.12,0-.09,0-.08a1.23,1.23,0,0,1,.09-.21l.13-.22a1.08,1.08,0,0,1,.36-.3,1.17,1.17,0,0,1,.5-.12.9.9,0,0,1,.32,0,1.81,1.81,0,0,1,.3.13h0l.26.1a1,1,0,0,0,.28,0,.28.28,0,0,0,.24-.1.74.74,0,0,0,.12-.25Zm-1.16,1.69,1.07,1.37h-1.07l-.6-.77-.58.77H136l1.07-1.37Z"/><path class="cls-2" d="M146.95,5.81v4.38a2.42,2.42,0,0,1-.74,1.95,3,3,0,0,1-2,.61,3.48,3.48,0,0,1-1.07-.16,2.39,2.39,0,0,1-1.07-.67,2.42,2.42,0,0,1-.53-1.64V5.81h1.45v4.38a1.39,1.39,0,0,0,.34,1,1.16,1.16,0,0,0,.87.34,1.4,1.4,0,0,0,1-.33,1.31,1.31,0,0,0,.33-1V5.81Z"/><path class="cls-2" d="M153.58,7v5.56h-1.41V7h-2V5.81h5.49V7Z"/><path class="cls-2" d="M160.53,9.54H157.9v3h-1.41V5.81h1.41V8.37h2.63V5.81h1.41v6.75h-1.41Z"/><path class="cls-2" d="M164.66,11.17l-.47,1.39H162.7l2.4-6.75h1.64l2.37,6.75h-1.52l-.43-1.39Zm1.14-5.93L164.4,3.86h1.45l.89,1.37ZM165,10h1.73l-.84-2.67Z"/><path class="cls-2" d="M174,5.81h1.31v6.75h-1.41l-2.74-4.81,0,4.81h-1.32V5.81h1.49l2.67,4.7Z"/><path class="cls-2" d="M180.73,9.54H178.1v3h-1.41V5.81h1.41V8.37h2.63V5.81h1.41v6.75h-1.41Z"/><path class="cls-2" d="M187.55,10.12v2.44h-1.41V5.81h3.08a2.05,2.05,0,0,1,1.55.58A2.18,2.18,0,0,1,191.33,8a2.26,2.26,0,0,1-.39,1.29,2,2,0,0,1-1.77.85Zm0-1.17h1.32a1,1,0,0,0,.92-.42,1.27,1.27,0,0,0,.13-.64.82.82,0,0,0-.29-.7,1.61,1.61,0,0,0-.95-.22h-1.13Z"/><path class="cls-2" d="M196.49,9.54h-2.63v3h-1.41V5.81h1.41V8.37h2.63V5.81h1.41v6.75h-1.41Z"/><path class="cls-2" d="M199,9.18a3.88,3.88,0,0,1,.64-2.32,2.78,2.78,0,0,1,1.36-1,3.65,3.65,0,0,1,1.25-.22,3.57,3.57,0,0,1,1.23.22,2.85,2.85,0,0,1,1.36,1,3.89,3.89,0,0,1,.64,2.33,3.93,3.93,0,0,1-.64,2.33,2.86,2.86,0,0,1-1.36,1,3.54,3.54,0,0,1-1.23.22,3.61,3.61,0,0,1-1.24-.22,2.89,2.89,0,0,1-1.36-1A3.94,3.94,0,0,1,199,9.18Zm1.41,0a2.56,2.56,0,0,0,.63,1.9,1.67,1.67,0,0,0,1.22.47,1.64,1.64,0,0,0,1.19-.47,2.56,2.56,0,0,0,.63-1.9,2.52,2.52,0,0,0-.63-1.88,1.65,1.65,0,0,0-1.19-.47,1.68,1.68,0,0,0-1.21.47A2.52,2.52,0,0,0,200.45,9.18Zm2.44-5.31L204,5.24h-1.07l-.6-.77-.58.77h-1.07l1.07-1.37Zm2.93-1.08-1.39,1.37h-.94l.89-1.37Z"/><path class="cls-2" d="M212.79,9.54h-2.63v3h-1.41V5.81h1.41V8.37h2.63V5.81h1.41v6.75h-1.41Z"/><path class="cls-2" d="M215.34,9.18A3.88,3.88,0,0,1,216,6.86a2.78,2.78,0,0,1,1.36-1,3.65,3.65,0,0,1,1.25-.22,3.57,3.57,0,0,1,1.23.22,2.85,2.85,0,0,1,1.36,1,3.89,3.89,0,0,1,.64,2.33,3.93,3.93,0,0,1-.64,2.33,2.86,2.86,0,0,1-1.36,1,3.54,3.54,0,0,1-1.23.22,3.61,3.61,0,0,1-1.24-.22,2.89,2.89,0,0,1-1.36-1A3.94,3.94,0,0,1,215.34,9.18Zm1.41,0a2.56,2.56,0,0,0,.63,1.9,1.67,1.67,0,0,0,1.22.47,1.64,1.64,0,0,0,1.19-.47,2.56,2.56,0,0,0,.63-1.9,2.52,2.52,0,0,0-.63-1.88,1.65,1.65,0,0,0-1.19-.47,1.68,1.68,0,0,0-1.21.47A2.52,2.52,0,0,0,216.75,9.18Zm2.44-5.31,1.07,1.37h-1.07l-.6-.77-.58.77h-1.07L218,3.86Zm1,.29-1.39-1.37h1.45l.89,1.37Z"/><path class="cls-2" d="M230.81,8H229.4a1.9,1.9,0,0,0-.35-.73,1.43,1.43,0,0,0-1.14-.44,1.44,1.44,0,0,0-1.09.46,2.7,2.7,0,0,0-.58,1.91,3,3,0,0,0,.38,1.6,1.44,1.44,0,0,0,1.29.7,1.46,1.46,0,0,0,1-.33,1.58,1.58,0,0,0,.51-.94h1.41a3.17,3.17,0,0,1-.93,1.79,3.17,3.17,0,0,1-4.21-.2,3.75,3.75,0,0,1-.88-2.65,3.74,3.74,0,0,1,.9-2.67,2.88,2.88,0,0,1,2.2-.9,3,3,0,0,1,2.22.82A2.16,2.16,0,0,1,230.81,8Z"/><path class="cls-2" d="M236,9.54h-2.63v3h-1.41V5.81h1.41V8.37H236V5.81h1.41v6.75H236Z"/><path class="cls-2" d="M241,3.87l-1.39,1.37h-.94l.89-1.37Zm-.9,1.95v6.75h-1.41V5.81Z"/><path class="cls-2" d="M250.42,5.81v6.75H249.1V6.92l-1.28,5.64h-1.39l-1.22-5.64,0,5.64h-1.32V5.81h2.05l1.22,5.32,1.22-5.32Z"/><path class="cls-2" d="M253.17,5.81v6.75h-1.41V5.81Z"/><path class="cls-2" d="M258.54,5.81h1.31v6.75h-1.41L255.7,7.75l0,4.81h-1.32V5.81h1.49l2.67,4.7Z"/><path class="cls-2" d="M265.29,9.54h-2.63v3h-1.41V5.81h1.41V8.37h2.63V5.81h1.41v6.75h-1.41Z"/></g><g class="cls-1"><g class="cls-1"><path class="cls-2" d="M56.81,27.45V20.79h1.35v2.62h2.64V20.79h1.35v6.66H60.79V24.54H58.15v2.91Z"/><path class="cls-2" d="M67.79,25l1.3.41a2.92,2.92,0,0,1-1,1.62,3.14,3.14,0,0,1-4-.38,3.47,3.47,0,0,1-.85-2.48,3.64,3.64,0,0,1,.86-2.58,2.94,2.94,0,0,1,2.26-.92,2.77,2.77,0,0,1,2,.72,2.63,2.63,0,0,1,.68,1.23l-1.33.32a1.38,1.38,0,0,0-1.4-1.12,1.51,1.51,0,0,0-1.2.53,2.6,2.6,0,0,0-.46,1.72,2.79,2.79,0,0,0,.45,1.8,1.48,1.48,0,0,0,1.18.54,1.34,1.34,0,0,0,.92-.34A2,2,0,0,0,67.79,25Z"/><path class="cls-2" d="M70.23,27.45V20.79h2l1.21,4.54,1.2-4.54h2v6.66H75.41V22.21l-1.32,5.24H72.8l-1.32-5.24v5.24Z"/><path class="cls-2" d="M82.26,25l1.3.41a2.93,2.93,0,0,1-1,1.62,3.14,3.14,0,0,1-4-.38,3.47,3.47,0,0,1-.85-2.48,3.64,3.64,0,0,1,.86-2.58,2.94,2.94,0,0,1,2.26-.92,2.77,2.77,0,0,1,2,.72,2.63,2.63,0,0,1,.68,1.23l-1.33.32a1.38,1.38,0,0,0-1.4-1.12,1.51,1.51,0,0,0-1.2.53,2.6,2.6,0,0,0-.46,1.72,2.79,2.79,0,0,0,.45,1.8,1.48,1.48,0,0,0,1.18.54,1.35,1.35,0,0,0,.92-.34A2,2,0,0,0,82.26,25Z"/><path class="cls-2" d="M87.31,27.45V20.79h1.35v2.62h2.64V20.79h1.35v6.66H91.29V24.54H88.65v2.91Z"/><path class="cls-2" d="M93.75,24.16a4.24,4.24,0,0,1,.3-1.71,3.13,3.13,0,0,1,.62-.91,2.6,2.6,0,0,1,.86-.6A3.65,3.65,0,0,1,97,20.68a3.13,3.13,0,0,1,2.36.91,3.5,3.5,0,0,1,.88,2.54,3.49,3.49,0,0,1-.88,2.52,3.5,3.5,0,0,1-4.71,0A3.44,3.44,0,0,1,93.75,24.16Zm1.39,0a2.5,2.5,0,0,0,.52,1.72,1.8,1.8,0,0,0,2.65,0,2.55,2.55,0,0,0,.52-1.74,2.51,2.51,0,0,0-.5-1.71,1.86,1.86,0,0,0-2.67,0A2.52,2.52,0,0,0,95.14,24.12Z"/><path class="cls-2" d="M100.92,25.28l1.31-.13a1.6,1.6,0,0,0,.48,1,1.45,1.45,0,0,0,1,.31,1.5,1.5,0,0,0,1-.28.82.82,0,0,0,.33-.64.61.61,0,0,0-.14-.4,1.11,1.11,0,0,0-.48-.29q-.24-.08-1.08-.29a3.65,3.65,0,0,1-1.52-.66,1.73,1.73,0,0,1-.61-1.34,1.71,1.71,0,0,1,.29-1,1.8,1.8,0,0,1,.83-.67,3.33,3.33,0,0,1,1.31-.23,2.81,2.81,0,0,1,1.89.55,1.94,1.94,0,0,1,.67,1.47l-1.35.06a1.14,1.14,0,0,0-.37-.74,1.36,1.36,0,0,0-.85-.23,1.54,1.54,0,0,0-.92.24.48.48,0,0,0-.21.41.51.51,0,0,0,.2.4,3.53,3.53,0,0,0,1.24.45,6.53,6.53,0,0,1,1.45.48,1.87,1.87,0,0,1,.74.68,2.1,2.1,0,0,1-.05,2.13,1.9,1.9,0,0,1-.9.74,3.77,3.77,0,0,1-1.45.24,2.88,2.88,0,0,1-1.94-.58A2.54,2.54,0,0,1,100.92,25.28Z"/><path class="cls-2" d="M107.47,27.45V20.79h2.16a7.82,7.82,0,0,1,1.6.1,1.75,1.75,0,0,1,1,.65,2.07,2.07,0,0,1,.39,1.3,2.17,2.17,0,0,1-.22,1,1.82,1.82,0,0,1-.57.66,2,2,0,0,1-.7.32,7.64,7.64,0,0,1-1.39.1h-.88v2.51Zm1.34-5.53v1.89h.74a3.48,3.48,0,0,0,1.06-.1.88.88,0,0,0,.42-.33.89.89,0,0,0,.15-.52.86.86,0,0,0-.21-.6.93.93,0,0,0-.54-.3,6.46,6.46,0,0,0-1,0Z"/><path class="cls-2" d="M113.64,27.45V20.79H115v6.66Z"/><path class="cls-2" d="M117.76,27.45V21.92h-2V20.79h5.29v1.13h-2v5.53Z"/><path class="cls-2" d="M127.26,27.45H125.8l-.58-1.51h-2.66L122,27.45h-1.43l2.59-6.66h1.42Zm-2.48-2.64-.92-2.47-.9,2.47Z"/><path class="cls-2" d="M128,27.45V20.84h1.34v5.48h3.35v1.12Z"/><path class="cls-2" d="M135.78,25a2.61,2.61,0,0,1,.31-1.23,2.15,2.15,0,0,1,.89-.91,2.64,2.64,0,0,1,1.28-.31,2.41,2.41,0,0,1,1.79.71,2.46,2.46,0,0,1,.7,1.8,2.49,2.49,0,0,1-.71,1.82,2.39,2.39,0,0,1-1.78.72,2.81,2.81,0,0,1-1.27-.3,2.06,2.06,0,0,1-.92-.88A2.93,2.93,0,0,1,135.78,25Zm1.31.07a1.6,1.6,0,0,0,.34,1.1,1.12,1.12,0,0,0,1.68,0,1.63,1.63,0,0,0,.34-1.11,1.59,1.59,0,0,0-.34-1.09,1.11,1.11,0,0,0-1.68,0A1.6,1.6,0,0,0,137.09,25Z"/><path class="cls-2" d="M141.2,22.63h.71v-.36a2.43,2.43,0,0,1,.13-.91,1,1,0,0,1,.48-.49,1.83,1.83,0,0,1,.88-.19,3.57,3.57,0,0,1,1.07.16l-.17.89a2.5,2.5,0,0,0-.59-.07.52.52,0,0,0-.4.13.75.75,0,0,0-.12.5v.34h1v1h-1v3.82h-1.28V23.63h-.71Z"/><path class="cls-2" d="M147.45,20.79h2.46a4.79,4.79,0,0,1,1.27.13,2.23,2.23,0,0,1,1,.61,2.92,2.92,0,0,1,.64,1.08,4.92,4.92,0,0,1,.22,1.57,4.37,4.37,0,0,1-.2,1.42,2.94,2.94,0,0,1-.71,1.18,2.37,2.37,0,0,1-.94.53,4.08,4.08,0,0,1-1.19.14h-2.53Zm1.34,1.13v4.41h1a3.7,3.7,0,0,0,.81-.06,1.24,1.24,0,0,0,.54-.28,1.41,1.41,0,0,0,.35-.64,4.34,4.34,0,0,0,.14-1.22,4,4,0,0,0-.14-1.19,1.52,1.52,0,0,0-.38-.65,1.28,1.28,0,0,0-.62-.31,6.15,6.15,0,0,0-1.1-.06Z"/><path class="cls-2" d="M154.17,27.45V20.79h4.94v1.13h-3.59v1.48h3.34v1.12h-3.34v1.81h3.72v1.12Z"/><path class="cls-2" d="M160.38,27.45V20.79h2.83a4.84,4.84,0,0,1,1.55.18,1.53,1.53,0,0,1,.77.64,1.92,1.92,0,0,1,.29,1,1.78,1.78,0,0,1-.44,1.24,2.12,2.12,0,0,1-1.32.62,3.13,3.13,0,0,1,.72.56,7.57,7.57,0,0,1,.77,1.08l.81,1.3h-1.61l-1-1.45a9.44,9.44,0,0,0-.71-1,1,1,0,0,0-.4-.28,2.23,2.23,0,0,0-.68-.07h-.27v2.78Zm1.34-3.84h1a5.12,5.12,0,0,0,1.21-.08.72.72,0,0,0,.38-.28.87.87,0,0,0,.14-.5.8.8,0,0,0-.18-.54.82.82,0,0,0-.51-.26q-.16,0-1,0h-1Z"/><path class="cls-2" d="M167.08,27.45V20.79h2l1.21,4.54,1.2-4.54h2v6.66h-1.25V22.21l-1.32,5.24h-1.29l-1.32-5.24v5.24Z"/><path class="cls-2" d="M180.86,27.45h-1.46l-.58-1.51h-2.66l-.55,1.51h-1.43l2.59-6.66h1.42Zm-2.48-2.64-.92-2.47-.9,2.47Z"/><path class="cls-2" d="M182.38,27.45V21.92h-2V20.79h5.29v1.13h-2v5.53Z"/><path class="cls-2" d="M186.12,24.16a4.24,4.24,0,0,1,.3-1.71,3.14,3.14,0,0,1,.62-.91,2.59,2.59,0,0,1,.86-.6,3.65,3.65,0,0,1,1.44-.26,3.13,3.13,0,0,1,2.36.91,3.5,3.5,0,0,1,.88,2.54,3.49,3.49,0,0,1-.88,2.52,3.5,3.5,0,0,1-4.71,0A3.44,3.44,0,0,1,186.12,24.16Zm1.39,0a2.5,2.5,0,0,0,.52,1.72,1.8,1.8,0,0,0,2.65,0,2.55,2.55,0,0,0,.52-1.74,2.5,2.5,0,0,0-.5-1.71,1.86,1.86,0,0,0-2.67,0A2.52,2.52,0,0,0,187.51,24.12Z"/><path class="cls-2" d="M197.92,27.45l-2.38-6.66H197l1.69,4.93,1.63-4.93h1.43l-2.39,6.66Z"/><path class="cls-2" d="M202.43,27.45V20.79h4.94v1.13h-3.59v1.48h3.34v1.12h-3.34v1.81h3.72v1.12Z"/><path class="cls-2" d="M208.65,27.45V20.79H210l2.73,4.45V20.79h1.25v6.66h-1.35l-2.69-4.34v4.34Z"/><path class="cls-2" d="M215.36,27.45V20.79h4.94v1.13H216.7v1.48H220v1.12H216.7v1.81h3.72v1.12Z"/><path class="cls-2" d="M221.57,27.45V20.79h2.83A4.84,4.84,0,0,1,226,21a1.53,1.53,0,0,1,.77.64,1.92,1.92,0,0,1,.29,1,1.78,1.78,0,0,1-.44,1.24,2.12,2.12,0,0,1-1.32.62,3.13,3.13,0,0,1,.72.56,7.56,7.56,0,0,1,.77,1.08l.81,1.3h-1.61L225,26a9.42,9.42,0,0,0-.71-1,1,1,0,0,0-.4-.28,2.23,2.23,0,0,0-.68-.07h-.27v2.78Zm1.34-3.84h1a5.12,5.12,0,0,0,1.21-.08.72.72,0,0,0,.38-.28.87.87,0,0,0,.14-.5.8.8,0,0,0-.18-.54.82.82,0,0,0-.51-.26q-.16,0-1,0h-1Z"/><path class="cls-2" d="M228.28,27.45V20.79h4.94v1.13h-3.59v1.48H233v1.12h-3.34v1.81h3.72v1.12Z"/><path class="cls-2" d="M234.22,24.16a4.23,4.23,0,0,1,.3-1.71,3.13,3.13,0,0,1,.62-.91,2.59,2.59,0,0,1,.86-.6,3.65,3.65,0,0,1,1.44-.26,3.13,3.13,0,0,1,2.36.91,3.5,3.5,0,0,1,.88,2.54,3.49,3.49,0,0,1-.88,2.52,3.5,3.5,0,0,1-4.71,0A3.44,3.44,0,0,1,234.22,24.16Zm1.39,0a2.5,2.5,0,0,0,.52,1.72,1.8,1.8,0,0,0,2.65,0,2.55,2.55,0,0,0,.52-1.74,2.5,2.5,0,0,0-.5-1.71,1.86,1.86,0,0,0-2.67,0A2.52,2.52,0,0,0,235.6,24.12Z"/><path class="cls-2" d="M241.77,27.45V20.84h1.34v5.48h3.34v1.12Z"/><path class="cls-2" d="M247.14,24.16a4.24,4.24,0,0,1,.3-1.71,3.14,3.14,0,0,1,.62-.91,2.59,2.59,0,0,1,.86-.6,3.65,3.65,0,0,1,1.44-.26,3.13,3.13,0,0,1,2.36.91,3.5,3.5,0,0,1,.88,2.54,3.49,3.49,0,0,1-.88,2.52,3.5,3.5,0,0,1-4.71,0A3.44,3.44,0,0,1,247.14,24.16Zm1.39,0a2.5,2.5,0,0,0,.52,1.72,1.8,1.8,0,0,0,2.65,0,2.55,2.55,0,0,0,.52-1.74,2.5,2.5,0,0,0-.5-1.71,1.86,1.86,0,0,0-2.67,0A2.52,2.52,0,0,0,248.53,24.12Z"/><path class="cls-2" d="M257.75,25V23.88h2.9v2.65a3.65,3.65,0,0,1-1.22.72,4.46,4.46,0,0,1-1.62.31,3.64,3.64,0,0,1-1.82-.44,2.79,2.79,0,0,1-1.17-1.25,4.05,4.05,0,0,1-.39-1.77,3.83,3.83,0,0,1,.44-1.85A2.93,2.93,0,0,1,256.13,21a3.45,3.45,0,0,1,1.59-.33,3.18,3.18,0,0,1,1.94.52,2.35,2.35,0,0,1,.9,1.44l-1.34.25a1.41,1.41,0,0,0-.53-.77,1.6,1.6,0,0,0-1-.28,1.82,1.82,0,0,0-1.4.56,2.35,2.35,0,0,0-.52,1.66,2.61,2.61,0,0,0,.53,1.78,1.76,1.76,0,0,0,1.38.59,2.34,2.34,0,0,0,.85-.16,2.94,2.94,0,0,0,.73-.4V25Z"/><path class="cls-2" d="M263.64,27.45v-2.8l-2.44-3.86h1.58l1.57,2.64,1.54-2.64h1.55L265,24.66v2.79Z"/></g></g><g class="cls-1"><g class="cls-1"><path class="cls-2" d="M56.85,42.34V35.68h2.29a5.58,5.58,0,0,1,1.19.09,2.26,2.26,0,0,1,1,.48,2.71,2.71,0,0,1,.79,1.14A4.47,4.47,0,0,1,62.35,39a4.65,4.65,0,0,1-.18,1.34,3.26,3.26,0,0,1-.45,1,2.44,2.44,0,0,1-.61.6,2.49,2.49,0,0,1-.8.33,4.57,4.57,0,0,1-1.07.11Zm.88-.79h1.42a3.44,3.44,0,0,0,1-.12,1.47,1.47,0,0,0,.6-.34,2.1,2.1,0,0,0,.49-.84A4.12,4.12,0,0,0,61.44,39a3.1,3.1,0,0,0-.34-1.61,1.73,1.73,0,0,0-.83-.75,3.45,3.45,0,0,0-1.14-.14h-1.4Z"/><path class="cls-2" d="M63.71,42.34l2.56-6.66h.95l2.73,6.66h-1l-.78-2H65.38l-.73,2Zm1.92-2.74h2.26l-.7-1.84q-.32-.84-.47-1.38a8.51,8.51,0,0,1-.36,1.27Z"/><path class="cls-2" d="M74.47,42.34v-3h-.73v-.6h.73v-3h2.3a5.55,5.55,0,0,1,1.18.09,2.26,2.26,0,0,1,1,.48,2.71,2.71,0,0,1,.79,1.14A4.47,4.47,0,0,1,80,39a4.34,4.34,0,0,1-.32,1.75,2.57,2.57,0,0,1-.77,1.07,2.85,2.85,0,0,1-1,.47,4.51,4.51,0,0,1-1,.08Zm.88-.79h1.42a3.43,3.43,0,0,0,1-.12,1.46,1.46,0,0,0,.59-.34,2.13,2.13,0,0,0,.49-.84A4.07,4.07,0,0,0,79.07,39a3.66,3.66,0,0,0-.17-1.25,2.08,2.08,0,0,0-.46-.75,1.55,1.55,0,0,0-.63-.39,3.81,3.81,0,0,0-1.06-.11h-1.4v2.24h1.84v.6H75.35Z"/><path class="cls-2" d="M82.08,42.34V35.68H86.9v.79H83v2h3.69v.78H83v2.27h4.09v.79Zm2,1.48v-.93H85v.93Z"/><path class="cls-2" d="M89.15,42.34V35.68h2.51a6,6,0,0,1,1,.06,2,2,0,0,1,.82.31,1.64,1.64,0,0,1,.53.64A2.17,2.17,0,0,1,93.69,39a2.59,2.59,0,0,1-2,.59H90v2.71ZM90,38.85h1.72A1.83,1.83,0,0,0,93,38.53a1.13,1.13,0,0,0,.36-.9,1.2,1.2,0,0,0-.21-.71,1,1,0,0,0-.56-.39,3.8,3.8,0,0,0-.82-.06H90Z"/><path class="cls-2" d="M99.52,42.34V35.68h2.29a5.58,5.58,0,0,1,1.19.09,2.26,2.26,0,0,1,1,.48,2.71,2.71,0,0,1,.79,1.14A4.47,4.47,0,0,1,105,39a4.65,4.65,0,0,1-.18,1.34,3.26,3.26,0,0,1-.45,1,2.44,2.44,0,0,1-.61.6,2.49,2.49,0,0,1-.8.33,4.57,4.57,0,0,1-1.07.11Zm.88-.79h1.42a3.44,3.44,0,0,0,1-.12,1.47,1.47,0,0,0,.6-.34,2.1,2.1,0,0,0,.49-.84,4.12,4.12,0,0,0,.17-1.28,3.1,3.1,0,0,0-.34-1.61,1.73,1.73,0,0,0-.83-.75,3.45,3.45,0,0,0-1.14-.14h-1.4Z"/><path class="cls-2" d="M106.39,42.34l2.56-6.66h.95l2.73,6.66h-1l-.78-2h-2.79l-.73,2Zm1.92-2.74h2.26l-.7-1.84q-.32-.84-.47-1.38a8.5,8.5,0,0,1-.36,1.27Z"/><path class="cls-2" d="M117.11,42.34V35.68H118V39l3.31-3.3h1.2l-2.79,2.7,2.92,4h-1.16L119.08,39,118,40v2.31Z"/><path class="cls-2" d="M124.25,42.34V35.68h.88v2.74h3.46V35.68h.88v6.66h-.88V39.2h-3.46v3.14Z"/><path class="cls-2" d="M138,39a3.84,3.84,0,0,1-.69,2.31,3.3,3.3,0,0,1-5.13,0,3.87,3.87,0,0,1-.7-2.32,3.81,3.81,0,0,1,.69-2.29,3.3,3.3,0,0,1,5.12,0A3.82,3.82,0,0,1,138,39Zm-.93,0A3,3,0,0,0,136.5,37a2.11,2.11,0,0,0-1.71-.77,2.09,2.09,0,0,0-1.69.76,3.37,3.37,0,0,0,0,3.92,2.29,2.29,0,0,0,3.4,0A3,3,0,0,0,137.12,39Zm-2.05-3.79h-.53a1.37,1.37,0,0,1,.07-.49.86.86,0,0,1,.34-.4.52.52,0,0,0,.27-.42.38.38,0,0,0-.12-.32.44.44,0,0,0-.28-.1.39.39,0,0,0-.35.14.59.59,0,0,0-.1.34h-.6a.92.92,0,0,1,.33-.76,1,1,0,0,1,.68-.22,1.38,1.38,0,0,1,.63.14.79.79,0,0,1,.45.75.7.7,0,0,1-.12.41,1.63,1.63,0,0,1-.39.36A.63.63,0,0,0,135.06,35.21Z"/><path class="cls-2" d="M139.86,42.34V35.68h4.82v.79h-3.93v2h3.68v.78h-3.68v2.27h4.09v.79Z"/><path class="cls-2" d="M150,40.34v-.82h2.51v.82Z"/><path class="cls-2" d="M157.52,40.2l.83-.07a1.84,1.84,0,0,0,.27.82,1.5,1.5,0,0,0,.67.52,2.54,2.54,0,0,0,1,.2,2.43,2.43,0,0,0,.89-.15,1.24,1.24,0,0,0,.58-.41,1,1,0,0,0,.19-.57.87.87,0,0,0-.18-.55,1.35,1.35,0,0,0-.6-.39,12,12,0,0,0-1.19-.33,6,6,0,0,1-1.29-.42,1.8,1.8,0,0,1-.71-.62,1.52,1.52,0,0,1-.23-.83,1.69,1.69,0,0,1,.29-.94,1.77,1.77,0,0,1,.84-.67,3.17,3.17,0,0,1,1.22-.23,3.33,3.33,0,0,1,1.31.24,1.87,1.87,0,0,1,.87.7,2,2,0,0,1,.33,1l-.85.06a1.36,1.36,0,0,0-.46-1,1.8,1.8,0,0,0-1.16-.32,1.87,1.87,0,0,0-1.17.29.88.88,0,0,0-.37.71.75.75,0,0,0,.26.59,3.49,3.49,0,0,0,1.33.48,8.8,8.8,0,0,1,1.47.42,2,2,0,0,1,.86.68,1.65,1.65,0,0,1,.28.95,1.81,1.81,0,0,1-.3,1,2,2,0,0,1-.87.73,3.06,3.06,0,0,1-1.28.26,3.84,3.84,0,0,1-1.52-.26,2.11,2.11,0,0,1-1-.79A2.24,2.24,0,0,1,157.52,40.2Z"/><path class="cls-2" d="M171.13,39a3.84,3.84,0,0,1-.69,2.31,3.3,3.3,0,0,1-5.13,0,3.87,3.87,0,0,1-.7-2.32,3.81,3.81,0,0,1,.69-2.29,3.3,3.3,0,0,1,5.12,0A3.82,3.82,0,0,1,171.13,39Zm-.93,0a3,3,0,0,0-.61-1.95,2.11,2.11,0,0,0-1.71-.77,2.09,2.09,0,0,0-1.69.76,3.37,3.37,0,0,0,0,3.92,2.29,2.29,0,0,0,3.4,0A3,3,0,0,0,170.2,39Zm-2.33-4.88-.61.87h-.75l.93-1.32h.85l.93,1.32h-.75Zm2.88-1.51-1.21,1.32h-.61l.82-1.32Z"/><path class="cls-2" d="M172.92,42.34V35.68h.9l3.5,5.23V35.68h.84v6.66h-.9l-3.5-5.23v5.23Z"/><path class="cls-2" d="M183.64,39.73v-.78h2.82v2.47a5,5,0,0,1-1.34.78,4,4,0,0,1-1.42.26,3.78,3.78,0,0,1-1.78-.42,2.78,2.78,0,0,1-1.21-1.22A3.83,3.83,0,0,1,180.3,39a4.12,4.12,0,0,1,.41-1.82A2.7,2.7,0,0,1,181.88,36a3.67,3.67,0,0,1,1.76-.41,3.47,3.47,0,0,1,1.31.23,2.17,2.17,0,0,1,.92.65,2.9,2.9,0,0,1,.5,1.09l-.79.22a2.44,2.44,0,0,0-.37-.8,1.53,1.53,0,0,0-.64-.47,2.32,2.32,0,0,0-.92-.17,2.7,2.7,0,0,0-1,.18,2,2,0,0,0-.71.48,2.3,2.3,0,0,0-.42.66,3.5,3.5,0,0,0-.25,1.34,3.25,3.25,0,0,0,.31,1.49,2,2,0,0,0,.89.89,2.76,2.76,0,0,0,1.25.29,3,3,0,0,0,1.12-.22,2.9,2.9,0,0,0,.83-.47V39.73Z"/><path class="cls-2" d="M193.62,42.34V36.47h-2.2v-.79h5.28v.79h-2.2v5.88Z"/><path class="cls-2" d="M198.5,42.34V35.68h3a3.94,3.94,0,0,1,1.35.18,1.49,1.49,0,0,1,.74.63,1.9,1.9,0,0,1,.28,1,1.68,1.68,0,0,1-.46,1.2,2.33,2.33,0,0,1-1.42.62,2.27,2.27,0,0,1,.53.33,4.54,4.54,0,0,1,.73.89l1.16,1.81h-1.11L202.38,41q-.39-.6-.64-.92a2,2,0,0,0-.45-.45,1.34,1.34,0,0,0-.4-.18,2.72,2.72,0,0,0-.49,0h-1v3Zm.88-3.72h1.89a2.82,2.82,0,0,0,.95-.12,1,1,0,0,0,.52-.4,1.08,1.08,0,0,0,.18-.6,1,1,0,0,0-.34-.78,1.61,1.61,0,0,0-1.08-.3h-2.11Z"/><path class="cls-2" d="M211.1,41.54v.8h-4.93V35.66H211v.8h-4v2h3.65v.8h-3.65v2.24Zm-2.29-6.33h-.53a1.4,1.4,0,0,1,.07-.49.86.86,0,0,1,.34-.4.52.52,0,0,0,.27-.42.38.38,0,0,0-.12-.32.44.44,0,0,0-.28-.1.39.39,0,0,0-.35.14.59.59,0,0,0-.1.34h-.6a.92.92,0,0,1,.33-.76,1,1,0,0,1,.68-.22,1.37,1.37,0,0,1,.63.14.79.79,0,0,1,.45.75.7.7,0,0,1-.12.41,1.61,1.61,0,0,1-.39.36A.63.63,0,0,0,208.81,35.21Z"/><path class="cls-2" d="M216.72,40.2l.83-.07a1.84,1.84,0,0,0,.27.82,1.5,1.5,0,0,0,.67.52,2.54,2.54,0,0,0,1,.2,2.43,2.43,0,0,0,.89-.15,1.24,1.24,0,0,0,.58-.41,1,1,0,0,0,.19-.57A.87.87,0,0,0,221,40a1.35,1.35,0,0,0-.6-.39,12,12,0,0,0-1.19-.33,6,6,0,0,1-1.29-.42,1.8,1.8,0,0,1-.71-.62,1.52,1.52,0,0,1-.23-.83,1.69,1.69,0,0,1,.29-.94,1.77,1.77,0,0,1,.84-.67,3.17,3.17,0,0,1,1.22-.23,3.33,3.33,0,0,1,1.31.24,1.87,1.87,0,0,1,.87.7,2,2,0,0,1,.33,1l-.85.06a1.36,1.36,0,0,0-.46-1,1.8,1.8,0,0,0-1.16-.32,1.87,1.87,0,0,0-1.17.29.88.88,0,0,0-.37.71.75.75,0,0,0,.26.59,3.49,3.49,0,0,0,1.33.48,8.79,8.79,0,0,1,1.47.42,2,2,0,0,1,.86.68,1.65,1.65,0,0,1,.28.95,1.81,1.81,0,0,1-.3,1,2,2,0,0,1-.87.73,3.06,3.06,0,0,1-1.28.26,3.84,3.84,0,0,1-1.52-.26,2.11,2.11,0,0,1-1-.79A2.24,2.24,0,0,1,216.72,40.2Z"/><path class="cls-2" d="M230.33,39a3.84,3.84,0,0,1-.69,2.31,3.3,3.3,0,0,1-5.13,0,3.87,3.87,0,0,1-.7-2.32,3.81,3.81,0,0,1,.69-2.29,3.3,3.3,0,0,1,5.12,0A3.82,3.82,0,0,1,230.33,39Zm-.93,0a3,3,0,0,0-.61-1.95,2.11,2.11,0,0,0-1.71-.77,2.09,2.09,0,0,0-1.69.76,3.37,3.37,0,0,0,0,3.92,2.29,2.29,0,0,0,3.4,0A3,3,0,0,0,229.4,39Zm-2.33-4.88-.61.87h-.75l.93-1.32h.85l.93,1.32h-.75ZM230,32.61l-1.21,1.32h-.61l.82-1.32Z"/><path class="cls-2" d="M232.12,42.34V35.68h.9l3.5,5.23V35.68h.84v6.66h-.9L233,37.11v5.23Z"/><path class="cls-2" d="M242.84,39.73v-.78h2.82v2.47a5,5,0,0,1-1.34.78,4,4,0,0,1-1.42.26,3.78,3.78,0,0,1-1.78-.42,2.78,2.78,0,0,1-1.21-1.22A3.83,3.83,0,0,1,239.5,39a4.12,4.12,0,0,1,.41-1.82A2.7,2.7,0,0,1,241.08,36a3.67,3.67,0,0,1,1.76-.41,3.48,3.48,0,0,1,1.31.23,2.17,2.17,0,0,1,.92.65,2.9,2.9,0,0,1,.5,1.09l-.79.22a2.45,2.45,0,0,0-.37-.8,1.53,1.53,0,0,0-.64-.47,2.32,2.32,0,0,0-.92-.17,2.7,2.7,0,0,0-1,.18,2,2,0,0,0-.71.48,2.3,2.3,0,0,0-.42.66,3.5,3.5,0,0,0-.25,1.34,3.25,3.25,0,0,0,.31,1.49,2,2,0,0,0,.89.89,2.76,2.76,0,0,0,1.25.29,3,3,0,0,0,1.12-.22,2.9,2.9,0,0,0,.83-.47V39.73Z"/><path class="cls-2" d="M253.2,42.34l-2.58-6.66h1l1.73,4.84q.21.58.35,1.09.16-.54.36-1.09l1.8-4.84h.9l-2.61,6.66Z"/><path class="cls-2" d="M262.75,35.68h.88v3.85a4.56,4.56,0,0,1-.23,1.59,2,2,0,0,1-.82,1,2.9,2.9,0,0,1-1.56.37,3.2,3.2,0,0,1-1.53-.32,1.84,1.84,0,0,1-.85-.93,4.44,4.44,0,0,1-.25-1.67V35.68h.88v3.84a3.75,3.75,0,0,0,.16,1.28,1.22,1.22,0,0,0,.55.63,1.92,1.92,0,0,0,1,.22,1.84,1.84,0,0,0,1.39-.44,2.54,2.54,0,0,0,.41-1.7Z"/><path class="cls-2" d="M266.13,42.34V35.68H267v6.66Z"/></g></g><path class="cls-3" d="M48,24.5A23.5,23.5,0,1,1,24.46,1h0A23.5,23.5,0,0,1,48,24.5Z"/><path class="cls-4" d="M24.46,46.86A22.36,22.36,0,1,1,46.82,24.5h0A22.39,22.39,0,0,1,24.46,46.86Zm0-44.18A21.82,21.82,0,1,0,46.28,24.5,21.84,21.84,0,0,0,24.46,2.68Z"/><path class="cls-4" d="M24.46,46.2A21.7,21.7,0,1,1,46.16,24.5h0A21.72,21.72,0,0,1,24.46,46.2Zm0-43.15A21.45,21.45,0,1,0,45.91,24.5h0A21.47,21.47,0,0,0,24.46,3.05Z"/><path class="cls-5" d="M7.43,35.78a.35.35,0,0,1,0-.13s0-.07.09-.1l1-.63a.18.18,0,0,1,.15,0l0,0,0,.06.07,0-.34-.55-.07,0a.19.19,0,0,1,0,.12.18.18,0,0,1-.1.11l-.43.26-.22-.36.43-.26a.16.16,0,0,1,.15,0l0,0,0,.06.07,0-.34-.55L8,33.8a.24.24,0,0,1,0,.11s0,.07-.1.11l-1,.63a.16.16,0,0,1-.13,0s0,0-.09-.08l-.07,0L7,35.2l.07,0A.34.34,0,0,1,7,35a.17.17,0,0,1,.09-.1l.48-.29.22.36-.48.29a.16.16,0,0,1-.14,0l0,0-.06-.06-.07,0,.34.55Z"/><path class="cls-5" d="M8.4,36.59a.93.93,0,0,1-.33,0,.35.35,0,0,1-.17-.13.26.26,0,0,1,0-.18.32.32,0,0,1,0-.15L8,36l.1-.1.1-.09.12-.09a1.7,1.7,0,0,1,.49-.26.29.29,0,0,1,.35.08.33.33,0,0,1,0,.31,1.05,1.05,0,0,1-.19.33l0,.06.5-.35,0-.06-.09,0h0l0-.2a.45.45,0,0,0-.07-.17.56.56,0,0,0-.49-.24,1.09,1.09,0,0,0-.64.22,1.06,1.06,0,0,0-.41.5.58.58,0,0,0,.07.56.48.48,0,0,0,.26.18,1.27,1.27,0,0,0,.36,0Z"/><path class="cls-5" d="M9.3,38.21a.3.3,0,0,1,0-.13.32.32,0,0,1,.11-.14l.85-.71a.3.3,0,0,1,.17-.09l0,0,.05.06.07-.05-.31-.37-1.12.46.65-1-.31-.38-.06.05a.21.21,0,0,1,.06.13.24.24,0,0,1-.09.11l-.91.76a.25.25,0,0,1-.13.07s-.07,0-.12-.08L8.15,37l.29.35.07-.06,0-.07a.1.1,0,0,1,0-.08A.35.35,0,0,1,8.57,37l.84-.69-.8,1.24,0,.05L10,37l-.91.76c-.06,0-.1.07-.13.06s-.05,0-.1-.08l-.07.06.41.49Z"/><path class="cls-5" d="M10.41,38.88a.93.93,0,0,1-.34,0,.35.35,0,0,1-.19-.1.26.26,0,0,1-.07-.17.32.32,0,0,1,0-.16l.07-.13.08-.11.09-.1.1-.1a1.71,1.71,0,0,1,.45-.34.29.29,0,0,1,.35,0A.33.33,0,0,1,11,38a1.05,1.05,0,0,1-.14.35l0,0,.44-.43,0-.05-.08,0H11.2l-.07-.19a.46.46,0,0,0-.1-.15.56.56,0,0,0-.52-.16,1.09,1.09,0,0,0-.59.32,1.07,1.07,0,0,0-.33.56.58.58,0,0,0,.15.54A.48.48,0,0,0,10,39a1.28,1.28,0,0,0,.36,0Z"/><path class="cls-5" d="M11.67,40.43a.35.35,0,0,1-.07-.11.17.17,0,0,1,.06-.12l.79-.91a.18.18,0,0,1,.13-.08h0l.06,0,.06-.06-.49-.42-.06.06a.19.19,0,0,1,.07.1.18.18,0,0,1-.06.14l-.33.38-.32-.27.33-.38c0-.05.09-.08.13-.08h0l.06,0,.06-.06-.49-.42-.06.06a.23.23,0,0,1,.06.09.17.17,0,0,1-.06.14l-.79.91a.17.17,0,0,1-.12.07.21.21,0,0,1-.11,0l-.06.06.49.42.06-.06a.35.35,0,0,1-.07-.11.17.17,0,0,1,.05-.13l.37-.43.32.27-.37.43a.16.16,0,0,1-.12.07h0l-.07,0-.06.06.49.42Z"/><path class="cls-5" d="M13.35,40.28a.84.84,0,0,0,.06-.31.5.5,0,0,0-.69-.52,1.11,1.11,0,0,0-.53.41,1.13,1.13,0,0,0-.25.62.51.51,0,0,0,.7.52,1.15,1.15,0,0,0,.52-.42,1.36,1.36,0,0,0,.18-.32Zm-.86.56c-.12.07-.22.09-.29,0a.25.25,0,0,1-.05-.29,1.78,1.78,0,0,1,.3-.52l.19-.23.18-.16c.15-.11.26-.13.34-.07s.09.17,0,.34a1.33,1.33,0,0,1-.1.22l-.17.25a1.77,1.77,0,0,1-.42.44Z"/><path class="cls-5" d="M13.88,41.12a.36.36,0,0,0,0-.19l-.12-.31a.53.53,0,0,1-.05-.2.34.34,0,0,1,.06-.15.22.22,0,0,1,.14-.11.17.17,0,0,1,.14,0,.29.29,0,0,1,.11.27.89.89,0,0,1-.07.31l.06,0,.31-.47-.06,0-.06,0h0l0,0,0-.06a.45.45,0,0,0-.13-.14.37.37,0,0,0-.4,0,.64.64,0,0,0-.23.22l-.06.11,0,.11a.71.71,0,0,0,.07.41l.06.13a.64.64,0,0,1,.06.18.3.3,0,0,1-.05.18l-.07.09-.09,0a.18.18,0,0,1-.17,0,.3.3,0,0,1-.12-.28,1.06,1.06,0,0,1,.11-.37l-.06,0-.36.53.06,0,.06-.05h0l.07.1a.49.49,0,0,0,.14.15.42.42,0,0,0,.41,0,.6.6,0,0,0,.28-.24.65.65,0,0,0,.11-.31Z"/><path class="cls-5" d="M15.18,40.93a.57.57,0,0,0-.22-.22l-.52-.31,0,.07c.05,0,.08.07.08.09a.31.31,0,0,1-.06.17l-.56.95,0,.06,0,0-.06,0h0l-.09,0,0,.07.55.32,0-.07a.34.34,0,0,1-.09-.1.33.33,0,0,1,.07-.17l.23-.39.14.08.1.05a.56.56,0,0,0,.2,0,.44.44,0,0,0,.23-.1.6.6,0,0,0,.12-.14.43.43,0,0,0,0-.44Zm-.54.49a.26.26,0,0,1-.22,0h0l.34-.57a.07.07,0,0,1,0,0h.06a.17.17,0,0,1,.1.15.64.64,0,0,1-.11.27.5.5,0,0,1-.2.22Z"/><path class="cls-5" d="M15.18,42.7c-.07,0-.1-.07-.11-.11a.22.22,0,0,1,0-.12l.57-1.07c0-.07.07-.1.11-.11h0l.07,0,0-.08-.59-.31,0,.08.07,0,0,0a.16.16,0,0,1,0,.15l-.57,1.07c0,.06-.07.1-.11.1h-.05l-.08,0,0,.08.59.31Z"/><path class="cls-5" d="M17,41.76l-1-.48-.22.47.07,0a.51.51,0,0,1,.28-.26.31.31,0,0,1,.2,0l-.55,1.18-.06.1-.05,0s-.07,0-.14,0l0,.08.61.29,0-.08C16,43.1,16,43.07,16,43A.12.12,0,0,1,16,43a.58.58,0,0,1,0-.11l.55-1.18a.28.28,0,0,1,.15.13.35.35,0,0,1,0,.17.54.54,0,0,1-.06.21l.07,0Z"/><path class="cls-5" d="M17.53,43.7h0s0,0-.05-.1a2.18,2.18,0,0,1,0-.28l.11-1.38-.06,0-.89,1.13-.09.11,0,0a.15.15,0,0,1-.13,0l0,.08.37.15,0-.08a.21.21,0,0,1-.1-.07.08.08,0,0,1,0-.08l.06-.09.13-.17.37.15v.09a.74.74,0,0,1,0,.09.72.72,0,0,1,0,.16s0,0-.05.05l-.12,0,0,.08.58.23,0-.1Zm-.67-.81.35-.46,0,.58Z"/><path class="cls-5" d="M18.76,43.59a1,1,0,0,1-.26.29.36.36,0,0,1-.32,0,.21.21,0,0,1-.11-.06.14.14,0,0,1,0-.11l.36-1.12c0-.09.06-.15.1-.17s.07,0,.14,0l0-.08-.63-.21,0,.08a.24.24,0,0,1,.1.06.17.17,0,0,1,0,.15l-.38,1.14,0,.07,0,0a.23.23,0,0,1-.12,0l0,.08,1,.34.26-.54Z"/><path class="cls-5" d="M20.59,43.41a.85.85,0,0,0-.07-.31.5.5,0,0,0-.84-.19,1.11,1.11,0,0,0-.32.59,1.13,1.13,0,0,0,0,.67.51.51,0,0,0,.86.2,1.15,1.15,0,0,0,.31-.59,1.38,1.38,0,0,0,0-.37Zm-.57.86c-.08.12-.16.16-.25.14s-.14-.1-.16-.24a1.78,1.78,0,0,1,.06-.6,2.31,2.31,0,0,1,.08-.28,1.63,1.63,0,0,1,.1-.22c.09-.16.18-.22.28-.2s.15.12.16.3a1.32,1.32,0,0,1,0,.24,2.79,2.79,0,0,1-.05.29,1.75,1.75,0,0,1-.21.57Z"/><path class="cls-5" d="M21.77,43.11l-1-.18V43c.06,0,.1,0,.11,0a.18.18,0,0,1,0,.15l-.2,1.18c0,.08,0,.13-.09.13h-.1v.09l.68.12v-.09a.31.31,0,0,1-.15,0,.17.17,0,0,1,0-.15l.1-.56a.22.22,0,0,1,.16.1.62.62,0,0,1,0,.33h.06l.15-.85h-.07a.58.58,0,0,1-.15.29.23.23,0,0,1-.18,0l.1-.57a.13.13,0,0,1,0-.08h.1a.37.37,0,0,1,.28.16.68.68,0,0,1,0,.32h.06Z"/><path class="cls-5" d="M23.21,43.53a.62.62,0,0,0-.52-.32l-.57,0v.08l.11,0a.16.16,0,0,1,0,.14l-.11,1.22a.18.18,0,0,1,0,.11.16.16,0,0,1-.13,0v.09l.59.05a.59.59,0,0,0,.54-.22.82.82,0,0,0,.15-.26,1.36,1.36,0,0,0,.07-.34,1,1,0,0,0-.1-.57Zm-.4,1.15a.27.27,0,0,1-.26.12.08.08,0,0,1-.07,0,.19.19,0,0,1,0-.11l.11-1.25v0a.08.08,0,0,1,0-.05l0,0h.06c.13,0,.22.12.26.31a1.5,1.5,0,0,1,0,.46,1.26,1.26,0,0,1-.16.58Z"/><path class="cls-5" d="M24.49,44.47a1.21,1.21,0,0,1-.1.22.51.51,0,0,1-.13.14.42.42,0,0,1-.26.07.19.19,0,0,1-.11,0,.17.17,0,0,1,0-.1v-.59a.23.23,0,0,1,.19.08.38.38,0,0,1,.06.13.76.76,0,0,1,0,.19h.07l0-.87h-.07a.59.59,0,0,1,0,.17.4.4,0,0,1-.07.12.22.22,0,0,1-.18.06h0v-.57a.13.13,0,0,1,0-.08l0,0H24a.43.43,0,0,1,.28.08.53.53,0,0,1,.12.34h.07v-.52l-1.09,0v.09a.2.2,0,0,1,.12,0s0,.07,0,.14l0,1.2c0,.08,0,.13-.06.15l-.1,0V45l1.1,0,.09-.54Z"/><path class="cls-5" d="M26,44.88h0l0,0-.39-.69a.58.58,0,0,0,.17-.12.46.46,0,0,0,.09-.32.42.42,0,0,0-.15-.33.59.59,0,0,0-.4-.1l-.6,0v.09c.07,0,.11,0,.13,0a.32.32,0,0,1,0,.19l0,1.1a.32.32,0,0,1,0,.18.26.26,0,0,1-.13,0V45l.64,0v-.09a.28.28,0,0,1-.13,0,.32.32,0,0,1,0-.18l0-.48h0l.41.77.4,0v-.09ZM25.36,44l-.09,0-.14,0,0-.62a.17.17,0,0,1,0-.08s0,0,.08,0a.17.17,0,0,1,.16.08.51.51,0,0,1,.06.26.46.46,0,0,1-.06.31Z"/><path class="cls-5" d="M27.71,44.68a.3.3,0,0,1-.14,0,.33.33,0,0,1-.05-.17l-.13-1.09a.3.3,0,0,1,0-.2l0,0h.08v-.09l-.48.06-.22,1.19-.49-1.1-.49.06v.09a.21.21,0,0,1,.14,0,.24.24,0,0,1,0,.13l.14,1.17a.25.25,0,0,1,0,.15s-.06,0-.13.06V45l.45-.05v-.09h-.09a.1.1,0,0,1-.07,0,.35.35,0,0,1-.06-.17l-.12-1.08.6,1.35h.07l.27-1.48.14,1.17a.19.19,0,0,1,0,.14s0,0-.12,0v.09l.63-.07Z"/><path class="cls-5" d="M29,44.4l0,0s-.06,0-.1-.05a2.14,2.14,0,0,1-.14-.24l-.66-1.22H28l-.14,1.43s0,.1,0,.14v.07a.15.15,0,0,1-.09.1l0,.09.39-.08,0-.09a.21.21,0,0,1-.12,0,.08.08,0,0,1,0-.06.44.44,0,0,1,0-.11V44.2l.39-.08,0,.07,0,.08a.73.73,0,0,1,.06.15.08.08,0,0,1,0,.07l-.11,0,0,.09.61-.12,0-.1Zm-1-.32,0-.58.27.52Z"/><path class="cls-5" d="M29.77,42.55l-1.09.28.13.5.07,0a.51.51,0,0,1,0-.38.31.31,0,0,1,.18-.1l.33,1.26a.66.66,0,0,1,0,.12.12.12,0,0,1,0,.07s-.05,0-.13.07l0,.08.66-.17,0-.08c-.08,0-.13,0-.14,0a.12.12,0,0,1,0-.06.58.58,0,0,1,0-.12l-.34-1.26a.28.28,0,0,1,.2,0,.35.35,0,0,1,.13.11.55.55,0,0,1,.09.2l.07,0Z"/><path class="cls-5" d="M31,42.65a.86.86,0,0,0-.22-.23.5.5,0,0,0-.82.27,1.11,1.11,0,0,0,0,.67,1.14,1.14,0,0,0,.37.57.51.51,0,0,0,.84-.28,1.15,1.15,0,0,0,0-.67,1.37,1.37,0,0,0-.16-.33Zm0,1c0,.14-.06.22-.14.25s-.17,0-.26-.12a1.76,1.76,0,0,1-.26-.55,2.29,2.29,0,0,1-.08-.29,1.72,1.72,0,0,1,0-.24c0-.18,0-.29.14-.32s.2,0,.3.18a1.32,1.32,0,0,1,.12.21,3,3,0,0,1,.11.28,1.77,1.77,0,0,1,.11.59Z"/><path class="cls-5" d="M31.3,43.06l.44-.17.11.28-.44.17Z"/><path class="cls-5" d="M32.58,41.47l-.38.17,0,.08a.25.25,0,0,1,.13,0s0,0,.06.06v.17l.11.81L32,42.13,32,42.06a.44.44,0,0,1-.08-.1s0-.07,0-.08l.12-.06,0-.08L31.4,42l0,.08h.11a.31.31,0,0,1,.1.09l1,1.19.06,0-.2-1.53a.72.72,0,0,1,0-.15.18.18,0,0,1,.08-.09Z"/><path class="cls-5" d="M34,42a1.2,1.2,0,0,1,0,.24.51.51,0,0,1,0,.18.42.42,0,0,1-.2.19.19.19,0,0,1-.11,0,.16.16,0,0,1-.07-.08l-.27-.52a.23.23,0,0,1,.2,0,.39.39,0,0,1,.12.08.74.74,0,0,1,.11.16l.06,0-.4-.77-.06,0a.6.6,0,0,1,.06.17.4.4,0,0,1,0,.14.22.22,0,0,1-.13.14h0L33,41.46a.13.13,0,0,1,0-.08l0,0,.06,0a.42.42,0,0,1,.28-.06.53.53,0,0,1,.27.24l.06,0L33.48,41l-1,.5,0,.08a.2.2,0,0,1,.12,0s.06,0,.1.11l.55,1.07c0,.07,0,.13,0,.16l-.08.06,0,.08,1-.5L34.1,42Z"/><path class="cls-5" d="M34.66,40.3l-.36.22,0,.07a.16.16,0,0,1,.16,0,.39.39,0,0,1,.11.14l.36.61-1.06-.57-.35.21,0,.07a.09.09,0,0,1,.08,0l.06,0,.07,0,.61,1a.22.22,0,0,1,0,.15.23.23,0,0,1-.09.1l0,.08.38-.23,0-.07a.24.24,0,0,1-.15,0A.33.33,0,0,1,34.5,42L34,41.2l1.37.72.06,0-.76-1.27a.27.27,0,0,1-.05-.13.18.18,0,0,1,.08-.11Z"/><path class="cls-5" d="M36.17,40.68a1.18,1.18,0,0,1,0,.24.52.52,0,0,1,0,.19.42.42,0,0,1-.18.21.19.19,0,0,1-.11,0,.16.16,0,0,1-.08-.07l-.34-.49a.23.23,0,0,1,.2,0l.13.07a.77.77,0,0,1,.13.15l.06,0-.49-.71-.06,0a.59.59,0,0,1,.08.16.39.39,0,0,1,0,.14.22.22,0,0,1-.11.16h0l-.32-.47a.13.13,0,0,1,0-.08.06.06,0,0,1,0,0l.05,0a.43.43,0,0,1,.27-.1.53.53,0,0,1,.3.21l.06,0-.29-.43-.9.61,0,.07a.2.2,0,0,1,.12,0s.07,0,.11.09l.69,1c0,.07.06.12,0,.15l-.07.07,0,.07.91-.62-.24-.49Z"/><path class="cls-5" d="M37.6,40.14l0,0h-.05l-.72-.33a.57.57,0,0,0,.07-.2.46.46,0,0,0-.11-.32.42.42,0,0,0-.31-.17.59.59,0,0,0-.38.15l-.47.37.05.07c.05,0,.09-.06.11-.06a.31.31,0,0,1,.15.13l.68.87a.31.31,0,0,1,.09.16s0,.06-.08.11l.05.07.51-.4-.05-.07a.28.28,0,0,1-.13,0,.32.32,0,0,1-.13-.12l-.29-.37,0,0,.78.38.31-.25-.05-.07Zm-1-.32a.24.24,0,0,1,0,.09l-.11.1-.38-.49a.17.17,0,0,1,0-.08s0,0,.05-.06a.17.17,0,0,1,.17,0,.5.5,0,0,1,.2.17.45.45,0,0,1,.13.29Z"/><path class="cls-5" d="M38.15,39a1.17,1.17,0,0,1,.08.23.51.51,0,0,1,0,.19.42.42,0,0,1-.14.23.19.19,0,0,1-.1.06.16.16,0,0,1-.09-.06l-.4-.44a.23.23,0,0,1,.19-.07l.13.05a.74.74,0,0,1,.15.13l.05,0-.58-.65-.05,0a.58.58,0,0,1,.1.15.41.41,0,0,1,0,.14.22.22,0,0,1-.09.17h0l-.38-.43s0-.06,0-.07a.06.06,0,0,1,0,0l0,0a.43.43,0,0,1,.26-.13.53.53,0,0,1,.32.17l.05,0-.35-.39-.81.73.06.06a.2.2,0,0,1,.11-.06s.07,0,.12.08l.8.9c.06.06.07.11.05.15a.3.3,0,0,1-.06.08l.06.06.82-.73-.3-.46Z"/><path class="cls-5" d="M38.62,37.61a.85.85,0,0,0-.3-.1.5.5,0,0,0-.6.62,1.11,1.11,0,0,0,.34.58,1.12,1.12,0,0,0,.59.33.51.51,0,0,0,.61-.63,1.15,1.15,0,0,0-.34-.58,1.38,1.38,0,0,0-.29-.22Zm.44.93c.06.13.05.22,0,.29s-.16.07-.29,0a1.78,1.78,0,0,1-.48-.37l-.2-.22a1.63,1.63,0,0,1-.14-.2c-.09-.16-.09-.27,0-.34s.19-.07.34,0l.2.13.22.2a1.76,1.76,0,0,1,.38.48Z"/><path class="cls-5" d="M39.85,37.15a1.05,1.05,0,0,1,.16.36.36.36,0,0,1-.09.31.21.21,0,0,1-.1.08.15.15,0,0,1-.1,0l-.89-.77c-.07-.06-.11-.12-.11-.16a.24.24,0,0,1,.07-.12l-.06-.06-.44.5.06.06a.24.24,0,0,1,.1-.07.18.18,0,0,1,.13.06l.91.79.06.06a.11.11,0,0,1,0,.06.25.25,0,0,1-.05.11l.07.06.71-.82-.4-.45Z"/><path class="cls-5" d="M40.14,35.75a.86.86,0,0,0-.31-.07.5.5,0,0,0-.52.69,1.11,1.11,0,0,0,.41.54,1.12,1.12,0,0,0,.62.26.51.51,0,0,0,.53-.7,1.15,1.15,0,0,0-.41-.53,1.4,1.4,0,0,0-.32-.19Zm.55.87c.07.12.08.22,0,.29s-.15.09-.29.05a1.78,1.78,0,0,1-.52-.3l-.22-.19-.16-.18c-.11-.15-.13-.26-.07-.34s.17-.09.34,0L40,36l.24.17a1.76,1.76,0,0,1,.43.43Z"/><path class="cls-5" d="M41.32,34.84l-.36.55.08,0a.28.28,0,0,1,.11-.11s.07,0,.13,0l.22.14a.2.2,0,0,1,.09.1.19.19,0,0,1,0,.15.28.28,0,0,1-.31.1,1.45,1.45,0,0,1-.54-.25l-.26-.19a1.09,1.09,0,0,1-.17-.17.28.28,0,0,1-.05-.35.33.33,0,0,1,.28-.12,1,1,0,0,1,.37.06l0-.06-.51-.34,0,.06.05.07a.05.05,0,0,1,0,.05l-.17.1a.44.44,0,0,0-.13.13.57.57,0,0,0,0,.55,1.11,1.11,0,0,0,.44.5,1.09,1.09,0,0,0,.6.2.59.59,0,0,0,.52-.28.93.93,0,0,0,.11-.26c0-.06,0-.1,0-.15a.34.34,0,0,0,0-.11l-.26-.17a.33.33,0,0,1-.13-.13.22.22,0,0,1,0-.12Z"/><path class="cls-5" d="M41.14,33.2l-.21.37.07,0a.26.26,0,0,1,.09-.1h.07l.08.07.09.11.28.38L41,34H41l-.09,0s0,0,0,0a.39.39,0,0,1,.05-.12l-.07,0-.31.55.07,0a.13.13,0,0,1,.1-.06h.09l.89.12.31.17c.09,0,.13.09.14.12a.25.25,0,0,1,0,.13l.07,0,.33-.57-.07,0c0,.06-.08.1-.1.1a.33.33,0,0,1-.17-.06l-.4-.23-.5-.69a.16.16,0,0,1,0-.09.32.32,0,0,1,0-.07Z"/><path class="cls-5" d="M5.66,27.41l.82-.11a.22.22,0,0,0,.15-.07.21.21,0,0,0,0-.16.36.36,0,0,0-.22-.31.65.65,0,0,0-.33,0,.52.52,0,0,0-.42.23.55.55,0,0,0,0,.35v.1Zm-.83.11.73-.1A.6.6,0,0,0,5.4,27,.52.52,0,0,0,5,27a.53.53,0,0,0-.28.11.3.3,0,0,0-.09.28.18.18,0,0,0,.07.14h.11Zm2.07.54H6.81a.58.58,0,0,0-.07-.21.2.2,0,0,0-.19,0L5,28a.21.21,0,0,0-.18.11.57.57,0,0,0,0,.21H4.69l-.14-1a1.52,1.52,0,0,1,0-.5.47.47,0,0,1,.4-.42.42.42,0,0,1,.39.15,1.47,1.47,0,0,1,.17.29,1,1,0,0,1,.12-.44.52.52,0,0,1,.7-.21l.12.09a1.13,1.13,0,0,1,.3.69Z"/><path class="cls-5" d="M4.45,25.81H4.37l0-1.91H5V24a.61.61,0,0,0-.45.24,1,1,0,0,0-.09.52.48.48,0,0,0,0,.2s.06,0,.13,0h.76v0a.52.52,0,0,0-.1-.34.59.59,0,0,0-.4-.15v-.09l1.12,0v.09a.63.63,0,0,0-.41.17.56.56,0,0,0-.1.38h.8a.16.16,0,0,0,.14-.06.42.42,0,0,0,0-.22,1,1,0,0,0-.11-.48.93.93,0,0,0-.49-.39v-.09l.69.12,0,1.94H6.52a.91.91,0,0,0,0-.18q0-.11-.21-.11l-1.6,0a.2.2,0,0,0-.19.09.56.56,0,0,0,0,.21Z"/><path class="cls-5" d="M6.87,24.94a.23.23,0,0,1-.14-.07.19.19,0,0,1-.06-.16.21.21,0,0,1,.07-.15.21.21,0,0,1,.16-.05.2.2,0,0,1,.15.07.2.2,0,0,1,.05.15.19.19,0,0,1-.08.15.22.22,0,0,1-.14,0Zm-2.75-.69-.34.35.3.39v.18l-.56-.44,0-.3.6-.38Z"/><path class="cls-5" d="M6.58,23.43H6.49a.48.48,0,0,0,0-.22.25.25,0,0,0-.2-.1l-1.55-.19-.19.14a.2.2,0,0,0-.08.11H4.37l.09-.69,1.53-1-1-.13a.41.41,0,0,0-.24,0,.31.31,0,0,0-.12.25H4.56l.09-.71h.08a.36.36,0,0,0,0,.22.3.3,0,0,0,.18.07l1.93.24v.09l-2,1.24L6.23,23a.34.34,0,0,0,.24,0,.43.43,0,0,0,.11-.24h.09Z"/><path class="cls-5" d="M7.42,18.67l.08,0-.29,1.08-.08,0a.69.69,0,0,0,0-.22A.19.19,0,0,0,7,19.41l-.73-.2L6,20l.73.2a.19.19,0,0,0,.2,0,.68.68,0,0,0,.1-.19l.09,0L6.87,21l-.08,0a.51.51,0,0,0,0-.21.2.2,0,0,0-.16-.12L5.1,20.29a.21.21,0,0,0-.21,0,.51.51,0,0,0-.09.17l-.08,0L5,19.4l.08,0a.58.58,0,0,0,0,.21.2.2,0,0,0,.17.14l.66.17.21-.77L5.45,19a.2.2,0,0,0-.21,0,.57.57,0,0,0-.09.19l-.08,0,.29-1.08.08,0a.57.57,0,0,0,0,.2.21.21,0,0,0,.17.14l1.54.41a.19.19,0,0,0,.19,0,.64.64,0,0,0,.09-.2Z"/><path class="cls-5" d="M6.81,14.79l.07,0a.35.35,0,0,0,0,.21A.63.63,0,0,0,7,15.2l1.43,1.52,0,.09-2.15-.09a.43.43,0,0,0-.2,0,.47.47,0,0,0-.13.13l-.07,0,.48-1,.07,0a.73.73,0,0,0-.08.21s0,.08.08.1a.53.53,0,0,0,.18,0h.12l1.13.06L7,15.43l-.1-.1-.08-.06a.12.12,0,0,0-.14,0,.55.55,0,0,0-.12.18l-.07,0Z"/><path class="cls-5" d="M9.44,14.62l.07,0-.6,1-.07,0a.48.48,0,0,0,.09-.21.21.21,0,0,0-.12-.18l-1.36-.83a.2.2,0,0,0-.22,0,.62.62,0,0,0-.15.16l-.07,0,.6-1,.07,0a.48.48,0,0,0-.08.2.21.21,0,0,0,.12.19l1.36.83a.24.24,0,0,0,.17,0C9.3,14.8,9.37,14.73,9.44,14.62Z"/><path class="cls-5" d="M7.85,13.24l-.06,0,1.16-1.52.52.4-.05.07a.61.61,0,0,0-.5-.08,1,1,0,0,0-.39.35.48.48,0,0,0-.1.18s0,.07.07.11l.61.46,0,0a.51.51,0,0,0,.13-.34A.59.59,0,0,0,9,12.44l.05-.07L10,13l-.05.07A.63.63,0,0,0,9.51,13a.56.56,0,0,0-.31.24l.64.48a.16.16,0,0,0,.15,0,.43.43,0,0,0,.16-.15,1,1,0,0,0,.21-.44.93.93,0,0,0-.14-.6l.06-.07.47.52L9.56,14.55l-.07-.05a.94.94,0,0,0,.09-.16c0-.08,0-.15-.09-.22l-1.27-1a.2.2,0,0,0-.21,0,.57.57,0,0,0-.16.14Z"/><path class="cls-5" d="M8.55,11.83l-.49.07v.49l-.12.14-.17-.69.2-.23.71.07Z"/><path class="cls-5" d="M10.25,14.06a.23.23,0,0,1-.07-.14.19.19,0,0,1,0-.16.2.2,0,0,1,.15-.07.21.21,0,0,1,.16.06.21.21,0,0,1,0,.29h0a.19.19,0,0,1-.15.07.23.23,0,0,1-.14,0Z"/><path class="cls-5" d="M11,12.68l-.06-.06a.49.49,0,0,0,.11-.19.25.25,0,0,0-.1-.2l-1.11-1.1H9.62a.2.2,0,0,0-.13,0l-.06-.06.49-.49,1.81.18-.7-.71a.41.41,0,0,0-.21-.13.31.31,0,0,0-.25.12L10.51,10,11,9.5l.06.06a.36.36,0,0,0-.1.2.3.3,0,0,0,.1.16l1.38,1.37-.07.07-2.3-.22.93.94a.34.34,0,0,0,.21.12.43.43,0,0,0,.24-.12l.06.06Z"/><path class="cls-5" d="M12.86,8.39l.94,1.36a.24.24,0,0,0,.11.1.19.19,0,0,0,.15,0,.56.56,0,0,0,.27-.43A1.29,1.29,0,0,0,14,8.61a1.59,1.59,0,0,0-.44-.44.55.55,0,0,0-.66,0,.29.29,0,0,0-.12.13.1.1,0,0,0,0,.09v0Zm.45,2.08,0-.07a.32.32,0,0,0,.14-.17.21.21,0,0,0,0-.17l-.92-1.33a.19.19,0,0,0-.18-.1.54.54,0,0,0-.18.07l0-.06.83-.57a1.24,1.24,0,0,1,1-.26,1,1,0,0,1,.63.45,1.14,1.14,0,0,1,.22.82,1.17,1.17,0,0,1-.55.8Z"/><path class="cls-5" d="M15.55,8.09l.57-.29-.66-.57.09.86ZM17.34,8l0,.07-1,.48,0-.07a.58.58,0,0,0,.17-.12.1.1,0,0,0,0-.12.76.76,0,0,0-.15-.17l-.19-.16-.66.33c0,.12,0,.22,0,.3a.6.6,0,0,0,0,.15.12.12,0,0,0,.1.07.44.44,0,0,0,.2-.06l0,.07-.6.3,0-.08a.29.29,0,0,0,.12-.18,1.42,1.42,0,0,0,0-.3l-.16-1.95.08,0,1.44,1.22a2.3,2.3,0,0,0,.32.24.21.21,0,0,0,.2,0Z"/><path class="cls-5" d="M20.08,6.36l.09.76-1.83.55,0-.08a.58.58,0,0,0,.19-.1.2.2,0,0,0,0-.2l-.46-1.53c0-.09-.07-.15-.14-.16a.53.53,0,0,0-.2,0l0-.08,1.1-.33,0,.08a.48.48,0,0,0-.23.11.32.32,0,0,0,0,.27L19,7.15c0,.07.06.12.1.13a.51.51,0,0,0,.23,0,.8.8,0,0,0,.48-.33A1.28,1.28,0,0,0,20,6.38Z"/><path class="cls-5" d="M21.51,4.65V4.58l1.9-.17.06.66h-.09a.62.62,0,0,0-.28-.43,1,1,0,0,0-.52-.05.47.47,0,0,0-.19,0s0,.06,0,.13l.07.76h0a.51.51,0,0,0,.34-.13A.6.6,0,0,0,22.9,5H23l.1,1.11H23a.63.63,0,0,0-.2-.4.56.56,0,0,0-.38-.07l.07.8a.16.16,0,0,0,.07.14.42.42,0,0,0,.22,0,1,1,0,0,0,.47-.15.93.93,0,0,0,.35-.51h.09l-.07.7-1.92.17V6.71l.17,0q.11,0,.1-.21l-.15-1.59a.21.21,0,0,0-.1-.19.58.58,0,0,0-.21,0Z"/><path class="cls-5" d="M23,4.21l-.38-.31-.36.33h-.18l.39-.59h.3l.43.57Z"/><path class="cls-5" d="M21.57,6.75l0,.09-1.14.22,0-.09a.48.48,0,0,0,.21-.08.21.21,0,0,0,.05-.21l-.31-1.57a.2.2,0,0,0-.13-.17.62.62,0,0,0-.22,0l0-.08,1.14-.22v.08a.49.49,0,0,0-.2.07.21.21,0,0,0-.06.22l.31,1.57a.24.24,0,0,0,.08.15.37.37,0,0,0,.27,0Z"/><path class="cls-5" d="M23.18,3.68h-.13a.8.8,0,0,1,.08-.23.31.31,0,0,1,.27-.16l.13,0,.09,0,.12.05.07,0h0A.14.14,0,0,0,24,3.36a.41.41,0,0,0,0-.09h.13a.87.87,0,0,1-.09.23.32.32,0,0,1-.27.16.41.41,0,0,1-.18,0l-.09,0-.14-.05h-.06a.13.13,0,0,0-.1,0,.17.17,0,0,0,0,.1Z"/><path class="cls-5" d="M26.4,4.45v.08a.36.36,0,0,0-.21.07.3.3,0,0,0-.06.21l0,1a1.38,1.38,0,0,1-.05.33.69.69,0,0,1-.16.3.72.72,0,0,1-.32.17,1.09,1.09,0,0,1-.34,0,1.38,1.38,0,0,1-.31,0,.8.8,0,0,1-.35-.19.6.6,0,0,1-.16-.22,1,1,0,0,1,0-.39l0-1.1a.33.33,0,0,0-.06-.25.4.4,0,0,0-.2-.06V4.36l1.12,0v.08a.45.45,0,0,0-.24,0c-.05,0-.08.12-.09.26l0,1.1a.82.82,0,0,0,.1.5.42.42,0,0,0,.35.17.52.52,0,0,0,.52-.26,1,1,0,0,0,.09-.44l0-1a.4.4,0,0,0,0-.24.33.33,0,0,0-.26-.1V4.42Z"/><path class="cls-5" d="M28.86,7.06l0,.09L27.69,6.9l0-.09a.45.45,0,0,0,.26,0c.05,0,.09-.11.12-.24l.37-1.7a.76.76,0,0,0-.39,0,.6.6,0,0,0-.36.41l-.09,0,.15-.64,1.94.42-.13.65-.09,0a.6.6,0,0,0-.15-.52A.74.74,0,0,0,29,5l-.37,1.7a.34.34,0,0,0,0,.26.45.45,0,0,0,.23.1Z"/><path class="cls-5" d="M30.8,5.65l-.29.83,0,0a.58.58,0,0,0,.41,0,.54.54,0,0,0,.24-.34.63.63,0,0,0,0-.4.36.36,0,0,0-.25-.2.19.19,0,0,0-.12,0A.12.12,0,0,0,30.8,5.65ZM29.38,7.27l0-.08.15,0h0a.17.17,0,0,0,.1-.07A.59.59,0,0,0,29.77,7l.48-1.38a.32.32,0,0,0,0-.26.42.42,0,0,0-.18-.12l0-.08,1,.35a1.32,1.32,0,0,1,.47.26.52.52,0,0,1,.15.59.56.56,0,0,1-.12.2.57.57,0,0,1-.32.17.84.84,0,0,1-.33,0,4.36,4.36,0,0,1-.49-.15l-.2.58a.34.34,0,0,0,0,.25.55.55,0,0,0,.2.13l0,.08Z"/><path class="cls-5" d="M31.51,7.8a.27.27,0,0,1,.15-.15.27.27,0,0,1,.36.15A.27.27,0,0,1,32,8a.28.28,0,0,1-.15.15A.27.27,0,0,1,31.5,8,.28.28,0,0,1,31.51,7.8Z"/><path class="cls-5" d="M35,9.89,35,10l-1-.59,0-.07a.69.69,0,0,0,.2.07.2.2,0,0,0,.18-.11l.4-.64-.68-.42-.4.64a.2.2,0,0,0,0,.2.67.67,0,0,0,.16.16l0,.07-.94-.59,0-.07a.51.51,0,0,0,.2.06.2.2,0,0,0,.16-.11l.84-1.35a.2.2,0,0,0,0-.21A.5.5,0,0,0,34,6.85l0-.07.94.59,0,.07a.6.6,0,0,0-.19-.07.2.2,0,0,0-.19.12l-.36.57.68.42.36-.57a.2.2,0,0,0,0-.21.58.58,0,0,0-.15-.14l0-.07,1,.59,0,.07a.57.57,0,0,0-.19-.07.21.21,0,0,0-.18.12l-.84,1.35a.19.19,0,0,0,0,.19.63.63,0,0,0,.15.15Z"/><path class="cls-5" d="M37.31,9.1a.46.46,0,0,0-.55,0,1.93,1.93,0,0,0-.54.47,1.77,1.77,0,0,0-.41.7.44.44,0,0,0,.14.46.43.43,0,0,0,.47.05,1.79,1.79,0,0,0,.62-.52,2,2,0,0,0,.37-.61.46.46,0,0,0-.1-.54ZM37.38,9a1,1,0,0,1,.38.73,1.18,1.18,0,0,1-.31.86,1.2,1.2,0,0,1-.77.46,1.08,1.08,0,0,1-1.19-1v0a1.2,1.2,0,0,1,.31-.84,1.19,1.19,0,0,1,.79-.45,1,1,0,0,1,.79.25Z"/><path class="cls-5" d="M38.51,9l-.13-.13-.14-.53a.57.57,0,0,1,0-.13.14.14,0,0,1,0-.09.13.13,0,0,1,.11,0,.18.18,0,0,1,.16.14.39.39,0,0,1,0,.1l0,.69Zm-.64.19,0-.49-.49,0-.13-.13.69-.14.22.21-.1.7Z"/><path class="cls-5" d="M39.22,13.49v.13a1.69,1.69,0,0,1-.52-.08,1,1,0,0,1-.45-.32,1.12,1.12,0,0,1,.05-1.58l.08-.07a1.17,1.17,0,0,1,.86-.29,1.12,1.12,0,0,1,.8.43,1.06,1.06,0,0,1,.16.27l.12.32a.12.12,0,0,0,.1,0l.11,0,.06.07-.6.5L40,12.82a1.25,1.25,0,0,0,.16-.5A.67.67,0,0,0,40,11.8a.51.51,0,0,0-.56-.17,1.76,1.76,0,0,0-.65.38,2.4,2.4,0,0,0-.26.24,1.09,1.09,0,0,0-.21.33.57.57,0,0,0,0,.27.6.6,0,0,0,.13.3.86.86,0,0,0,.31.24,1.44,1.44,0,0,0,.5.11Z"/><path class="cls-5" d="M40.4,16.1l-.07,0-.59-1,.07,0a.71.71,0,0,0,.15.16.2.2,0,0,0,.2,0l.65-.4-.42-.68-.65.4a.19.19,0,0,0-.11.17.68.68,0,0,0,.07.21l-.07,0L39,14.08l.07,0a.52.52,0,0,0,.15.15.2.2,0,0,0,.19,0l1.36-.84a.21.21,0,0,0,.12-.17.5.5,0,0,0-.06-.19l.07,0,.58.94-.07,0a.61.61,0,0,0-.14-.15.21.21,0,0,0-.22,0l-.58.36.42.68.58-.36a.2.2,0,0,0,.12-.18.56.56,0,0,0-.07-.2l.07,0,.59,1-.07,0a.59.59,0,0,0-.14-.15.21.21,0,0,0-.22,0l-1.35.84a.19.19,0,0,0-.11.16.65.65,0,0,0,.07.21Z"/><path class="cls-5" d="M43.24,16l-.46-.3-.08-.17.67.19.11,0,.05.07a.16.16,0,0,1,0,.12.14.14,0,0,1-.08.08.15.15,0,0,1-.13,0l-.09,0Zm-2.3,1.31a.37.37,0,0,1-.05-.26.23.23,0,0,1,.13-.12l1.44-.69a.21.21,0,0,1,.23,0,.48.48,0,0,1,.12.18l.07,0-.5-1-.07,0a.6.6,0,0,1,.05.21.2.2,0,0,1-.13.17l-1.44.69a.21.21,0,0,1-.21,0,.48.48,0,0,1-.13-.18l-.08,0,.5,1Z"/><path class="cls-5" d="M42.17,21.07l-.08,0L41.79,20l.08,0a.59.59,0,0,0,.1.2.22.22,0,0,0,.21,0l1.6-.45-2.14-.26,0-.08,1.65-1.32-1.48.41a.37.37,0,0,0-.22.13.35.35,0,0,0,0,.27l-.08,0-.21-.74.08,0a.37.37,0,0,0,.12.22.28.28,0,0,0,.22,0L43.2,18a.23.23,0,0,0,.16-.11.39.39,0,0,0,0-.24l.08,0,.23.81-1.32,1.06,1.68.22.22.8-.08,0a.38.38,0,0,0-.1-.2.34.34,0,0,0-.27,0l-1.4.39c-.12,0-.19.07-.22.13a.5.5,0,0,0,0,.23Z"/><path class="cls-5" d="M42.31,22.36h-.09l-.18-1.14h.09a.47.47,0,0,0,.07.21.21.21,0,0,0,.21.06L44,21.25a.2.2,0,0,0,.17-.12.63.63,0,0,0,0-.22h.08L44.43,22h-.08a.48.48,0,0,0-.06-.2.21.21,0,0,0-.22-.07L42.49,22a.24.24,0,0,0-.16.07A.37.37,0,0,0,42.31,22.36Z"/><path class="cls-5" d="M42.27,22.5h.09a.49.49,0,0,0,.07.22.25.25,0,0,0,.21.06l1.56-.07.16-.17a.2.2,0,0,0,.06-.12h.08l0,.69-1.35,1.22,1,0a.41.41,0,0,0,.24-.06.31.31,0,0,0,.08-.26h.08l0,.71h-.08a.36.36,0,0,0-.09-.21.31.31,0,0,0-.19,0l-1.94.09v-.09L44,22.87l-1.32.06a.34.34,0,0,0-.24.08.43.43,0,0,0-.07.26H42.3Z"/><path class="cls-5" d="M42.25,27.32h-.09l.1-1.12h.09a.68.68,0,0,0,0,.21.19.19,0,0,0,.17.1l.76.07.07-.8-.76-.07a.19.19,0,0,0-.19.07.69.69,0,0,0-.07.21h-.09l.1-1.11h.09a.52.52,0,0,0,0,.2.2.2,0,0,0,.18.09l1.59.15a.21.21,0,0,0,.2-.07.51.51,0,0,0,.06-.19h.08l-.1,1.11h-.08a.59.59,0,0,0,0-.2.21.21,0,0,0-.19-.11l-.68-.06-.07.8.68.06a.2.2,0,0,0,.2-.08.57.57,0,0,0,.06-.2h.08l-.1,1.12h-.08a.59.59,0,0,0,0-.2.21.21,0,0,0-.19-.11l-1.59-.14a.2.2,0,0,0-.19.06.65.65,0,0,0-.07.21Z"/><path class="cls-5" d="M7.41,30.9l-.57.42.22.67-.58-.41L5.91,32l.21-.68-.58-.41h.71l.22-.68.22.67Z"/><path class="cls-5" d="M43.48,30.9l-.57.42.22.67-.58-.41L42,32l.21-.68-.58-.41h.71l.21-.68.22.67Z"/><path class="cls-4" d="M29,20.92l3.34-1.47L35,20.92ZM25.17,16.6v2.06h1.71v-.85H26.4l-.59-1.22h-.64ZM12.24,20.35l3.24-1.54,4.35.79,1-.93V16.9h.55v-2h-.66v-.75H20.1V13.7L23.67,12V10.4H24V12l2.84,2H25.57v.68H22.4v2.91h1.53v1.29H21.67l-.86,1.33-8.57.11ZM29.56,20V18.66H27.36V20Z"/><path class="cls-6" d="M34.1,35.33c.2-1.19.9-6.23.57-6.39,0,0-.53,4-.61,4.75s-.49,2.62-.49,2.62l0,.07.35-.07C33.95,36.11,34,35.82,34.1,35.33Z"/><path class="cls-6" d="M33.51,36.58c0,.17,0,.36.05.43s.08.37-.25.33-.29.61,0,.7.86-.12.74-.45,0-.66-.12-.82a.24.24,0,0,1,0-.2A1.82,1.82,0,0,1,33.51,36.58Z"/><path class="cls-6" d="M24.7,35.33c-.2-1.19-.9-6.23-.57-6.39,0,0,.53,4,.61,4.75s.49,2.62.49,2.62l0,.07a2.14,2.14,0,0,1-.35-.07c0-.2-.11-.5-.2-1Z"/><path class="cls-6" d="M25.29,36.58c0,.17,0,.36-.06.43s-.08.37.25.33.29.61,0,.7-.86-.12-.74-.45,0-.66.12-.82a.24.24,0,0,0,0-.2,1.79,1.79,0,0,0,.34,0Z"/><path class="cls-6" d="M9.28,32.76c.09.17.19.32.29.48a39.34,39.34,0,0,0-.47-4c0,1,.21,2.61.18,3.53Z"/><path class="cls-6" d="M39.61,26.49a.78.78,0,0,0,.08-.91,6.79,6.79,0,0,0-.56-.87,18.12,18.12,0,0,0-3.5,0,1.62,1.62,0,0,0-.34.24c0,.51,0,1.49,0,2.5,1.63.12,3,.28,4.08.45a1.82,1.82,0,0,1,.28-1.4Z"/><path class="cls-6" d="M41.68,24.88a9.44,9.44,0,0,0-1.57.09h0a1.38,1.38,0,0,0,.22.51.91.91,0,0,1-.16,1.2c-.3.31-.16.89,0,1.35q.58.1,1.16.26a17.37,17.37,0,0,0,.42-3.38l-.07,0Z"/><path class="cls-6" d="M40.42,28.66a2.29,2.29,0,0,1-.18,1.49,3.41,3.41,0,0,0-.33,1.4c0,.34-.29.81-.49.25a5.35,5.35,0,0,1,.41-2.32,1,1,0,0,0-.23-1.09.56.56,0,0,1-.14-.17q-2.09-.35-4.21-.5c0,1.38-.07,2.75-.12,3.06.26.23.59.47.59.47a.3.3,0,0,0,.25-.31c0-.26.33-.18.33.12s.16.14.24-.17.61,0,.61.31,0,.64.31.47.61.18.61.43-.41.23-.39.37.43.59.37,1-.55.12-.66.24.31.26-.06.55-.82,0-1.07-.08-.51.41-.8.16a.65.65,0,0,1-.14-.86c0-.26-.33-.2-.25-.37s.39-.7.29-.84-.14-.39-.29-.18a24.19,24.19,0,0,0-.37,2.79,7.22,7.22,0,0,0-.18,1.74A2.37,2.37,0,0,1,35,38.21a17.32,17.32,0,0,0,6.3-9.64l-1-.2c.05.12.1.23.12.29Z"/><path class="cls-6" d="M8.56,27.49a20.4,20.4,0,0,0-.21-2.67,2.3,2.3,0,0,0-1.17-.16,17.2,17.2,0,0,0,.24,2.56l.5.11.64.16Z"/><path class="cls-6" d="M7.46,27.5a17.19,17.19,0,0,0,1.16,3.91c0-.43,0-2.05,0-3.62Z"/><path class="cls-6" d="M30.26,24.48a2.59,2.59,0,0,1-1.61,0,12.59,12.59,0,0,0-3.81.09,2.88,2.88,0,0,1-.5.15c0,.05,0,.09.05.08,0,.83,0,1.9,0,2.88l.46-.08a38.67,38.67,0,0,1,4.64-.32c1.55,0,3.07,0,4.63,0h.22c0-.88.05-1.81,0-2.55-.61-.68-4.15-.35-4.15-.35Z"/><path class="cls-6" d="M19.43,28.48a18.06,18.06,0,0,0,3.64-.54l.49-.08c0-1.16,0-2.35,0-2.92v-.06a.33.33,0,0,1-.17,0c-.15-.12-1.18-.54-3.26-.12a15.09,15.09,0,0,1-5.13.09,12.7,12.7,0,0,0-4.94-.2,6,6,0,0,0-.72.21c0,.63.09,1.79.16,2.88a34,34,0,0,0,10,.77Z"/><path class="cls-6" d="M24.09,34.94a24.14,24.14,0,0,0-.37-2.79c-.14-.21-.18,0-.29.18s.2.68.29.84-.25.1-.25.37a.65.65,0,0,1-.14.86c-.29.25-.55-.2-.8-.16s-.7.37-1.07.08,0-.43-.06-.55-.59.2-.66-.25.35-.9.37-1-.39-.12-.39-.37.33-.59.61-.43.31-.12.31-.47.53-.61.61-.31.25.47.25.17.33-.39.33-.12a.3.3,0,0,0,.24.31s.33-.25.59-.47c-.05-.27-.09-1.37-.11-2.57l-.64.13a31.4,31.4,0,0,1-9.16.37A28.2,28.2,0,0,1,9.48,28a14.17,14.17,0,0,0,.25,2.21c.32,0,.8.29.8.57a.71.71,0,0,1,.54.06s.8-.16.86-.06.13.73.35.73.16.89-.1.86c-.16.26-.26.45-.54.35,0,.57-.35.48-.45.45-.16.29-.22,0-.35-.13a.38.38,0,0,1-.35-.61.79.79,0,0,1-.22-.8L10,31.59a11.18,11.18,0,0,0,.52,3.13,17.47,17.47,0,0,0,3.41,3.46l.24-.07c0-.31-.09-.76-.26-.87s-1.07-1.33-.7-2.08a1.43,1.43,0,0,1,1.17-.89c.16,0,.93.42,1,1A1.87,1.87,0,0,1,15,36.94a1.81,1.81,0,0,0-.25,1l.4-.08a8.13,8.13,0,0,0,.61-1.43,2.85,2.85,0,0,0-.14-2.14,2.15,2.15,0,0,1-.26-2.26c.35-.46.28-.49.12-.71s-.74-.37-.6-.64,1,.45,1.09.69c.11-.63.35-1.38.68-1.2.14.18-.29.38-.26.74a3.72,3.72,0,0,1-.09.77s.39-1.1.79-.95c0,.22-.57.94-.63,1.17s-.4.25-.55.25a1.25,1.25,0,0,0-.25,1.6,3.47,3.47,0,0,1,.61,2.54,7,7,0,0,1-.57,1.52,7.79,7.79,0,0,1,1.42,0,11.92,11.92,0,0,0,2.54.71,35.58,35.58,0,0,0,4.22-.4,2.43,2.43,0,0,1,.44-1.42,7.17,7.17,0,0,0-.18-1.74Z"/><path class="cls-6" d="M14.16,38.34h0l.08.06v-.07Z"/><path class="cls-6" d="M14.73,38.45a2,2,0,0,0,.23-.28l-.24,0c0,.08,0,.17,0,.24Z"/><path class="cls-6" d="M29.27,38.78s.05-.07.06-.2l-.26,0A1.33,1.33,0,0,0,29.27,38.78Z"/><path class="cls-6" d="M31.54,27.56c-.76,0-1.62,0-2.38,0-1.3.05-2.64.16-3.94.32-.26,0-.52.08-.78.13A51.08,51.08,0,0,0,26,36.15a7.29,7.29,0,0,1,.66,1.8l.44,0,1.32.19s.1-.06.19,0l.08.05.62.09a2.06,2.06,0,0,0-.11-.55c-.41-1-.86-.82-1-1.65a1.51,1.51,0,0,1,1.17-1.69c.86.05,1.21,1.17,1,1.82s-.68,1.07-.68,1.31,0,.44,0,.81h.09a5.7,5.7,0,0,0,.92-1.88,2.85,2.85,0,0,0-.14-2.14,2.16,2.16,0,0,1-.26-2.26c.35-.46.28-.49.12-.71s-.74-.37-.6-.64,1,.45,1.09.69c.11-.63.35-1.38.68-1.2.14.18-.21.41-.26.77a.9.9,0,0,1-.13.51c-.14.15-.32.42-.25.42s.17,0,.19-.17.25-.28.38-.26-.13.28-.13.46-.4.25-.55.25a1.25,1.25,0,0,0-.25,1.6,3.48,3.48,0,0,1,.61,2.54,7.28,7.28,0,0,1-.88,2.07h1.06l.09-.09a5.45,5.45,0,0,1,.81-.9c.13-.36.32-.77.52-1.24a48.42,48.42,0,0,0,1.57-8.36v-.13q-1.41-.1-2.82-.11Z"/><path class="cls-6" d="M31.68,38.39h.48a1.12,1.12,0,0,1,0-.29,4,4,0,0,0-.46.3Z"/><path class="cls-6" d="M28.32,40.3a.21.21,0,1,1,.19-.22v0A.2.2,0,0,1,28.32,40.3Zm-.86,1a.19.19,0,1,1,.17-.21v0A.19.19,0,0,1,27.46,41.32Zm-.59-2.67a.23.23,0,1,1,.24.22h0a.23.23,0,0,1-.23-.22Zm-.48,1a.22.22,0,1,1,.24-.22A.23.23,0,0,1,26.38,39.66Zm-.08,1.84c-.09,0-.16-.05-.16-.12s.07-.12.16-.12.16.05.16.12S26.4,41.5,26.31,41.5ZM25.58,41a.2.2,0,1,1,.23-.19A.21.21,0,0,1,25.58,41Zm-.46-.49a.22.22,0,1,1,.23-.21.22.22,0,0,1-.23.21Zm-.85.54a.23.23,0,1,1,.25-.23.24.24,0,0,1-.25.23Zm-.54-1a.21.21,0,1,1,.28-.15A.23.23,0,0,1,23.73,40Zm-.55,1.52a.23.23,0,1,1,.24-.23.23.23,0,0,1-.24.23Zm-.5-1.31a.22.22,0,1,1,.21-.24v0a.21.21,0,0,1-.21.22Zm-.88.64a.21.21,0,1,1,.25-.21A.24.24,0,0,1,21.8,40.87Zm-.42-1.18a.19.19,0,1,1,.19.2.2.2,0,0,1-.19-.2Zm-.83.32a.28.28,0,1,1,.3-.28.29.29,0,0,1-.3.28Zm0,.91a.2.2,0,1,1,.22-.2A.21.21,0,0,1,20.54,40.92Zm-.64-.49a.22.22,0,1,1,.25-.22A.24.24,0,0,1,19.9,40.43Zm-.79,0a.18.18,0,1,1,.23-.17A.21.21,0,0,1,19.11,40.39Zm-.51-.85a.32.32,0,1,1,.39.23h-.08A.28.28,0,0,1,18.6,39.54Zm-.57.85a.17.17,0,1,1,.17-.18h0A.17.17,0,0,1,18,40.39Zm-.57-1.08a.37.37,0,1,1,.42.3h-.06A.34.34,0,0,1,17.47,39.32Zm-.79.41a.17.17,0,1,1,.17-.17A.17.17,0,0,1,16.68,39.73Zm-.6-1c0-.09.06-.19.19-.23s.26,0,.28.09-.06.19-.19.23-.26,0-.28-.09Zm.09.67a.12.12,0,1,1,.12-.12A.12.12,0,0,1,16.17,39.44Zm11.89-.74a.21.21,0,1,1-.18.23v0A.2.2,0,0,1,28.05,38.7Zm1.12,1.24c-.28-.18-.64-.63-1.29-.23s-1.11.51-.85.2a4.13,4.13,0,0,1,1.24-.69,1.38,1.38,0,0,1,.91.22,1.35,1.35,0,0,0-.54-.85l-.11-.09a2.76,2.76,0,0,0-.85,0c-.17.11-.31-.29-.6-.31h-.41a1.06,1.06,0,0,1-.39.73,1.27,1.27,0,0,1-1,.27c-1.08-.12-1.36-.44-1.44-.78l-.2,0c-1.23.12-2,.18-2.3.26a7.35,7.35,0,0,1-2.46,0,9.67,9.67,0,0,0-2.2-.65c-.4,0-.8,0-1.2,0-.23.4-.46.7-.63.75A17.17,17.17,0,0,0,29.2,41.12l-.07,0s.32-.94,0-1.13Z"/><path class="cls-6" d="M32.4,39.61a.17.17,0,1,1,.18-.17A.18.18,0,0,1,32.4,39.61Zm-.76.22a.18.18,0,1,1,.22-.17A.2.2,0,0,1,31.64,39.83Zm.88-.87a1.25,1.25,0,0,1-.26-.31l-.77,0c0,.24,0,.52-.1.6s-.27.74-.66,1.07-.31-.14-.16-.26.41-.86.59-1.11c-.06-.06,0-.17,0-.29-.32,0-.67,0-1,0h-.09a.65.65,0,0,1-.29.24l-.13.1c0,.21,0,.41,0,.52s-.07.26-.07.61a3.45,3.45,0,0,1-.09.89,17.36,17.36,0,0,0,3.93-1.78,1.27,1.27,0,0,1-1-.27Z"/><path class="cls-4" d="M24.46,42A17.46,17.46,0,1,1,41.92,24.5h0A17.48,17.48,0,0,1,24.46,42Zm0-34.38A16.92,16.92,0,1,0,41.38,24.5h0A16.92,16.92,0,0,0,24.46,7.58Z"/></svg>