<svg width="274" height="49" viewBox="0 0 274 49" fill="none" xmlns="http://www.w3.org/2000/svg">
<g clip-path="url(#clip0)">
<path d="M24.2004 47.7001C37.3448 47.7001 48.0004 37.0445 48.0004 23.9001C48.0004 10.7557 37.3448 0.100098 24.2004 0.100098C11.056 0.100098 0.400391 10.7557 0.400391 23.9001C0.400391 37.0445 11.056 47.7001 24.2004 47.7001Z" fill="white"/>
<path d="M22.8996 41.6002C19.9996 39.2002 17.7996 39.9002 12.9996 39.9002C10.9996 39.9002 9.09961 38.9002 7.89961 37.6002C11.7996 40.4002 15.7996 38.3002 15.7996 38.3002C15.7996 38.3002 13.1996 37.4002 11.8996 35.6002C10.5996 33.9002 10.5996 33.2002 8.99961 33.2002C8.99961 33.2002 10.2996 35.4002 11.7996 36.9002C11.7996 36.9002 10.5996 36.2002 9.19961 33.9002C8.39961 32.5002 8.19961 31.7002 6.69961 31.7002C6.69961 31.7002 7.19961 34.0002 10.1996 37.0002C10.1996 37.0002 7.89961 35.4002 6.79961 32.9002C5.69961 30.4002 5.89961 30.0002 4.09961 29.8002C4.09961 29.8002 4.09961 32.2002 6.89961 36.2002C6.89961 36.2002 4.59961 34.4002 3.89961 30.9002C3.09961 27.5002 2.19961 26.8002 0.0996094 26.2002C1.29961 38.5002 11.6996 48.1002 24.2996 48.1002V42.5002C23.5996 42.3002 23.5996 42.3002 22.8996 41.6002Z" fill="#0F63AC"/>
<path d="M25.4996 41.6002C28.3996 39.2002 30.5996 39.9002 35.3996 39.9002C37.3996 39.9002 39.2996 38.9002 40.4996 37.6002C36.5996 40.4002 32.5996 38.3002 32.5996 38.3002C32.5996 38.3002 35.1996 37.4002 36.4996 35.6002C37.7996 33.9002 37.7996 33.2002 39.3996 33.2002C39.3996 33.2002 38.0996 35.4002 36.5996 36.9002C36.5996 36.9002 37.7996 36.2002 39.1996 33.9002C39.9996 32.5002 40.1996 31.7002 41.6996 31.7002C41.6996 31.7002 41.1996 34.0002 38.1996 37.0002C38.1996 37.0002 40.4996 35.4002 41.5996 32.9002C42.6996 30.4002 42.4996 30.0002 44.2996 29.8002C44.2996 29.8002 44.2996 32.2002 41.4996 36.2002C41.4996 36.2002 43.7996 34.4002 44.4996 30.9002C45.2996 27.5002 46.1996 26.8002 48.2996 26.2002C47.0996 38.5002 36.6996 48.1002 24.0996 48.1002V42.5002C24.7996 42.3002 24.7996 42.3002 25.4996 41.6002Z" fill="#0F63AC"/>
<path d="M24.1988 47.9C10.9988 47.9 0.298828 37.1 0.298828 23.9C0.298828 10.7 10.9988 0 24.1988 0C37.3988 0 48.0988 10.7 48.0988 23.9C48.1988 37.1 37.3988 47.9 24.1988 47.9ZM24.1988 0.3C11.1988 0.3 0.498828 10.9 0.498828 24C0.498828 37 11.0988 47.7 24.1988 47.7C37.2988 47.7 47.8988 37 47.8988 23.9C47.8988 10.9 37.2988 0.3 24.1988 0.3Z" fill="#0F63AC"/>
<path d="M39.1988 32.6001C39.0988 32.5001 38.9988 32.5001 39.0988 32.4001C40.5988 29.8001 41.2988 26.8001 41.2988 23.8001C41.2988 19.2001 39.3988 14.9001 36.1988 11.7001C32.9988 8.5001 28.6988 6.8001 24.1988 6.8001H24.0988C19.4988 6.8001 15.1988 8.7001 11.9988 11.9001C8.79883 15.2001 6.99883 19.5001 7.09883 24.0001C7.09883 26.9001 7.89883 29.8001 9.29883 32.3001C9.29883 32.4001 9.29883 32.5001 9.19883 32.5001C9.09883 32.5001 8.99883 32.5001 8.99883 32.4001C7.59883 30.0001 6.79883 27.0001 6.79883 24.1001C6.79883 19.5001 8.49883 15.1001 11.7988 11.8001C15.0988 8.5001 19.3988 6.6001 24.0988 6.6001H24.1988C28.7988 6.6001 33.0988 8.4001 36.3988 11.6001C39.6988 14.9001 41.5988 19.2001 41.5988 23.9001C41.5988 27.0001 40.7988 30.0001 39.2988 32.6001C39.2988 32.6001 39.2988 32.6001 39.1988 32.6001Z" fill="#0F63AC"/>
<path d="M18.5 42.9999C18.5 42.8999 18.6 42.6999 18.5 42.6999C18.5 42.5999 18.4 42.5999 18.3 42.4999L17.8 42.3999V42.2999L18.1 42.3999C18.6 42.4999 19.1 42.3999 19.6 41.8999L20 41.9999L19 45.6999C19 45.7999 19 45.8999 18.9 45.8999V45.9999L19 46.0999L19.6 46.2999V46.3999L17 45.6999V45.5999L17.5 45.6999C17.6 45.6999 17.7 45.6999 17.7 45.4999L18.5 42.9999Z" fill="white"/>
<path d="M22.5 44.6999C22.4 44.8999 22.3 44.9999 22.1 45.0999C21.9 45.1999 21.7 45.1999 21.5 45.1999C21.3 45.1999 21.1 45.0999 20.9 44.8999C20.7 44.7999 20.6 44.5999 20.5 44.3999C20.4 44.1999 20.4 43.9999 20.4 43.6999C20.5 43.2999 20.7 42.9999 21 42.6999C21.3 42.3999 21.8 42.3999 22.3 42.3999C22.7 42.4999 23 42.5999 23.2 42.8999C23.4 43.1999 23.6 43.4999 23.7 43.8999C23.8 44.2999 23.8 44.5999 23.7 44.8999C23.6 45.1999 23.5 45.4999 23.4 45.7999C23.2 46.0999 23.1 46.2999 22.8 46.3999C22.6 46.5999 22.3 46.6999 22.1 46.6999C21.8 46.7999 21.6 46.7999 21.3 46.6999C21.1 46.6999 20.8 46.5999 20.6 46.3999C20.4 46.1999 20.2 45.9999 20.3 45.6999C20.3 45.4999 20.4 45.2999 20.6 45.2999C20.7 45.1999 20.9 45.1999 21.1 45.1999C21.2 45.1999 21.3 45.1999 21.4 45.2999C21.5 45.3999 21.6 45.3999 21.6 45.4999C21.7 45.5999 21.7 45.6999 21.7 45.7999C21.7 45.8999 21.7 45.9999 21.6 45.9999C21.6 45.9999 21.5 46.0999 21.4 46.0999C21.3 46.0999 21.3 46.1999 21.3 46.1999L21.2 46.2999C21.2 46.3999 21.2 46.3999 21.3 46.4999C21.4 46.4999 21.5 46.5999 21.6 46.5999C21.8 46.5999 22 46.5999 22.1 46.3999C22.2 46.2999 22.4 45.9999 22.4 45.4999L22.5 44.6999ZM22.7 43.3999C22.7 43.0999 22.7 42.8999 22.7 42.7999C22.7 42.6999 22.6 42.5999 22.4 42.5999C22.2 42.5999 22 42.7999 21.9 43.1999C21.8 43.5999 21.8 43.7999 21.7 43.9999C21.7 43.9999 21.7 44.0999 21.7 44.1999C21.7 44.2999 21.7 44.3999 21.7 44.4999C21.7 44.5999 21.7 44.6999 21.7 44.7999C21.7 44.8999 21.7 44.8999 21.8 44.9999C21.8 44.9999 21.9 45.0999 22 45.0999C22.1 45.0999 22.2 45.0999 22.3 44.8999C22.4 44.7999 22.5 44.5999 22.6 44.2999V44.1999V44.0999V43.9999V43.8999C22.6 43.8999 22.6 43.7999 22.6 43.6999C22.7 43.4999 22.7 43.3999 22.7 43.3999Z" fill="white"/>
<path d="M24.6 42.9C24.6 42.9 24.7 42.9 24.9 42.9C25.1 42.9 25.3 42.9 25.5 42.9C25.7 42.9 26 42.9 26.2 42.9C26.3 42.9 26.3 42.9 26.4 42.9C26.6 42.9 26.8 42.8 26.9 42.8C27 42.7 27.1 42.6 27.1 42.5H27.2C27.2 43 27.1 43.4 26.8 43.6C26.5 43.8 26.1 44 25.7 44C25.4 44 25.2 44 24.9 44C24.9 44.1 24.9 44.3 24.9 44.5C24.9 44.7 24.9 44.9 24.9 45C25 44.7 25.2 44.5 25.4 44.4C25.6 44.3 25.9 44.2 26.2 44.2C26.5 44.2 26.8 44.2 27 44.3C27.3 44.4 27.5 44.6 27.6 44.8C27.8 45 27.8 45.3 27.9 45.5C27.9 45.8 27.8 46.1 27.7 46.4C27.5 46.7 27.3 46.9 27 47C26.7 47.1 26.3 47.2 25.9 47.3C25.5 47.3 25.1 47.2 24.9 47C24.6 46.8 24.5 46.6 24.5 46.3C24.5 46.1 24.6 45.9 24.7 45.8C24.8 45.7 25 45.6 25.1 45.6C25.2 45.6 25.3 45.6 25.4 45.7C25.5 45.7 25.6 45.8 25.7 45.9C25.8 46 25.8 46.1 25.8 46.2C25.8 46.3 25.8 46.4 25.7 46.5C25.7 46.6 25.6 46.6 25.4 46.7C25.4 46.7 25.3 46.7 25.2 46.8C25.1 46.8 25.1 46.9 25.1 46.9C25.1 47 25.2 47.1 25.4 47.1C25.5 47.1 25.7 47.2 25.8 47.1C26 47.1 26.1 47 26.3 47C26.4 46.9 26.5 46.8 26.6 46.6C26.7 46.4 26.7 46.1 26.7 45.8C26.7 45.3 26.6 44.9 26.5 44.7C26.4 44.5 26.2 44.4 26 44.4C25.8 44.4 25.6 44.5 25.4 44.7C25.2 44.9 25.1 45.1 25 45.3H24.9C24.9 44.8 24.9 44.4 24.8 44C24.6 43.4 24.6 43.1 24.6 42.9Z" fill="white"/>
<path d="M29.7992 44.3999C29.7992 43.9999 30.0992 43.7999 30.3992 43.6999C30.5992 43.5999 30.8992 43.5999 31.0992 43.6999C31.2992 43.6999 31.4992 43.8999 31.6992 43.9999C31.8992 44.1999 31.9992 44.3999 31.9992 44.5999C31.9992 44.7999 31.9992 44.8999 31.9992 45.0999C31.9992 45.2999 31.8992 45.4999 31.7992 45.5999C31.6992 45.6999 31.5992 45.8999 31.3992 46.0999C31.1992 46.1999 30.9992 46.2999 30.6992 46.3999C30.3992 46.4999 29.9992 46.4999 29.6992 46.2999C29.3992 46.1999 29.0992 45.9999 28.8992 45.6999C28.6992 45.3999 28.4992 45.0999 28.3992 44.6999C28.2992 44.1999 28.2992 43.7999 28.3992 43.4999C28.4992 43.0999 28.6992 42.7999 28.8992 42.4999C29.1992 42.1999 29.4992 42.0999 29.7992 41.9999C29.9992 41.9999 30.1992 41.8999 30.3992 41.8999C30.5992 41.8999 30.7992 41.9999 30.8992 41.9999C31.0992 42.0999 31.1992 42.1999 31.1992 42.3999C31.1992 42.5999 31.1992 42.7999 31.0992 42.8999C30.9992 42.9999 30.8992 43.0999 30.6992 43.1999C30.4992 43.1999 30.3992 43.1999 30.2992 43.1999C30.1992 43.0999 30.0992 42.9999 29.9992 42.8999C29.9992 42.7999 29.9992 42.6999 29.9992 42.5999C29.9992 42.4999 30.0992 42.4999 30.1992 42.3999C30.2992 42.2999 30.2992 42.2999 30.2992 42.1999C30.2992 42.0999 30.1992 42.0999 30.0992 42.0999C29.9992 42.0999 29.8992 42.0999 29.7992 42.0999C29.5992 42.1999 29.3992 42.2999 29.3992 42.4999C29.3992 42.6999 29.3992 42.9999 29.3992 43.1999L29.7992 44.3999ZM30.5992 44.1999C30.4992 44.0999 30.4992 43.9999 30.3992 43.8999C30.3992 43.8999 30.2992 43.7999 30.1992 43.8999C30.0992 43.8999 29.9992 43.9999 29.9992 44.0999C29.8992 44.1999 29.8992 44.3999 29.8992 44.5999C29.8992 44.6999 29.8992 44.9999 29.9992 45.3999C30.0992 45.6999 30.1992 45.8999 30.1992 45.9999C30.2992 46.2999 30.4992 46.3999 30.6992 46.3999C30.8992 46.2999 30.9992 46.1999 30.9992 45.8999C30.9992 45.5999 30.8992 45.2999 30.7992 44.8999C30.6992 44.5999 30.6992 44.3999 30.5992 44.1999Z" fill="white"/>
<path d="M3.29922 22.8003C3.39922 22.5003 3.49922 22.3003 3.59922 22.1003C3.79922 21.9003 3.99922 21.8003 4.19922 21.8003C4.49922 21.8003 4.69922 21.9003 4.79922 22.1003C4.99922 22.4003 5.09922 22.8003 4.99922 23.3003V25.0003H4.89922C4.89922 24.8003 4.89922 24.7003 4.89922 24.7003C4.89922 24.6003 4.79922 24.6003 4.79922 24.6003C4.79922 24.6003 4.59922 24.6003 4.49922 24.5003L2.29922 24.4003C2.09922 24.4003 1.99922 24.4003 1.99922 24.4003L1.89922 24.5003C1.89922 24.6003 1.79922 24.7003 1.79922 24.8003H1.69922L1.79922 23.2003C1.79922 22.8003 1.89922 22.5003 1.89922 22.4003C1.89922 22.3003 1.99922 22.1003 2.09922 22.0003C2.19922 21.9003 2.39922 21.9003 2.49922 21.9003C2.69922 21.9003 2.79922 22.0003 2.89922 22.1003C3.09922 22.2003 3.19922 22.5003 3.29922 22.8003ZM3.09922 23.7003C3.09922 23.5003 3.09922 23.3003 2.99922 23.2003C2.99922 23.0003 2.99922 22.9003 2.89922 22.9003C2.79922 22.8003 2.69922 22.8003 2.49922 22.8003C2.29922 22.8003 2.19922 22.8003 2.09922 22.9003C1.99922 22.9003 1.99922 23.0003 1.89922 23.1003C1.79922 23.2003 1.79922 23.4003 1.79922 23.6003L3.09922 23.7003ZM3.29922 23.7003L4.39922 23.8003H4.49922C4.59922 23.8003 4.69922 23.8003 4.69922 23.7003C4.69922 23.7003 4.79922 23.6003 4.79922 23.5003C4.79922 23.4003 4.79922 23.2003 4.69922 23.1003C4.59922 23.0003 4.59922 22.9003 4.49922 22.8003C4.39922 22.7003 4.29922 22.7003 4.09922 22.7003C3.89922 22.7003 3.79922 22.7003 3.69922 22.8003C3.59922 22.9003 3.49922 23.0003 3.39922 23.1003C3.39922 23.2003 3.39922 23.4003 3.29922 23.7003Z" fill="#0F63AC"/>
<path d="M1.5 19.3L1.6 18.8L2 18.5V18.6L1.7 19.1L1.8 19.6V19.7L1.5 19.3ZM2.3 19.5L3.7 19.8V19.7C3.7 19.5 3.7 19.3 3.6 19.2C3.5 19.2 3.3 19.1 3 19V18.9L4.7 19.3V19.4C4.5 19.4 4.3 19.4 4.2 19.4C4.1 19.4 4 19.5 3.9 19.6C3.8 19.7 3.8 19.8 3.8 19.9L4.7 20.1C4.9 20.1 5 20.2 5 20.2C5 20.2 5.1 20.2 5.1 20.1C5.1 20.1 5.2 20 5.2 19.9V19.7C5.3 19.4 5.3 19.1 5.2 18.9C5.1 18.7 4.9 18.5 4.6 18.3V18.2L5.6 18.6L4.9 21.5H4.8V21.4C4.8 21.3 4.8 21.2 4.8 21.2C4.8 21.2 4.8 21.1 4.7 21.1C4.7 21.1 4.6 21 4.4 21L2.2 20.5C2 20.5 2 20.4 1.9 20.4C1.8 20.4 1.8 20.4 1.7 20.5C2 20.5 2 20.6 1.9 20.7V20.8H1.8L2.5 18L3.5 18.2V18.3C3.2 18.3 3.1 18.3 2.9 18.4C2.8 18.5 2.7 18.6 2.6 18.7C2.5 18.8 2.5 19 2.4 19.2L2.3 19.5ZM5.7 20.1C5.7 20 5.8 19.9 5.9 19.8C6 19.7 6.1 19.7 6.2 19.7C6.3 19.7 6.4 19.8 6.5 19.9C6.6 20 6.6 20.1 6.6 20.2C6.6 20.3 6.5 20.4 6.4 20.5C6.3 20.6 6.2 20.6 6.1 20.6C6 20.6 5.9 20.5 5.8 20.4C5.7 20.4 5.7 20.3 5.7 20.1Z" fill="#0F63AC"/>
<path d="M3.3 15.7001L5.9 15.0001L4.6 14.4001C4.4 14.3001 4.3 14.3001 4.2 14.3001C4.1 14.3001 4 14.4001 3.9 14.6001H3.8L4.3 13.6001H4.4C4.4 13.7001 4.3 13.8001 4.3 13.9001C4.3 14.0001 4.3 14.0001 4.4 14.1001C4.4 14.2001 4.5 14.2001 4.7 14.3001L7.3 15.5001V15.6001L3.8 16.6001L5.8 17.5001C6 17.6001 6.1 17.6001 6.2 17.5001C6.3 17.4001 6.4 17.4001 6.4 17.3001V17.2001H6.5L6 18.3001H5.9C6 18.1001 6 18.0001 6 17.9001C6 17.8001 5.9 17.7001 5.7 17.6001L3.5 16.6001H3.4C3.3 16.6001 3.2 16.7001 3.2 16.7001C3.2 16.7001 3.1 16.8001 3.1 16.9001H3L3.3 15.7001Z" fill="#0F63AC"/>
<path d="M6.90039 12.7001L7.80039 13.3001C7.90039 13.4001 8.00039 13.5001 8.10039 13.5001C8.10039 13.5001 8.20039 13.5001 8.30039 13.5001C8.40039 13.5001 8.40039 13.4001 8.50039 13.3001L8.60039 13.2001L8.70039 13.3001L7.70039 14.7001L7.60039 14.6001L7.70039 14.5001C7.80039 14.4001 7.80039 14.3001 7.80039 14.3001C7.80039 14.3001 7.80039 14.2001 7.80039 14.1001C7.80039 14.1001 7.70039 14.0001 7.60039 13.9001L5.80039 12.6001C5.70039 12.5001 5.60039 12.4001 5.50039 12.4001C5.50039 12.4001 5.40039 12.4001 5.30039 12.4001C5.20039 12.4001 5.20039 12.5001 5.10039 12.6001L5.00039 12.7001L4.90039 12.6001L5.90039 11.2001L6.00039 11.3001L5.90039 11.4001C5.80039 11.5001 5.80039 11.6001 5.80039 11.6001C5.80039 11.6001 5.80039 11.7001 5.80039 11.8001C5.80039 11.8001 5.90039 11.9001 6.00039 12.0001L6.80039 12.6001L7.50039 11.6001L6.70039 11.0001C6.60039 10.9001 6.50039 10.8001 6.40039 10.8001C6.40039 10.8001 6.30039 10.8001 6.20039 10.8001C6.20039 10.9001 6.10039 11.0001 6.00039 11.0001V11.1001L5.90039 11.0001L6.90039 9.6001L7.00039 9.7001V9.8001C6.90039 9.9001 6.90039 9.9001 6.90039 10.0001C6.90039 10.0001 6.90039 10.1001 6.90039 10.2001C6.90039 10.2001 7.00039 10.3001 7.10039 10.4001L9.00039 11.7001C9.10039 11.8001 9.20039 11.9001 9.30039 11.9001C9.30039 11.9001 9.40039 11.9001 9.50039 11.9001C9.60039 11.9001 9.60039 11.8001 9.70039 11.7001L9.80039 11.6001L9.90039 11.7001L8.90039 13.1001L8.60039 13.0001L8.70039 12.9001C8.80039 12.8001 8.80039 12.7001 8.80039 12.7001C8.80039 12.7001 8.80039 12.6001 8.80039 12.5001C8.80039 12.5001 8.70039 12.4001 8.60039 12.3001L7.70039 11.7001L6.90039 12.7001Z" fill="#0F63AC"/>
<path d="M11.4996 5.6001C11.4996 5.8001 11.3996 5.9001 11.3996 6.0001C11.3996 6.1001 11.3996 6.3001 11.4996 6.7001L12.1996 9.5001L12.0996 9.6001L9.59961 8.1001C9.29961 7.9001 9.09961 7.9001 8.99961 7.8001C8.89961 7.8001 8.79961 7.8001 8.69961 7.9001H8.59961L9.89961 6.9001H9.99961C9.79961 7.0001 9.79961 7.1001 9.69961 7.2001V7.3001C9.69961 7.3001 9.69961 7.3001 9.79961 7.4001C9.79961 7.4001 9.89961 7.5001 10.0996 7.6001L11.6996 8.5001L11.2996 6.9001C11.1996 6.7001 11.1996 6.6001 11.1996 6.5001C11.1996 6.4001 11.0996 6.4001 11.0996 6.4001L10.9996 6.3001H10.8996C10.7996 6.3001 10.6996 6.4001 10.5996 6.4001L10.4996 6.3001L11.4996 5.6001Z" fill="#0F63AC"/>
<path d="M15.2992 7.1999L13.7992 8.1999V8.0999L13.8992 7.9999C13.9992 7.9999 13.9992 7.8999 14.0992 7.8999C14.0992 7.8999 14.0992 7.7999 14.0992 7.6999C14.0992 7.6999 14.0992 7.5999 13.9992 7.3999L12.8992 5.4999C12.7992 5.2999 12.7992 5.2999 12.6992 5.1999C12.6992 5.1999 12.5992 5.1999 12.4992 5.1999C12.3992 5.1999 12.3992 5.1999 12.2992 5.2999L12.1992 5.3999V5.2999L13.6992 4.3999V4.4999L13.5992 4.5999C13.4992 4.5999 13.4992 4.6999 13.3992 4.7999C13.3992 4.7999 13.3992 4.8999 13.3992 4.9999C13.3992 4.9999 13.3992 5.0999 13.4992 5.2999L14.6992 6.9999C14.7992 7.1999 14.7992 7.1999 14.8992 7.2999C14.8992 7.2999 14.9992 7.2999 15.0992 7.2999C15.0992 7.2999 15.1992 7.2999 15.2992 7.1999Z" fill="#0F63AC"/>
<path d="M15.7004 3.6001L16.2004 4.9001H16.3004C16.5004 4.8001 16.6004 4.7001 16.7004 4.5001C16.7004 4.3001 16.7004 4.1001 16.7004 3.9001H16.8004L17.5004 5.6001H17.4004C17.3004 5.4001 17.2004 5.3001 17.1004 5.2001C16.8004 5.1001 16.7004 5.0001 16.6004 5.0001C16.5004 5.0001 16.4004 5.0001 16.2004 5.1001L16.6004 6.0001C16.7004 6.2001 16.7004 6.3001 16.7004 6.3001L16.8004 6.4001C16.9004 6.4001 16.9004 6.4001 17.0004 6.4001L17.2004 6.3001C17.5004 6.2001 17.7004 6.0001 17.8004 5.8001C18.0004 5.6001 18.1004 5.3001 18.1004 5.0001H18.2004L18.4004 6.0001L15.7004 7.1001V7.0001H15.8004C15.9004 7.0001 16.0004 6.9001 16.0004 6.9001V6.8001C16.0004 6.8001 16.0004 6.7001 15.9004 6.5001L15.1004 4.4001C15.0004 4.2001 15.0004 4.1001 14.9004 4.0001L14.8004 3.9001C14.7004 3.9001 14.6004 3.9001 14.5004 3.9001H14.4004V3.8001L17.1004 2.8001L17.5004 3.7001H17.4004C17.3004 3.5001 17.1004 3.3001 17.0004 3.3001C16.9004 3.2001 16.7004 3.2001 16.6004 3.2001C16.5004 3.2001 16.3004 3.3001 16.1004 3.4001L15.7004 3.6001ZM15.5004 2.8001L15.9004 2.6001L16.4004 2.8001H16.3004H15.7004L15.3004 3.1001H15.2004L15.5004 2.8001ZM17.1004 6.8001C17.2004 6.8001 17.3004 6.8001 17.4004 6.8001C17.5004 6.8001 17.6004 6.9001 17.6004 7.0001C17.6004 7.1001 17.6004 7.2001 17.6004 7.3001C17.6004 7.4001 17.5004 7.5001 17.4004 7.5001C17.3004 7.5001 17.2004 7.5001 17.1004 7.5001C17.0004 7.5001 16.9004 7.4001 16.9004 7.3001C16.9004 7.2001 16.9004 7.1001 16.9004 7.0001C16.9004 6.9001 17.0004 6.8001 17.1004 6.8001Z" fill="#0F63AC"/>
<path d="M19.4008 2.2999L21.4008 4.0999L21.1008 2.6999C21.1008 2.4999 21.0008 2.3999 20.9008 2.2999C20.8008 2.1999 20.7008 2.1999 20.5008 2.1999V2.0999L21.6008 1.8999V1.9999C21.5008 1.9999 21.4008 2.0999 21.3008 2.0999C21.3008 2.0999 21.2008 2.1999 21.2008 2.2999C21.2008 2.3999 21.2008 2.4999 21.2008 2.5999L21.7008 5.3999H21.6008L19.0008 2.9999L19.4008 5.0999C19.4008 5.2999 19.5008 5.3999 19.6008 5.4999C19.7008 5.5999 19.8008 5.5999 19.9008 5.4999H20.0008V5.5999L18.8008 5.7999V5.6999C19.0008 5.6999 19.1008 5.5999 19.2008 5.4999C19.3008 5.3999 19.3008 5.2999 19.2008 5.0999L18.8008 2.6999L18.7008 2.5999C18.6008 2.4999 18.5008 2.4999 18.5008 2.4999C18.4008 2.4999 18.4008 2.4999 18.3008 2.4999V2.3999L19.4008 2.2999Z" fill="#0F63AC"/>
<path d="M25.5 1.8001L27 4.1001L27.1 2.6001C27.1 2.4001 27.1 2.3001 27 2.2001C27 2.1001 26.9 2.0001 26.7 2.0001V1.9001L27.8 2.0001V2.1001C27.7 2.1001 27.6 2.1001 27.5 2.1001C27.4 2.1001 27.4 2.2001 27.4 2.2001C27.4 2.3001 27.3 2.4001 27.3 2.5001L27.1 5.3001H27L24.9 2.3001L24.7 4.5001C24.7 4.7001 24.7 4.8001 24.8 4.9001C24.9 5.0001 25 5.0001 25.1 5.0001H25.2V5.1001H24V5.0001C24.2 5.0001 24.3 5.0001 24.4 4.9001C24.5 4.8001 24.5 4.7001 24.5 4.5001L24.7 2.1001L24.6 2.0001C24.5 1.9001 24.5 1.8001 24.4 1.8001C24.3 1.8001 24.3 1.7001 24.2 1.7001V1.6001L25.5 1.8001Z" fill="#0F63AC"/>
<path d="M29.5008 4.3001L29.2008 5.3001C29.1008 5.5001 29.1008 5.6001 29.1008 5.6001C29.1008 5.6001 29.1008 5.7001 29.2008 5.7001C29.2008 5.7001 29.3008 5.8001 29.4008 5.8001H29.5008V5.9001L27.8008 5.4001V5.3001H27.9008C28.0008 5.3001 28.1008 5.3001 28.1008 5.3001C28.1008 5.3001 28.2008 5.3001 28.2008 5.2001C28.2008 5.2001 28.3008 5.1001 28.3008 4.9001L28.9008 2.7001C29.0008 2.5001 29.0008 2.4001 29.0008 2.4001C29.0008 2.4001 29.0008 2.3001 28.9008 2.3001C28.9008 2.3001 28.8008 2.2001 28.7008 2.2001H28.6008V2.1001L30.3008 2.6001V2.7001H30.2008C30.1008 2.7001 30.0008 2.7001 30.0008 2.7001C30.0008 2.7001 29.9008 2.7001 29.9008 2.8001C29.9008 2.8001 29.8008 2.9001 29.8008 3.1001L29.5008 4.0001L30.7008 4.3001L31.0008 3.5001C31.1008 3.3001 31.1008 3.2001 31.1008 3.2001C31.1008 3.2001 31.1008 3.1001 31.0008 3.1001C31.0008 3.1001 30.9008 3.0001 30.8008 3.0001H30.7008V2.9001L32.4008 3.4001V3.5001H32.3008C32.2008 3.5001 32.1008 3.5001 32.1008 3.5001C32.1008 3.5001 32.0008 3.5001 32.0008 3.6001C32.0008 3.6001 31.9008 3.7001 31.9008 3.9001L31.3008 6.1001C31.2008 6.3001 31.2008 6.4001 31.2008 6.4001C31.2008 6.4001 31.2008 6.5001 31.3008 6.5001C31.3008 6.5001 31.4008 6.6001 31.5008 6.6001H31.6008V6.7001L29.9008 6.2001V6.1001H30.0008C30.1008 6.1001 30.2008 6.1001 30.2008 6.1001C30.2008 6.1001 30.3008 6.1001 30.3008 6.0001C30.3008 6.0001 30.4008 5.9001 30.4008 5.7001L30.7008 4.7001L29.5008 4.3001Z" fill="#0F63AC"/>
<path d="M33.2992 7.4001L31.6992 6.7001V6.6001H31.7992C31.8992 6.6001 31.9992 6.7001 31.9992 6.7001C31.9992 6.7001 32.0992 6.7001 32.0992 6.6001C32.0992 6.6001 32.1992 6.5001 32.2992 6.3001L33.2992 4.3001C33.3992 4.1001 33.3992 4.0001 33.3992 4.0001C33.3992 4.0001 33.3992 3.9001 33.2992 3.8001C33.2992 3.7001 33.1992 3.7001 33.0992 3.7001H32.9992V3.6001L34.5992 4.4001V4.5001H34.4992C34.3992 4.5001 34.2992 4.4001 34.2992 4.4001C34.2992 4.4001 34.1992 4.4001 34.1992 4.5001C34.1992 4.5001 34.0992 4.6001 33.9992 4.8001L32.9992 6.8001C32.9992 6.9001 32.9992 7.1001 32.9992 7.1001C32.9992 7.1001 32.9992 7.2001 33.0992 7.3001C33.0992 7.4001 33.1992 7.4001 33.2992 7.4001V7.4001Z" fill="#0F63AC"/>
<path d="M34.8008 8.4001H34.9008C35.0008 8.5001 35.0008 8.5001 35.1008 8.5001C35.2008 8.5001 35.2008 8.5001 35.3008 8.5001C35.3008 8.5001 35.4008 8.4001 35.5008 8.3001L36.2008 7.4001L35.8008 7.0001L36.0008 6.9001L36.4008 7.2001L37.0008 6.5001C37.1008 6.4001 37.2008 6.3001 37.2008 6.2001C37.2008 6.2001 37.2008 6.1001 37.2008 6.0001C37.2008 5.9001 37.1008 5.9001 37.1008 5.8001L37.0008 5.7001L37.1008 5.6001L38.3008 6.6001C38.6008 6.9001 38.8008 7.1001 39.0008 7.4001C38.9008 7.7001 39.0008 8.0001 38.9008 8.3001C38.8008 8.6001 38.7008 8.9001 38.5008 9.2001C38.3008 9.4001 38.2008 9.5001 38.0008 9.6001C37.8008 9.7001 37.6008 9.8001 37.5008 9.8001C37.3008 9.8001 37.1008 9.8001 37.0008 9.8001C36.8008 9.8001 36.6008 9.7001 36.4008 9.6001C36.3008 9.6001 36.2008 9.5001 36.0008 9.3001L34.8008 8.4001ZM37.8008 6.7001L37.0008 7.7001L37.6008 8.2001L37.5008 8.3001L36.9008 7.8001L36.2008 8.7001C36.0008 8.9001 36.0008 8.9001 36.0008 9.0001V9.1001C36.0008 9.1001 36.1008 9.2001 36.1008 9.3001C36.3008 9.5001 36.5008 9.5001 36.8008 9.5001C37.1008 9.4001 37.4008 9.2001 37.8008 8.8001C38.1008 8.5001 38.2008 8.1001 38.3008 7.9001C38.3008 7.7001 38.3008 7.5001 38.2008 7.3001C38.2008 7.0001 38.0008 6.9001 37.8008 6.7001Z" fill="#0F63AC"/>
<path d="M41.6009 10.0003C42.0009 10.4003 42.1009 10.9003 42.1009 11.3003C42.1009 11.8003 41.8009 12.2003 41.4009 12.5003C41.0009 12.8003 40.7009 13.0003 40.3009 13.0003C39.7009 13.0003 39.3009 12.8003 38.9009 12.3003C38.5009 11.8003 38.4009 11.3003 38.5009 10.8003C38.6009 10.4003 38.8009 10.0003 39.2009 9.80029C39.6009 9.50029 40.0009 9.30029 40.5009 9.40029C40.9009 9.40029 41.3009 9.60029 41.6009 10.0003ZM41.5009 10.2003C41.3009 10.0003 41.0009 9.90029 40.7009 10.0003C40.4009 10.1003 40.1009 10.2003 39.7009 10.6003C39.2009 11.0003 39.0009 11.3003 38.9009 11.7003C38.8009 11.9003 38.9009 12.1003 39.1009 12.3003C39.2009 12.4003 39.3009 12.5003 39.5009 12.6003C39.7009 12.6003 39.9009 12.6003 40.1009 12.5003C40.3009 12.4003 40.6009 12.3003 40.9009 12.0003C41.2009 11.7003 41.5009 11.5003 41.6009 11.3003C41.7009 11.1003 41.8009 10.9003 41.8009 10.8003C41.6009 10.4003 41.6009 10.3003 41.5009 10.2003ZM41.9009 9.50029L42.2009 9.90029V10.4003L42.1009 10.3003L41.9009 9.80029L41.4009 9.50029L41.3009 9.40029L41.9009 9.50029ZM42.1009 8.80029L42.6009 9.40029L42.4009 9.70029L42.3009 9.50029L42.1009 8.80029Z" fill="#0F63AC"/>
<path d="M43.7992 13.4003L42.6992 15.9003L43.9992 15.2003C44.1992 15.1003 44.2992 15.0003 44.2992 14.9003C44.2992 14.8003 44.2992 14.6003 44.1992 14.5003H44.2992L44.7992 15.5003H44.6992C44.5992 15.4003 44.5992 15.3003 44.4992 15.3003C44.4992 15.3003 44.3992 15.3003 44.2992 15.3003C44.1992 15.3003 44.0992 15.3003 43.9992 15.4003L41.4992 16.7003V16.6003L42.9992 13.2003L41.0992 14.2003C40.8992 14.3003 40.7992 14.4003 40.7992 14.5003C40.7992 14.6003 40.7992 14.7003 40.8992 14.8003V14.9003H40.7992L40.1992 13.8003H40.2992C40.3992 14.0003 40.4992 14.1003 40.5992 14.1003C40.6992 14.1003 40.7992 14.1003 40.9992 14.0003L43.0992 12.9003V12.8003C43.0992 12.7003 43.1992 12.6003 43.1992 12.5003C43.1992 12.4003 43.1992 12.4003 43.0992 12.3003H43.1992L43.7992 13.4003Z" fill="#0F63AC"/>
<path d="M46.3008 19.5999L45.1008 19.9999V19.8999C45.4008 19.6999 45.6008 19.4999 45.7008 19.1999C45.8008 18.8999 45.8008 18.6999 45.7008 18.3999C45.6008 18.1999 45.5008 17.9999 45.3008 17.7999C45.1008 17.6999 44.9008 17.5999 44.6008 17.5999C44.3008 17.5999 44.1008 17.5999 43.8008 17.6999C43.5008 17.7999 43.2008 17.8999 43.0008 17.9999C42.8008 18.0999 42.6008 18.2999 42.6008 18.4999C42.5008 18.6999 42.5008 18.8999 42.6008 19.0999C42.6008 19.1999 42.7008 19.2999 42.7008 19.2999C42.7008 19.3999 42.8008 19.4999 42.8008 19.4999L43.5008 19.2999C43.6008 19.2999 43.7008 19.1999 43.7008 19.1999L43.8008 19.0999C43.8008 18.9999 43.8008 18.9999 43.8008 18.8999V18.7999H43.9008L44.4008 20.3999H44.3008C44.3008 20.2999 44.2008 20.1999 44.2008 20.1999C44.2008 20.1999 44.1008 20.0999 44.0008 20.0999C44.0008 20.0999 43.9008 20.0999 43.8008 20.0999L43.1008 20.2999C42.9008 20.0999 42.8008 19.8999 42.7008 19.6999C42.6008 19.4999 42.5008 19.2999 42.4008 18.9999C42.3008 18.6999 42.3008 18.3999 42.3008 18.1999C42.3008 17.9999 42.4008 17.7999 42.5008 17.5999C42.6008 17.3999 42.7008 17.1999 42.9008 17.0999C43.1008 16.8999 43.3008 16.7999 43.6008 16.6999C44.1008 16.5999 44.6008 16.5999 45.0008 16.8999C45.4008 17.1999 45.7008 17.4999 45.9008 18.0999C45.9008 18.2999 46.0008 18.3999 46.0008 18.5999C46.0008 18.6999 46.0008 18.7999 46.0008 18.9999C46.0008 19.1999 46.0008 19.2999 46.0008 19.2999C46.0008 19.2999 46.0008 19.3999 46.1008 19.3999C46.1008 19.4999 46.1008 19.4999 46.3008 19.5999Z" fill="#0F63AC"/>
<path d="M46.7008 24.0999L43.9008 24.1999C43.7008 24.1999 43.6008 24.1999 43.5008 24.1999C43.4008 24.1999 43.4008 24.2999 43.4008 24.2999C43.4008 24.3999 43.3008 24.4999 43.4008 24.5999V24.6999H43.3008V22.8999H43.4008V22.9999C43.4008 23.0999 43.4008 23.1999 43.5008 23.2999C43.5008 23.3999 43.6008 23.3999 43.6008 23.3999C43.7008 23.3999 43.8008 23.3999 44.0008 23.3999H45.8008C46.0008 23.3999 46.1008 23.3999 46.1008 23.3999C46.1008 23.3999 46.2008 23.3999 46.2008 23.2999V23.1999C46.2008 23.0999 46.2008 22.9999 46.1008 22.8999H46.2008L46.7008 24.0999Z" fill="#0F63AC"/>
<path d="M23.9996 37.1003C28.9149 37.1003 32.8996 33.1156 32.8996 28.2003C32.8996 23.285 28.9149 19.3003 23.9996 19.3003C19.0843 19.3003 15.0996 23.285 15.0996 28.2003C15.0996 33.1156 19.0843 37.1003 23.9996 37.1003Z" fill="#0F63AC"/>
<path d="M24.2 16.5001C26.5196 16.5001 28.4 14.6197 28.4 12.3001C28.4 9.9805 26.5196 8.1001 24.2 8.1001C21.8804 8.1001 20 9.9805 20 12.3001C20 14.6197 21.8804 16.5001 24.2 16.5001Z" fill="#0F63AC"/>
<path d="M24 36.7002C19.3 36.7002 15.5 32.9002 15.5 28.2002C15.5 26.3002 16.1 24.5002 17.3 23.0002C17.4 22.8002 17.7 22.8002 17.9 22.9002C18.1 23.0002 18.1 23.3002 18 23.5002C16.9 24.9002 16.4 26.5002 16.4 28.2002C16.4 32.4002 19.8 35.8002 24 35.8002C28.2 35.8002 31.6 32.4002 31.6 28.2002C31.6 26.5002 31 24.8002 30 23.5002C29.9 23.3002 29.9 23.1002 30.1 22.9002C30.3 22.8002 30.5 22.8002 30.7 23.0002C31.9 24.5002 32.5 26.3002 32.5 28.2002C32.5 32.9002 28.7 36.7002 24 36.7002Z" fill="white"/>
<path d="M24.2004 25.7001C25.7468 25.7001 27.0004 24.4465 27.0004 22.9001C27.0004 21.3537 25.7468 20.1001 24.2004 20.1001C22.654 20.1001 21.4004 21.3537 21.4004 22.9001C21.4004 24.4465 22.654 25.7001 24.2004 25.7001Z" fill="#4DC8F4"/>
<path d="M24.2008 25.2002C20.1008 25.2002 16.8008 28.5002 16.8008 32.6002C16.8008 35.9002 19.0008 38.7002 21.9008 39.7002V36.7002C22.6008 37.1002 23.4008 37.3002 24.2008 37.3002C24.9008 37.3002 25.6008 37.1002 26.3008 36.8002V39.7002C29.4008 38.8002 31.7008 36.0002 31.7008 32.6002C31.6008 28.5002 28.3008 25.2002 24.2008 25.2002Z" fill="#4DC8F4"/>
<path d="M24.0004 16.6001C17.6004 16.6001 12.4004 21.8001 12.4004 28.2001C12.4004 28.9001 12.5004 29.6001 12.6004 30.2001C12.8004 31.5001 13.3004 32.7001 13.9004 33.8001H17.6004C16.7004 32.8001 16.1004 31.6001 15.8004 30.2001C15.6004 29.6001 15.6004 28.9001 15.6004 28.2001C15.6004 23.5001 19.4004 19.6001 24.2004 19.6001C28.9004 19.6001 32.8004 23.4001 32.8004 28.2001C32.8004 31.3001 31.1004 34.1001 28.6004 35.6001V39.0001C32.8004 37.3001 35.8004 33.1001 35.8004 28.3001C35.7004 21.8001 30.5004 16.6001 24.0004 16.6001Z" fill="#0F63AC"/>
<path d="M22.9 30.2002V33.8002H13.8C13.2 32.7002 12.8 31.5002 12.5 30.2002H22.9V30.2002Z" fill="#0F63AC"/>
<path d="M59.0996 23.1231V9.02734H64.9529C66.028 9.02734 66.8642 9.1468 67.5809 9.50517C68.2977 9.74408 68.7755 10.2219 69.1339 10.6997C69.4922 11.1775 69.7311 11.8943 69.7311 12.611C69.7311 13.0888 69.6117 13.5667 69.3728 14.0445C69.1339 14.5223 68.895 14.7612 68.4171 15.1196C68.0588 15.3585 67.581 15.5974 67.1031 15.7169V15.8363C67.7004 15.8363 68.1782 16.0752 68.656 16.3141C69.1339 16.553 69.4922 17.0309 69.8506 17.5087C70.0895 17.9865 70.3284 18.5838 70.3284 19.3005C70.3284 20.0172 70.0895 20.734 69.7311 21.3313C69.3728 21.9285 68.7755 22.4064 68.0588 22.7647C67.342 23.1231 66.3864 23.2425 65.4308 23.2425H59.0996V23.1231ZM62.4444 14.7612H64.3557C64.714 14.7612 65.0724 14.6418 65.3113 14.5223C65.5502 14.4028 65.7891 14.1639 66.028 14.0445C66.1475 13.8056 66.2669 13.5667 66.2669 13.2083C66.2669 12.7305 66.1475 12.3721 65.7891 12.1332C65.4307 11.8943 64.9529 11.7748 64.4751 11.7748H62.5638V14.7612H62.4444ZM62.4444 20.3756H64.5946C65.3113 20.3756 65.9086 20.2562 66.2669 19.8978C66.6253 19.6589 66.7448 19.1811 66.7448 18.7032C66.7448 18.3449 66.6253 17.9865 66.5059 17.7476C66.3864 17.5087 66.1475 17.3892 65.7891 17.1503C65.4307 17.0309 65.0724 16.9114 64.714 16.9114H62.5638V20.3756H62.4444Z" fill="#0F63AC"/>
<path d="M72.002 23.123V9.02727H81.7973V11.7747H75.3467V14.6417H81.3195V17.3892H75.3467V20.2561H81.7973V23.0036H72.002V23.123ZM75.4662 7.71326H72.5992V7.59381L75.7051 4.60742H78.0942L81.0806 7.71326V7.83272H78.2136L76.8996 6.16034L75.4662 7.71326ZM76.8996 27.1845C76.4218 27.1845 76.0634 27.065 75.7051 26.7067C75.3467 26.3483 75.2272 25.99 75.2272 25.5121C75.2272 25.0343 75.3467 24.6759 75.7051 24.437C76.0634 24.0787 76.4218 23.9592 76.8996 23.9592C77.3774 23.9592 77.7358 24.0787 78.0942 24.437C78.4525 24.7954 78.572 25.1538 78.572 25.5121C78.572 25.99 78.4525 26.3483 78.0942 26.7067C77.7358 27.065 77.3774 27.1845 76.8996 27.1845Z" fill="#0F63AC"/>
<path d="M95.8928 9.02734V23.1231H93.0259L87.4115 15.0001H87.292V23.1231H83.9473V9.02734H86.9337L92.4286 17.1503V9.02734H95.8928Z" fill="#0F63AC"/>
<path d="M98.041 23.1231V9.02734H101.386V14.6418H106.881V9.02734H110.225V23.1231H106.881V17.3892H101.386V23.0036H98.041V23.1231Z" fill="#0F63AC"/>
<path d="M119.901 9.02734L123.007 19.3005H123.126L126.232 9.02734H130.055L125.277 23.1231H120.737L115.959 9.02734H119.901V9.02734Z" fill="#0F63AC"/>
<path d="M134.952 9.02734V23.1231H131.607V9.02734H134.952Z" fill="#0F63AC"/>
<path d="M137.105 23.1228V9.0271H146.901V11.7746H140.45V14.6415H146.423V17.389H140.45V20.2559H146.901V23.0034H137.105V23.1228ZM140.689 7.71309H137.822V7.59364L140.809 4.48779H143.198L146.184 7.59364V7.71309H143.317L142.003 6.16017L140.689 7.71309ZM142.003 27.1843C141.525 27.1843 141.167 27.0649 140.809 26.7065C140.45 26.3481 140.331 25.9898 140.331 25.512C140.331 25.0341 140.45 24.6758 140.809 24.4369C141.167 24.0785 141.525 23.959 142.003 23.959C142.481 23.959 142.839 24.0785 143.198 24.4369C143.556 24.7952 143.676 25.1536 143.676 25.512C143.676 25.9898 143.556 26.3481 143.198 26.7065C142.959 27.0649 142.481 27.1843 142.003 27.1843Z" fill="#0F63AC"/>
<path d="M161.116 9.02734V23.1231H158.129L152.515 15.0001H152.396V23.1231H149.051V9.02734H152.037L157.532 17.1503H157.652V9.02734H161.116Z" fill="#0F63AC"/>
<path d="M179.391 9.02734V23.1231H176.524L170.91 15.0001H170.79V23.1231H167.445V9.02734H170.432L175.927 17.1503H176.046V9.02734H179.391Z" fill="#0F63AC"/>
<path d="M181.541 23.1231V9.02734H184.886V14.6418H190.381V9.02734H193.725V23.1231H190.381V17.3892H184.886V23.0036H181.541V23.1231Z" fill="#0F63AC"/>
<path d="M199.341 9.02734V23.1231H195.996V9.02734H199.341Z" fill="#0F63AC"/>
<path d="M203.76 16.553V14.6418H210.927V16.553H203.76ZM210.927 23.1231H205.671V9.02734H210.927C212.361 9.02734 213.555 9.26625 214.63 9.86353C215.705 10.4608 216.422 11.1775 217.019 12.2526C217.617 13.3277 217.856 14.5223 217.856 16.0752C217.856 17.5087 217.617 18.8227 217.019 19.8978C216.422 20.9729 215.705 21.8091 214.63 22.2869C213.555 22.7647 212.241 23.1231 210.927 23.1231ZM209.016 20.1367H210.688C211.524 20.1367 212.122 20.0172 212.719 19.7783C213.316 19.5394 213.675 19.0616 213.913 18.4643C214.152 17.867 214.391 17.0309 214.391 16.0752C214.391 15.1196 214.272 14.2834 213.913 13.6861C213.675 13.0888 213.197 12.611 212.599 12.3721C212.002 12.1332 211.405 12.0137 210.569 12.0137H208.896V20.1367H209.016Z" fill="#0F63AC"/>
<path d="M219.527 16.0752C219.527 14.0444 220.005 12.4915 220.841 11.2969C221.558 10.3413 222.514 9.62456 223.708 9.2662C224.544 8.90783 225.381 8.78838 226.336 8.78838C227.173 8.78838 228.009 8.90783 228.845 9.2662C230.039 9.74402 230.995 10.3413 231.712 11.2969C232.548 12.4915 233.026 14.1639 233.026 16.0752C233.026 18.1059 232.548 19.6588 231.712 20.8534C230.995 21.809 230.039 22.5258 228.845 22.8841C228.009 23.2425 227.173 23.3619 226.336 23.3619C225.5 23.3619 224.544 23.2425 223.828 22.8841C222.633 22.4063 221.678 21.809 220.961 20.8534C220.005 19.6588 219.527 18.1059 219.527 16.0752ZM222.394 16.0752C222.394 17.867 222.872 19.181 223.708 20.0172C224.425 20.6145 225.261 20.9728 226.217 20.9728C227.173 20.9728 228.009 20.6145 228.725 20.0172C229.562 19.181 230.039 17.867 230.039 16.0752C230.039 14.2833 229.562 13.0888 228.725 12.2526C228.009 11.6553 227.292 11.2969 226.217 11.2969C225.261 11.2969 224.425 11.6553 223.708 12.2526C222.872 13.0888 222.394 14.4028 222.394 16.0752ZM227.531 5.20471L229.681 8.07164H227.531L226.336 6.51872L225.142 8.07164H222.872L225.142 5.20471H227.531V5.20471ZM229.681 5.80199L226.814 2.93506H229.801L231.592 5.80199H229.681V5.80199Z" fill="#0F63AC"/>
<path d="M226.217 23.6007C225.262 23.6007 224.425 23.4812 223.589 23.1229C222.395 22.645 221.439 21.9283 220.722 20.9727C219.767 19.6587 219.408 17.9863 219.408 16.075C219.408 14.0442 219.886 12.3719 220.722 11.1773C221.439 10.2217 222.395 9.50494 223.589 9.02711C225.381 8.42984 227.173 8.42984 228.845 9.02711C230.04 9.50494 230.995 10.2217 231.712 11.1773C232.548 12.3719 233.026 14.0442 233.026 16.075C233.026 18.1057 232.548 19.7781 231.712 20.9727C230.995 21.9283 230.04 22.645 228.845 23.1229C228.009 23.4812 227.173 23.6007 226.217 23.6007ZM226.217 8.90766C225.381 8.90766 224.545 9.02711 223.709 9.38548C222.514 9.74385 221.678 10.4606 220.961 11.4162C220.125 12.6108 219.647 14.1637 219.647 16.075C219.647 17.9863 220.125 19.6587 220.961 20.8532C221.678 21.8088 222.514 22.4061 223.709 22.8839C225.262 23.4812 227.053 23.4812 228.726 22.8839C229.92 22.4061 230.756 21.8088 231.473 20.8532C232.309 19.6587 232.787 18.1057 232.787 16.1944C232.787 14.2832 232.309 12.6108 231.473 11.5357C230.756 10.58 229.92 9.98276 228.726 9.50494C227.89 9.14657 227.053 8.90766 226.217 8.90766ZM226.217 21.2116C225.142 21.2116 224.306 20.8532 223.589 20.1365C222.753 19.3003 222.275 17.8668 222.275 16.075C222.275 14.2832 222.753 12.9691 223.589 12.133C224.306 11.4162 225.142 11.1773 226.217 11.1773C227.292 11.1773 228.128 11.5357 228.845 12.133C229.681 12.9691 230.159 14.4026 230.159 16.075C230.159 17.8668 229.681 19.1808 228.845 20.1365C228.128 20.8532 227.292 21.2116 226.217 21.2116ZM226.217 11.4162C225.262 11.4162 224.425 11.7746 223.828 12.3719C222.992 13.2081 222.514 14.4026 222.514 16.075C222.514 17.7474 222.992 19.0614 223.709 19.8976C224.306 20.4948 225.142 20.8532 226.098 20.8532C227.053 20.8532 227.77 20.4948 228.487 19.8976C229.323 19.0614 229.681 17.8668 229.681 16.075C229.681 14.4026 229.204 13.0886 228.487 12.3719C228.009 11.7746 227.173 11.4162 226.217 11.4162ZM230.04 8.19093H227.412L226.217 6.638L225.142 8.07147H222.514L225.023 4.96563H227.651L230.04 8.19093ZM227.531 7.83256H229.323L227.412 5.32399H225.142L223.231 7.83256H225.023L226.337 6.16018L227.531 7.83256ZM231.832 5.92127H229.562L226.337 2.81543H229.801L231.832 5.92127ZM229.681 5.56291H231.234L229.681 3.05434H227.173L229.681 5.56291Z" fill="#0F63AC"/>
<path d="M246.406 9.02734V23.1231H243.54L237.925 15.0001H237.806V23.1231H234.461V9.02734H237.447L242.942 17.1503H243.062V9.02734H246.406Z" fill="#0F63AC"/>
<path d="M257.754 13.5661C257.635 13.3272 257.515 12.9689 257.396 12.8494C257.276 12.6105 257.037 12.491 256.798 12.2521C256.559 12.1327 256.321 12.0132 256.082 11.8938C255.843 11.7743 255.484 11.7743 255.126 11.7743C254.409 11.7743 253.812 11.8938 253.334 12.2521C252.856 12.6105 252.498 13.0883 252.14 13.6856C251.901 14.2829 251.781 15.1191 251.781 15.9552C251.781 16.9109 251.901 17.6276 252.14 18.2249C252.379 18.8222 252.737 19.3 253.215 19.6584C253.693 20.0167 254.29 20.1362 255.007 20.1362C255.604 20.1362 256.201 20.0167 256.559 19.7778C257.037 19.5389 257.276 19.3 257.515 18.9416C257.754 18.5833 257.873 18.1054 257.873 17.6276L258.471 17.7471H255.007V15.2385H261.099V17.1498C261.099 18.4638 260.86 19.5389 260.263 20.3751C259.785 21.3307 258.949 21.928 258.112 22.4058C257.157 22.8837 256.082 23.1226 254.887 23.1226C253.573 23.1226 252.379 22.8837 251.303 22.2864C250.228 21.6891 249.512 20.8529 248.914 19.7778C248.317 18.7027 248.078 17.3887 248.078 15.9552C248.078 14.7607 248.198 13.805 248.556 12.8494C248.914 11.8938 249.392 11.177 249.989 10.5797C250.587 9.98247 251.303 9.50465 252.14 9.14628C252.976 8.78791 253.812 8.66846 254.768 8.66846C255.604 8.66846 256.321 8.78791 257.037 9.02682C257.754 9.26573 258.351 9.6241 258.949 9.98247C259.546 10.4603 259.904 10.9381 260.263 11.5354C260.621 12.1327 260.86 12.7299 260.86 13.4467H257.754V13.5661Z" fill="#0F63AC"/>
<path d="M274 9.02734V23.1231H270.655V12.2526H270.536L267.43 14.1639V11.1775L270.894 9.02734H274Z" fill="#0F63AC"/>
<path d="M58.5996 35.0999V33.8999H64.7996V35.0999H62.3996V41.6999H60.9996V35.0999H58.5996Z" fill="#FA191A"/>
<path d="M67.3004 38.1999V41.5999H65.9004V33.8999H67.2004V36.7999H67.3004C67.4004 36.4999 67.6004 36.1999 67.9004 35.9999C68.2004 35.7999 68.5004 35.6999 69.0004 35.6999C69.4004 35.6999 69.8004 35.7999 70.1004 35.9999C70.4004 36.1999 70.6004 36.3999 70.8004 36.6999C71.0004 36.9999 71.0004 37.3999 71.0004 37.8999V41.5999H69.6004V38.0999C69.6004 37.6999 69.5004 37.3999 69.3004 37.1999C69.1004 36.9999 68.8004 36.8999 68.5004 36.8999C68.3004 36.8999 68.0004 36.9999 67.9004 37.0999C67.7004 37.1999 67.6004 37.3999 67.5004 37.5999C67.3004 37.6999 67.3004 37.9999 67.3004 38.1999Z" fill="#FA191A"/>
<path d="M73.2 37.8002H72.3C72.3 37.2002 72.5 36.7002 72.9 36.4002C73.3 36.1002 73.8 36.0002 74.6 36.0002C75.1 36.0002 75.5 36.1002 75.8 36.2002C76.4 36.5002 76.7 36.9002 76.7 37.5002V40.7002C76.7 40.9002 76.8 41.0002 77 41.0002H77.3V41.7002C77.2 41.7002 77.1 41.7002 77.1 41.8002C77 41.8002 76.9 41.8002 76.8 41.8002C76.4 41.8002 76.2 41.7002 76 41.5002C75.9 41.4002 75.8 41.2002 75.8 40.9002C75.6 41.2002 75.3 41.4002 75.1 41.5002C74.7 41.7002 74.3 41.8002 73.8 41.8002C73.3 41.8002 72.9 41.7002 72.5 41.4002C72.2 41.1002 72 40.7002 72 40.2002C72 39.8002 72.1 39.5002 72.3 39.2002C72.6 38.8002 73.1 38.5002 73.7 38.4002L75.2 38.2002C75.3 38.2002 75.5 38.1002 75.5 38.1002C75.6 38.0002 75.7 37.8002 75.7 37.6002C75.7 37.0002 75.3 36.7002 74.4 36.7002C73.9 36.7002 73.6 36.8002 73.4 37.1002C73.4 37.2002 73.3 37.4002 73.2 37.8002ZM75.8 39.7002V38.8002C75.7 38.9002 75.6 38.9002 75.4 39.0002C75.2 39.0002 74.9 39.1002 74.4 39.2002C73.9 39.3002 73.6 39.4002 73.4 39.5002C73.2 39.6002 73.1 39.8002 73.1 40.1002C73.1 40.4002 73.2 40.7002 73.3 40.8002C73.5 41.0002 73.7 41.0002 74.1 41.0002C74.6 41.0002 75 40.9002 75.3 40.6002C75.6 40.4002 75.8 40.1002 75.8 39.7002ZM74.7 34.4002L74 35.4002H73.2L74.2 33.9002H75.2L76.2 35.4002H75.3L74.7 34.4002ZM76.3 34.2002L74.9 32.7002H76L76.9 34.2002H76.3Z" fill="#FA191A"/>
<path d="M73.8 41.9001C73.3 41.9001 72.8 41.7001 72.5 41.4001C72.1 41.1001 72 40.6001 72 40.1001C72 39.7001 72.1 39.4001 72.3 39.1001C72.6 38.6001 73.1 38.4001 73.8 38.3001L75.3 38.1001C75.4 38.1001 75.5 38.1001 75.6 38.0001C75.7 37.9001 75.7 37.8001 75.7 37.6001C75.7 37.3001 75.6 36.8001 74.5 36.8001C74.1 36.8001 73.8 36.9001 73.6 37.1001C73.5 37.2001 73.4 37.4001 73.4 37.7001V37.8001H72.3V37.7001C72.3 37.0001 72.5 36.5001 73 36.2001C73.4 35.9001 74 35.7001 74.7 35.7001C75.2 35.7001 75.6 35.8001 76 35.9001C76.6 36.2001 77 36.7001 77 37.3001V40.5001C77 40.7001 77.1 40.7001 77.2 40.7001L77.6 40.6001V41.5001L77.3 41.6001C77.2 41.6001 77.1 41.6001 77 41.6001C76.6 41.6001 76.3 41.5001 76.1 41.3001C76 41.2001 75.9 41.1001 75.9 40.9001C75.7 41.1001 75.5 41.2001 75.3 41.3001C74.8 41.8001 74.3 41.9001 73.8 41.9001ZM74.5 36.5001C75.7 36.5001 75.9 37.1001 75.9 37.6001C75.9 37.9001 75.8 38.1001 75.7 38.2001C75.6 38.3001 75.5 38.4001 75.3 38.4001L73.8 38.6001C73.2 38.7001 72.7 38.9001 72.5 39.3001C72.3 39.5001 72.3 39.8001 72.3 40.2001C72.3 40.6001 72.4 41.0001 72.7 41.3001C73 41.6001 73.4 41.7001 73.9 41.7001C74.3 41.7001 74.8 41.6001 75.1 41.4001C75.3 41.3001 75.6 41.1001 75.8 40.8001L76 40.5001V40.8001C76 41.0001 76 41.2001 76.1 41.3001C76.2 41.4001 76.5 41.5001 76.8 41.5001C76.9 41.5001 76.9 41.5001 77 41.5001H77.1V41.1001H77C76.7 41.1001 76.5 40.9001 76.5 40.6001V37.4001C76.5 36.8001 76.2 36.5001 75.7 36.2001C75.4 36.1001 75 36.0001 74.6 36.0001C73.9 36.0001 73.4 36.1001 73 36.4001C72.6 36.7001 72.5 37.0001 72.4 37.6001H73C73.1 37.3001 73.1 37.1001 73.3 36.9001C73.6 36.7001 74 36.5001 74.5 36.5001ZM74.1 41.1001C73.7 41.1001 73.4 41.0001 73.2 40.8001C73 40.6001 72.9 40.3001 72.9 40.0001C72.9 39.7001 73 39.5001 73.2 39.3001C73.4 39.1001 73.8 39.0001 74.3 38.9001C74.8 38.8001 75.1 38.8001 75.3 38.7001C75.5 38.6001 75.6 38.6001 75.6 38.6001L75.8 38.4001V39.6001C75.8 40.0001 75.6 40.4001 75.2 40.6001C75 41.0001 74.6 41.1001 74.1 41.1001ZM75.6 39.0001C75.5 39.0001 75.5 39.1001 75.4 39.1001C75.2 39.1001 74.9 39.2001 74.4 39.3001C73.8 39.4001 73.6 39.5001 73.5 39.6001C73.4 39.7001 73.3 39.9001 73.3 40.1001C73.3 40.4001 73.4 40.6001 73.5 40.7001C73.6 40.8001 73.9 40.9001 74.2 40.9001C74.6 40.9001 75 40.8001 75.3 40.5001C75.6 40.3001 75.8 40.0001 75.8 39.7001V39.0001H75.6ZM76.5 35.6001H75.3L74.7 34.7001L74.1 35.6001H72.9L74.1 33.8001H75.2L76.5 35.6001ZM75.5 35.3001H76L75.2 34.1001H74.3L73.5 35.3001H74L74.8 34.2001L75.5 35.3001ZM77.2 34.4001H76.2L74.6 32.6001H76.1L77.2 34.4001ZM76.3 34.1001H76.7L76 32.8001H75.2L76.3 34.1001Z" fill="#FA191A"/>
<path d="M79.4 43.8003C79.2 43.8003 79 43.8003 78.9 43.8003C78.7 43.8003 78.6 43.7003 78.5 43.7003L78.8 42.6003C79.1 42.7003 79.3 42.7003 79.5 42.6003C79.7 42.5003 79.9 42.4003 80 42.0003L80.1 41.7003L78 35.8003H79.4L80.7 40.2003H80.8L82.1 35.8003H83.6L81.3 42.3003C81.2 42.6003 81 42.9003 80.9 43.1003C80.7 43.3003 80.5 43.5003 80.2 43.6003C80 43.7003 79.7 43.8003 79.4 43.8003Z" fill="#FA191A"/>
<path d="M90.2004 35.7999V36.8999H86.9004V35.7999H90.2004ZM87.7004 34.3999H89.0004V39.7999C89.0004 39.9999 89.0004 40.0999 89.1004 40.1999C89.2004 40.2999 89.2004 40.3999 89.3004 40.3999C89.4004 40.3999 89.5004 40.4999 89.6004 40.4999C89.7004 40.4999 89.8004 40.4999 89.8004 40.4999C89.9004 40.4999 89.9004 40.4999 90.0004 40.4999L90.2004 41.5999C90.1004 41.5999 90.0004 41.6999 89.9004 41.6999C89.8004 41.6999 89.6004 41.6999 89.4004 41.7999C89.1004 41.7999 88.8004 41.7999 88.5004 41.5999C88.2004 41.4999 88.0004 41.2999 87.8004 41.0999C87.6004 40.8999 87.6004 40.5999 87.6004 40.1999V34.3999H87.7004Z" fill="#FA191A"/>
<path d="M92.8004 38.1999V41.5999H91.4004V33.8999H92.7004V36.7999H92.8004C92.9004 36.4999 93.1004 36.1999 93.4004 35.9999C93.7004 35.7999 94.0004 35.6999 94.5004 35.6999C94.9004 35.6999 95.3004 35.7999 95.6004 35.9999C95.9004 36.1999 96.1004 36.3999 96.3004 36.6999C96.5004 36.9999 96.5004 37.3999 96.5004 37.8999V41.5999H95.1004V38.0999C95.1004 37.6999 95.0004 37.3999 94.8004 37.1999C94.6004 36.9999 94.3004 36.8999 94.0004 36.8999C93.8004 36.8999 93.5004 36.9999 93.4004 37.0999C93.2004 37.1999 93.1004 37.3999 93.0004 37.5999C92.8004 37.6999 92.8004 37.9999 92.8004 38.1999Z" fill="#FA191A"/>
<path d="M101.6 39.2003V35.8003H103V41.6003H101.7V40.6003H101.6C101.5 40.9003 101.3 41.2003 101 41.4003C100.7 41.6003 100.3 41.7003 99.9 41.7003C99.5 41.7003 99.2 41.6003 98.9 41.4003C98.6 41.2003 98.4 41.0003 98.2 40.7003C98 40.4003 98 40.0003 98 39.5003V35.8003H99.4V39.3003C99.4 39.7003 99.5 40.0003 99.7 40.2003C99.9 40.4003 100.2 40.5003 100.5 40.5003C100.7 40.5003 100.9 40.5003 101.1 40.4003C101.3 40.3003 101.4 40.2003 101.6 40.0003C101.6 39.7003 101.6 39.5003 101.6 39.2003Z" fill="#FA191A"/>
<path d="M106.9 41.7C106.3 41.7 105.8 41.6 105.4 41.3C105 41.1 104.7 40.7 104.4 40.3C104.2 39.9 104.1 39.3 104.1 38.7C104.1 38.1 104.2 37.6 104.4 37.1C104.6 36.6 104.9 36.3 105.4 36.1C105.8 35.9 106.3 35.7 106.9 35.7C107.5 35.7 108 35.8 108.4 36.1C108.8 36.3 109.1 36.7 109.4 37.1C109.6 37.6 109.7 38.1 109.7 38.7C109.7 39.3 109.6 39.8 109.4 40.3C109.2 40.7 108.9 41.1 108.4 41.3C108 41.6 107.5 41.7 106.9 41.7ZM105 35.2L106.5 34H107.4L108.9 35.2H107.8L107 34.5L106.2 35.2H105ZM106.9 40.6C107.2 40.6 107.5 40.5 107.7 40.3C107.9 40.1 108.1 39.9 108.2 39.6C108.3 39.3 108.4 39 108.4 38.6C108.4 38.2 108.3 37.9 108.2 37.6C108.1 37.3 107.9 37.1 107.7 36.9C107.5 36.7 107.2 36.6 106.9 36.6C106.6 36.6 106.3 36.7 106.1 36.9C105.9 37.1 105.7 37.3 105.6 37.6C105.5 37.9 105.4 38.2 105.4 38.6C105.4 39 105.5 39.3 105.6 39.6C105.7 39.9 105.9 40.1 106.1 40.3C106.4 40.6 106.6 40.6 106.9 40.6ZM108.5 34.4L109.3 33H110.5L109.3 34.4H108.5Z" fill="#FA191A"/>
<path d="M113.4 41.7C112.8 41.7 112.3 41.6 111.9 41.3C111.5 41 111.2 40.7 110.9 40.2C110.7 39.8 110.6 39.2 110.6 38.6C110.6 38 110.7 37.5 110.9 37C111.1 36.5 111.4 36.2 111.9 35.9C112.3 35.6 112.8 35.5 113.4 35.5C113.9 35.5 114.3 35.6 114.7 35.8C115.1 36 115.4 36.2 115.6 36.5C115.8 36.8 115.9 37.2 116 37.6H114.7C114.6 37.3 114.5 37.1 114.3 36.9C114.1 36.7 113.8 36.6 113.5 36.6C113.2 36.6 113 36.7 112.8 36.8C112.6 36.9 112.4 37.2 112.3 37.4C112.2 37.7 112.1 38 112.1 38.4C112.1 38.8 112.2 39.1 112.3 39.4C112.4 39.7 112.6 39.9 112.8 40.1C113 40.3 113.3 40.3 113.5 40.3C113.7 40.3 113.9 40.3 114 40.2C114.2 40.1 114.3 40 114.4 39.9C114.5 39.8 114.6 39.6 114.6 39.4H115.9C115.9 39.8 115.7 40.2 115.5 40.5C115.3 40.8 115 41.1 114.6 41.2C114.3 41.6 113.9 41.7 113.4 41.7Z" fill="#FA191A"/>
<path d="M122.499 35.7999V36.8999H119.199V35.7999H122.499ZM119.999 34.3999H121.399V39.7999C121.399 39.9999 121.399 40.0999 121.499 40.1999C121.599 40.2999 121.599 40.3999 121.699 40.3999C121.799 40.3999 121.899 40.4999 121.999 40.4999C122.099 40.4999 122.199 40.4999 122.199 40.4999C122.299 40.4999 122.299 40.4999 122.399 40.4999L122.599 41.5999C122.499 41.5999 122.399 41.6999 122.299 41.6999C122.199 41.6999 121.999 41.6999 121.799 41.7999C121.499 41.7999 121.099 41.7999 120.899 41.5999C120.599 41.4999 120.399 41.2999 120.199 41.0999C119.999 40.8999 119.999 40.5999 119.999 40.1999V34.3999Z" fill="#FA191A"/>
<path d="M125.299 41.6999C124.899 41.6999 124.599 41.5999 124.299 41.4999C123.999 41.3999 123.799 41.1999 123.599 40.8999C123.399 40.5999 123.299 40.2999 123.299 39.8999C123.299 39.5999 123.399 39.2999 123.499 39.0999C123.599 38.8999 123.799 38.6999 123.999 38.5999C124.199 38.4999 124.399 38.3999 124.699 38.2999C124.999 38.1999 125.199 38.1999 125.499 38.1999C125.799 38.1999 126.099 38.0999 126.299 38.0999C126.499 38.0999 126.699 37.9999 126.799 37.9999C126.899 37.8999 126.899 37.7999 126.899 37.6999C126.899 37.3999 126.799 37.1999 126.599 36.9999C126.399 36.7999 126.199 36.7999 125.899 36.7999C125.599 36.7999 125.299 36.8999 125.099 36.9999C124.899 37.0999 124.799 37.2999 124.699 37.4999L123.399 37.2999C123.499 36.8999 123.699 36.6999 123.899 36.3999C124.099 36.1999 124.399 35.9999 124.699 35.8999C124.999 35.7999 125.399 35.6999 125.799 35.6999C126.099 35.6999 126.399 35.6999 126.599 35.7999C126.899 35.8999 127.099 35.9999 127.399 36.0999C127.599 36.1999 127.799 36.4999 127.999 36.6999C128.099 36.9999 128.199 37.2999 128.199 37.6999V41.5999H126.899V40.7999C126.799 40.9999 126.699 41.0999 126.599 41.2999C126.499 41.3999 126.299 41.5999 125.999 41.5999C125.899 41.6999 125.599 41.6999 125.299 41.6999ZM125.299 35.0999H124.099V34.9999L125.499 33.3999H126.599L127.999 34.9999V35.0999H126.799L125.999 34.0999L125.299 35.0999ZM125.699 40.6999C125.999 40.6999 126.199 40.5999 126.399 40.4999C126.599 40.3999 126.799 40.1999 126.899 40.0999C126.999 39.8999 127.099 39.6999 127.099 39.4999V38.7999C127.099 38.7999 126.999 38.8999 126.899 38.8999C126.799 38.8999 126.699 38.9999 126.599 38.9999C126.499 38.9999 126.299 38.9999 126.199 39.0999C126.099 39.0999 125.999 39.0999 125.899 39.0999C125.699 39.0999 125.499 39.1999 125.399 39.1999C125.199 39.2999 125.099 39.3999 124.999 39.4999C124.899 39.5999 124.899 39.7999 124.899 39.8999C124.899 40.1999 124.999 40.2999 125.199 40.4999C125.199 40.6999 125.399 40.6999 125.699 40.6999ZM125.999 43.6999C125.799 43.6999 125.599 43.5999 125.399 43.4999C125.199 43.3999 125.199 43.1999 125.199 42.9999C125.199 42.7999 125.299 42.5999 125.399 42.4999C125.599 42.3999 125.699 42.2999 125.999 42.2999C126.199 42.2999 126.399 42.3999 126.599 42.4999C126.799 42.5999 126.799 42.7999 126.799 42.9999C126.799 43.1999 126.699 43.3999 126.599 43.4999C126.399 43.5999 126.299 43.6999 125.999 43.6999Z" fill="#FA191A"/>
<path d="M131.099 38.2002V41.6002H129.699V35.8002H130.999V36.8002H131.099C131.199 36.5002 131.399 36.2002 131.699 36.0002C131.999 35.8002 132.399 35.7002 132.799 35.7002C133.199 35.7002 133.499 35.8002 133.799 36.0002C134.099 36.2002 134.299 36.4002 134.499 36.7002C134.699 37.0002 134.699 37.4002 134.699 37.9002V41.6002H133.299V38.1002C133.299 37.7002 133.199 37.4002 132.999 37.2002C132.799 37.0002 132.499 36.9002 132.199 36.9002C131.999 36.9002 131.699 37.0002 131.599 37.1002C131.399 37.2002 131.299 37.4002 131.199 37.6002C131.199 37.7002 131.099 38.0002 131.099 38.2002Z" fill="#FA191A"/>
<path d="M141.8 35.7999V36.8999H138.5V35.7999H141.8ZM139.3 34.3999H140.7V39.7999C140.7 39.9999 140.7 40.0999 140.8 40.1999C140.9 40.2999 140.9 40.3999 141 40.3999C141.1 40.3999 141.2 40.4999 141.3 40.4999C141.4 40.4999 141.5 40.4999 141.5 40.4999C141.6 40.4999 141.6 40.4999 141.7 40.4999L141.9 41.5999C141.8 41.5999 141.7 41.6999 141.6 41.6999C141.5 41.6999 141.3 41.6999 141.1 41.7999C140.8 41.7999 140.5 41.7999 140.2 41.5999C139.9 41.4999 139.7 41.2999 139.5 41.0999C139.3 40.8999 139.3 40.5999 139.3 40.1999V34.3999V34.3999Z" fill="#FA191A"/>
<path d="M144.6 41.6999C144.2 41.6999 143.9 41.5999 143.6 41.4999C143.3 41.3999 143.1 41.1999 142.9 40.8999C142.7 40.5999 142.6 40.2999 142.6 39.8999C142.6 39.5999 142.7 39.2999 142.8 39.0999C142.9 38.8999 143.1 38.6999 143.3 38.5999C143.5 38.4999 143.7 38.3999 144 38.2999C144.3 38.1999 144.5 38.1999 144.8 38.1999C145.1 38.1999 145.4 38.0999 145.6 38.0999C145.8 38.0999 146 37.9999 146.1 37.9999C146.2 37.8999 146.2 37.7999 146.2 37.6999C146.2 37.3999 146.1 37.1999 145.9 36.9999C145.7 36.7999 145.5 36.7999 145.2 36.7999C144.9 36.7999 144.6 36.8999 144.4 36.9999C144.2 37.0999 144.1 37.2999 144 37.4999L142.7 37.2999C142.8 36.8999 143 36.6999 143.2 36.3999C143.4 36.1999 143.7 35.9999 144 35.8999C144.3 35.7999 144.7 35.6999 145.1 35.6999C145.4 35.6999 145.7 35.6999 145.9 35.7999C146.2 35.8999 146.4 35.9999 146.7 36.0999C146.9 36.1999 147.1 36.4999 147.3 36.6999C147.4 36.9999 147.5 37.2999 147.5 37.6999V41.5999H146.2V40.7999C146.1 40.9999 146 41.0999 145.9 41.2999C145.8 41.3999 145.6 41.5999 145.3 41.5999C145.1 41.6999 144.9 41.6999 144.6 41.6999ZM144.6 35.0999H143.4V34.9999L144.8 33.3999H145.9L147.3 34.9999V35.0999H146.1L145.3 34.0999L144.6 35.0999ZM144.9 40.6999C145.2 40.6999 145.4 40.5999 145.6 40.4999C145.8 40.3999 146 40.1999 146.1 40.0999C146.2 39.8999 146.3 39.6999 146.3 39.4999V38.7999C146.3 38.7999 146.2 38.8999 146.1 38.8999C146 38.8999 145.9 38.9999 145.8 38.9999C145.7 38.9999 145.5 38.9999 145.4 39.0999C145.3 39.0999 145.2 39.0999 145.1 39.0999C144.9 39.0999 144.7 39.1999 144.6 39.1999C144.4 39.2999 144.3 39.3999 144.2 39.4999C144.1 39.5999 144.1 39.7999 144.1 39.8999C144.1 40.1999 144.2 40.2999 144.4 40.4999C144.4 40.6999 144.6 40.6999 144.9 40.6999Z" fill="#FA191A"/>
<path d="M149 41.6002V35.8002H150.3V36.8002H150.4C150.5 36.5002 150.7 36.2002 151 36.0002C151.3 35.8002 151.6 35.7002 152 35.7002C152.4 35.7002 152.7 35.8002 153 36.0002C153.3 36.2002 153.5 36.4002 153.6 36.8002H153.7C153.8 36.5002 154 36.2002 154.4 36.0002C154.7 35.8002 155.1 35.7002 155.5 35.7002C156 35.7002 156.5 35.9002 156.8 36.2002C157.1 36.5002 157.3 37.0002 157.3 37.7002V41.6002H155.9V37.9002C155.9 37.5002 155.8 37.3002 155.6 37.1002C155.4 36.9002 155.2 36.8002 154.9 36.8002C154.6 36.8002 154.3 36.9002 154.1 37.1002C153.9 37.3002 153.8 37.6002 153.8 37.9002V41.5002H152.5V37.8002C152.5 37.5002 152.4 37.3002 152.2 37.1002C152 36.9002 151.8 36.8002 151.5 36.8002C151.3 36.8002 151.1 36.8002 151 36.9002C150.8 37.0002 150.7 37.1002 150.6 37.3002C150.5 37.5002 150.5 37.7002 150.5 37.9002V41.4002H149V41.6002Z" fill="#FA191A"/>
<path d="M164.699 37.8003V39.0003H161.199V37.9003H164.699V37.8003Z" fill="#FA191A"/>
<path d="M175.4 36.5002H174C174 36.3002 173.9 36.1002 173.8 35.9002C173.7 35.7002 173.6 35.6002 173.4 35.4002C173.2 35.3002 173.1 35.2002 172.9 35.1002C172.7 35.0002 172.5 35.0002 172.2 35.0002C171.8 35.0002 171.4 35.1002 171.1 35.3002C170.8 35.5002 170.5 35.8002 170.3 36.2002C170.1 36.6002 170 37.1002 170 37.7002C170 38.3002 170.1 38.8002 170.3 39.2002C170.5 39.6002 170.7 39.9002 171.1 40.1002C171.4 40.3002 171.8 40.4002 172.2 40.4002C172.4 40.4002 172.6 40.4002 172.9 40.3002C173.1 40.2002 173.3 40.1002 173.4 40.0002C173.6 39.9002 173.7 39.7002 173.8 39.6002C173.9 39.4002 174 39.2002 174 39.0002H175.4C175.3 39.4002 175.2 39.7002 175.1 40.0002C174.9 40.3002 174.7 40.6002 174.4 40.9002C174.1 41.1002 173.8 41.3002 173.4 41.5002C173 41.6002 172.6 41.7002 172.1 41.7002C171.4 41.7002 170.8 41.5002 170.3 41.2002C169.8 40.9002 169.3 40.4002 169 39.8002C168.7 39.2002 168.5 38.5002 168.5 37.7002C168.5 36.9002 168.7 36.2002 169 35.6002C169.3 35.0002 169.7 34.6002 170.3 34.2002C170.8 33.9002 171.4 33.7002 172.1 33.7002C172.5 33.7002 172.9 33.8002 173.3 33.9002C173.7 34.0002 174 34.2002 174.3 34.4002C174.6 34.6002 174.8 34.9002 175 35.3002C175.2 35.7002 175.4 36.1002 175.4 36.5002Z" fill="#FA191A"/>
<path d="M178 38.1999V41.5999H176.6V33.8999H177.9V36.7999H178C178.1 36.4999 178.3 36.1999 178.6 35.9999C178.9 35.7999 179.2 35.6999 179.7 35.6999C180.1 35.6999 180.5 35.7999 180.8 35.9999C181.1 36.1999 181.3 36.3999 181.5 36.6999C181.7 36.9999 181.7 37.3999 181.7 37.8999V41.5999H180.3V38.0999C180.3 37.6999 180.2 37.3999 180 37.1999C179.8 36.9999 179.5 36.8999 179.2 36.8999C179 36.8999 178.7 36.9999 178.6 37.0999C178.4 37.1999 178.3 37.3999 178.2 37.5999C178.1 37.6999 178 37.9999 178 38.1999Z" fill="#FA191A"/>
<path d="M184.799 41.7003C184.399 41.7003 184.099 41.6003 183.799 41.5003C183.499 41.4003 183.299 41.2003 183.099 40.9003C182.899 40.6003 182.799 40.3003 182.799 39.9003C182.799 39.6003 182.899 39.3003 182.999 39.1003C183.099 38.9003 183.299 38.7003 183.499 38.6003C183.699 38.5003 183.899 38.4003 184.199 38.3003C184.499 38.2003 184.699 38.2003 184.999 38.2003C185.299 38.2003 185.599 38.1003 185.799 38.1003C185.999 38.1003 186.199 38.0003 186.299 38.0003C186.399 37.9003 186.399 37.8003 186.399 37.7003C186.399 37.4003 186.299 37.2003 186.099 37.0003C185.899 36.8003 185.699 36.8003 185.399 36.8003C185.099 36.8003 184.799 36.9003 184.599 37.0003C184.399 37.1003 184.299 37.3003 184.199 37.5003L182.899 37.3003C182.999 36.9003 183.199 36.7003 183.399 36.4003C183.599 36.2003 183.899 36.0003 184.199 35.9003C184.499 35.8003 184.899 35.7003 185.299 35.7003C185.599 35.7003 185.899 35.7003 186.099 35.8003C186.399 35.9003 186.599 36.0003 186.899 36.1003C187.099 36.2003 187.299 36.5003 187.499 36.7003C187.599 37.0003 187.699 37.3003 187.699 37.7003V41.6003H186.399V40.8003C186.299 41.0003 186.199 41.1003 186.099 41.3003C185.999 41.4003 185.799 41.6003 185.499 41.6003C185.399 41.7003 185.099 41.7003 184.799 41.7003ZM186.299 33.8003H187.299C187.299 34.2003 187.099 34.6003 186.799 34.9003C186.499 35.2003 186.099 35.3003 185.499 35.3003C184.999 35.3003 184.499 35.2003 184.199 34.9003C183.899 34.6003 183.699 34.3003 183.699 33.8003H184.699C184.699 34.0003 184.799 34.1003 184.899 34.3003C184.999 34.4003 185.199 34.5003 185.499 34.5003C185.799 34.5003 185.999 34.4003 186.099 34.3003C186.299 34.2003 186.299 34.0003 186.299 33.8003ZM185.199 40.7003C185.499 40.7003 185.699 40.6003 185.899 40.5003C186.099 40.4003 186.299 40.2003 186.399 40.1003C186.499 39.9003 186.599 39.7003 186.599 39.5003V38.8003C186.599 38.8003 186.499 38.9003 186.399 38.9003C186.299 38.9003 186.199 39.0003 186.099 39.0003C185.999 39.0003 185.799 39.0003 185.699 39.1003C185.599 39.1003 185.499 39.1003 185.399 39.1003C185.199 39.1003 184.999 39.2003 184.899 39.2003C184.699 39.3003 184.599 39.4003 184.499 39.5003C184.399 39.6003 184.399 39.8003 184.399 39.9003C184.399 40.2003 184.499 40.3003 184.699 40.5003C184.699 40.7003 184.899 40.7003 185.199 40.7003Z" fill="#FA191A"/>
<path d="M189.299 41.6002V35.8002H190.599V36.8002H190.699C190.799 36.5002 190.999 36.2002 191.299 36.0002C191.599 35.8002 191.899 35.7002 192.299 35.7002C192.699 35.7002 192.999 35.8002 193.299 36.0002C193.599 36.2002 193.799 36.4002 193.899 36.8002H193.999C194.099 36.5002 194.299 36.2002 194.699 36.0002C194.999 35.8002 195.399 35.7002 195.799 35.7002C196.299 35.7002 196.799 35.9002 197.099 36.2002C197.399 36.5002 197.599 37.0002 197.599 37.7002V41.6002H195.999V37.9002C195.999 37.5002 195.899 37.3002 195.699 37.1002C195.499 36.9002 195.299 36.8002 194.999 36.8002C194.699 36.8002 194.399 36.9002 194.199 37.1002C193.999 37.3002 193.899 37.6002 193.899 37.9002V41.5002H192.599V37.8002C192.599 37.5002 192.499 37.3002 192.299 37.1002C192.099 36.9002 191.899 36.8002 191.599 36.8002C191.399 36.8002 191.199 36.8002 191.099 36.9002C190.899 37.0002 190.799 37.1002 190.699 37.3002C190.599 37.5002 190.599 37.7002 190.599 37.9002V41.4002H189.299V41.6002Z" fill="#FA191A"/>
<path d="M201.4 41.6002V35.8002H202.7V36.8002H202.8C202.9 36.5002 203.1 36.2002 203.4 36.0002C203.7 35.8002 204 35.7002 204.4 35.7002C204.8 35.7002 205.1 35.8002 205.4 36.0002C205.7 36.2002 205.9 36.4002 206 36.8002H206.1C206.2 36.5002 206.4 36.2002 206.8 36.0002C207.1 35.8002 207.5 35.7002 207.9 35.7002C208.4 35.7002 208.9 35.9002 209.2 36.2002C209.5 36.5002 209.7 37.0002 209.7 37.7002V41.6002H208.3V37.9002C208.3 37.5002 208.2 37.3002 208 37.1002C207.8 36.9002 207.6 36.8002 207.3 36.8002C207 36.8002 206.7 36.9002 206.5 37.1002C206.3 37.3002 206.2 37.6002 206.2 37.9002V41.5002H204.9V37.8002C204.9 37.5002 204.8 37.3002 204.6 37.1002C204.4 36.9002 204.2 36.8002 203.9 36.8002C203.7 36.8002 203.5 36.8002 203.4 36.9002C203.2 37.0002 203.1 37.1002 203 37.3002C202.9 37.5002 202.9 37.7002 202.9 37.9002V41.4002H201.4V41.6002Z" fill="#FA191A"/>
<path d="M211.8 37.8002H210.9C210.9 37.2002 211.1 36.7002 211.5 36.4002C211.9 36.1002 212.4 36.0002 213.2 36.0002C213.7 36.0002 214.1 36.1002 214.4 36.2002C215 36.5002 215.3 36.9002 215.3 37.5002V40.7002C215.3 40.9002 215.4 41.0002 215.6 41.0002H215.9V41.7002C215.8 41.7002 215.7 41.7002 215.7 41.8002C215.6 41.8002 215.5 41.8002 215.4 41.8002C215 41.8002 214.8 41.7002 214.6 41.5002C214.5 41.4002 214.4 41.2002 214.4 40.9002C214.2 41.2002 213.9 41.4002 213.7 41.5002C213.3 41.7002 212.9 41.8002 212.4 41.8002C211.9 41.8002 211.5 41.7002 211.1 41.4002C210.8 41.1002 210.6 40.7002 210.6 40.2002C210.6 39.8002 210.7 39.5002 210.9 39.2002C211.2 38.8002 211.7 38.5002 212.3 38.4002L213.8 38.2002C213.9 38.2002 214.1 38.1002 214.1 38.1002C214.2 38.0002 214.3 37.8002 214.3 37.6002C214.3 37.0002 213.9 36.7002 213 36.7002C212.5 36.7002 212.2 36.8002 212 37.1002C211.9 37.2002 211.8 37.4002 211.8 37.8002ZM214.3 39.7002V38.8002C214.2 38.9002 214.1 38.9002 213.9 39.0002C213.7 39.0002 213.4 39.1002 212.9 39.2002C212.4 39.3002 212.1 39.4002 211.9 39.5002C211.7 39.6002 211.6 39.8002 211.6 40.1002C211.6 40.4002 211.7 40.7002 211.8 40.8002C212 41.0002 212.2 41.0002 212.6 41.0002C213.1 41.0002 213.5 40.9002 213.8 40.6002C214.2 40.4002 214.3 40.1002 214.3 39.7002ZM213.3 34.4002L212.6 35.4002H211.8L212.8 33.9002H213.8L214.8 35.4002H214L213.3 34.4002ZM214.8 34.2002L213.4 32.7002H214.5L215.4 34.2002H214.8Z" fill="#FA191A"/>
<path d="M212.4 41.9001C211.9 41.9001 211.4 41.7001 211.1 41.4001C210.7 41.1001 210.6 40.6001 210.6 40.1001C210.6 39.7001 210.7 39.4001 210.9 39.1001C211.2 38.6001 211.7 38.4001 212.4 38.3001L213.9 38.1001C214 38.1001 214.1 38.1001 214.2 38.0001C214.3 37.9001 214.3 37.8001 214.3 37.6001C214.3 37.3001 214.2 36.8001 213.1 36.8001C212.7 36.8001 212.4 36.9001 212.2 37.1001C212.1 37.2001 212 37.4001 212 37.7001V37.8001H210.9V37.7001C210.9 37.0001 211.1 36.5001 211.6 36.2001C212 35.9001 212.6 35.7001 213.3 35.7001C213.8 35.7001 214.2 35.8001 214.6 35.9001C215.2 36.2001 215.6 36.7001 215.6 37.3001V40.5001C215.6 40.7001 215.7 40.7001 215.8 40.7001L216.2 40.6001V41.5001L215.9 41.6001C215.8 41.6001 215.7 41.6001 215.6 41.6001C215.2 41.6001 214.9 41.5001 214.7 41.3001C214.6 41.2001 214.5 41.1001 214.5 40.9001C214.3 41.1001 214.1 41.2001 213.9 41.3001C213.3 41.8001 212.9 41.9001 212.4 41.9001ZM213.1 36.5001C214.3 36.5001 214.5 37.1001 214.5 37.6001C214.5 37.9001 214.4 38.1001 214.3 38.2001C214.2 38.3001 214.1 38.4001 213.9 38.4001L212.4 38.6001C211.8 38.7001 211.3 38.9001 211.1 39.3001C210.9 39.5001 210.9 39.8001 210.9 40.2001C210.9 40.6001 211 41.0001 211.3 41.3001C211.6 41.6001 212 41.7001 212.5 41.7001C212.9 41.7001 213.4 41.6001 213.7 41.4001C213.9 41.3001 214.2 41.1001 214.4 40.8001L214.6 40.5001V40.8001C214.6 41.0001 214.6 41.2001 214.7 41.3001C214.8 41.4001 215.1 41.5001 215.4 41.5001C215.5 41.5001 215.5 41.5001 215.6 41.5001H215.7V41.1001H215.6C215.3 41.1001 215.1 40.9001 215.1 40.6001V37.4001C215.1 36.8001 214.8 36.5001 214.3 36.2001C214 36.1001 213.6 36.0001 213.2 36.0001C212.5 36.0001 212 36.1001 211.6 36.4001C211.2 36.7001 211.1 37.0001 211 37.6001H211.6C211.7 37.3001 211.7 37.1001 211.9 36.9001C212.2 36.7001 212.6 36.5001 213.1 36.5001ZM212.6 41.1001C212.2 41.1001 211.9 41.0001 211.7 40.8001C211.5 40.6001 211.4 40.3001 211.4 40.0001C211.4 39.7001 211.5 39.5001 211.7 39.3001C211.9 39.1001 212.3 39.0001 212.8 38.9001C213.3 38.8001 213.6 38.8001 213.8 38.7001C214 38.6001 214.1 38.6001 214.1 38.6001L214.3 38.4001V39.6001C214.3 40.0001 214.1 40.4001 213.7 40.6001C213.5 41.0001 213.1 41.1001 212.6 41.1001ZM214.2 39.0001C214.1 39.0001 214.1 39.1001 214 39.1001C213.8 39.1001 213.5 39.2001 213 39.3001C212.4 39.4001 212.2 39.5001 212.1 39.6001C212 39.7001 211.9 39.9001 211.9 40.1001C211.9 40.4001 212 40.6001 212.1 40.7001C212.2 40.8001 212.5 40.9001 212.8 40.9001C213.2 40.9001 213.6 40.8001 213.9 40.5001C214.2 40.3001 214.4 40.0001 214.4 39.7001V39.0001H214.2ZM215.1 35.6001H213.9L213.3 34.7001L212.7 35.6001H211.5L212.7 33.8001H213.8L215.1 35.6001ZM214 35.3001H214.5L213.7 34.1001H212.8L212 35.3001H212.5L213.3 34.2001L214 35.3001ZM215.8 34.4001H214.8L213.2 32.6001H214.7L215.8 34.4001ZM214.9 34.1001H215.3L214.5 32.9001H213.7L214.9 34.1001Z" fill="#FA191A"/>
<path d="M217.1 41.6002V35.8002H218.4V36.8002H218.5C218.6 36.5002 218.8 36.2002 219.1 36.0002C219.4 35.8002 219.7 35.7002 220.1 35.7002C220.5 35.7002 220.8 35.8002 221.1 36.0002C221.4 36.2002 221.6 36.4002 221.7 36.8002H221.8C221.9 36.5002 222.1 36.2002 222.5 36.0002C222.8 35.8002 223.2 35.7002 223.6 35.7002C224.1 35.7002 224.6 35.9002 224.9 36.2002C225.2 36.5002 225.4 37.0002 225.4 37.7002V41.6002H224V37.9002C224 37.5002 223.9 37.3002 223.7 37.1002C223.5 36.9002 223.3 36.8002 223 36.8002C222.7 36.8002 222.4 36.9002 222.2 37.1002C222 37.3002 221.9 37.6002 221.9 37.9002V41.5002H220.6V37.8002C220.6 37.5002 220.5 37.3002 220.3 37.1002C220.1 36.9002 219.9 36.8002 219.6 36.8002C219.4 36.8002 219.2 36.8002 219.1 36.9002C218.9 37.0002 218.8 37.1002 218.7 37.3002C218.6 37.5002 218.6 37.7002 218.6 37.9002V41.4002H217.1V41.6002Z" fill="#FA191A"/>
<path d="M231.4 41.7C230.9 41.7 230.5 41.6 230.2 41.3C229.8 41.1 229.6 40.7 229.3 40.3C229.1 39.9 229 39.3 229 38.7C229 38.1 229.1 37.5 229.3 37.1C229.5 36.7 229.8 36.3 230.2 36.1C230.6 35.9 231 35.8 231.4 35.8C231.7 35.8 232 35.9 232.2 36C232.4 36.1 232.6 36.3 232.7 36.4C232.8 36.6 232.9 36.7 233 36.9H233.1V34H234.5V41.7H233.2V40.8H233C232.9 40.9 232.8 41.1 232.7 41.2C232.6 41.4 232.4 41.5 232.2 41.6C232 41.7 231.7 41.7 231.4 41.7ZM231.8 40.6C232.1 40.6 232.3 40.5 232.5 40.4C232.7 40.2 232.9 40 233 39.7C233.1 39.4 233.2 39.1 233.2 38.7C233.2 38.3 233.1 38 233 37.7C232.9 37.4 232.7 37.2 232.5 37.1C232.3 36.9 232 36.9 231.8 36.9C231.5 36.9 231.2 37 231 37.1C230.8 37.3 230.6 37.5 230.5 37.8C230.4 38.1 230.3 38.4 230.3 38.8C230.3 39.2 230.4 39.5 230.5 39.8C230.6 40.1 230.8 40.3 231 40.5C231.2 40.5 231.5 40.6 231.8 40.6ZM231.6 35.4V34.5H235.2V35.4H231.6Z" fill="#FA191A"/>
<path d="M237.6 41.7C237.2 41.7 236.9 41.6 236.6 41.5C236.3 41.4 236.1 41.2 235.9 40.9C235.7 40.6 235.6 40.3 235.6 39.9C235.6 39.6 235.7 39.3 235.8 39.1C235.9 38.9 236.1 38.7 236.3 38.6C236.5 38.5 236.7 38.4 237 38.3C237.3 38.2 237.5 38.2 237.8 38.2C238.1 38.2 238.4 38.1 238.6 38.1C238.8 38.1 239 38 239.1 38C239.2 37.9 239.2 37.8 239.2 37.7C239.2 37.4 239.1 37.2 238.9 37C238.7 36.8 238.5 36.8 238.2 36.8C237.9 36.8 237.6 36.9 237.4 37C237.2 37.1 237.1 37.3 237 37.5L235.7 37.3C235.8 36.9 236 36.7 236.2 36.4C236.4 36.2 236.7 36 237 35.9C237.3 35.8 237.7 35.7 238.1 35.7C238.4 35.7 238.7 35.7 238.9 35.8C239.2 35.9 239.4 36 239.7 36.1C239.9 36.2 240.1 36.5 240.3 36.7C240.4 37 240.5 37.3 240.5 37.7V41.6H239.2V40.8C239.1 41 239 41.1 238.9 41.3C238.8 41.4 238.6 41.6 238.3 41.6C238.2 41.7 237.9 41.7 237.6 41.7ZM236.4 35.2L237.9 34H238.8L240.3 35.2H239.2L238.4 34.5L237.6 35.2H236.4ZM238 40.7C238.3 40.7 238.5 40.6 238.7 40.5C238.9 40.4 239.1 40.2 239.2 40.1C239.3 39.9 239.4 39.7 239.4 39.5V38.8C239.4 38.8 239.3 38.9 239.2 38.9C239.1 38.9 239 39 238.9 39C238.8 39 238.6 39 238.5 39.1C238.4 39.1 238.3 39.1 238.2 39.1C238 39.1 237.8 39.2 237.7 39.2C237.5 39.3 237.4 39.4 237.3 39.5C237.2 39.6 237.2 39.8 237.2 39.9C237.2 40.2 237.3 40.3 237.5 40.5C237.4 40.7 237.7 40.7 238 40.7ZM239.9 34.4L240.7 33H241.9L240.7 34.4H239.9Z" fill="#FA191A"/>
<path d="M244.9 35.7999V36.8999H241.6V35.7999H244.9ZM242.4 34.3999H243.8V39.7999C243.8 39.9999 243.8 40.0999 243.9 40.1999C244 40.2999 244 40.3999 244.1 40.3999C244.2 40.3999 244.3 40.4999 244.4 40.4999C244.5 40.4999 244.6 40.4999 244.6 40.4999C244.7 40.4999 244.7 40.4999 244.8 40.4999L245 41.5999C244.9 41.5999 244.8 41.6999 244.7 41.6999C244.6 41.6999 244.4 41.6999 244.2 41.7999C243.9 41.7999 243.6 41.7999 243.3 41.5999C243 41.4999 242.8 41.2999 242.6 41.0999C242.4 40.8999 242.4 40.5999 242.4 40.1999V34.3999V34.3999Z" fill="#FA191A"/>
<path d="M250.099 38.2002V41.6002H248.699V35.8002H249.999V36.8002H250.099C250.199 36.5002 250.399 36.2002 250.699 36.0002C250.999 35.8002 251.399 35.7002 251.799 35.7002C252.199 35.7002 252.499 35.8002 252.799 36.0002C253.099 36.2002 253.299 36.4002 253.499 36.7002C253.699 37.0002 253.699 37.4002 253.699 37.9002V41.6002H252.299V38.1002C252.299 37.7002 252.199 37.4002 251.999 37.2002C251.799 37.0002 251.499 36.9002 251.199 36.9002C250.999 36.9002 250.699 37.0002 250.599 37.1002C250.399 37.2002 250.299 37.4002 250.199 37.6002C250.099 37.7002 250.099 38.0002 250.099 38.2002Z" fill="#FA191A"/>
<path d="M258.899 39.2V35.8H260.299V41.6H258.999V40.6H258.899C258.799 40.9 258.599 41.2 258.299 41.4C257.999 41.6 257.599 41.7 257.199 41.7C256.799 41.7 256.499 41.6 256.199 41.4C255.899 41.2 255.699 41 255.499 40.7C255.299 40.4 255.299 40 255.299 39.5V35.8H256.699V39.3C256.699 39.7 256.799 40 256.999 40.2C257.199 40.4 257.499 40.5 257.799 40.5C257.999 40.5 258.199 40.5 258.399 40.4C258.599 40.3 258.699 40.2 258.899 40C258.799 39.7 258.899 39.5 258.899 39.2ZM260.999 35.5H261.899C261.899 35.9 261.799 36.3 261.699 36.6C261.599 36.9 261.399 37.1 261.099 37.2C260.799 37.3 260.399 37.4 259.899 37.4V36.7C260.199 36.7 260.499 36.7 260.599 36.6C260.799 36.5 260.899 36.4 260.899 36.2C260.999 36 260.999 35.8 260.999 35.5Z" fill="#FA191A"/>
<path d="M264.9 41.6999C264.3 41.6999 263.8 41.5999 263.4 41.2999C263 41.0999 262.7 40.6999 262.4 40.2999C262.2 39.8999 262.1 39.2999 262.1 38.6999C262.1 38.0999 262.2 37.5999 262.4 37.0999C262.6 36.5999 262.9 36.2999 263.4 36.0999C263.8 35.8999 264.3 35.6999 264.9 35.6999C265.5 35.6999 266 35.7999 266.4 36.0999C266.8 36.2999 267.1 36.6999 267.4 37.0999C267.6 37.5999 267.7 38.0999 267.7 38.6999C267.7 39.2999 267.6 39.7999 267.4 40.2999C267.2 40.6999 266.9 41.0999 266.4 41.2999C266 41.5999 265.5 41.6999 264.9 41.6999ZM264.9 40.5999C265.2 40.5999 265.5 40.4999 265.7 40.2999C265.9 40.0999 266.1 39.8999 266.2 39.5999C266.3 39.2999 266.4 38.9999 266.4 38.5999C266.4 38.1999 266.3 37.8999 266.2 37.5999C266.1 37.2999 265.9 37.0999 265.7 36.8999C265.5 36.6999 265.2 36.5999 264.9 36.5999C264.6 36.5999 264.3 36.6999 264.1 36.8999C263.9 37.0999 263.7 37.2999 263.6 37.5999C263.5 37.8999 263.4 38.1999 263.4 38.5999C263.4 38.9999 263.5 39.2999 263.6 39.5999C263.7 39.8999 263.9 40.0999 264.1 40.2999C264.4 40.5999 264.6 40.5999 264.9 40.5999ZM264.4 35.0999L265.2 33.3999H266.5L265.3 35.0999H264.4ZM267.4 35.4999H268.3C268.3 36.0999 268.2 36.5999 267.9 36.8999C267.6 37.2999 267.1 37.3999 266.5 37.3999V36.7999C266.8 36.7999 267 36.6999 267.1 36.5999C267.2 36.4999 267.3 36.2999 267.4 36.0999C267.4 35.9999 267.4 35.6999 267.4 35.4999Z" fill="#FA191A"/>
<path d="M271.499 41.7C270.899 41.7 270.399 41.6 269.999 41.3C269.599 41 269.299 40.7 268.999 40.2C268.799 39.8 268.699 39.2 268.699 38.6C268.699 38 268.799 37.5 268.999 37C269.199 36.5 269.499 36.2 269.999 35.9C270.399 35.6 270.899 35.5 271.499 35.5C271.999 35.5 272.399 35.6 272.799 35.8C273.199 36 273.499 36.2 273.699 36.5C273.899 36.8 273.999 37.2 274.099 37.6H272.799C272.699 37.3 272.599 37.1 272.399 36.9C272.199 36.7 271.899 36.6 271.599 36.6C271.299 36.6 271.099 36.7 270.899 36.8C270.699 36.9 270.499 37.2 270.399 37.4C270.299 37.7 270.199 38 270.199 38.4C270.199 38.8 270.299 39.1 270.399 39.4C270.499 39.7 270.699 39.9 270.899 40.1C271.099 40.3 271.399 40.3 271.599 40.3C271.799 40.3 271.999 40.3 272.099 40.2C272.299 40.1 272.399 40 272.499 39.9C272.599 39.8 272.699 39.6 272.699 39.4H273.999C273.999 39.8 273.799 40.2 273.599 40.5C273.399 40.8 273.099 41.1 272.699 41.2C272.399 41.6 271.999 41.7 271.499 41.7Z" fill="#FA191A"/>
</g>
<defs>
<clipPath id="clip0">
<rect width="274" height="48.2" fill="white"/>
</clipPath>
</defs>
</svg>
