<svg width="20" height="20" viewBox="0 0 20 20" fill="none" xmlns="http://www.w3.org/2000/svg">
<path d="M19.613 20H0.711297C0.324268 20 0 19.6862 0 19.2887V7.5C0.177824 7.13389 0.470711 7.01883 0.878661 7.01883C2.00837 7.05021 3.14854 7.02929 4.27824 7.02929C4.41423 7.02929 4.55021 7.02929 4.68619 7.02929V3.51464C4.52929 3.51464 4.38285 3.51464 4.24686 3.51464C3.78661 3.50418 3.55649 3.3159 3.54603 2.86611C3.53557 2.13389 3.5251 1.39121 3.54603 0.658996C3.55649 0.292887 3.84937 0 4.21548 0C8.07531 0 11.9247 0 15.7845 0C16.2238 0 16.454 0.209205 16.4644 0.627615C16.4854 1.38075 16.4854 2.13389 16.4644 2.89749C16.454 3.30544 16.2238 3.50418 15.8159 3.51464C15.6485 3.51464 15.4916 3.51464 15.3243 3.51464V7.02929C15.4812 7.02929 15.6276 7.02929 15.7636 7.02929C16.8933 7.02929 18.0335 7.02929 19.1632 7.02929C19.8117 7.02929 19.9895 7.20711 19.9895 7.86611C19.9895 11.6318 19.9895 15.3975 20 19.1527C19.9895 19.5084 19.8954 19.7908 19.613 20ZM14.0586 18.818V3.53556H5.94142V18.8075H7.05021C7.05021 17.4791 7.05021 16.1715 7.05021 14.8745C7.05021 14.2364 7.26987 14.0586 7.93933 14.0795C9.24686 14.1213 10.5649 14.1423 11.8724 14.0795C12.7406 14.0377 12.9498 14.1736 12.9498 14.9372C12.9498 16.0983 12.9498 17.2594 12.9498 18.41C12.9498 18.546 12.9603 18.682 12.9707 18.8285H14.0586V18.818ZM1.24477 18.8075H4.68619V8.23222H1.24477V18.8075ZM18.7552 8.22176H15.3138V18.7971H18.7552V8.22176ZM15.2406 1.19247H4.76987V2.32218H15.2406V1.19247ZM8.28452 18.8075H9.37239V15.2615H8.28452V18.8075ZM10.6381 15.2615V18.8075H11.7259V15.2615H10.6381Z" fill="url(#paint0_linear_1131_34890)"/>
<path d="M9.38274 7.04981C8.91202 6.9975 8.27395 7.17533 8.26349 6.46403C8.25303 5.72135 8.91202 5.89918 9.38274 5.84688C9.45596 5.36571 9.26767 4.68579 10.0417 4.70671C10.753 4.72763 10.5647 5.37617 10.638 5.84688C11.1087 5.89918 11.7886 5.71089 11.7572 6.48495C11.7258 7.16487 11.1087 7.00796 10.6484 7.03935C10.5543 7.51006 10.7739 8.17951 9.95805 8.18997C9.5501 8.20043 9.4455 7.95985 9.38274 7.04981Z" fill="#FF3B30"/>
<path d="M8.25323 9.95916C8.25323 10.2834 7.98127 10.5554 7.657 10.5449C7.32227 10.5449 7.06077 10.273 7.07123 9.9487C7.08169 9.63489 7.33273 9.38385 7.64654 9.38385C7.97081 9.37339 8.25323 9.63489 8.25323 9.95916Z" fill="url(#paint1_linear_1131_34890)"/>
<path d="M9.98958 10.5436C9.65485 10.5436 9.39335 10.2612 9.40381 9.93693C9.41427 9.61267 9.69669 9.36162 10.0314 9.37208C10.3452 9.38254 10.5963 9.64405 10.5963 9.95785C10.5963 10.2821 10.3243 10.5541 9.98958 10.5436Z" fill="url(#paint2_linear_1131_34890)"/>
<path d="M12.9394 9.96961C12.9394 10.2939 12.6674 10.5554 12.3327 10.5554C11.998 10.5449 11.7365 10.273 11.7469 9.94869C11.7574 9.63488 12.0189 9.3943 12.3327 9.38384C12.6674 9.37338 12.9394 9.64534 12.9394 9.96961Z" fill="url(#paint3_linear_1131_34890)"/>
<path d="M8.25302 12.2909C8.26348 12.6151 8.00197 12.8871 7.66724 12.8976C7.33251 12.8976 7.06055 12.6361 7.06055 12.3118C7.06055 12.0085 7.31159 11.7469 7.6254 11.726C7.96013 11.7051 8.24256 11.9666 8.25302 12.2909Z" fill="url(#paint4_linear_1131_34890)"/>
<path d="M9.40369 12.3106C9.40369 11.9864 9.67565 11.7249 10.0104 11.7249C10.3451 11.7249 10.6066 12.0073 10.5962 12.3315C10.5857 12.6454 10.3242 12.8859 10.0104 12.8964C9.68611 12.8964 9.40369 12.6244 9.40369 12.3106Z" fill="url(#paint5_linear_1131_34890)"/>
<path d="M12.9392 12.3211C12.9287 12.6454 12.6568 12.9069 12.3221 12.8964C11.9978 12.8859 11.7258 12.6035 11.7467 12.2792C11.7677 11.9654 12.0292 11.7249 12.343 11.7249C12.6777 11.7249 12.9497 11.9968 12.9392 12.3211Z" fill="url(#paint6_linear_1131_34890)"/>
<path d="M2.96034 10.5436C2.62562 10.5436 2.36411 10.2612 2.37457 9.93693C2.38503 9.61267 2.66746 9.36162 3.00219 9.37208C3.31599 9.38254 3.56704 9.64405 3.56704 9.95785C3.56704 10.2821 3.29507 10.5541 2.96034 10.5436Z" fill="url(#paint7_linear_1131_34890)"/>
<path d="M2.98096 12.8871C2.64623 12.8871 2.37427 12.6256 2.37427 12.3013C2.37427 11.977 2.65669 11.7155 2.98096 11.7155C3.29477 11.726 3.55628 11.9666 3.56674 12.2804C3.5772 12.6151 3.30523 12.8871 2.98096 12.8871Z" fill="url(#paint8_linear_1131_34890)"/>
<path d="M2.94968 15.2292C2.62541 15.2187 2.35344 14.9363 2.37436 14.612C2.39528 14.2877 2.67771 14.0367 3.00198 14.0576C3.31578 14.0785 3.56683 14.34 3.55637 14.6539C3.55637 14.9886 3.2844 15.2396 2.94968 15.2292Z" fill="url(#paint9_linear_1131_34890)"/>
<path d="M3.56687 17.0183C3.55641 17.3425 3.27399 17.5936 2.93926 17.5831C2.61499 17.5726 2.35348 17.2798 2.3744 16.966C2.39532 16.6521 2.65683 16.4116 2.97064 16.422C3.30537 16.4116 3.57733 16.694 3.56687 17.0183Z" fill="url(#paint10_linear_1131_34890)"/>
<path d="M17.6255 9.98011C17.6151 10.3044 17.3326 10.5554 16.9979 10.545C16.6736 10.5345 16.4121 10.2416 16.4331 9.92781C16.454 9.614 16.7155 9.37341 17.0293 9.38387C17.3745 9.38387 17.6464 9.65584 17.6255 9.98011Z" fill="url(#paint11_linear_1131_34890)"/>
<path d="M17.04 12.8862C16.7053 12.8862 16.4333 12.6143 16.4438 12.3005C16.4438 11.9762 16.7262 11.7147 17.0609 11.7252C17.3747 11.7356 17.6362 11.9867 17.6362 12.3005C17.6362 12.6143 17.3747 12.8862 17.04 12.8862Z" fill="url(#paint12_linear_1131_34890)"/>
<path d="M17.6255 14.707C17.5837 15.0313 17.3013 15.2614 16.9665 15.2301C16.6423 15.1987 16.4017 14.8849 16.4435 14.5711C16.4958 14.2363 16.7887 14.0167 17.113 14.069C17.4268 14.1108 17.6569 14.4142 17.6255 14.707Z" fill="url(#paint13_linear_1131_34890)"/>
<path d="M17.0296 17.5838C16.6948 17.5838 16.4333 17.3014 16.4438 16.9771C16.4542 16.6528 16.7367 16.4018 17.0714 16.4122C17.3852 16.4227 17.6363 16.6842 17.6363 16.998C17.6363 17.3223 17.3538 17.5838 17.0296 17.5838Z" fill="url(#paint14_linear_1131_34890)"/>
<defs>
<linearGradient id="paint0_linear_1131_34890" x1="6.94444" y1="15.8" x2="24.6351" y2="13.8252" gradientUnits="userSpaceOnUse">
<stop stop-color="#00B5F1"/>
<stop offset="1" stop-color="#00E0FF"/>
</linearGradient>
<linearGradient id="paint1_linear_1131_34890" x1="7.48145" y1="10.3013" x2="8.52678" y2="10.1825" gradientUnits="userSpaceOnUse">
<stop stop-color="#00B5F1"/>
<stop offset="1" stop-color="#00E0FF"/>
</linearGradient>
<linearGradient id="paint2_linear_1131_34890" x1="9.81766" y1="10.2978" x2="10.8722" y2="10.178" gradientUnits="userSpaceOnUse">
<stop stop-color="#00B5F1"/>
<stop offset="1" stop-color="#00E0FF"/>
</linearGradient>
<linearGradient id="paint3_linear_1131_34890" x1="12.1608" y1="10.3093" x2="13.2154" y2="10.1895" gradientUnits="userSpaceOnUse">
<stop stop-color="#00B5F1"/>
<stop offset="1" stop-color="#00E0FF"/>
</linearGradient>
<linearGradient id="paint4_linear_1131_34890" x1="7.4747" y1="12.6513" x2="8.5293" y2="12.5316" gradientUnits="userSpaceOnUse">
<stop stop-color="#00B5F1"/>
<stop offset="1" stop-color="#00E0FF"/>
</linearGradient>
<linearGradient id="paint5_linear_1131_34890" x1="9.81784" y1="12.6504" x2="10.8724" y2="12.5305" gradientUnits="userSpaceOnUse">
<stop stop-color="#00B5F1"/>
<stop offset="1" stop-color="#00E0FF"/>
</linearGradient>
<linearGradient id="paint6_linear_1131_34890" x1="12.1602" y1="12.6506" x2="13.2157" y2="12.5306" gradientUnits="userSpaceOnUse">
<stop stop-color="#00B5F1"/>
<stop offset="1" stop-color="#00E0FF"/>
</linearGradient>
<linearGradient id="paint7_linear_1131_34890" x1="2.78842" y1="10.2978" x2="3.84301" y2="10.178" gradientUnits="userSpaceOnUse">
<stop stop-color="#00B5F1"/>
<stop offset="1" stop-color="#00E0FF"/>
</linearGradient>
<linearGradient id="paint8_linear_1131_34890" x1="2.78842" y1="12.641" x2="3.84298" y2="12.5212" gradientUnits="userSpaceOnUse">
<stop stop-color="#00B5F1"/>
<stop offset="1" stop-color="#00E0FF"/>
</linearGradient>
<linearGradient id="paint9_linear_1131_34890" x1="2.78415" y1="14.9831" x2="3.83073" y2="14.8653" gradientUnits="userSpaceOnUse">
<stop stop-color="#00B5F1"/>
<stop offset="1" stop-color="#00E0FF"/>
</linearGradient>
<linearGradient id="paint10_linear_1131_34890" x1="2.78779" y1="17.3395" x2="3.84313" y2="17.2184" gradientUnits="userSpaceOnUse">
<stop stop-color="#00B5F1"/>
<stop offset="1" stop-color="#00E0FF"/>
</linearGradient>
<linearGradient id="paint11_linear_1131_34890" x1="16.8467" y1="10.3013" x2="17.9028" y2="10.1801" gradientUnits="userSpaceOnUse">
<stop stop-color="#00B5F1"/>
<stop offset="1" stop-color="#00E0FF"/>
</linearGradient>
<linearGradient id="paint12_linear_1131_34890" x1="16.8576" y1="12.6424" x2="17.912" y2="12.5215" gradientUnits="userSpaceOnUse">
<stop stop-color="#00B5F1"/>
<stop offset="1" stop-color="#00E0FF"/>
</linearGradient>
<linearGradient id="paint13_linear_1131_34890" x1="16.8518" y1="14.9869" x2="17.9037" y2="14.8677" gradientUnits="userSpaceOnUse">
<stop stop-color="#00B5F1"/>
<stop offset="1" stop-color="#00E0FF"/>
</linearGradient>
<linearGradient id="paint14_linear_1131_34890" x1="16.8576" y1="17.3377" x2="17.9122" y2="17.2179" gradientUnits="userSpaceOnUse">
<stop stop-color="#00B5F1"/>
<stop offset="1" stop-color="#00E0FF"/>
</linearGradient>
</defs>
</svg>
