<svg width="22" height="22" viewBox="0 0 22 22" fill="none" xmlns="http://www.w3.org/2000/svg">
<path d="M7.33339 20.625C7.3334 20.7146 7.35972 20.8024 7.40909 20.8772C7.45846 20.9521 7.52871 21.0108 7.61114 21.0462C8.6826 21.5028 9.83532 21.7383 11.0001 21.7383C12.1648 21.7383 13.3175 21.5028 14.389 21.0462C14.4714 21.0108 14.5416 20.9521 14.591 20.8772C14.6404 20.8024 14.6667 20.7146 14.6667 20.625C14.6688 19.9917 14.48 19.3724 14.125 18.848C13.7699 18.3236 13.265 17.9184 12.6762 17.6852L12.4589 17.5981C12.7006 17.2829 12.8321 16.8971 12.8334 16.5C12.8334 16.0137 12.6402 15.5474 12.2964 15.2036C11.9526 14.8598 11.4863 14.6666 11.0001 14.6666C10.5138 14.6666 10.0475 14.8598 9.70369 15.2036C9.35987 15.5474 9.16672 16.0137 9.16672 16.5C9.16762 16.8978 9.29919 17.2842 9.54118 17.6L9.32393 17.687C8.73544 17.9202 8.2308 18.3251 7.87575 18.8491C7.5207 19.3732 7.33171 19.992 7.33339 20.625ZM13.7303 20.3238C11.9708 20.9884 10.0293 20.9884 8.26976 20.3238C8.32182 19.9287 8.47852 19.5546 8.72365 19.2404C8.96878 18.9261 9.29343 18.683 9.66401 18.5363L10.1718 18.3333H11.8287L12.3361 18.5363C12.7067 18.683 13.0313 18.9261 13.2765 19.2404C13.5216 19.5546 13.6783 19.9287 13.7303 20.3238ZM11.0001 15.5833C11.1814 15.5833 11.3586 15.6371 11.5093 15.7378C11.6601 15.8385 11.7776 15.9817 11.8469 16.1492C11.9163 16.3167 11.9345 16.501 11.8991 16.6788C11.8637 16.8566 11.7764 17.0199 11.6482 17.1481C11.52 17.2763 11.3567 17.3636 11.1789 17.399C11.0011 17.4344 10.8168 17.4162 10.6493 17.3468C10.4818 17.2775 10.3386 17.16 10.2379 17.0092C10.1371 16.8585 10.0834 16.6813 10.0834 16.5C10.0834 16.2568 10.18 16.0237 10.3519 15.8518C10.5238 15.6799 10.7569 15.5833 11.0001 15.5833Z" fill="url(#paint0_linear_12005_62)"/>
<path d="M20.0094 15.3936L19.7922 15.3065C20.0339 14.9913 20.1654 14.6055 20.1666 14.2083C20.1666 13.7221 19.9735 13.2558 19.6297 12.912C19.2859 12.5682 18.8195 12.375 18.3333 12.375C17.8471 12.375 17.3808 12.5682 17.0369 12.912C16.6931 13.2558 16.5 13.7221 16.5 14.2083C16.5009 14.6061 16.6324 14.9926 16.8744 15.3083L16.6572 15.3954C16.0687 15.6285 15.564 16.0334 15.2089 16.5575C14.8539 17.0815 14.6649 17.7003 14.6666 18.3333C14.6666 18.423 14.693 18.5107 14.7423 18.5856C14.7917 18.6605 14.862 18.7192 14.9444 18.7545C16.0158 19.2115 17.1685 19.4471 18.3333 19.4471C19.4981 19.4471 20.6508 19.2115 21.7222 18.7545C21.8046 18.7192 21.8749 18.6605 21.9243 18.5856C21.9736 18.5107 22 18.423 22 18.3333C22.0021 17.7 21.8133 17.0808 21.4582 16.5564C21.1031 16.032 20.5982 15.6268 20.0094 15.3936ZM18.3333 13.2917C18.5146 13.2917 18.6918 13.3454 18.8426 13.4462C18.9933 13.5469 19.1108 13.69 19.1802 13.8575C19.2496 14.025 19.2677 14.2094 19.2324 14.3872C19.197 14.565 19.1097 14.7283 18.9815 14.8565C18.8533 14.9847 18.69 15.072 18.5121 15.1074C18.3343 15.1428 18.15 15.1246 17.9825 15.0552C17.815 14.9858 17.6718 14.8684 17.5711 14.7176C17.4704 14.5669 17.4166 14.3896 17.4166 14.2083C17.4166 13.9652 17.5132 13.7321 17.6851 13.5602C17.857 13.3882 18.0902 13.2917 18.3333 13.2917ZM15.603 18.0322C15.6551 17.6371 15.8118 17.263 16.0569 16.9487C16.302 16.6345 16.6267 16.3914 16.9973 16.2447L17.5046 16.0417H19.162L19.6693 16.2447C20.0399 16.3914 20.3646 16.6345 20.6097 16.9487C20.8548 17.263 21.0115 17.6371 21.0636 18.0322C19.3041 18.6968 17.3625 18.6968 15.603 18.0322Z" fill="url(#paint1_linear_12005_62)"/>
<path d="M0.277766 18.7545C1.34924 19.2112 2.50195 19.4466 3.66668 19.4466C4.83141 19.4466 5.98413 19.2112 7.0556 18.7545C7.13803 18.7191 7.20828 18.6604 7.25765 18.5855C7.30702 18.5107 7.33334 18.423 7.33335 18.3333C7.33537 17.7 7.14659 17.0809 6.79161 16.5565C6.43663 16.0322 5.93193 15.6269 5.34327 15.3935L5.12556 15.3064C5.33242 15.0346 5.45924 14.7104 5.49171 14.3704C5.52419 14.0304 5.46102 13.6881 5.30935 13.382C5.15767 13.076 4.92351 12.8184 4.63327 12.6383C4.34303 12.4582 4.00825 12.3628 3.66668 12.3628C3.32511 12.3628 2.99033 12.4582 2.7001 12.6383C2.40986 12.8184 2.1757 13.076 2.02402 13.382C1.87234 13.6881 1.80918 14.0304 1.84165 14.3704C1.87413 14.7104 2.00094 15.0346 2.20781 15.3064L1.99056 15.3935C1.40178 15.6268 0.896935 16.032 0.541864 16.5564C0.186792 17.0808 -0.00203083 17.7 1.64735e-05 18.3333C2.63782e-05 18.423 0.0263468 18.5107 0.0757172 18.5855C0.125087 18.6604 0.195338 18.7191 0.277766 18.7545ZM3.66668 13.2916C3.84798 13.2916 4.02521 13.3454 4.17596 13.4461C4.3267 13.5468 4.44419 13.69 4.51357 13.8575C4.58295 14.025 4.60111 14.2093 4.56574 14.3871C4.53037 14.5649 4.44306 14.7283 4.31486 14.8565C4.18667 14.9847 4.02333 15.072 3.84552 15.1073C3.6677 15.1427 3.48339 15.1245 3.31589 15.0552C3.14839 14.9858 3.00523 14.8683 2.9045 14.7175C2.80378 14.5668 2.75002 14.3896 2.75002 14.2083C2.75002 13.9652 2.84659 13.732 3.0185 13.5601C3.19041 13.3882 3.42357 13.2916 3.66668 13.2916ZM2.33064 16.2446L2.83847 16.0416H4.49489L5.00272 16.2446C5.37331 16.3913 5.69796 16.6344 5.94309 16.9487C6.18822 17.2629 6.34492 17.637 6.39697 18.0321C4.63744 18.6967 2.69592 18.6967 0.936391 18.0321C0.98845 17.637 1.14515 17.2629 1.39028 16.9487C1.63541 16.6344 1.96006 16.3913 2.33064 16.2446Z" fill="url(#paint2_linear_12005_62)"/>
<path d="M9.87438 10.878L10.4244 12.9094C10.4586 13.0364 10.5338 13.1487 10.6383 13.2287C10.7428 13.3088 10.8707 13.3522 11.0023 13.3522C11.134 13.3522 11.2619 13.3088 11.3664 13.2287C11.4709 13.1487 11.546 13.0364 11.5803 12.9094L12.1303 10.8776C13.3621 10.6126 14.4665 9.93523 15.2611 8.9574C16.0557 7.97958 16.4927 6.75987 16.5 5.49994C16.5001 4.75933 16.3505 4.02634 16.0604 3.34493C15.7702 2.66353 15.3454 2.04774 14.8114 1.53451C14.2775 1.02128 13.6454 0.621169 12.953 0.358183C12.2607 0.0951974 11.5224 -0.0252494 10.7823 0.00406659C9.43504 0.0686702 8.15733 0.62152 7.18787 1.55935C6.21841 2.49719 5.62349 3.75586 5.51425 5.10028C5.4257 6.42648 5.81759 7.74024 6.61823 8.8012C7.41888 9.86217 8.57475 10.5994 9.87438 10.878ZM6.42863 5.16536C6.51972 4.0455 7.01527 2.99707 7.82275 2.21582C8.63024 1.43456 9.69445 0.973893 10.8167 0.919817C10.879 0.916608 10.9405 0.916608 11 0.916608C12.2156 0.916608 13.3814 1.39949 14.241 2.25904C15.1005 3.11858 15.5834 4.28437 15.5834 5.49994C15.5772 6.59362 15.1822 7.64943 14.469 8.47856C13.7557 9.30768 12.7708 9.85603 11.6903 10.0255C11.6023 10.0388 11.5201 10.0775 11.4536 10.1367C11.3872 10.196 11.3395 10.2733 11.3163 10.3592L11 11.5316L10.6838 10.3583C10.6606 10.2724 10.613 10.1952 10.5466 10.1359C10.4803 10.0767 10.3982 10.038 10.3103 10.0246C9.17328 9.84572 8.14441 9.24783 7.42607 8.34856C6.70772 7.44929 6.35191 6.31376 6.42863 5.16536Z" fill="url(#paint3_linear_12005_62)"/>
<path d="M2.63168 8.88618L3.23164 10.6865C3.26178 10.7782 3.3201 10.858 3.39829 10.9147C3.47647 10.9713 3.57054 11.0017 3.66706 11.0017C3.76358 11.0017 3.85764 10.9713 3.93583 10.9147C4.01402 10.858 4.07234 10.7782 4.10248 10.6865L4.62039 9.13276C4.98224 9.0899 5.33676 8.99896 5.67456 8.86234L5.33081 8.01213C4.99095 8.14926 4.63 8.22678 4.26381 8.2413C4.17095 8.24518 4.08146 8.27719 4.00722 8.3331C3.93298 8.38901 3.87748 8.46617 3.8481 8.55434L3.6666 9.09197L3.43056 8.3843C3.40787 8.31621 3.3695 8.2544 3.31855 8.20385C3.2676 8.1533 3.20549 8.11542 3.13723 8.09326C2.70924 7.95483 2.31515 7.72796 1.98053 7.42736C1.6459 7.12677 1.37823 6.75917 1.19487 6.34842C1.01152 5.93768 0.916584 5.49297 0.91623 5.04315C0.915875 4.59334 1.01011 4.14848 1.19282 3.73745C1.37552 3.32641 1.64262 2.95839 1.97677 2.65727C2.31092 2.35615 2.70465 2.12865 3.13242 1.98955C3.56018 1.85045 4.01241 1.80286 4.45976 1.84985C4.90711 1.89685 5.33958 2.03738 5.7291 2.26234L6.18743 1.46897C5.69527 1.18445 5.14961 1.00473 4.58469 0.941089C4.01978 0.87745 3.4478 0.931267 2.90467 1.09916C2.36154 1.26705 1.85898 1.5454 1.42852 1.91673C0.998066 2.28806 0.64901 2.74436 0.40326 3.25698C0.157511 3.76961 0.0203747 4.3275 0.00045744 4.89564C-0.0194598 5.46378 0.0782722 6.0299 0.28752 6.55848C0.496767 7.08706 0.813013 7.56668 1.21641 7.96724C1.61981 8.3678 2.10164 8.68066 2.63168 8.88618Z" fill="url(#paint4_linear_12005_62)"/>
<path d="M17.875 0.91663C17.1509 0.916523 16.4396 1.107 15.8125 1.46892L16.2708 2.2623C16.6604 2.03734 17.0928 1.8968 17.5402 1.84981C17.9875 1.80281 18.4398 1.85041 18.8675 1.98951C19.2953 2.12861 19.689 2.3561 20.0232 2.65722C20.3573 2.95835 20.6244 3.32637 20.8071 3.7374C20.9898 4.14844 21.0841 4.5933 21.0837 5.04311C21.0833 5.49292 20.9884 5.93763 20.8051 6.34838C20.6217 6.75912 20.354 7.12672 20.0194 7.42732C19.6848 7.72791 19.2907 7.95479 18.8627 8.09321C18.7944 8.11537 18.7323 8.15325 18.6814 8.2038C18.6304 8.25435 18.5921 8.31616 18.5694 8.38426L18.3333 9.09238L18.1541 8.55567C18.1248 8.46757 18.0693 8.39046 17.9952 8.33456C17.921 8.27866 17.8317 8.2466 17.7389 8.24263C17.3727 8.22811 17.0117 8.15058 16.6719 8.01346L16.3281 8.86367C16.6659 9.00029 17.0204 9.09123 17.3823 9.13409L17.9007 10.6878C17.9308 10.7795 17.9891 10.8594 18.0673 10.916C18.1455 10.9726 18.2396 11.0031 18.3361 11.0031C18.4326 11.0031 18.5267 10.9726 18.6049 10.916C18.683 10.8594 18.7414 10.7795 18.7715 10.6878L19.3724 8.88751C20.2701 8.53933 21.0177 7.88807 21.4858 7.04657C21.9538 6.20508 22.1126 5.22637 21.9349 4.28004C21.7571 3.33371 21.2539 2.47939 20.5124 1.8651C19.7709 1.25082 18.8379 0.91528 17.875 0.91663Z" fill="url(#paint5_linear_12005_62)"/>
<path d="M8.25004 6.41659C8.7563 6.41659 9.16671 6.00618 9.16671 5.49992C9.16671 4.99366 8.7563 4.58325 8.25004 4.58325C7.74378 4.58325 7.33337 4.99366 7.33337 5.49992C7.33337 6.00618 7.74378 6.41659 8.25004 6.41659Z" fill="#FF0C1B"/>
<path d="M3.20829 5.95833C3.71455 5.95833 4.12496 5.54793 4.12496 5.04167C4.12496 4.53541 3.71455 4.125 3.20829 4.125C2.70203 4.125 2.29163 4.53541 2.29163 5.04167C2.29163 5.54793 2.70203 5.95833 3.20829 5.95833Z" fill="#FF0C1B"/>
<path d="M11 6.41659C11.5063 6.41659 11.9167 6.00618 11.9167 5.49992C11.9167 4.99366 11.5063 4.58325 11 4.58325C10.4938 4.58325 10.0834 4.99366 10.0834 5.49992C10.0834 6.00618 10.4938 6.41659 11 6.41659Z" fill="#FF0C1B"/>
<path d="M13.75 6.41659C14.2563 6.41659 14.6667 6.00618 14.6667 5.49992C14.6667 4.99366 14.2563 4.58325 13.75 4.58325C13.2438 4.58325 12.8334 4.99366 12.8334 5.49992C12.8334 6.00618 13.2438 6.41659 13.75 6.41659Z" fill="#FF0C1B"/>
<path d="M18.7917 5.95833C19.2979 5.95833 19.7083 5.54793 19.7083 5.04167C19.7083 4.53541 19.2979 4.125 18.7917 4.125C18.2854 4.125 17.875 4.53541 17.875 5.04167C17.875 5.54793 18.2854 5.95833 18.7917 5.95833Z" fill="#FF0C1B"/>
<defs>
<linearGradient id="paint0_linear_12005_62" x1="9.87968" y1="20.2532" x2="16.3603" y2="19.503" gradientUnits="userSpaceOnUse">
<stop stop-color="#00B5F1"/>
<stop offset="1" stop-color="#00E0FF"/>
</linearGradient>
<linearGradient id="paint1_linear_12005_62" x1="17.2129" y1="17.9619" x2="23.6935" y2="17.2118" gradientUnits="userSpaceOnUse">
<stop stop-color="#00B5F1"/>
<stop offset="1" stop-color="#00E0FF"/>
</linearGradient>
<linearGradient id="paint2_linear_12005_62" x1="2.54631" y1="17.959" x2="9.02718" y2="17.21" gradientUnits="userSpaceOnUse">
<stop stop-color="#00B5F1"/>
<stop offset="1" stop-color="#00E0FF"/>
</linearGradient>
<linearGradient id="paint3_linear_12005_62" x1="9.32073" y1="10.5482" x2="19.0875" y2="9.65013" gradientUnits="userSpaceOnUse">
<stop stop-color="#00B5F1"/>
<stop offset="1" stop-color="#00E0FF"/>
</linearGradient>
<linearGradient id="paint4_linear_12005_62" x1="2.14706" y1="8.88355" x2="7.66421" y2="8.50562" gradientUnits="userSpaceOnUse">
<stop stop-color="#00B5F1"/>
<stop offset="1" stop-color="#00E0FF"/>
</linearGradient>
<linearGradient id="paint5_linear_12005_62" x1="17.9629" y1="8.88491" x2="23.4834" y2="8.50652" gradientUnits="userSpaceOnUse">
<stop stop-color="#00B5F1"/>
<stop offset="1" stop-color="#00E0FF"/>
</linearGradient>
</defs>
</svg>
