<svg width="23" height="24" viewBox="0 0 23 24" fill="none" xmlns="http://www.w3.org/2000/svg">
<path fill-rule="evenodd" clip-rule="evenodd" d="M8.62502 4.125C7.98069 4.125 7.45835 4.64733 7.45835 5.29167V7.20833C7.45835 7.62255 7.12257 7.95833 6.70835 7.95833C6.29414 7.95833 5.95835 7.62255 5.95835 7.20833V5.29167C5.95835 3.81891 7.15226 2.625 8.62502 2.625H19.1667C20.6394 2.625 21.8334 3.81891 21.8334 5.29167V13.9167C21.8334 15.3894 20.6394 16.5833 19.1667 16.5833H14.375C13.9608 16.5833 13.625 16.2475 13.625 15.8333C13.625 15.4191 13.9608 15.0833 14.375 15.0833H19.1667C19.811 15.0833 20.3334 14.561 20.3334 13.9167V5.29167C20.3334 4.64734 19.811 4.125 19.1667 4.125H8.62502ZM6.70835 10.8333C6.06402 10.8333 5.54169 11.3557 5.54169 12C5.54169 12.6443 6.06402 13.1667 6.70835 13.1667C7.35269 13.1667 7.87502 12.6443 7.87502 12C7.87502 11.3557 7.35269 10.8333 6.70835 10.8333ZM4.04169 12C4.04169 10.5272 5.23559 9.33333 6.70835 9.33333C8.18111 9.33333 9.37502 10.5272 9.37502 12C9.37502 13.4728 8.18111 14.6667 6.70835 14.6667C5.23559 14.6667 4.04169 13.4728 4.04169 12ZM3.83335 16.5833C3.18902 16.5833 2.66669 17.1057 2.66669 17.75V18.7083C2.66669 19.3527 3.18902 19.875 3.83335 19.875H9.58335C10.2277 19.875 10.75 19.3527 10.75 18.7083V17.75C10.75 17.1057 10.2277 16.5833 9.58335 16.5833H9.41893C9.10951 16.5833 8.81277 16.7062 8.59397 16.925C7.55257 17.9664 5.86413 17.9664 4.82274 16.925C4.60394 16.7062 4.3072 16.5833 3.99778 16.5833H3.83335ZM1.16669 17.75C1.16669 16.2772 2.36059 15.0833 3.83335 15.0833H3.99778C4.70502 15.0833 5.3833 15.3643 5.8834 15.8644C6.33901 16.32 7.0777 16.32 7.53331 15.8644C8.03341 15.3643 8.71169 15.0833 9.41893 15.0833H9.58335C11.0561 15.0833 12.25 16.2772 12.25 17.75V18.7083C12.25 20.1811 11.0561 21.375 9.58335 21.375H3.83335C2.36059 21.375 1.16669 20.1811 1.16669 18.7083V17.75Z" fill="url(#paint0_linear_1131_34929)"/>
<path d="M11 7H18" stroke="#FF3B30" stroke-width="1.5" stroke-linecap="round"/>
<path d="M14 10L18 10" stroke="#FF3B30" stroke-width="1.5" stroke-linecap="round"/>
<defs>
<linearGradient id="paint0_linear_1131_34929" x1="8.34261" y1="17.4375" x2="26.5747" y2="15.1942" gradientUnits="userSpaceOnUse">
<stop stop-color="#00B5F1"/>
<stop offset="1" stop-color="#00E0FF"/>
</linearGradient>
</defs>
</svg>
