<?xml version="1.0" encoding="utf-8"?>
<!-- Generator: Adobe Illustrator 23.0.4, SVG Export Plug-In . SVG Version: 6.00 Build 0)  -->
<svg version="1.1" id="Layer_1" xmlns="http://www.w3.org/2000/svg" xmlns:xlink="http://www.w3.org/1999/xlink" x="0px" y="0px"
	 viewBox="0 0 504 152" style="enable-background:new 0 0 504 152;" xml:space="preserve">
<style type="text/css">
	.st0{stroke:#A6A6A6;stroke-width:3;}
	.st1{fill:#FFFFFF;}
	.st2{font-family:'GoogleSans-Regular';}
	.st3{font-size:20px;}
	.st4{font-family:'LucidaGrande';}
	.st5{display:none;fill:#FFFFFF;enable-background:new    ;}
	.st6{font-family:'GoogleSans-Bold';}
	.st7{font-size:55px;}
	.st8{letter-spacing:1;}
</style>
<title>app-store-badge-black</title>
<desc>Created with Sketch.</desc>
<g id="Page-1">
	<g id="Artboard" transform="translate(-55.000000, -63.000000)">
		<g id="app-store-badge-black" transform="translate(55.000000, 63.000000)">
			<path id="Rectangle" class="st0" d="M16.5,1.5h471c8.3,0,15,6.7,15,15v119c0,8.3-6.7,15-15,15h-471c-8.3,0-15-6.7-15-15v-119
				C1.5,8.2,8.2,1.5,16.5,1.5z"/>
			<g id="apple-logo" transform="translate(65.000000, 37.000000)">
				<path id="Shape" class="st1" d="M65.8,62.2c-1.2,2.8-2.6,5.4-4.3,7.7c-2.3,3.2-4.1,5.4-5.5,6.7c-2.2,2-4.6,3.1-7.1,3.1
					c-1.8,0-4-0.5-6.6-1.6c-2.6-1-4.9-1.6-7.1-1.6c-2.3,0-4.7,0.5-7.3,1.6c-2.6,1-4.7,1.6-6.3,1.7c-2.4,0.1-4.8-1-7.3-3.2
					c-1.5-1.3-3.5-3.7-5.8-6.9c-2.5-3.5-4.5-7.5-6.1-12.1C0.9,52.6,0,47.7,0,43.1c0-5.3,1.2-10,3.5-13.8c1.8-3.1,4.2-5.6,7.3-7.4
					c3-1.8,6.3-2.7,9.8-2.8c1.9,0,4.5,0.6,7.6,1.8c3.1,1.2,5.1,1.8,6,1.8c0.7,0,2.9-0.7,6.7-2.1c3.6-1.3,6.6-1.8,9.1-1.6
					c6.7,0.5,11.8,3.2,15.1,8c-6,3.6-9,8.7-8.9,15.3c0.1,5.1,1.9,9.3,5.5,12.7c1.6,1.6,3.5,2.8,5.5,3.6C66.8,59.8,66.3,61,65.8,62.2
					z M50.4,1.6c0,4-1.5,7.7-4.4,11.2c-3.5,4.1-7.8,6.5-12.4,6.1c-0.1-0.5-0.1-1-0.1-1.5c0-3.8,1.7-7.9,4.6-11.3
					c1.5-1.7,3.4-3.1,5.6-4.2c2.3-1.1,4.4-1.7,6.5-1.8C50.4,0.5,50.4,1.1,50.4,1.6L50.4,1.6z"/>
			</g>
			<g id="Group" transform="translate(179.000000, 28.000000)">
				<text transform="matrix(1 0 0 1 0.4285 19)" class="st1 st2 st3">T</text>
				<text transform="matrix(1 0 0 1 11.2081 19)" class="st1 st2 st3"> </text>
				<text transform="matrix(1 0 0 1 11.2084 19)" class="st1 st4 st3">Ả</text>
				<text transform="matrix(1 0 0 1 25.0072 19)" class="st1 st2 st3"> </text>
				<text transform="matrix(1 0 0 1 25.0072 19)" class="st1 st2 st3">I </text>
				<text transform="matrix(1 0 0 1 34.5272 19)" class="st1 st4 st3">Ứ</text>
				<text transform="matrix(1 0 0 1 49.6542 19)" class="st1 st2 st3"> </text>
				<text transform="matrix(1 0 0 1 49.6542 19)" class="st1 st2 st3">NG D</text>
				<text transform="matrix(1 0 0 1 98.5735 19)" class="st1 st2 st3"> </text>
				<text transform="matrix(1 0 0 1 98.7742 19)" class="st1 st4 st3">Ụ</text>
				<text transform="matrix(1 0 0 1 112.6316 19)" class="st1 st2 st3"> </text>
				<text transform="matrix(1 0 0 1 112.6316 19)" class="st1 st2 st3">NG </text>
				<text transform="matrix(1 0 0 1 147.6917 19)" class="st5 st6 st3">Bệnh viện Quận Thủ Đức</text>
				<text transform="matrix(1 0 0 1 0.26 80)" class="st1 st2 st7 st8">App Store</text>
			</g>
		</g>
	</g>
</g>
</svg>
