<svg width="80" height="41" viewBox="0 0 80 41" fill="none" xmlns="http://www.w3.org/2000/svg">
    <path d="M15.8488 0.110504C20.7174 0.110504 25.0887 2.2809 27.9892 5.7003C30.8689 2.2809 35.2195 0.110504 40.0674 0.110504C48.748 0.110504 55.2947 6.60123 55.9369 14.5048C55.9576 14.8528 55.9369 15.59 55.9991 16.4499C56.4134 20.5041 59.6867 23.8211 64.0788 23.8211C68.6781 23.8211 72.3865 20.2174 72.3865 15.6719C72.3865 11.1468 68.6574 7.58405 64.0788 7.58405C60.9091 7.58405 58.2365 9.34494 56.8277 11.9453C56.2062 9.24256 54.7353 6.6217 52.8915 4.63558C55.8748 1.62569 60.1632 -0.135202 64.7625 0.00812638C73.4845 0.315258 80.3005 7.56357 79.9898 16.1837C79.679 24.8039 72.3658 31.5403 63.6231 31.2537C59.2931 31.1104 55.4397 29.3085 52.6636 26.36L52.042 25.7048C49.7424 22.9202 48.4786 19.9717 48.2715 16.839C48.2715 16.7775 48.2715 16.1018 48.2715 15.7947C48.2715 11.2696 44.5838 7.58405 39.9845 7.58405C35.3853 7.58405 31.884 11.2492 31.884 15.7947C31.884 16.1428 31.884 29.4928 31.884 31.2946C29.2944 31.3765 27.1812 30.3323 25.5238 28.1005C24.6951 26.8924 24.1565 25.152 24.1565 24.1077V15.1804C23.7628 10.9625 20.1994 7.625 15.8281 7.625C11.2703 7.625 7.81045 11.2082 7.81045 15.6923V31.3356C3.66698 31.3356 0.186456 28.3257 0 24.4558L0 15.5285C0.124304 6.99026 7.16821 0.110504 15.8488 0.110504ZM56.0612 30.8032C56.0612 31.1923 56.0612 31.4994 56.0612 31.7656C56.0612 35.9835 53.4508 39.7305 48.5408 41C48.5201 41 48.5408 23.9849 48.5408 22.7564C50.9026 27.3429 52.3114 28.5509 56.0612 30.8032Z" fill="#00B5F1" />
    <path d="M65.9655 14.3408H67.6021C68.4101 14.3408 69.0731 14.9961 69.0731 15.7946C69.0731 16.5932 68.4101 17.2484 67.6021 17.2484H65.9655V18.8659C65.9655 19.6645 65.3025 20.3197 64.4945 20.3197C63.6866 20.3197 63.0236 19.6645 63.0236 18.8659V17.2484H61.3869C60.579 17.2484 59.916 16.5932 59.916 15.7946C59.916 14.9961 60.579 14.3408 61.3869 14.3408H63.0236V12.7233C63.0236 11.9247 63.6866 11.2695 64.4945 11.2695C65.3025 11.2695 65.9655 11.9247 65.9655 12.7233V14.3408Z" fill="#00B5F1" />
</svg>