<?xml version="1.0" encoding="utf-8"?><!-- Uploaded to: SVG Repo, www.svgrepo.com, Generator: SVG Repo Mixer Tools -->
<svg width="800px" height="800px" viewBox="-15.27 0 92.99997 92.99997" xmlns="http://www.w3.org/2000/svg">
<title>Asset 20</title>
<g id="Layer_2" data-name="Layer 2">
<g id="Layer_1-2" data-name="Layer 1">
<g id="iPhone_X_Icon" data-name="iPhone X Icon">
<g id="iPhone">
<path id="Phone" d="M0,16.93657a5.62214,5.62214,0,0,1,5.62213-5.62212H34.19806a5.62214,5.62214,0,0,1,5.62211,5.62212v70.4413A5.62215,5.62215,0,0,1,34.19806,93H5.62213A5.62214,5.62214,0,0,1,0,87.37787Z" style="fill:#7b7b7b"/>
<path id="Screen" d="M4.06328,20.407a5.62214,5.62214,0,0,1,5.62213-5.62212H30.3379A5.62214,5.62214,0,0,1,35.96,20.407V83.08823a5.62215,5.62215,0,0,1-5.6221,5.6221H9.68541a5.62214,5.62214,0,0,1-5.62213-5.6221Z" style="fill:#fdf6cb"/>
<path id="iPhone_X_Top" data-name="iPhone X Top" d="M11.7835,14.9891a2.45056,2.45056,0,0,1,2.45056-2.45055H25.586a2.45057,2.45057,0,1,1,0,4.90113h-11.352A2.45057,2.45057,0,0,1,11.7835,14.9891Z" style="fill:#7b7b7b"/>
<path id="iPhone_X_Menu_Button" data-name="iPhone X Menu Button" d="M11.98667,84.9325a.919.919,0,0,1,.919-.919H27.32082a.919.919,0,1,1,0,1.83792H12.90564A.919.919,0,0,1,11.98667,84.9325Z" style="fill:#7b7b7b"/>
</g>
<g id="Sound_Icon" data-name="Sound Icon">
<path id="Shape" d="M43.35755,14.771a1.45794,1.45794,0,0,1,1.45629-1.44843h5.06567A1.439,1.439,0,0,1,51.32014,14.771a1.45793,1.45793,0,0,1-1.45629,1.44843H44.79818A1.439,1.439,0,0,1,43.35755,14.771Z" style="fill:#fab96f"/>
<path id="Shape-2" data-name="Shape" d="M36.28344,7.53094a1.45189,1.45189,0,0,0,1.44235-1.45023V1.43451A1.4329,1.4329,0,0,0,36.28344,0,1.45188,1.45188,0,0,0,34.8411,1.45024v4.6462A1.4329,1.4329,0,0,0,36.28344,7.53094Z" style="fill:#fab96f"/>
<path id="Shape-3" data-name="Shape" d="M41.49628,9.78684a1.44955,1.44955,0,0,1,.27837-2.025L45.6676,4.79736A1.44244,1.44244,0,0,1,47.406,7.09962l-3.89295,2.96446A1.4354,1.4354,0,0,1,41.49628,9.78684Z" style="fill:#fab96f"/>
<path id="Shape-4" data-name="Shape" d="M41.49628,20.11159a1.44955,1.44955,0,0,0,.27837,2.025l3.89295,2.96445A1.44244,1.44244,0,0,0,47.406,22.79881l-3.89295-2.96446A1.4354,1.4354,0,0,0,41.49628,20.11159Z" style="fill:#fab96f"/>
<path id="Shape-5" data-name="Shape" d="M31.00753,9.61579a1.44953,1.44953,0,0,0-.27837-2.025L26.83621,4.62631a1.44244,1.44244,0,0,0-1.73843,2.30226L28.99072,9.893A1.43539,1.43539,0,0,0,31.00753,9.61579Z" style="fill:#fab96f"/>
</g>
<path id="Notification_Bubble" data-name="Notification Bubble" d="M56.65489,26.35116H28.77121a5.798,5.798,0,0,0-5.79809,5.798v15.4047c0,.12916.02969.24992.038.377a.82943.82943,0,0,0-.22053.22972l-4.44493,8.208a.85262.85262,0,0,0,1.14443,1.16181l8.209-4.28668a5.80165,5.80165,0,0,0,1.07215.10807H56.65489A5.79811,5.79811,0,0,0,62.453,47.55385V32.14915A5.79807,5.79807,0,0,0,56.65489,26.35116Z" style="fill:#83ebc5"/>
<g id="Logo">
<path id="Fill" d="M34.5899,38.07361a5.798,5.798,0,0,1,5.798-5.798h2.31159V47.07212H40.38793a5.798,5.798,0,0,1-5.798-5.798Z" style="fill:#ff7878"/>
<path id="Fill-2" data-name="Fill" d="M34.48927,38.058a5.83543,5.83543,0,0,1,5.8141-5.85651h2.318v7.41988h-8.1321Z" style="fill:#83ebc5"/>
<path id="Fill-3" data-name="Fill" d="M50.731,38.07361a5.798,5.798,0,0,0-5.798-5.798H42.62137V47.07212H44.933a5.798,5.798,0,0,0,5.798-5.798Z" style="fill:#98c6e8"/>
<path id="Fill-4" data-name="Fill" d="M50.731,41.27408a5.798,5.798,0,0,1-5.798,5.798H42.62137V39.62139H50.731Z" style="fill:#fcbb6a"/>
<path id="S" d="M43.71479,36.89063a2.84335,2.84335,0,0,0-.90457-.1412,2.02085,2.02085,0,0,0-.76734.13505,1.237,1.237,0,0,0-.6255.48893.68952.68952,0,0,0-.059.64626.57525.57525,0,0,0,.288.32185,1.39988,1.39988,0,0,0,.45917.12083,4.15405,4.15405,0,0,0,.57556-.01851q.31747-.03438.62807-.05279a3.64933,3.64933,0,0,1,1.9919.34168,2.55155,2.55155,0,0,1,1.1498,1.381,3.26617,3.26617,0,0,1,.25211,1.29006,2.65509,2.65509,0,0,1-.28014,1.18525,3.142,3.142,0,0,1-.817,1.0028,4.54255,4.54255,0,0,1-1.31737.77923,5.58738,5.58738,0,0,1-3.41446.24121l.23607-2.18768a4.19246,4.19246,0,0,0,1.25868.26435,2.57221,2.57221,0,0,0,1.05739-.17171,1.22384,1.22384,0,0,0,.70995-.57574.81605.81605,0,0,0,.04522-.6805.79059.79059,0,0,0-.2012-.30362.72463.72463,0,0,0-.33358-.17112,1.79907,1.79907,0,0,0-.51394-.05915q-.29238-.00216-.708.01856-.48874.03675-.97525.04609a3.14036,3.14036,0,0,1-.92056-.148,2.33021,2.33021,0,0,1-.79973-.47463,2.7423,2.7423,0,0,1-.61963-.98392,3.31839,3.31839,0,0,1-.25664-1.23526,2.81067,2.81067,0,0,1,.23678-1.12814,2.87678,2.87678,0,0,1,.70284-.95708,3.86288,3.86288,0,0,1,1.1621-.70381,5.66989,5.66989,0,0,1,1.409-.35226,6.14415,6.14415,0,0,1,1.5417-.0212Z" style="fill:#7b7b7b"/>
</g>
</g>
</g>
</g>
</svg>