<svg width="25" height="26" viewBox="0 0 25 26" fill="none" xmlns="http://www.w3.org/2000/svg">
<path d="M11.9836 24.9979C11.9189 24.9135 11.8148 24.9347 11.7301 24.9122C10.2968 24.534 9.40135 23.6325 9.06626 22.1926C9.02735 22.0244 8.96083 21.9938 8.80396 21.9944C7.18936 22.0001 5.57477 22.0044 3.9608 21.9944C3.35337 21.9907 2.89214 21.7 2.6242 21.1567C2.36127 20.6234 2.41586 20.0963 2.76162 19.6106C2.84696 19.4912 2.95866 19.388 3.0691 19.2898C4.67993 17.8556 5.46872 16.0557 5.47876 13.9107C5.48378 12.8641 5.46746 11.8175 5.48754 10.7722C5.54276 7.90691 7.49684 5.27859 10.2341 4.38081C10.4292 4.31704 10.5033 4.23889 10.4957 4.0282C10.48 3.62308 10.4719 3.2142 10.5114 2.81157C10.6005 1.90254 11.2048 1.24796 12.1009 1.04477C12.1317 1.03789 12.1624 1.03727 12.1725 0.999756H12.7843C12.9016 1.07978 13.0466 1.06603 13.1752 1.11292C13.9853 1.40863 14.498 2.14011 14.5125 3.04414C14.5181 3.3955 14.5219 3.74686 14.5093 4.09822C14.5037 4.25265 14.5627 4.30704 14.702 4.35705C17.2384 5.26734 18.8028 7.03789 19.3951 9.65684C19.5056 10.1457 19.5206 10.6459 19.525 11.1467C19.5357 12.2939 19.4704 13.4436 19.5583 14.589C19.6963 16.3939 20.455 17.9094 21.7759 19.1479C21.8788 19.2442 21.9874 19.3342 22.0872 19.4336C22.5258 19.8719 22.6664 20.5196 22.4198 21.0742C22.1581 21.6631 21.6906 21.9907 21.0417 21.9951C19.4271 22.0069 17.8132 22.0026 16.1986 21.9951C16.0204 21.9944 15.9664 22.0495 15.9338 22.217C15.657 23.6412 14.4346 24.7747 12.9951 24.9554C12.9625 24.9591 12.9343 24.9629 12.9248 24.9998H11.9842L11.9836 24.9979ZM12.4749 21.0016H15.8365C17.5063 21.0016 19.1761 21.0016 20.846 21.0016C20.9087 21.0016 20.9721 21.0048 21.0342 20.9991C21.2538 20.9779 21.4201 20.8822 21.4992 20.6646C21.5789 20.4465 21.5111 20.267 21.3511 20.1145C21.2325 20.0013 21.1039 19.8975 20.9865 19.7831C19.3525 18.182 18.5311 16.2389 18.5229 13.9563C18.5191 12.9954 18.5198 12.0351 18.5235 11.0742C18.5248 10.7609 18.5091 10.4483 18.4608 10.1401C17.9035 6.56587 14.483 4.31142 10.9708 5.19982C8.40297 5.8494 6.51667 8.22076 6.48215 10.8591C6.46772 11.9757 6.49533 13.0935 6.47148 14.2095C6.43258 15.9894 5.8515 17.5831 4.74457 18.9835C4.42328 19.3899 4.0612 19.7562 3.67026 20.0957C3.4977 20.2458 3.41737 20.4302 3.50021 20.6603C3.58555 20.8985 3.77004 20.991 4.00912 21.001C4.07187 21.0035 4.13462 21.0016 4.19737 21.0016C6.95655 21.0016 9.71573 21.0016 12.4743 21.0016H12.4749ZM14.9373 22.0107C14.9222 22.0069 14.9072 21.9994 14.8921 21.9994C13.3252 21.9988 11.7589 22.0001 10.192 21.9957C10.0446 21.9957 10.0533 22.0432 10.0828 22.1589C10.4066 23.413 11.7621 24.2339 13.0309 23.9382C14.023 23.7075 14.8206 22.901 14.9373 22.0107ZM11.5073 3.41364C11.5073 3.41364 11.5035 3.41364 11.5016 3.41364C11.5016 3.58556 11.506 3.75687 11.4998 3.9288C11.4966 4.02758 11.5198 4.06759 11.6309 4.05321C12.2082 3.98006 12.7868 3.98006 13.3641 4.05196C13.4632 4.06446 13.5047 4.04508 13.5022 3.93567C13.4946 3.58494 13.5116 3.23295 13.489 2.88284C13.4576 2.39144 13.0089 2.00007 12.5044 1.99694C11.9936 1.99382 11.5443 2.39644 11.5092 2.8991C11.4972 3.06978 11.5073 3.24233 11.5073 3.41364Z" fill="#003553" stroke="#003553" stroke-width="0.25102"/>
</svg>
