<svg width="25" height="24" viewBox="0 0 25 24" fill="none" xmlns="http://www.w3.org/2000/svg">
<g clip-path="url(#clip0_5201_60551)">
<path d="M12.7369 -0.000263498C12.9513 0.133849 13.1944 0.216379 13.3318 0.465378C13.4426 0.66514 13.5176 0.863963 13.5214 1.08858C13.5261 1.37744 13.5247 1.66676 13.5214 1.95562C13.5205 2.05081 13.5275 2.09254 13.6509 2.11411C14.4143 2.24588 15.1435 2.48503 15.8267 2.85736C16.637 3.29909 17.3305 3.87774 17.9203 4.58816C18.6124 5.42144 19.0746 6.36585 19.3256 7.41436C19.4214 7.81529 19.4692 8.2256 19.4946 8.63919C19.5598 9.69193 19.533 10.7451 19.5194 11.7974C19.5058 12.8347 19.7414 13.8077 20.1876 14.7286C20.6024 15.5844 21.1772 16.3239 21.9148 16.9391C22.4112 17.3527 22.6233 18.0214 22.4267 18.7501C22.2306 19.4756 21.4517 20.0101 20.7028 20.0087C15.2237 19.9989 9.74418 19.9853 4.26511 20.0214C3.39893 20.027 2.468 19.1365 2.50084 18.2723C2.52571 17.613 2.82273 17.1389 3.29148 16.7333C3.83577 16.2625 4.27309 15.7082 4.62782 15.0831C4.97222 14.4768 5.21152 13.8302 5.35417 13.1516C5.4147 12.8633 5.45036 12.5669 5.47053 12.2687C5.55875 10.9679 5.47663 9.66567 5.52027 8.36581C5.53904 7.79747 5.70796 7.24977 5.88579 6.70816C6.15372 5.88989 6.57789 5.15509 7.13532 4.51219C7.70918 3.85007 8.3628 3.27048 9.1525 2.85642C9.73057 2.5535 10.3453 2.3603 10.9637 2.17085C10.9712 2.16851 10.9782 2.16194 10.9853 2.16194C11.1636 2.16288 11.386 2.16476 11.4831 2.04331C11.5906 1.90873 11.5099 1.68411 11.5169 1.49842C11.5263 1.24989 11.4911 0.992917 11.5427 0.754235C11.6309 0.350023 11.9256 0.116499 12.315 -0.000732422H12.7373L12.7369 -0.000263498Z" fill="#00B5F1"/>
<path d="M11.986 24C11.8364 23.9058 11.6571 23.9245 11.4938 23.8739C10.8754 23.6816 10.3438 23.3693 9.87924 22.9121C9.43536 22.4756 9.11066 21.9799 8.92391 21.3895C8.80097 20.9999 8.79957 21.0003 9.20216 21.0003C11.445 21.0003 13.6879 21.0031 15.9308 20.9961C16.148 20.9956 16.1846 21.0308 16.1203 21.2493C15.7952 22.3555 15.0918 23.1381 14.082 23.653C13.7602 23.8171 13.4115 23.9381 13.0399 23.955C13.0071 23.9564 12.9794 23.963 12.9714 24.0005H11.9865L11.986 24Z" fill="#00B5F1"/>
</g>
<defs>
<clipPath id="clip0_5201_60551">
<rect width="20" height="24" fill="white" transform="translate(2.5)"/>
</clipPath>
</defs>
</svg>
