<svg width="24" height="24" viewBox="0 0 24 24" fill="none" xmlns="http://www.w3.org/2000/svg">
<path fill-rule="evenodd" clip-rule="evenodd" d="M5.99922 0C3.34825 0 1.19922 2.14903 1.19922 4.8V19.2C1.19922 21.851 3.34825 24 5.99922 24H17.9992C20.6502 24 22.7992 21.851 22.7992 19.2V7.98823C22.7992 5.4 21.0935 4.29429 20.1933 3.39411L18.2051 1.40589C17.3049 0.505713 16.084 0 14.811 0H5.99922ZM7.19922 5.1C6.70216 5.1 6.29922 5.50294 6.29922 6C6.29922 6.49706 6.70216 6.9 7.19922 6.9H16.7992C17.2963 6.9 17.6992 6.49706 17.6992 6C17.6992 5.50294 17.2963 5.1 16.7992 5.1H7.19922ZM6.29922 12C6.29922 11.5029 6.70216 11.1 7.19922 11.1H16.7992C17.2963 11.1 17.6992 11.5029 17.6992 12C17.6992 12.4971 17.2963 12.9 16.7992 12.9H7.19922C6.70216 12.9 6.29922 12.4971 6.29922 12ZM7.19922 17.1C6.70216 17.1 6.29922 17.5029 6.29922 18C6.29922 18.4971 6.70216 18.9 7.19922 18.9H11.9992C12.4963 18.9 12.8992 18.4971 12.8992 18C12.8992 17.5029 12.4963 17.1 11.9992 17.1H7.19922Z" fill="#00B5F1"/>
</svg>
