<svg id="Layer_1" data-name="Layer 1" xmlns="http://www.w3.org/2000/svg" viewBox="0 0 1024 1024"><defs><style>.cls-1{fill:#fff;}.cls-2{fill:#006cbb;}.cls-3{fill:#1a1818;}.cls-4{fill:#007b33;}</style></defs><title>logo-1024x1024-DaLieu</title><path class="cls-1" d="M1021,512c0,281.11-227.89,509-509,509S3,793.11,3,512,230.89,3,512,3h0c281.11,0,509,227.88,509,509Z"/><path class="cls-2" d="M512,996.36C244.93,996.36,27.64,779.06,27.64,512S244.93,27.65,512,27.65,996.35,244.91,996.35,512v0C996.35,779.06,779.08,996.36,512,996.36Zm0-956.92c-260.58,0-472.59,212-472.59,472.57S251.42,984.56,512,984.56,984.57,772.57,984.57,512,772.58,39.43,512,39.43Z"/><path class="cls-2" d="M512,982C252.88,982,42.06,771.15,42,512c0-125.52,48.87-243.52,137.63-332.29S386.43,42.1,512,42.09C771.11,42.1,981.9,252.9,981.9,512h0C981.91,771.11,771.11,981.93,512,982Zm0-934.53c-124.15,0-240.83,48.33-328.57,136.09S47.37,387.93,47.38,512c0,256.18,208.44,464.59,464.62,464.59S976.58,768.17,976.57,512h0C976.57,255.84,768.17,47.43,512,47.42Z"/><path class="cls-3" d="M143,756.37a7.58,7.58,0,0,1-.74-2.71c.09-.7.78-1.42,2-2.18l22.19-13.66a3.79,3.79,0,0,1,3.16-.76,2.29,2.29,0,0,1,.83.61,6.64,6.64,0,0,1,.93,1.23l1.57-1-7.37-12-1.57,1a4.12,4.12,0,0,1,.85,2.52,3.79,3.79,0,0,1-2.07,2.44l-9.25,5.69-4.79-7.77,9.25-5.68a3.52,3.52,0,0,1,3.2-.68,2.35,2.35,0,0,1,.83.61,6.34,6.34,0,0,1,.93,1.23l1.57-1-7.29-11.84-1.57,1a5.13,5.13,0,0,1,.7,2.39c-.13.83-.81,1.61-2.08,2.41l-22.15,13.64a3.56,3.56,0,0,1-2.9.72c-.45,0-1.08-.63-1.89-1.67l-1.57,1,7.29,11.84,1.57-1a7.45,7.45,0,0,1-.74-2.71,3.79,3.79,0,0,1,1.89-2.25l10.36-6.39,4.77,7.77-10.35,6.39a3.47,3.47,0,0,1-3,.7,1.9,1.9,0,0,1-.78-.59,15.57,15.57,0,0,1-1.25-1.29l-1.57,1,7.37,12Z"/><path class="cls-3" d="M164,773.85a20.13,20.13,0,0,1-7.22-.93,7.58,7.58,0,0,1-3.79-2.8,5.69,5.69,0,0,1-.89-3.79,6.94,6.94,0,0,1,1.06-3.34,22.41,22.41,0,0,1,1.89-2.54,21.82,21.82,0,0,1,2.08-2.14,27.79,27.79,0,0,1,2.25-1.9c.74-.59,1.59-1.19,2.56-1.9a36.81,36.81,0,0,1,10.65-5.68,6.19,6.19,0,0,1,7.48,1.65,7.18,7.18,0,0,1,.28,6.65,22.74,22.74,0,0,1-4,7.11l.85,1.21L188,757.88l-.89-1.25a9.89,9.89,0,0,1-1.89.51,1.68,1.68,0,0,1-1.08-.32l-.8-4.28a9.73,9.73,0,0,0-1.57-3.58,12.22,12.22,0,0,0-10.61-5.1,23.64,23.64,0,0,0-13.76,4.85,23,23,0,0,0-8.79,10.86,12.48,12.48,0,0,0,1.5,12.14,10.34,10.34,0,0,0,5.68,4,27.41,27.41,0,0,0,7.73.53Z"/><path class="cls-3" d="M183.64,808.87a6.55,6.55,0,0,1-1-2.82,7,7,0,0,1,2.46-3l18.36-15.29a6.52,6.52,0,0,1,3.79-1.9,1.29,1.29,0,0,1,.95.44,12.86,12.86,0,0,1,1.17,1.23l1.42-1.17L204,778.32l-24.18,10,14.17-22-6.8-8.15-1.4,1.18a4.48,4.48,0,0,1,1.38,2.75,5.28,5.28,0,0,1-1.89,2.43l-19.69,16.39a5.38,5.38,0,0,1-2.9,1.57c-.7,0-1.57-.57-2.6-1.8l-1.42,1.17,6.29,7.58,1.42-1.19a7.79,7.79,0,0,1-.95-1.53,2.22,2.22,0,0,1-.27-1.65,7.58,7.58,0,0,1,2.56-3.11l18.21-15-17.34,26.83.93,1.12,30.11-12.62L180,798.62c-1.19,1-2.16,1.48-2.86,1.33s-1.16-.53-2.25-1.63l-1.46,1.21,8.81,10.57Z"/><path class="cls-3" d="M207.57,823.38a20.09,20.09,0,0,1-7.28.17,7.59,7.59,0,0,1-4.09-2.2,5.69,5.69,0,0,1-1.46-3.66,6.86,6.86,0,0,1,.55-3.45,21.82,21.82,0,0,1,1.44-2.8,22.27,22.27,0,0,1,1.72-2.45,27.45,27.45,0,0,1,1.9-2.24c.64-.68,1.4-1.42,2.25-2.25a37,37,0,0,1,9.66-7.29,6.18,6.18,0,0,1,7.58.51,7.16,7.16,0,0,1,1.27,6.54,22.81,22.81,0,0,1-2.94,7.58l1,1.08,9.47-9.21-1.08-1.1a9.73,9.73,0,0,1-1.74.78,1.66,1.66,0,0,1-1.12-.15l-1.42-4.11a9.87,9.87,0,0,0-2.1-3.32A12.2,12.2,0,0,0,210,792.37a23.66,23.66,0,0,0-12.87,6.86,23.15,23.15,0,0,0-7,12.05,12.5,12.5,0,0,0,3.32,11.78,10.38,10.38,0,0,0,6.27,3.09,27.75,27.75,0,0,0,7.73-.63Z"/><path class="cls-3" d="M234.89,857.07a7.65,7.65,0,0,1-1.52-2.35c-.11-.7.32-1.59,1.25-2.67l17.05-19.76a3.79,3.79,0,0,1,2.77-1.69,2.37,2.37,0,0,1,1,.32,5.9,5.9,0,0,1,1.27.89l1.2-1.4-10.65-9.17-1.19,1.4a4.16,4.16,0,0,1,1.57,2.14,3.79,3.79,0,0,1-1.23,3L239.31,836,232.39,830l7.1-8.24c1-1.17,1.9-1.72,2.84-1.63a2.48,2.48,0,0,1,1,.32,6.79,6.79,0,0,1,1.27.89l1.19-1.4-10.54-9.08-1.21,1.4a5.07,5.07,0,0,1,1.38,2,3.79,3.79,0,0,1-1.27,2.94L217.08,837a3.58,3.58,0,0,1-2.54,1.55,4.48,4.48,0,0,1-2.37-1L211,839,221.52,848l1.21-1.4a7.57,7.57,0,0,1-1.51-2.37,3.78,3.78,0,0,1,1.17-2.75l7.94-9.21,6.92,5.93-7.94,9.23c-.95,1.1-1.8,1.61-2.59,1.57a1.87,1.87,0,0,1-.91-.32,14.16,14.16,0,0,1-1.57-.83l-1.21,1.4,10.65,9.17Z"/><path class="cls-3" d="M271.31,853.72a18.3,18.3,0,0,0,1.38-6.74,10.89,10.89,0,0,0-15-11.16,24,24,0,0,0-11.5,8.94,24.39,24.39,0,0,0-5.48,13.53,11,11,0,0,0,15.25,11.37,25,25,0,0,0,11.37-9,29.39,29.39,0,0,0,4-6.92Zm-18.7,12.14c-2.59,1.61-4.66,1.9-6.21.65s-2-3.24-1.17-6.18a38.59,38.59,0,0,1,6.5-11.37,50.38,50.38,0,0,1,4.09-4.89,36,36,0,0,1,3.9-3.54c3.16-2.31,5.59-2.78,7.29-1.51s2,3.79.61,7.43a28.73,28.73,0,0,1-2.27,4.72,62.52,62.52,0,0,1-3.62,5.32,38.23,38.23,0,0,1-9.11,9.47Z"/><path class="cls-3" d="M282.85,872a7.84,7.84,0,0,0-.61-4.05l-2.67-6.63a11.39,11.39,0,0,1-1.14-4.22,7.47,7.47,0,0,1,1.27-3.16,4.86,4.86,0,0,1,3-2.29,3.79,3.79,0,0,1,3,.47,6.23,6.23,0,0,1,2.39,5.85,19.21,19.21,0,0,1-1.54,6.63l1.29.85,6.71-10.1-1.36-.91a4.49,4.49,0,0,1-1.21.93.49.49,0,0,1-.61,0c0-.13-.26-.3-.51-.65l-.93-1.4a9.82,9.82,0,0,0-2.79-2.94,8.11,8.11,0,0,0-8.62-.62,13.89,13.89,0,0,0-5.06,4.72,16.64,16.64,0,0,0-1.35,2.46,16.32,16.32,0,0,0-.78,2.35,15.34,15.34,0,0,0,1.44,8.81L274,871a13.85,13.85,0,0,1,1.23,3.79,6.49,6.49,0,0,1-1.16,3.9,10.57,10.57,0,0,1-1.52,1.9,7.29,7.29,0,0,1-1.89,1,3.93,3.93,0,0,1-3.79-.53,6.39,6.39,0,0,1-2.56-6.14,23.05,23.05,0,0,1,2.31-8l-1.29-.85-7.69,11.58,1.29.85,1.21-1.1a.77.77,0,0,1,.68,0,11,11,0,0,1,1.59,2.2,10.71,10.71,0,0,0,3.07,3.24,9.08,9.08,0,0,0,8.77,1,13,13,0,0,0,6.1-5.11,14.16,14.16,0,0,0,2.46-6.8Z"/><path class="cls-3" d="M310.91,867.94a12.31,12.31,0,0,0-4.85-4.72l-11.24-6.65-.91,1.53c1.1.89,1.71,1.54,1.78,1.9a6.63,6.63,0,0,1-1.31,3.79l-12.14,20.56a12.94,12.94,0,0,1-.82,1.31l-.81,1a2.38,2.38,0,0,1-1.27.68,2.07,2.07,0,0,1-.49,0l-1.9-.61L276,888.3l11.9,7,.93-1.59a7.46,7.46,0,0,1-2-2.22,7.12,7.12,0,0,1,1.42-3.68l5-8.47c1.08.65,2.08,1.18,3,1.67s1.65.81,2.24,1.1a12.14,12.14,0,0,0,4.23.4,9.61,9.61,0,0,0,4.89-2.2,12.92,12.92,0,0,0,2.52-3.09,9.23,9.23,0,0,0,.8-9.47Zm-11.63,10.67a5.54,5.54,0,0,1-4.74-.89l-.15-.15,7.26-12.28a1.54,1.54,0,0,1,1-.87,1.57,1.57,0,0,1,1.29.25,3.79,3.79,0,0,1,2.08,3.26,13.89,13.89,0,0,1-2.29,5.82,10.83,10.83,0,0,1-4.43,4.85Z"/><path class="cls-3" d="M311,906.16c-1.5-.8-2.25-1.59-2.31-2.35a4.85,4.85,0,0,1,.68-2.58l12.26-23.08c.78-1.44,1.57-2.2,2.46-2.29a1.9,1.9,0,0,1,1,0,13.77,13.77,0,0,1,1.57.78l.87-1.63-12.77-6.78-.87,1.63a7.93,7.93,0,0,1,1.48.95,2.88,2.88,0,0,1,.63.83,3.56,3.56,0,0,1-.51,3.18L303.26,897.9c-.72,1.36-1.46,2.1-2.27,2.24a1.67,1.67,0,0,1-1.1,0q-.83-.34-1.63-.76L297.4,901l12.75,6.78Z"/><path class="cls-3" d="M349.94,885.77l-22.11-10.4L323,885.55l1.44.68a11.07,11.07,0,0,1,6.06-5.68,6.67,6.67,0,0,1,4.32.64l-12,25.54a14.07,14.07,0,0,1-1.29,2.25,2.83,2.83,0,0,1-1.16,1.06c-.51.25-1.57,0-3.09-.68l-.79,1.67,13.26,6.29.78-1.69c-1.57-.74-2.39-1.35-2.5-1.9a2.66,2.66,0,0,1,0-1.63,12.62,12.62,0,0,1,.95-2.48l12-25.52A6,6,0,0,1,344.2,887a7.58,7.58,0,0,1,.66,3.79,11.75,11.75,0,0,1-1.27,4.59l1.5.7Z"/><path class="cls-3" d="M361.84,927.88l-.62.23c-.65-.27-1-.95-1.16-2.12a47.3,47.3,0,0,1,.23-6.12l2.27-30-1.38-.55-19.31,24.52q-1,1.2-1.9,2.42a8.48,8.48,0,0,1-1.06,1.08,3.29,3.29,0,0,1-2.8.72l-.68,1.76,8,3.14.68-1.7a4.45,4.45,0,0,1-2.25-1.48,1.76,1.76,0,0,1,0-1.63,9.09,9.09,0,0,1,1.35-2l2.75-3.68,8,3.18v1.9a15.92,15.92,0,0,1-.19,1.89,15.62,15.62,0,0,1-.66,3.54c-.27.7-.65,1.08-1.1,1.18a7.44,7.44,0,0,1-2.52-.68l-.68,1.72,12.47,4.94.85-2.12Zm-14.42-17.51,7.58-10-1.08,12.6Z"/><path class="cls-3" d="M388.39,925.43a22.74,22.74,0,0,1-5.68,6.27,7.71,7.71,0,0,1-7,.81,4.56,4.56,0,0,1-2.37-1.29,3.13,3.13,0,0,1,.11-2.42l7.9-24.22c.66-2,1.36-3.22,2.16-3.58.45-.29,1.52-.15,3.07.36l.57-1.74-13.7-4.47-.57,1.76a5.15,5.15,0,0,1,2.16,1.38,3.78,3.78,0,0,1,0,3.18l-8.13,24.67a8.09,8.09,0,0,1-.68,1.61,2.34,2.34,0,0,1-1,.87,4.91,4.91,0,0,1-2.67-.15l-.59,1.8,22.32,7.28L390,925.85Z"/><path class="cls-3" d="M428.23,921.53a18.46,18.46,0,0,0-1.44-6.73,10.89,10.89,0,0,0-18.27-4.19,24,24,0,0,0-6.94,12.81A24.48,24.48,0,0,0,402,938a11,11,0,0,0,18.57,4.3,25,25,0,0,0,6.8-12.85,29.89,29.89,0,0,0,.89-7.94ZM416,940.17c-1.72,2.52-3.54,3.53-5.44,3.09s-3.13-2.16-3.54-5.17a38.55,38.55,0,0,1,1.36-13,50,50,0,0,1,1.8-6.14,35.25,35.25,0,0,1,2.14-4.81c1.89-3.37,4-4.81,6.08-4.32s3.35,2.69,3.52,6.56a28.51,28.51,0,0,1-.21,5.23,60.36,60.36,0,0,1-1.18,6.33,38,38,0,0,1-4.57,12.3Z"/><path class="cls-3" d="M453.72,915.11,431,911.18l-.32,1.9c1.33.23,2.14.51,2.43.93a3.79,3.79,0,0,1,.4,3.26l-4.4,25.62c-.3,1.78-.93,2.73-1.9,2.92a6.15,6.15,0,0,1-2.24,0l-.32,1.9,14.65,2.52.32-1.9a6.75,6.75,0,0,1-3.26-1.06,3.67,3.67,0,0,1-.45-3.22l2.1-12.22a4.8,4.8,0,0,1,3.37,2.1,13.52,13.52,0,0,1,.78,7.22l1.38.23,3.18-18.47-1.42-.25a12.47,12.47,0,0,1-3.2,6.24,5,5,0,0,1-3.79.78l2.1-12.24a2.79,2.79,0,0,1,.7-1.7,1.32,1.32,0,0,1,.85-.25,9.29,9.29,0,0,1,1.38.19,7.91,7.91,0,0,1,6,3.37,14.82,14.82,0,0,1,1,6.9l1.38.23Z"/><path class="cls-3" d="M484.92,924.16a13.44,13.44,0,0,0-11.22-6.84l-12.41-1.08-.15,1.78a5.45,5.45,0,0,1,2.33.79,3.56,3.56,0,0,1,.68,3l-2.31,26.53a3.8,3.8,0,0,1-.87,2.48,3.43,3.43,0,0,1-2.75.55l-.15,1.9,12.81,1.12a12.69,12.69,0,0,0,11.61-4.79,17.73,17.73,0,0,0,3.14-5.57,29.38,29.38,0,0,0,1.44-7.33,21.54,21.54,0,0,0-2.16-12.39Zm-8.68,24.92a5.9,5.9,0,0,1-5.69,2.69,1.75,1.75,0,0,1-1.5-.74,4.07,4.07,0,0,1-.25-2.31l2.37-27.06v-.4a1.67,1.67,0,0,1,.45-1.16,1.91,1.91,0,0,1,.83-.44,7.32,7.32,0,0,1,1.19,0c2.82.25,4.7,2.52,5.53,6.74a32.39,32.39,0,0,1,.42,10,27.39,27.39,0,0,1-3.41,12.66Z"/><path class="cls-3" d="M512.61,944.44a26.28,26.28,0,0,1-2.16,4.8,11,11,0,0,1-2.71,3,9.09,9.09,0,0,1-5.68,1.52,4.07,4.07,0,0,1-2.48-.64,3.64,3.64,0,0,1-.55-2.25l.29-12.81a5,5,0,0,1,4.05,1.63,8.31,8.31,0,0,1,1.33,2.77,16.37,16.37,0,0,1,.36,4.19h1.56l.42-18.8h-1.53a12.78,12.78,0,0,1-.59,3.79,8.61,8.61,0,0,1-1.46,2.65,4.68,4.68,0,0,1-3.92,1.4h-.15l.27-12.32a2.75,2.75,0,0,1,.44-1.78,1.37,1.37,0,0,1,.85-.38,10.62,10.62,0,0,1,1.44,0,9.34,9.34,0,0,1,6,1.72,11.51,11.51,0,0,1,2.58,7.39h1.55l.25-11.25-23.53-.53v1.9a4.35,4.35,0,0,1,2.69.7c.53.45.76,1.48.74,3l-.57,26.07c0,1.8-.51,2.82-1.36,3.16a6.25,6.25,0,0,1-2.22.4v1.9l23.82.53,1.9-11.71Z"/><path class="cls-3" d="M544.59,953.32a4.08,4.08,0,0,1-.89,0,1.57,1.57,0,0,1-.89-.7l-8.45-14.93A12.58,12.58,0,0,0,538,935.1a10,10,0,0,0,2-7,9,9,0,0,0-3.22-7.05,12.81,12.81,0,0,0-8.66-2.2l-13.05.55v1.9c1.44,0,2.35.11,2.73.49a6.86,6.86,0,0,1,1,4.05l1,23.86a6.83,6.83,0,0,1-.53,3.9,5.6,5.6,0,0,1-2.77,1v1.9l13.95-.57V954a6.15,6.15,0,0,1-2.82-.87,6.94,6.94,0,0,1-.85-3.79L526.38,939H527l8.91,16.6,8.68-.36v-1.9Zm-13.11-18.17a5.29,5.29,0,0,1-2,1.08,13.26,13.26,0,0,1-3.13.44l-.55-13.4a3.78,3.78,0,0,1,.44-1.72c.19-.26.74-.38,1.67-.42a3.78,3.78,0,0,1,3.56,1.7,11.15,11.15,0,0,1,1.38,5.68,10,10,0,0,1-1.38,6.71Z"/><path class="cls-3" d="M582.29,949.14a6.42,6.42,0,0,1-2.94-.66,7,7,0,0,1-1.14-3.68l-2.79-23.7a6.5,6.5,0,0,1,.42-4.23,1.3,1.3,0,0,1,.89-.55,12.13,12.13,0,0,1,1.67-.3l-.23-1.9-10.44,1.23-4.81,25.71-10.67-23.93-10.55,1.25.23,1.9a4.45,4.45,0,0,1,3,.34,5.24,5.24,0,0,1,1,2.84l3,25.45a5.42,5.42,0,0,1-.26,3.3c-.38.61-1.35,1-2.92,1.19l.21,1.9,9.76-1.16-.21-1.89a8.4,8.4,0,0,1-1.9,0,2.2,2.2,0,0,1-1.54-.66,7.58,7.58,0,0,1-1.19-3.79l-2.65-23.48,13,29.2,1.44-.17,5.85-32.12,3,25.41a4.13,4.13,0,0,1-.44,3.11c-.21.38-1.08.68-2.59,1l.23,1.9L582.48,951Z"/><path class="cls-3" d="M610.17,943.09l-.4.55c-.68.13-1.36-.25-2.1-1.17a46.35,46.35,0,0,1-3.11-5.29l-14.25-26.53-1.48.28-3,31.07q-.14,1.56-.36,3.11a10.82,10.82,0,0,1-.32,1.48,3.32,3.32,0,0,1-1.9,2.1l.36,1.9,8.41-1.65-.36-1.9a4.45,4.45,0,0,1-2.69,0,1.76,1.76,0,0,1-.93-1.35,9.43,9.43,0,0,1,0-2.45l.32-4.59,8.47-1.65c.53.87.83,1.4.93,1.59l.83,1.69a15.74,15.74,0,0,1,1.36,3.34,1.65,1.65,0,0,1-.3,1.59,7.37,7.37,0,0,1-2.48.79l.34,1.9,13.26-2.56-.44-2.25Zm-21.56-7,1-12.54,5.89,11.2Z"/><path class="cls-3" d="M626.86,902.85,603.21,909,606,919.92l1.55-.4a11.06,11.06,0,0,1,1-8.3,6.65,6.65,0,0,1,3.79-2.25l7.12,27.3a14.19,14.19,0,0,1,.45,2.56,2.7,2.7,0,0,1-.21,1.55c-.21.53-1.18,1-2.8,1.46l.47,1.78,14.27-3.79-.47-1.78c-1.69.44-2.71.49-3.09.19a2.61,2.61,0,0,1-1-1.29,12.62,12.62,0,0,1-.85-2.5l-7.28-27.25a6,6,0,0,1,4.32.15,7.56,7.56,0,0,1,2.9,2.44,12,12,0,0,1,1.9,4.34l1.59-.42Z"/><path class="cls-3" d="M654,905.22a18.56,18.56,0,0,0-4.73-5,10.92,10.92,0,0,0-17.77,5.93,24.13,24.13,0,0,0,.72,14.55,24.63,24.63,0,0,0,8,12.24,11,11,0,0,0,18.09-6,25,25,0,0,0-.89-14.51A29.73,29.73,0,0,0,654,905.2Zm-.78,22.3c-.15,3-1.19,4.85-3,5.46s-3.79-.23-5.68-2.58a38.15,38.15,0,0,1-5.68-11.84,49.49,49.49,0,0,1-1.67-6.18,37.3,37.3,0,0,1-.66-5.23c0-3.9.93-6.18,3-6.84s4.26.53,6.42,3.79a28.49,28.49,0,0,1,2.54,4.57,64.19,64.19,0,0,1,2.29,6,38.31,38.31,0,0,1,2.48,12.88Z"/><path class="cls-3" d="M660.09,914.1l9.54-3.65,2.28,6-9.54,3.65Z"/><path class="cls-3" d="M687.77,879.58l-8.32,3.64.74,1.69a5.48,5.48,0,0,1,2.73-.7c.53,0,.93.51,1.29,1.29a4.08,4.08,0,0,0,.26.76,5.9,5.9,0,0,1,.19.79l.28,2.16,2.45,17.49-11.09-12.89-1.23-1.48a9.54,9.54,0,0,1-1.69-2.25c-.38-.87-.45-1.44-.25-1.8a11.18,11.18,0,0,1,2.6-1.4l-.74-1.69-12.75,5.59.74,1.69a4.28,4.28,0,0,1,2.31,0,6.62,6.62,0,0,1,2.22,1.9L690,920.07l1.36-.61-4.43-33a15.5,15.5,0,0,1-.11-3.28,3.79,3.79,0,0,1,1.72-2Z"/><path class="cls-3" d="M719.21,891.72a26,26,0,0,1,.4,5.23,11.11,11.11,0,0,1-.93,4,9.1,9.1,0,0,1-4.25,4,4.1,4.1,0,0,1-2.48.61,3.47,3.47,0,0,1-1.55-1.72l-5.89-11.37a5,5,0,0,1,4.34-.51,8.36,8.36,0,0,1,2.5,1.8,16,16,0,0,1,2.31,3.52l1.38-.72-8.62-16.69-1.36.7a13.05,13.05,0,0,1,1.35,3.69,8.59,8.59,0,0,1,0,3,4.68,4.68,0,0,1-2.77,3.11h-.15l-5.68-11a2.71,2.71,0,0,1-.47-1.78,1.34,1.34,0,0,1,.57-.74,10.64,10.64,0,0,1,1.27-.7,9.2,9.2,0,0,1,6.14-1.38,11.54,11.54,0,0,1,5.8,5.27l1.38-.72-5.17-10-20.84,10.78.85,1.65a4.34,4.34,0,0,1,2.69-.66c.68.15,1.36.93,2.06,2.29l12,23.17c.81,1.59.91,2.73.3,3.43a6.25,6.25,0,0,1-1.74,1.4l.85,1.65,21.16-10.93-3.88-11.23Z"/><path class="cls-3" d="M732.91,854.3,725.08,859l.95,1.59a3.43,3.43,0,0,1,3.39-.45,8.36,8.36,0,0,1,2.46,2.94l7.84,13.26L716.67,864l-7.58,4.51.93,1.59a1.89,1.89,0,0,1,1.78,0l1.4.57c.57.29,1.13.53,1.57.8l13.15,21.94a4.79,4.79,0,0,1,1,3.22,5,5,0,0,1-1.89,2.06l1,1.63,8.2-4.93-.95-1.59a5.28,5.28,0,0,1-3.31.47,7.17,7.17,0,0,1-2.58-2.86l-10.55-17.81,29.63,15.61,1.29-.78-16.52-27.57a5.92,5.92,0,0,1-1.1-2.79,4,4,0,0,1,1.69-2.35Z"/><path class="cls-3" d="M765.51,862.47a25.52,25.52,0,0,1,1.06,5.14,11.2,11.2,0,0,1-.44,4.05,9.13,9.13,0,0,1-3.79,4.55,4.13,4.13,0,0,1-2.41.93,3.55,3.55,0,0,1-1.76-1.52l-7.26-10.55a5,5,0,0,1,4.25-1,8.44,8.44,0,0,1,2.71,1.46,16.58,16.58,0,0,1,2.75,3.2l1.27-.87-10.67-15.48-1.27.87a12.84,12.84,0,0,1,1.8,3.49,8.49,8.49,0,0,1,.38,3,4.68,4.68,0,0,1-2.37,3.43h-.15l-7-10.14a2.8,2.8,0,0,1-.7-1.7,1.36,1.36,0,0,1,.47-.82,11.87,11.87,0,0,1,1.16-.87,9.27,9.27,0,0,1,5.91-2.14,11.5,11.5,0,0,1,6.42,4.47l1.27-.87-6.39-9.28L731.39,855l1,1.52a4.27,4.27,0,0,1,2.59-1c.7,0,1.48.74,2.35,2l14.87,21.71c1,1.48,1.23,2.59.74,3.35,0,.21-.57.76-1.55,1.61l1.06,1.51,19.63-13.53-5.27-10.65Z"/><path class="cls-3" d="M796.63,850.76a5.46,5.46,0,0,1-.78.47,1.63,1.63,0,0,1-1.12,0l-15.59-7.14a12.4,12.4,0,0,0,1.48-4.26,10,10,0,0,0-2.45-6.9,9.06,9.06,0,0,0-6.76-3.79,12.84,12.84,0,0,0-8.32,3.32l-10.25,8.09L754,842c1.13-.89,1.89-1.29,2.48-1.19.83.17,1.89,1.08,3.16,2.71l14.78,18.76a6.75,6.75,0,0,1,1.9,3.49c0,.45-.57,1.27-1.63,2.43l1.16,1.46,11-8.64-1.16-1.44a6.11,6.11,0,0,1-2.8.95,7,7,0,0,1-2.9-2.54l-6.39-8.11.51-.4,17,8.22,6.82-5.36-1.13-1.44Zm-21.3-7a5.18,5.18,0,0,1-1,2,15.14,15.14,0,0,1-2.27,2.18l-8.3-10.54a3.78,3.78,0,0,1-.66-1.65c0-.32.36-.74,1.12-1.33a3.79,3.79,0,0,1,3.79-.72,10.92,10.92,0,0,1,4.42,3.79,9.83,9.83,0,0,1,2.8,6.22Z"/><path class="cls-3" d="M808.51,826.85a25.4,25.4,0,0,1,1.71,5,11,11,0,0,1,.09,4.05,9.07,9.07,0,0,1-3.09,5,4.05,4.05,0,0,1-2.25,1.23,3.52,3.52,0,0,1-1.9-1.27l-8.56-9.47a5,5,0,0,1,4.07-1.59,8.38,8.38,0,0,1,2.86,1.1,16.11,16.11,0,0,1,3.14,2.82l1.13-1-12.56-14-1.16,1a12.6,12.6,0,0,1,2.24,3.22,9,9,0,0,1,.76,2.94,4.74,4.74,0,0,1-1.89,3.79H793l-8.24-9.25c-.64-.7-.93-1.25-.89-1.61a1.34,1.34,0,0,1,.36-.85,11.4,11.4,0,0,1,1-1,9.25,9.25,0,0,1,5.59-2.88,11.51,11.51,0,0,1,6.94,3.62l1.14-1-7.58-8.37L773.8,824l1.23,1.36a4.31,4.31,0,0,1,2.45-1.33c.7,0,1.57.55,2.59,1.69l17.41,19.4c1.19,1.33,1.57,2.41,1.18,3.24a6.42,6.42,0,0,1-1.33,1.8l1.23,1.36,17.72-15.92-6.59-9.87Z"/><path class="cls-3" d="M818.63,796a18.49,18.49,0,0,0-6.52-2.27A10.9,10.9,0,0,0,799,807.18a24,24,0,0,0,7.35,12.58A24.33,24.33,0,0,0,819.06,827a11,11,0,0,0,13.26-13.62,25,25,0,0,0-7.45-12.49,29.81,29.81,0,0,0-6.31-4.87Zm9.47,20.14c1.27,2.77,1.17,4.85-.19,6.23s-3.47,1.55-6.27.34a38.49,38.49,0,0,1-10.44-7.94,49.55,49.55,0,0,1-4.3-4.72,35.25,35.25,0,0,1-3-4.34c-1.9-3.45-2-5.91-.53-7.43s4.05-1.48,7.45.4a28.43,28.43,0,0,1,4.38,2.88q2.22,1.78,4.79,4.3a38.12,38.12,0,0,1,8.13,10.29Z"/><path class="cls-3" d="M845.23,786.05a22.82,22.82,0,0,1,3.56,7.69,7.76,7.76,0,0,1-1.9,6.76,4.62,4.62,0,0,1-2.1,1.67,3.16,3.16,0,0,1-2.2-1l-19.27-16.67c-1.61-1.4-2.44-2.52-2.46-3.39a5.26,5.26,0,0,1,1.53-2.69l-1.4-1.21-9.47,10.89,1.4,1.21a5.19,5.19,0,0,1,2.12-1.46,3.79,3.79,0,0,1,2.9,1.27l19.67,17.05a8.73,8.73,0,0,1,1.23,1.25,2.28,2.28,0,0,1,.42,1.27,5.46,5.46,0,0,1-1.17,2.41l1.44,1.23,15.39-17.73-8.6-9.7Z"/><path class="cls-3" d="M851.56,755.74a18.56,18.56,0,0,0-6.74-1.44,10.91,10.91,0,0,0-11.37,14.95,24,24,0,0,0,8.83,11.6,24.36,24.36,0,0,0,13.47,5.68,11,11,0,0,0,11.54-15.16,25,25,0,0,0-8.92-11.46,30.39,30.39,0,0,0-6.88-4.05Zm12,18.81c1.61,2.6,1.76,4.68.59,6.22s-3.26,1.9-6.18,1.12a38.46,38.46,0,0,1-11.37-6.59,50.87,50.87,0,0,1-4.85-4.15,36,36,0,0,1-3.52-3.94c-2.27-3.18-2.73-5.68-1.44-7.31s3.79-1.9,7.43-.53a27.71,27.71,0,0,1,4.68,2.33,58.43,58.43,0,0,1,5.29,3.68,38.22,38.22,0,0,1,9.34,9.21Z"/><path class="cls-3" d="M877.15,736l-7.85,11.84,1.63,1.08a6.1,6.1,0,0,1,2.31-2.41c.61-.19,1.57.15,2.86,1l4.7,3.11a4.25,4.25,0,0,1,1.9,2.12,4.12,4.12,0,0,1-.93,3.2,6.16,6.16,0,0,1-6.78,2.2,31.47,31.47,0,0,1-11.65-5.34,56.41,56.41,0,0,1-5.69-4.21,23.64,23.64,0,0,1-3.66-3.79c-2.24-2.86-2.61-5.32-1.17-7.58a7.16,7.16,0,0,1,6.14-2.69,22.72,22.72,0,0,1,8.09,1.23l.8-1.19-11-7.29-.85,1.29a10.21,10.21,0,0,1,1.13,1.53,1.17,1.17,0,0,1,0,1.14l-3.79,2.25a9.61,9.61,0,0,0-2.75,2.71,12.36,12.36,0,0,0-.95,12,24,24,0,0,0,9.47,10.89,23.55,23.55,0,0,0,13,4.38,12.77,12.77,0,0,0,11.2-6,20.06,20.06,0,0,0,2.48-5.68c.25-1.21.47-2.25.61-3.18a7.41,7.41,0,0,0,0-2.27l-5.68-3.79a7.15,7.15,0,0,1-2.88-2.8,4.75,4.75,0,0,1,.81-2.69Z"/><path class="cls-3" d="M873.23,700.47l-4.57,8.05,1.61.91a5.6,5.6,0,0,1,2-2.06,1.78,1.78,0,0,1,1.44.19,8.39,8.39,0,0,1,1.63,1.44l1.9,2.41,6.1,8.22-12.64-1.9-1.18-.15a4.83,4.83,0,0,1-1.89-.47c-.57-.32-.89-.68-.91-1a8.42,8.42,0,0,1,1.14-2.5l-1.61-.91-6.8,12,1.61.91a2.71,2.71,0,0,1,2.18-1.4,3.3,3.3,0,0,1,.95,0c.27,0,.59.1.91.11l19.18,2.56,6.76,3.79c1.9,1.06,2.86,1.9,3.11,2.61a5.5,5.5,0,0,1-.74,2.92l1.59.91,7.07-12.45-1.61-.91c-1.08,1.4-1.78,2.14-2.22,2.18a7.18,7.18,0,0,1-3.79-1.33l-8.64-4.89-10.74-14.91a3.45,3.45,0,0,1-.8-1.9,6.84,6.84,0,0,1,.4-1.5Z"/><path class="cls-3" d="M104.82,575l17.72-2.44a4.72,4.72,0,0,0,3.26-1.48,4.55,4.55,0,0,0,.53-3.39,7.79,7.79,0,0,0-4.7-6.78,14,14,0,0,0-7.14-.53,11.36,11.36,0,0,0-9.06,5,11.89,11.89,0,0,0-.91,7.58l.3,2.12Zm-17.94,2.48,15.8-2.2a12.92,12.92,0,0,0-3.58-8.73A11.35,11.35,0,0,0,91,565.6,11.59,11.59,0,0,0,84.83,568a6.44,6.44,0,0,0-1.89,6.1,4,4,0,0,0,1.52,3.13,5.13,5.13,0,0,0,2.43.25Zm44.73,11.71-1.89.25a12.54,12.54,0,0,0-1.61-4.45,4.3,4.3,0,0,0-4.19-1.08L89.68,588.6A4.46,4.46,0,0,0,85.76,591a12.43,12.43,0,0,0-.3,4.51l-1.71.23-3-22a32.89,32.89,0,0,1,0-10.91,10.1,10.1,0,0,1,8.73-9.08,9,9,0,0,1,8.45,3.32,31.82,31.82,0,0,1,3.68,6.27,21.56,21.56,0,0,1,2.52-9.47,11.24,11.24,0,0,1,17.75-2.67,24.46,24.46,0,0,1,6.56,15Z"/><path class="cls-3" d="M78.54,540.31H76.82L76.15,499l14.31-.23v1.89a13.26,13.26,0,0,0-9.64,5.31,21.6,21.6,0,0,0-1.89,11.18,10.45,10.45,0,0,0,.64,4.24c.4.68,1.31,1,2.73,1l16.54-.26.13-.57a11.2,11.2,0,0,0-2.27-7.47,12.82,12.82,0,0,0-8.64-3.35v-1.9l24.2-.38v1.9a13.55,13.55,0,0,0-8.89,3.58,12.23,12.23,0,0,0-2.08,8.19l17.3-.29a3.52,3.52,0,0,0,3.13-1.33,9.19,9.19,0,0,0,.78-4.74,21.16,21.16,0,0,0-2.37-10.33,20.14,20.14,0,0,0-10.52-8.35v-2l14.91,2.62.68,41.91h-1.89a19.74,19.74,0,0,0-.63-3.79q-.83-2.48-4.47-2.43l-34.56.57a4.43,4.43,0,0,0-4.19,1.9,12,12,0,0,0-.91,4.47Z"/><path class="cls-3" d="M131,521.47a5,5,0,0,1-3.07-1.42,4.06,4.06,0,0,1-1.38-3.41,4.47,4.47,0,0,1,1.53-3.14,4.62,4.62,0,0,1,3.43-1.16,4.43,4.43,0,0,1,3.18,1.52,4.36,4.36,0,0,1,1.14,3.32,4,4,0,0,1-1.72,3.22,4.79,4.79,0,0,1-3.11,1.08ZM71.51,506.56l-7.43,7.58,6.56,8.38-.23,4L58.32,517l.38-6.58,13.05-8.17Z"/><path class="cls-3" d="M124.6,488.92l-1.89-.23a10.29,10.29,0,0,0-.64-4.83,5.4,5.4,0,0,0-4.26-2.12l-33.48-4.05a34,34,0,0,0-4.11,3A4.42,4.42,0,0,0,78.46,483l-1.71-.21,1.89-14.91,33.2-21-21.33-2.75a8.78,8.78,0,0,0-5.27.51A6.63,6.63,0,0,0,82.59,450l-1.71-.21,1.89-15.33,1.71.21a7.75,7.75,0,0,0,1.06,4.77,6.4,6.4,0,0,0,3.92,1.44L131.31,446l-.25,1.89-42.27,27,28.33,3.62a7.28,7.28,0,0,0,5.1-.78,9.29,9.29,0,0,0,2.46-5.21l1.89.23Z"/><path class="cls-3" d="M142.83,385.72l1.78.47-6.27,23.5-1.8-.47a14.9,14.9,0,0,0,.21-4.68,4.19,4.19,0,0,0-3.39-2.82l-15.9-4.26L113,414.17l15.9,4.24a4.19,4.19,0,0,0,4.26-.72,14.67,14.67,0,0,0,2.24-4.21l1.89.49-6.21,23.21-1.78-.47a11.15,11.15,0,0,0,.09-4.47,4.32,4.32,0,0,0-3.37-2.61l-33.39-8.92a4.45,4.45,0,0,0-4.55.7,11,11,0,0,0-1.89,3.79l-1.65-.45,6.2-23.21,1.67.44a12.62,12.62,0,0,0-.3,4.45,4.44,4.44,0,0,0,3.6,3.11l14.19,3.79,4.47-16.73-14.19-3.79a4.32,4.32,0,0,0-4.57.85,12.37,12.37,0,0,0-2,4.05l-1.65-.45,6.27-23.49,1.65.45a12.37,12.37,0,0,0-.27,4.36,4.49,4.49,0,0,0,3.62,3l33.4,8.92a4.17,4.17,0,0,0,4.21-.57,13.89,13.89,0,0,0,2-4.26Z"/><path class="cls-3" d="M129.68,301.66l1.53.74a7.67,7.67,0,0,0-.32,4.45,13.75,13.75,0,0,0,2.79,3.79l30.87,32.89-.87,1.9-46.55-2a9.34,9.34,0,0,0-4.4.51,10.25,10.25,0,0,0-2.71,2.75l-1.53-.74,10.4-21.67,1.55.76a15.92,15.92,0,0,0-1.67,4.62c0,.89.53,1.63,1.72,2.2a11.55,11.55,0,0,0,3.92.61l2.56.11,24.46,1.25-17.34-18.27q-1-1.17-2.1-2.25a6.88,6.88,0,0,0-1.74-1.19,2.58,2.58,0,0,0-3,.17,12,12,0,0,0-2.65,4l-1.55-.74Z"/><path class="cls-3" d="M186.58,298.1l1.59,1L175.08,320.4l-1.59-1a10.33,10.33,0,0,0,1.89-4.49,4.51,4.51,0,0,0-2.58-3.79l-29.46-18.07a4.28,4.28,0,0,0-4.66-.44,13.43,13.43,0,0,0-3.24,3.47l-1.46-.91,13.09-21.33,1.46.89a10.49,10.49,0,0,0-1.78,4.28,4.53,4.53,0,0,0,2.65,4.15l29.44,18.07a5.09,5.09,0,0,0,3.62.95C183.66,301.89,185.08,300.45,186.58,298.1Z"/><path class="cls-3" d="M152.26,268.11l-1.36-1,25-32.87,11.37,8.68-1.14,1.48a13.26,13.26,0,0,0-10.86-1.8,21.63,21.63,0,0,0-8.47,7.58,10.3,10.3,0,0,0-2.12,3.79c-.11.78.4,1.61,1.52,2.46l13.15,10,.45-.36a11.09,11.09,0,0,0,2.84-7.28,12.81,12.81,0,0,0-4.7-8l1.12-1.48L198.34,264l-1.12,1.48a13.58,13.58,0,0,0-9.19-2.69,12.11,12.11,0,0,0-6.71,5.14l13.76,10.5a3.56,3.56,0,0,0,3.3.87,9.28,9.28,0,0,0,3.54-3.24,21.36,21.36,0,0,0,4.53-9.59,20.18,20.18,0,0,0-3.09-13.06l1.21-1.59,10.1,11.37-25.39,33.33-1.48-1.12A20.45,20.45,0,0,0,189.7,292c.61-1.65,0-3.2-2-4.68l-27.55-21.09a4.43,4.43,0,0,0-4.49-1.08,12.34,12.34,0,0,0-3.41,3Z"/><path class="cls-3" d="M167.42,237.53,156.87,239v10.65l-2.63,3-3.79-14.84,4.34-5,15.31,1.59Z"/><path class="cls-3" d="M204.18,285.82a5,5,0,0,1-1.54-3,4,4,0,0,1,1-3.54,4.41,4.41,0,0,1,3.14-1.53,4.58,4.58,0,0,1,3.43,1.19,4.53,4.53,0,0,1,.5,6.38l-.07.08a4.13,4.13,0,0,1-3.34,1.5,4.9,4.9,0,0,1-3.13-1.08Z"/><path class="cls-3" d="M220.34,255.94,219,254.64a10.68,10.68,0,0,0,2.48-4.21,5.4,5.4,0,0,0-2.07-4.3l-24-23.89a33.45,33.45,0,0,0-5.06-.19,4.25,4.25,0,0,0-2.82.81l-1.23-1.21L197,211l39.11,3.79-15.16-15.31a8.84,8.84,0,0,0-4.45-2.82,6.62,6.62,0,0,0-5.36,2.54L209.9,198l10.89-11,1.21,1.21a7.83,7.83,0,0,0-2.1,4.41,6.5,6.5,0,0,0,2.22,3.56L252,226l-1.42,1.42-49.93-4.74,20.12,20.27a7.34,7.34,0,0,0,4.64,2.67,9.26,9.26,0,0,0,5.15-2.6l1.31,1.31Z"/><path class="cls-3" d="M260.78,163.08l20.37,29.48a5.13,5.13,0,0,0,2.48,2.2,4.21,4.21,0,0,0,3.18-1.08,12.15,12.15,0,0,0,5.87-9.36,28,28,0,0,0-6.37-16.52,34.5,34.5,0,0,0-9.47-9.63,11.88,11.88,0,0,0-14.27-.4,6.26,6.26,0,0,0-2.54,2.8,2.16,2.16,0,0,0,.36,2l.32.47Zm9.72,45-1.06-1.52a7,7,0,0,0,3.13-3.64,4.44,4.44,0,0,0-.85-3.66l-20-28.89a4.17,4.17,0,0,0-3.79-2.2,11.63,11.63,0,0,0-3.79,1.61l-1-1.4,18-12.45a26.77,26.77,0,0,1,21.37-5.55,22.49,22.49,0,0,1,13.72,9.78,24.78,24.78,0,0,1,4.85,17.73,25.33,25.33,0,0,1-11.92,17.34Z"/><path class="cls-3" d="M318.92,156.58l12.39-6.25L317,137.94l1.9,18.64ZM357.67,154l.78,1.52L337.76,166l-.78-1.53a12.46,12.46,0,0,0,3.79-2.52,2.18,2.18,0,0,0,0-2.5,16.37,16.37,0,0,0-3.22-3.66q-2-1.78-4.09-3.51l-14.25,7.24c.26,2.56.53,4.72.76,6.5a12.94,12.94,0,0,0,.66,3.32,2.5,2.5,0,0,0,2.16,1.44,9.48,9.48,0,0,0,4.43-1.36l.78,1.53-12.9,6.5-.83-1.67a6.39,6.39,0,0,0,2.65-4,30.65,30.65,0,0,0-.13-6.59L313.28,123l1.78-.89,31.15,26.53a49.92,49.92,0,0,0,6.86,5.19,4.51,4.51,0,0,0,4.41.34Z"/><path class="cls-3" d="M417,119l1.9,16.45-39.62,11.84-.53-1.78a12.52,12.52,0,0,0,4.11-2.27,4.43,4.43,0,0,0,.36-4.28l-9.91-33.12c-.61-2-1.59-3.18-3-3.51a11.37,11.37,0,0,0-4.38.34l-.49-1.65,23.82-7.11.49,1.65A10.46,10.46,0,0,0,384.82,98a6.92,6.92,0,0,0,0,5.91l9.65,32.21c.47,1.59,1.19,2.52,2.18,2.73a11.09,11.09,0,0,0,5-.72A17.4,17.4,0,0,0,412,130.95,27.64,27.64,0,0,0,415,119.58Z"/><path class="cls-3" d="M448.09,82.16l-.17-1.72,41.17-3.79,1.31,14.25-1.9.17a13.37,13.37,0,0,0-6-9.21,21.66,21.66,0,0,0-11.37-1.12,10.25,10.25,0,0,0-4.21.95c-.64.44-.89,1.38-.78,2.8L467.64,101h.57a11.12,11.12,0,0,0,7.29-2.82,12.92,12.92,0,0,0,2.71-8.87l1.89-.17,2.22,24.08-1.9.17a13.58,13.58,0,0,0-4.24-8.58,12.19,12.19,0,0,0-8.32-1.46l1.59,17.24a3.49,3.49,0,0,0,1.57,3,9,9,0,0,0,4.78.42,21.23,21.23,0,0,0,10.12-3.15,20.1,20.1,0,0,0,7.58-11.1l2-.19L494,124.7l-41.68,3.79-.17-1.89a20.79,20.79,0,0,0,3.79-.91q2.43-1,2.09-4.64l-3.16-34.43a4.47,4.47,0,0,0-2.24-4,12.5,12.5,0,0,0-4.53-.44Z"/><path class="cls-3" d="M480.64,72.51l-8.19-6.73-7.83,7.14-4,.11L469,60.29l6.57-.19,9.21,12.28Z"/><path class="cls-3" d="M449.36,127.59l.34,1.89-24.63,4.79-.36-1.89a10.36,10.36,0,0,0,4.55-1.69,4.45,4.45,0,0,0,1.1-4.49L423.74,92.3a4.24,4.24,0,0,0-2.84-3.79,13.51,13.51,0,0,0-4.74,0l-.34-1.69L440.45,82l.32,1.69a10.58,10.58,0,0,0-4.36,1.57A4.55,4.55,0,0,0,435.17,90L441.78,124a5.1,5.1,0,0,0,1.72,3.32,8,8,0,0,0,5.85.32Z"/><path class="cls-3" d="M484.24,61h-2.77a17.31,17.31,0,0,1,1.65-5A6.69,6.69,0,0,1,489,52.53a9.59,9.59,0,0,1,2.84.38l1.9.68,2.65,1.12a12,12,0,0,0,1.61.61,3.58,3.58,0,0,0,1,.09,2.94,2.94,0,0,0,2.41-1.25,8.85,8.85,0,0,0,.95-2h2.88a18.9,18.9,0,0,1-1.9,5,6.88,6.88,0,0,1-5.89,3.52,8.91,8.91,0,0,1-4-.81l-1.9-.76q-1.45-.63-3-1.14a3.56,3.56,0,0,0-1.29-.19,2.91,2.91,0,0,0-2.24,1.06,3.79,3.79,0,0,0-.93,2.18Z"/><path class="cls-3" d="M553.93,77.71v1.72a7.83,7.83,0,0,0-4.47,1.42,6.55,6.55,0,0,0-1.36,4.49l-.91,22.74a29.9,29.9,0,0,1-1.14,7.24,15,15,0,0,1-3.41,6.44,15.57,15.57,0,0,1-7,3.79,23.57,23.57,0,0,1-7.43.93,29.79,29.79,0,0,1-6.61-1,17.37,17.37,0,0,1-7.58-4.17,13.08,13.08,0,0,1-3.45-4.7,21.29,21.29,0,0,1-1-8.49l.93-23.84a7.22,7.22,0,0,0-1.21-5.4,8.6,8.6,0,0,0-4.38-1.38V75.79l24.16.95v1.71a9.8,9.8,0,0,0-5.27.72c-1.12.78-1.74,2.61-1.9,5.57L521,108.57a17.81,17.81,0,0,0,2.1,10.76,9.19,9.19,0,0,0,7.58,3.64A11.16,11.16,0,0,0,542,117.29a22.14,22.14,0,0,0,2-9.47l.85-21.69a8.59,8.59,0,0,0-.95-5.27,7.12,7.12,0,0,0-5.68-2.16V77Z"/><path class="cls-3" d="M607.21,134.34l-.4,1.89-25-5.4.4-1.89a9.68,9.68,0,0,0,5.57.19c1.16-.57,2-2.29,2.65-5.13l7.94-36.72a16.39,16.39,0,0,0-8.4,0,12.9,12.9,0,0,0-7.71,8.87l-1.9-.42,3.16-13.95,41.95,9.06-2.9,14-1.9-.44a13,13,0,0,0-3.28-11.24,16.13,16.13,0,0,0-7.58-3.39l-7.94,36.72a7.28,7.28,0,0,0,.28,5.68,9.76,9.76,0,0,0,5,2.16Z"/><path class="cls-3" d="M649.24,103.72,643,121.8l.65.36a12.54,12.54,0,0,0,8.94.61,11.62,11.62,0,0,0,5.17-7.33,13.6,13.6,0,0,0,.89-8.6,7.9,7.9,0,0,0-5.32-4.41,4.09,4.09,0,0,0-2.59-.25A2.67,2.67,0,0,0,649.24,103.72Zm-30.77,35.17.61-1.76c1.72.3,2.79.47,3.24.51a1.89,1.89,0,0,0,1-.11A3.67,3.67,0,0,0,625.4,136a12.67,12.67,0,0,0,1.52-3.18L637.22,103a7,7,0,0,0,.34-5.53,9.12,9.12,0,0,0-3.79-2.63l.57-1.63,21.77,7.58a28.66,28.66,0,0,1,10.23,5.68,11.37,11.37,0,0,1,3.18,12.88,12.17,12.17,0,0,1-2.65,4.43,12.3,12.3,0,0,1-6.92,3.58,18.09,18.09,0,0,1-7,0,94.43,94.43,0,0,1-10.61-3.16L638,136.78a7.45,7.45,0,0,0-.51,5.44,12,12,0,0,0,4.3,2.84l-.59,1.76Z"/><path class="cls-3" d="M664.7,150.39a5.89,5.89,0,0,1,3.3-3.15,5.87,5.87,0,0,1,7.81,3.33,5.88,5.88,0,0,1-.11,4.62,6.14,6.14,0,0,1-3.34,3.33,5.87,5.87,0,0,1-7.84-3.37A6,6,0,0,1,664.7,150.39Z"/><path class="cls-3" d="M740.18,195.62l-1,1.57L718.58,184.3l1-1.57A15,15,0,0,0,724,184.3a4.23,4.23,0,0,0,3.79-2.41l8.72-14-14.7-9.17-8.72,14a4.26,4.26,0,0,0-.57,4.28,14.57,14.57,0,0,0,3.39,3.39l-1,1.57L694.5,169.24l1-1.57a11,11,0,0,0,4.26,1.4,4.32,4.32,0,0,0,3.47-2.46l18.3-29.31a4.42,4.42,0,0,0,.65-4.57,10.86,10.86,0,0,0-3-3l.91-1.44L740.43,141l-.91,1.46a12.92,12.92,0,0,0-4.15-1.57,4.42,4.42,0,0,0-4,2.52l-7.77,12.45,14.68,9.17L746,152.61a4.32,4.32,0,0,0,.53-4.64,12.61,12.61,0,0,0-3.28-3.13l.93-1.46,20.62,12.88-.91,1.44a12.3,12.3,0,0,0-4.09-1.53,4.53,4.53,0,0,0-4,2.58l-18.3,29.31a4.18,4.18,0,0,0-.68,4.21,13.65,13.65,0,0,0,3.3,3.35Z"/><path class="cls-3" d="M790.19,178.45a10.06,10.06,0,0,0-12-.15,41.72,41.72,0,0,0-11.75,10.27,38.26,38.26,0,0,0-8.77,15.16,9.47,9.47,0,0,0,3,10A9.32,9.32,0,0,0,771,214.85a38.8,38.8,0,0,0,13.36-11.37,43.4,43.4,0,0,0,8.11-13.26,9.91,9.91,0,0,0-2.27-11.79Zm1.56-1.89A21.83,21.83,0,0,1,800,192.38,25.57,25.57,0,0,1,793.33,211a26,26,0,0,1-16.77,9.87,23.36,23.36,0,0,1-25.68-20.78c0-.25,0-.49-.07-.74a26.05,26.05,0,0,1,6.73-18.25,25.72,25.72,0,0,1,17.18-9.85,21.85,21.85,0,0,1,17,5.32Z"/><path class="cls-3" d="M816.16,176.27l-2.9-2.77-3-11.58a12.45,12.45,0,0,1-.29-2.8,3.09,3.09,0,0,1,.89-1.89,2.82,2.82,0,0,1,2.37-.91,3.9,3.9,0,0,1,3.45,3,8.34,8.34,0,0,1,.25,2.12l-.78,14.89Zm-13.92,4.21-1-10.55-10.59-.53-2.92-2.73,14.95-3,4.76,4.55-2.24,15.16Z"/><path class="cls-3" d="M831.66,273.62v2.75a36.53,36.53,0,0,1-11.22-1.76,22,22,0,0,1-9.72-6.9,24.2,24.2,0,0,1,1.14-34.2q.88-.82,1.84-1.56a25.37,25.37,0,0,1,18.64-6.29A24.31,24.31,0,0,1,849.66,235a23.06,23.06,0,0,1,3.43,5.8c.83,2.33,1.72,4.68,2.63,7a2.62,2.62,0,0,0,2.14,1,10.23,10.23,0,0,0,2.48-.59l1.29,1.53L848.7,260.51l-1.19-1.42A27.1,27.1,0,0,0,851,248.2a14.52,14.52,0,0,0-2.88-11.2A11,11,0,0,0,836,233.21a38.06,38.06,0,0,0-14.1,8.19,52.05,52.05,0,0,0-5.69,5.3,23.6,23.6,0,0,0-4.45,7.16,12.44,12.44,0,0,0-.55,5.84,13,13,0,0,0,2.77,6.44,18.63,18.63,0,0,0,6.73,5.19,31.21,31.21,0,0,0,10.91,2.29Z"/><path class="cls-3" d="M857.17,330.14l-1.57,1L842.8,310.46l1.59-1a15.34,15.34,0,0,0,3.24,3.37,4.25,4.25,0,0,0,4.39-.53l14-8.64L856.92,289l-14,8.64a4.21,4.21,0,0,0-2.41,3.6,14.67,14.67,0,0,0,1.52,4.53l-1.57,1-12.64-20.44,1.57-1a11.19,11.19,0,0,0,3.2,3.14,4.37,4.37,0,0,0,4.21-.66l29.41-18.17a4.45,4.45,0,0,0,2.62-3.79,10.73,10.73,0,0,0-1.4-4l1.46-.91,12.64,20.44-1.46.89a13.19,13.19,0,0,0-3-3.26,4.45,4.45,0,0,0-4.74.49l-12.51,7.71,9.1,14.72,12.48-7.71a4.28,4.28,0,0,0,2.52-3.92,12.14,12.14,0,0,0-1.54-4.25l1.46-.91,12.79,20.69-1.46.91a12.85,12.85,0,0,0-3-3.2,4.53,4.53,0,0,0-4.72.55l-29.33,18.19a4.21,4.21,0,0,0-2.48,3.47,14,14,0,0,0,1.51,4.45Z"/><path class="cls-3" d="M918.76,327.77l-10.06-6.44L907,317.71l14.49,4a5.71,5.71,0,0,1,2.31,1,4.49,4.49,0,0,1,1.1,1.46,3.54,3.54,0,0,1,.34,2.69,3.09,3.09,0,0,1-1.7,1.76,3.35,3.35,0,0,1-2.88.11,12.69,12.69,0,0,1-1.9-1ZM868.93,356.2a8.05,8.05,0,0,1-1.14-5.69,5.08,5.08,0,0,1,2.77-2.52l31.21-14.86a4.57,4.57,0,0,1,4.93,0,10.34,10.34,0,0,1,2.59,3.79l1.55-.74L900.08,313.6l-1.56.72a13.09,13.09,0,0,1,1.16,4.6,4.27,4.27,0,0,1-2.9,3.68l-31.2,14.85a4.49,4.49,0,0,1-4.64,0,10.31,10.31,0,0,1-2.77-4l-1.69.81,10.76,22.6Z"/><path class="cls-3" d="M895.46,437.67l-1.78.49-6.42-22.87,1.78-.49a12.71,12.71,0,0,0,2.25,4.28,4.78,4.78,0,0,0,4.55.34l34.66-9.72L884.09,404l-.51-1.78,35.75-28.61-32.08,8.87a8,8,0,0,0-4.83,2.86,7.68,7.68,0,0,0,0,5.93l-1.78.51-4.53-16.11,1.8-.51a8.11,8.11,0,0,0,2.6,4.77,6.11,6.11,0,0,0,4.7,0l32.59-9.15a4.92,4.92,0,0,0,3.47-2.43,8.54,8.54,0,0,0-.28-5.3l1.65-.47,4.93,17.58L899,403.11l36.3,4.68,4.87,17.34-1.65.47a8.14,8.14,0,0,0-2.14-4.23,7.34,7.34,0,0,0-5.89,0l-30.31,8.53c-2.58.72-4.13,1.61-4.66,2.71a10.79,10.79,0,0,0,0,5.06Z"/><path class="cls-3" d="M898.66,465.64l-1.89.28L893,441.18l1.9-.29a10.26,10.26,0,0,0,1.5,4.62,4.48,4.48,0,0,0,4.45,1.27l34.11-5.15a4.28,4.28,0,0,0,3.79-2.69,13.55,13.55,0,0,0,.21-4.74l1.71-.24,3.79,24.76-1.7.25a10.5,10.5,0,0,0-1.38-4.41,4.53,4.53,0,0,0-4.7-1.46l-34.11,5.17a5.12,5.12,0,0,0-3.37,1.59A7.93,7.93,0,0,0,898.66,465.64Z"/><path class="cls-3" d="M897.71,468.72h1.9a10.62,10.62,0,0,0,1.44,4.66,5.42,5.42,0,0,0,4.57,1.35l33.8-1.61a32.49,32.49,0,0,0,3.56-3.6,4.41,4.41,0,0,0,1.29-2.65H946l.72,15-29.2,26.32L939,507.3a8.81,8.81,0,0,0,5.1-1.38,6.63,6.63,0,0,0,1.72-5.68h1.72l.72,15.44h-1.72a7.78,7.78,0,0,0-1.89-4.53,6.62,6.62,0,0,0-4.11-.78l-42.08,2-.1-2,37.14-33.69L907,477.89a7.34,7.34,0,0,0-5.1,1.65,9.28,9.28,0,0,0-1.55,5.55h-1.9Z"/><path class="cls-3" d="M897.28,573.16l-1.9-.17,2.14-24.23,1.89.17a14.77,14.77,0,0,0,.61,4.64,4.22,4.22,0,0,0,3.79,2.2l16.39,1.46L921.74,540l-16.37-1.44a4.18,4.18,0,0,0-4.07,1.42,14.93,14.93,0,0,0-1.5,4.55l-1.89-.17L900,520.39l1.9.17a11.2,11.2,0,0,0,.66,4.43,4.37,4.37,0,0,0,3.79,1.9l34.48,3.18a4.45,4.45,0,0,0,4.36-1.48,10.94,10.94,0,0,0,1.29-4.05l1.69.15-2.12,23.95-1.69-.15a12.88,12.88,0,0,0-.47-4.43,4.45,4.45,0,0,0-4.07-2.44l-14.65-1.29-1.54,17.24,14.63,1.29a4.32,4.32,0,0,0,4.36-1.63,12.45,12.45,0,0,0,1.31-4.32l1.7.15-2.14,24.23-1.7-.17a12.72,12.72,0,0,0-.47-4.36,4.53,4.53,0,0,0-4.09-2.37l-34.43-3.05a4.27,4.27,0,0,0-4.07,1.29,14,14,0,0,0-1.46,4.53Z"/><path class="cls-3" d="M142.62,650.56l-12.39,9.13,4.87,14.61-12.52-8.94-12.35,9.13,4.64-14.68-12.51-8.94,15.37-.11,4.66-14.68,4.87,14.61Z"/><path class="cls-3" d="M924,650.56l-12.39,9.13,4.87,14.61L904,665.36l-12.39,9.13,4.64-14.68-12.51-8.94,15.39-.11,4.62-14.68,4.87,14.61Z"/><path class="cls-2" d="M611.36,434.54l72.38-31.91,57.58,31.91Zm-84.11-93.71v44.7h37V367H553.89l-12.81-26.36-13.83.17ZM247.19,422.08l70.11-33.46,94.17,17.05,21.79-20.23v-38h11.92V304.6H430.92V288.25H417.41V278.07l77.32-36.57v-35h7v35l61.49,43.58H536V299.9H467.36V363h33.21v28H451.46l-18.63,28.8L247.15,422.1Zm375.16-7.77v-28.8H574.87v28.8Z"/><path class="cls-4" d="M720.76,746.47c4.43-25.73,19.53-134.9,12.43-138.45,0,0-11.52,86.1-13.26,103s-10.67,56.84-10.67,56.84l-.38,1.48a47.2,47.2,0,0,0,7.58-1.44C717.45,763.55,718.93,757.14,720.76,746.47Z"/><path class="cls-4" d="M708,773.59c-.55,3.64-.72,7.86,1.18,9.3,3.56,2.67,1.78,8-5.32,7.08s-6.2,13.26-.87,15.16,18.64-2.65,16-9.76,0-14.21-2.65-17.75a5.21,5.21,0,0,1-.95-4.4A39.39,39.39,0,0,1,708,773.59Z"/><path class="cls-4" d="M517.19,746.47c-4.43-25.73-19.53-134.9-12.41-138.45,0,0,11.52,86.1,13.26,103s10.65,56.84,10.65,56.84l.38,1.48a46.41,46.41,0,0,1-7.58-1.44c-1-4.32-2.46-10.73-4.3-21.39Z"/><path class="cls-4" d="M529.9,773.59c.57,3.64.72,7.86-1.19,9.3-3.56,2.67-1.78,8,5.34,7.08s6.2,13.26.89,15.16-18.64-2.65-16-9.76,0-14.21,2.67-17.75a5.24,5.24,0,0,0,1-4.4,38.76,38.76,0,0,0,7.29.36Z"/><path class="cls-4" d="M183.17,690.92c1.89,3.58,4.19,6.93,6.23,10.44a852.18,852.18,0,0,0-10.17-86.84c0,22.43,4.45,56.52,3.94,76.4Z"/><path class="cls-4" d="M840,555.09a16.81,16.81,0,0,0,1.67-19.63,147.13,147.13,0,0,0-12.09-18.74,392.44,392.44,0,0,0-75.79-.59,35.18,35.18,0,0,0-7.41,5.27c0,11-.32,32.21-.72,54.21,35.32,2.54,65.27,6.1,88.35,9.74a39.41,39.41,0,0,1,6-30.26Z"/><path class="cls-4" d="M885,520.15a204.41,204.41,0,0,0-34,2h-.47a29.94,29.94,0,0,0,4.72,11,19.74,19.74,0,0,1-3.39,26.05c-6.42,6.8-3.39,19.19.28,29.28q12.67,2.25,25.11,5.57a376.19,376.19,0,0,0,9.15-73.17c-.47-.25-1-.74-1.44-.76Z"/><path class="cls-4" d="M857.56,602.19a49.7,49.7,0,0,1-4,32.21,73.78,73.78,0,0,0-7.2,30.41c-.68,7.33-6.35,17.62-10.67,5.31a116,116,0,0,1,9-50.25,21.26,21.26,0,0,0-5-23.65,12.06,12.06,0,0,1-3-3.79q-45.28-7.52-91.1-10.93c-.57,29.84-1.42,59.67-2.67,66.32,5.68,4.89,12.87,10.2,12.87,10.2a6.58,6.58,0,0,0,5.34-6.65c0-5.68,7.08-4,7.08,2.67s3.52,3.09,5.31-3.58,13.26-.89,13.26,6.67.44,13.77,6.63,10.23,13.26,4,13.26,9.3-8.89,4.89-8.43,8,9.32,12.88,8,22.74-12,2.65-14.19,5.3,6.65,5.69-1.35,12-17.75-.89-23.08-1.78-11.09,8.87-17.32,3.56a14,14,0,0,1-3.11-18.64c0-5.69-7.1-4.43-5.32-8s8.43-15.16,6.23-18.21-3.11-8.43-6.23-4a523.94,523.94,0,0,0-8,60.35,156.32,156.32,0,0,0-4,37.72A51.44,51.44,0,0,1,739.29,809,375.16,375.16,0,0,0,875.71,600.3q-10.31-2.41-20.71-4.43c1.16,2.65,2.12,4.93,2.56,6.33Z"/><path class="cls-4" d="M167.57,576.69a441.81,441.81,0,0,0-4.64-57.79,49.75,49.75,0,0,0-25.35-3.47,372.59,372.59,0,0,0,5.12,55.4c5.12,1.16,10.23,2.16,10.91,2.31,2.94.68,7.77,2,14,3.54Z"/><path class="cls-4" d="M143.72,577a372.29,372.29,0,0,0,25.14,84.68c0-9.34,0-44.43-1.06-78.44C160.11,581.33,152.06,579.17,143.72,577Z"/><path class="cls-4" d="M637.68,511.47a56.05,56.05,0,0,1-35,.68,272.67,272.67,0,0,0-82.53,1.9,62.38,62.38,0,0,1-10.84,3.35c.47,1.14.89,1.9,1.1,1.69-.25,18,.89,41.23,1,62.38,3.3-.51,6.6-1.21,9.93-1.65A837.56,837.56,0,0,1,621.78,573c33.65-.42,66.6-.76,100.21,1l4.76.3c.23-19.12,1.1-39.2.87-55.17-13.17-14.84-89.94-7.64-89.94-7.64Z"/><path class="cls-4" d="M403.05,598.19a391.1,391.1,0,0,0,78.82-11.69c3.49-.64,7-1.12,10.54-1.76-.51-25.14-.76-50.87-.89-63.34.13-.4.21-.87.32-1.27a7.23,7.23,0,0,1-3.62-.65c-3.32-2.67-25.63-11.67-70.56-2.67a326.8,326.8,0,0,1-111.16,2,275.06,275.06,0,0,0-107-4.26,130.14,130.14,0,0,0-15.59,4.57c.64,13.72,1.89,38.81,3.39,62.32a735.46,735.46,0,0,0,215.79,16.77Z"/><path class="cls-4" d="M503.89,738a522.91,522.91,0,0,0-8-60.35c-3.07-4.45-4,.85-6.19,4s4.43,14.65,6.19,18.21-5.32,2.22-5.32,8a14,14,0,0,1-3.09,18.64c-6.21,5.32-12-4.43-17.32-3.56s-15.16,8-23.08,1.78.89-9.3-1.35-12-12.87,4.43-14.19-5.32,7.58-19.53,8-22.74-8.45-2.67-8.45-8,7.1-12.89,13.26-9.3,6.65-2.67,6.65-10.23,11.56-13.26,13.26-6.67,5.34,10.23,5.34,3.58,7.09-8.43,7.09-2.67a6.56,6.56,0,0,0,5.3,6.65s7.12-5.32,12.88-10.2c-1.1-5.87-1.89-29.65-2.44-55.63-4.64.93-9.23,1.9-13.91,2.71a680,680,0,0,1-198.45,8,610.83,610.83,0,0,1-92.5-15,306.87,306.87,0,0,0,5.36,47.88c6.92-.7,17.28,6.19,17.28,12.45A15.42,15.42,0,0,1,222,649.65s17.28-3.45,18.66-1.36,2.75,15.9,7.58,15.9,3.45,19.38-2.06,18.68c-3.45,5.53-5.55,9.66-11.75,7.58,0,12.45-7.58,10.36-9.7,9.66-3.49,6.23-4.83,0-7.58-2.75a8.26,8.26,0,0,1-7.58-13.15,17.17,17.17,0,0,1-4.87-17.3l-5.51-1.36a242.25,242.25,0,0,0,11.37,67.81,378.37,378.37,0,0,0,73.76,75c.68-.23,2.29-.78,5.25-1.61-.57-6.63-2-16.5-5.69-18.81-5.57-3.54-23.25-28.82-15.16-45A31,31,0,0,1,294,723.79c3.56.51,20.22,9.09,21.24,22.74a40.47,40.47,0,0,1-9.08,34.84,39.12,39.12,0,0,0-5.32,22.74c2.67-.59,5.55-1.14,8.66-1.69a176.16,176.16,0,0,0,13.26-31.06,61.82,61.82,0,0,0-3-46.46,46.65,46.65,0,0,1-5.68-49c7.58-10,6-10.67,2.63-15.33s-16-8-13-14,21,9.65,23.63,15c2.33-13.62,7.58-30,14.65-25.94,3,4-6.19,8.22-5.68,15.93a80.5,80.5,0,0,1-2,16.6s8.47-23.87,17.05-20.56c-.65,4.66-12.32,20.29-13.62,25.29-2,5-8.66,5.34-12,5.34a27,27,0,0,0-5.33,34.6,75.18,75.18,0,0,1,13.26,54.95,152.07,152.07,0,0,1-12.37,33,168.67,168.67,0,0,1,30.7-1c17.66,3,24.38,13,54.95,15.33a770.73,770.73,0,0,0,91.46-8.56,52.73,52.73,0,0,1,9.47-30.71A155.32,155.32,0,0,0,503.89,738Z"/><path class="cls-4" d="M288.82,811.71h-.38c.57.42,1.06.89,1.63,1.31v-1.61C289.6,811.56,289.27,811.58,288.82,811.71Z"/><path class="cls-4" d="M301.17,814.1a42.81,42.81,0,0,0,5-6.16c-1.69.23-3.45.55-5.21.87.06,1.74.08,3.64.19,5.28Z"/><path class="cls-4" d="M616,821.36c.78.49,1.17-1.48,1.21-4.4l-5.69-.49A28.76,28.76,0,0,0,616,821.36Z"/><path class="cls-4" d="M665.28,578.37c-16.52,0-35.11,0-51.57.68-28.21,1.12-57.22,3.52-85.26,7-5.68.7-11.37,1.78-16.86,2.79a1106.34,1106.34,0,0,0,33.75,175.59,157.87,157.87,0,0,1,14.34,38.88c3.26.17,6.39.4,9.47.74,6.54,1.12,17.85,2.61,28.57,4,.85-.89,2.08-1.33,4.15-.36q.84.52,1.63,1.12c5.19.68,9.79,1.29,13.53,1.9a44.61,44.61,0,0,0-2.29-11.8c-9-20.84-18.63-17.77-22.74-35.73a32.65,32.65,0,0,1,25.32-36.63c18.63,1.12,26.16,25.28,22.19,39.51s-14.65,23.08-14.65,28.42c0,2.41,0,9.47.17,17.47.59,0,1.14.15,1.9.21a123.38,123.38,0,0,0,19.89-40.66A61.82,61.82,0,0,0,643.76,725a46.73,46.73,0,0,1-5.68-49c7.58-10,6-10.67,2.67-15.33s-16-8-13-14,21,9.65,23.61,15c2.35-13.62,7.67-30,14.65-25.94,3,4-4.64,9-5.68,16.64a19.55,19.55,0,0,1-2.8,11c-3,3.31-7,9-5.32,9s3.68,0,4-3.66,5.32-6,8.32-5.69-2.79,6-2.9,10c-2,5-8.64,5.34-12,5.34a27,27,0,0,0-5.32,34.6,75.34,75.34,0,0,1,13.26,54.95,157.72,157.72,0,0,1-19.14,44.83c7,.17,15.16.21,23,.17a24.81,24.81,0,0,1,1.9-1.89A118.12,118.12,0,0,1,681,791.55c2.73-7.77,6.88-16.62,11.37-26.94a1048.73,1048.73,0,0,0,34-181V580.7q-30.46-2.17-61-2.33Z"/><path class="cls-4" d="M668.24,812.83c3.79,0,7.39-.13,10.4-.21a24.3,24.3,0,0,1-.29-6.37,85.92,85.92,0,0,0-9.93,6.46A.18.18,0,0,0,668.24,812.83Z"/><path class="cls-4" d="M595.58,854.32a4.51,4.51,0,1,1,4.13-4.86c0,.11,0,.23,0,.35A4.36,4.36,0,0,1,595.58,854.32Zm-18.64,21.94a4.19,4.19,0,1,1,3.77-4.57q0,.21,0,.42A4,4,0,0,1,576.93,876.26Zm-12.81-57.73a5,5,0,1,1,5.17,4.83h-.19a4.91,4.91,0,0,1-5-4.83Zm-10.5,21.81a4.83,4.83,0,1,1,5.17-4.83A5,5,0,0,1,553.63,840.34ZM552,880.26c-1.9,0-3.53-1.1-3.53-2.5s1.56-2.5,3.53-2.5,3.47,1.14,3.47,2.5S553.91,880.26,552,880.26Zm-15.84-11.37a4.24,4.24,0,1,1,5-4.15A4.62,4.62,0,0,1,536.14,868.89Zm-10-10.67a4.66,4.66,0,1,1,5-4.64,4.81,4.81,0,0,1-5,4.64Zm-18.32,11.69a5,5,0,1,1,5.34-5,5.17,5.17,0,0,1-5.34,5ZM496.2,848.39a4.58,4.58,0,1,1,6-3.36A4.89,4.89,0,0,1,496.2,848.39Zm-11.84,32.82a5,5,0,1,1,5.17-5,5.06,5.06,0,0,1-5.11,5Zm-10.82-28.42a4.85,4.85,0,1,1,4.48-5.2q0,.18,0,.36a4.64,4.64,0,0,1-4.45,4.83ZM454.4,866.58a4.59,4.59,0,1,1,5.51-4.49A5.1,5.1,0,0,1,454.4,866.58Zm-9.15-25.64a4.15,4.15,0,1,1,4.15,4.34,4.24,4.24,0,0,1-4.15-4.34Zm-18,7a6,6,0,1,1,6.5-6,6.23,6.23,0,0,1-6.45,6Zm-.17,19.65a4.36,4.36,0,1,1,4.81-4.36A4.61,4.61,0,0,1,427.1,867.6Zm-14-10.67a4.87,4.87,0,1,1,5.49-4.83A5.19,5.19,0,0,1,413.13,856.94Zm-17.05-.68a4,4,0,1,1,5-3.79A4.53,4.53,0,0,1,396.08,856.26Zm-11-18.45a6.88,6.88,0,1,1,6.67,5.15A6.06,6.06,0,0,1,385.09,837.8Zm-12.32,18.45a3.79,3.79,0,1,1,3.67-3.9s0,.07,0,.11A3.79,3.79,0,0,1,372.77,856.26ZM360.46,833a7.92,7.92,0,1,1,7.83,6.65A7.31,7.31,0,0,1,360.46,833Zm-17.05,9a3.66,3.66,0,1,1,3.79-3.66A3.79,3.79,0,0,1,343.41,841.95Zm-13-20.84c-.55-1.9,1.29-4.13,4.13-4.94s5.55,0,6.1,2-1.27,4.13-4.11,4.94-5.57,0-6.12-2Zm1.89,14.49a2.5,2.5,0,1,1,2.5-2.5A2.5,2.5,0,0,1,332.32,835.6Zm257.48-16a4.51,4.51,0,1,1-3.95,5c0-.17,0-.34,0-.52A4.27,4.27,0,0,1,589.8,819.63Zm24.29,27c-6-4-14-13.64-27.95-5s-23.95,11-18.32,4.32a89.38,89.38,0,0,1,27-15,30,30,0,0,1,19.65,4.66,29.15,29.15,0,0,0-11.65-18.3,10,10,0,0,1-2.45-1.89,59.74,59.74,0,0,0-18.51.13c-3.68,2.33-6.69-6.33-13-6.65-1.42,0-4.72,0-9,.23a23.06,23.06,0,0,1-8.43,15.73,27.5,27.5,0,0,1-21,5.91c-23.48-2.67-29.35-9.47-31.09-17l-4.42.4c-26.62,2.67-43.26,4-49.91,5.68a159.17,159.17,0,0,1-53.26,1,209.36,209.36,0,0,0-47.61-14c-8.75,0-17.24-.44-26-.17-4.91,8.64-9.91,15.25-13.58,16.28a371.89,371.89,0,0,0,310,48.89l-1.42-.76s6.94-20.46.93-24.46Z"/><path class="cls-4" d="M683.93,839.35a3.79,3.79,0,1,1,4-3.79A3.92,3.92,0,0,1,683.93,839.35ZM667.44,844a3.94,3.94,0,1,1,4.83-3.79A4.42,4.42,0,0,1,667.44,844Zm19.16-18.95a27.16,27.16,0,0,1-5.53-6.65c-.55,0-7.58.28-16.71.4-.64,5.1,1,11.37-2.16,12.92-4.87,2.22-5.78,16-14.23,23.08s-6.65-3.11-3.52-5.68,8.87-18.64,12.86-24c-1.31-1.29-1-3.64.19-6.19-6.94,0-14.48,0-21.16-.45l-1.9-.13a14.09,14.09,0,0,1-6.35,5.13,26.17,26.17,0,0,1-2.79,2.22c.13,4.62.27,8.77.45,11.37.21,3-1.44,5.69-1.44,13.26a74.74,74.74,0,0,1-1.89,19.18,376.09,376.09,0,0,0,85.17-38.58,27.46,27.46,0,0,1-21-5.91Z"/><path class="cls-2" d="M512,890.28C303.43,890.28,133.74,720.6,133.73,512S303.39,133.78,512,133.77A378.22,378.22,0,0,1,890.23,512v0C890.24,720.56,720.57,890.26,512,890.28Zm0-744.73C309.9,145.56,145.5,310,145.51,512S309.93,878.48,512,878.48,878.46,714.06,878.45,512v0A366.45,366.45,0,0,0,512,145.55Z"/></svg>