<svg width="515" height="512" viewBox="0 0 515 512" fill="none" xmlns="http://www.w3.org/2000/svg">
<path d="M257.065 506.689C396.69 506.689 509.879 393.501 509.879 253.876C509.879 114.251 396.69 1.0625 257.065 1.0625C117.44 1.0625 4.25195 114.251 4.25195 253.876C4.25195 393.501 117.44 506.689 257.065 506.689Z" fill="white"/>
<path d="M243.249 441.892C212.445 416.398 189.075 423.834 138.088 423.834C116.843 423.834 96.6603 413.212 83.9134 399.403C125.341 429.145 167.83 406.838 167.83 406.838C167.83 406.838 140.212 397.278 126.403 378.158C112.594 360.1 112.594 352.664 95.598 352.664C95.598 352.664 109.407 376.033 125.341 391.967C125.341 391.967 112.594 384.531 97.7225 360.1C89.2246 345.228 87.1001 336.73 71.1665 336.73C71.1665 336.73 76.4777 361.162 108.345 393.029C108.345 393.029 83.9134 376.033 72.2287 349.477C60.5441 322.921 62.6686 318.672 43.5482 316.548C43.5482 316.548 43.5482 342.042 73.291 384.531C73.291 384.531 48.8594 365.411 41.4237 328.232C32.9258 292.116 23.3656 284.681 1.05859 278.307C13.8055 408.963 124.279 510.938 258.121 510.938V451.452C250.685 449.328 250.685 449.328 243.249 441.892Z" fill="#0F63AC"/>
<path d="M270.867 441.892C301.672 416.398 325.042 423.834 376.029 423.834C397.274 423.834 417.457 413.212 430.204 399.403C388.776 429.145 346.287 406.838 346.287 406.838C346.287 406.838 373.905 397.278 387.714 378.158C401.523 360.1 401.523 352.664 418.519 352.664C418.519 352.664 404.71 376.033 388.776 391.967C388.776 391.967 401.523 384.531 416.394 360.1C424.892 345.228 427.017 336.73 442.95 336.73C442.95 336.73 437.639 361.162 405.772 393.029C405.772 393.029 430.204 376.033 441.888 349.477C453.573 322.921 451.448 318.672 470.569 316.548C470.569 316.548 470.569 342.042 440.826 384.531C440.826 384.531 465.258 365.411 472.693 328.232C481.191 292.116 490.751 284.681 513.058 278.307C500.311 408.963 389.838 510.938 255.996 510.938V451.452C263.432 449.328 263.432 449.328 270.867 441.892Z" fill="#0F63AC"/>
<path d="M257.051 508.813C116.836 508.813 3.17578 394.091 3.17578 253.876C3.17578 113.66 116.836 0 257.051 0C397.267 0 510.927 113.66 510.927 253.876C511.989 394.091 397.267 508.813 257.051 508.813ZM257.051 3.18672C118.96 3.18672 5.30026 115.784 5.30026 254.938C5.30026 393.029 117.898 506.689 257.051 506.689C396.205 506.689 508.802 393.029 508.802 253.876C508.802 115.784 396.205 3.18672 257.051 3.18672Z" fill="#0F63AC"/>
<path d="M416.387 346.29C415.324 345.228 414.262 345.228 415.324 344.166C431.258 316.548 438.694 284.681 438.694 252.813C438.694 203.95 418.511 158.274 384.519 124.282C350.528 90.2905 304.851 72.2324 257.051 72.2324H255.988C207.125 72.2324 161.449 92.415 127.457 126.407C93.4655 161.461 74.3452 207.137 75.4074 254.938C75.4074 285.743 83.9054 316.548 98.7767 343.104C98.7767 344.166 98.7767 345.228 97.7145 345.228C96.6522 345.228 95.59 345.228 95.59 344.166C80.7186 318.672 72.2207 286.805 72.2207 256C72.2207 207.137 90.2788 160.398 125.333 125.344C160.387 90.2905 206.063 70.1079 255.988 70.1079H257.051C305.914 70.1079 351.59 89.2282 386.644 123.22C421.698 158.274 441.88 203.95 441.88 253.876C441.88 286.805 433.383 318.672 417.449 346.29C417.449 346.29 417.449 346.29 416.387 346.29Z" fill="#0F63AC"/>
<path d="M196.514 456.763C196.514 455.701 197.576 453.577 196.514 453.577C196.514 452.514 195.451 452.514 194.389 451.452L189.078 450.39V449.328L192.265 450.39C197.576 451.452 202.887 450.39 208.198 445.079L212.447 446.141L201.825 485.444C201.825 486.506 201.825 487.568 200.763 487.568V488.63L201.825 489.693L208.198 491.817V492.879L180.58 485.444V484.381L185.891 485.444C186.954 485.444 188.016 485.444 188.016 483.319L196.514 456.763Z" fill="white"/>
<path d="M239.003 474.821C237.941 476.946 236.879 478.008 234.754 479.07C232.63 480.132 230.505 480.132 228.381 480.132C226.257 480.132 224.132 479.07 222.008 476.946C219.883 475.883 218.821 473.759 217.759 471.634C216.696 469.51 216.696 467.385 216.696 464.199C217.759 459.95 219.883 456.763 223.07 453.576C226.257 450.39 231.568 450.39 236.879 450.39C241.128 451.452 244.315 452.514 246.439 455.701C248.564 458.888 250.688 462.074 251.75 466.323C252.813 470.572 252.813 473.759 251.75 476.946C250.688 480.132 249.626 483.319 248.564 486.506C246.439 489.693 245.377 491.817 242.19 492.879C240.066 495.004 236.879 496.066 234.754 496.066C231.568 497.128 229.443 497.128 226.257 496.066C224.132 496.066 220.945 495.004 218.821 492.879C216.696 490.755 214.572 488.63 215.634 485.444C215.634 483.319 216.696 481.195 218.821 481.195C219.883 480.132 222.008 480.132 224.132 480.132C225.194 480.132 226.257 480.132 227.319 481.195C228.381 482.257 229.443 482.257 229.443 483.319C230.505 484.381 230.505 485.444 230.505 486.506C230.505 487.568 230.505 488.63 229.443 488.63C229.443 488.63 228.381 489.692 227.319 489.692C226.257 489.692 226.257 490.755 226.257 490.755L225.194 491.817C225.194 492.879 225.194 492.879 226.257 493.941C227.319 493.941 228.381 495.004 229.443 495.004C231.568 495.004 233.692 495.004 234.754 492.879C235.817 491.817 237.941 488.63 237.941 483.319L239.003 474.821ZM241.128 461.012C241.128 457.825 241.128 455.701 241.128 454.639C241.128 453.576 240.066 452.514 237.941 452.514C235.817 452.514 233.692 454.639 232.63 458.888C231.568 463.137 231.568 465.261 230.505 467.385C230.505 467.385 230.505 468.448 230.505 469.51C230.505 470.572 230.505 471.634 230.505 472.697C230.505 473.759 230.505 474.821 230.505 475.883C230.505 476.946 230.505 476.946 231.568 478.008C231.568 478.008 232.63 479.07 233.692 479.07C234.754 479.07 235.817 479.07 236.879 476.946C237.941 475.883 239.003 473.759 240.066 470.572V469.51V468.448V467.385V466.323C240.066 466.323 240.066 465.261 240.066 464.199C241.128 462.074 241.128 461.012 241.128 461.012Z" fill="white"/>
<path d="M261.31 455.701C261.31 455.701 262.373 455.701 264.497 455.701C266.621 455.701 268.746 455.701 270.87 455.701C272.995 455.701 276.182 455.701 278.306 455.701C279.368 455.701 279.368 455.701 280.431 455.701C282.555 455.701 284.68 454.639 285.742 454.639C286.804 453.577 287.866 452.514 287.866 451.452H288.929C288.929 456.763 287.866 461.012 284.68 463.137C281.493 465.261 277.244 467.386 272.995 467.386C269.808 467.386 267.684 467.386 264.497 467.386C264.497 468.448 264.497 470.572 264.497 472.697C264.497 474.821 264.497 476.946 264.497 478.008C265.559 474.821 267.684 472.697 269.808 471.635C271.933 470.572 275.119 469.51 278.306 469.51C281.493 469.51 284.68 469.51 286.804 470.572C289.991 471.635 292.115 473.759 293.177 475.884C295.302 478.008 295.302 481.195 296.364 483.319C296.364 486.506 295.302 489.693 294.24 492.88C292.115 496.066 289.991 498.191 286.804 499.253C283.617 500.315 279.368 501.377 275.119 502.44C270.87 502.44 266.621 501.377 264.497 499.253C261.31 497.129 260.248 495.004 260.248 491.817C260.248 489.693 261.31 487.568 262.373 486.506C263.435 485.444 265.559 484.382 266.621 484.382C267.684 484.382 268.746 484.382 269.808 485.444C270.87 485.444 271.933 486.506 272.995 487.568C274.057 488.631 274.057 489.693 274.057 490.755C274.057 491.817 274.057 492.88 272.995 493.942C272.995 495.004 271.933 495.004 269.808 496.066C269.808 496.066 268.746 496.066 267.684 497.128C266.621 497.128 266.621 498.191 266.621 498.191C266.621 499.253 267.684 500.315 269.808 500.315C270.87 500.315 272.995 501.377 274.057 500.315C276.182 500.315 277.244 499.253 279.368 499.253C280.431 498.191 281.493 497.128 282.555 495.004C283.617 492.88 283.617 489.693 283.617 486.506C283.617 481.195 282.555 476.946 281.493 474.821C280.431 472.697 278.306 471.635 276.182 471.635C274.057 471.635 271.933 472.697 269.808 474.821C267.684 476.946 266.621 479.07 265.559 481.195H264.497C264.497 475.884 264.497 471.635 263.435 467.386C261.31 461.012 261.31 457.826 261.31 455.701Z" fill="white"/>
<path d="M316.539 471.635C316.539 467.386 319.726 465.261 322.913 464.199C325.037 463.137 328.224 463.137 330.348 464.199C332.473 464.199 334.597 466.323 336.722 467.386C338.846 469.51 339.908 471.635 339.908 473.759C339.908 475.884 339.908 476.946 339.908 479.07C339.908 481.195 338.846 483.319 337.784 484.381C336.722 485.444 335.659 487.568 333.535 489.693C331.411 490.755 329.286 491.817 326.099 492.879C322.913 493.942 318.664 493.942 315.477 491.817C312.29 490.755 309.103 488.63 306.979 485.444C304.854 482.257 302.73 479.07 301.668 474.821C300.606 469.51 300.606 465.261 301.668 462.074C302.73 457.825 304.854 454.639 306.979 451.452C310.166 448.265 313.352 447.203 316.539 446.141C318.664 446.141 320.788 445.079 322.913 445.079C325.037 445.079 327.162 446.141 328.224 446.141C330.348 447.203 331.411 448.265 331.411 450.39C331.411 452.514 331.411 454.639 330.348 455.701C329.286 456.763 328.224 457.825 326.099 458.888C323.975 458.888 322.913 458.888 321.85 458.888C320.788 457.825 319.726 456.763 318.664 455.701C318.664 454.639 318.664 453.577 318.664 452.514C318.664 451.452 319.726 451.452 320.788 450.39C321.85 449.328 321.85 449.328 321.85 448.265C321.85 447.203 320.788 447.203 319.726 447.203C318.664 447.203 317.601 447.203 316.539 447.203C314.415 448.265 312.29 449.328 312.29 451.452C312.29 453.577 312.29 456.763 312.29 458.888L316.539 471.635ZM325.037 469.51C323.975 468.448 323.975 467.386 322.913 466.323C322.913 466.323 321.85 465.261 320.788 466.323C319.726 466.323 318.664 467.386 318.664 468.448C317.601 469.51 317.601 471.635 317.601 473.759C317.601 474.821 317.601 478.008 318.664 482.257C319.726 485.444 320.788 487.568 320.788 488.63C321.85 491.817 323.975 492.879 326.099 492.879C328.224 491.817 329.286 490.755 329.286 487.568C329.286 484.382 328.224 481.195 327.162 476.946C326.099 473.759 326.099 471.635 325.037 469.51Z" fill="white"/>
<path d="M35.0466 242.191C36.1089 239.005 37.1711 236.88 38.2334 234.756C40.3578 232.631 42.4823 231.569 44.6068 231.569C47.7935 231.569 49.918 232.631 50.9802 234.756C53.1047 237.942 54.167 242.191 53.1047 247.502V265.561H52.0425C52.0425 263.436 52.0425 262.374 52.0425 262.374C52.0425 261.312 50.9802 261.312 50.9802 261.312C50.9802 261.312 48.8558 261.312 47.7935 260.249L24.4242 259.187C22.2997 259.187 21.2375 259.187 21.2375 259.187L20.1753 260.249C20.1753 261.312 19.113 262.374 19.113 263.436H18.0508L19.113 246.44C19.113 242.191 20.1753 239.005 20.1753 237.942C20.1753 236.88 21.2375 234.756 22.2997 233.693C23.362 232.631 25.4865 232.631 26.5487 232.631C28.6732 232.631 29.7354 233.693 30.7977 234.756C32.9222 235.818 33.9844 239.005 35.0466 242.191ZM32.9221 251.751C32.9221 249.627 32.9222 247.502 31.8599 246.44C31.8599 244.316 31.8599 243.254 30.7977 243.254C29.7354 242.191 28.6732 242.191 26.5487 242.191C24.4242 242.191 23.362 242.191 22.2997 243.254C21.2375 243.254 21.2375 244.316 20.1753 245.378C19.113 246.44 19.113 248.565 19.113 250.689L32.9221 251.751ZM35.0466 251.751L46.7313 252.814H47.7935C48.8558 252.814 49.918 252.814 49.918 251.751C49.918 251.751 50.9802 250.689 50.9802 249.627C50.9802 248.565 50.9802 246.44 49.918 245.378C48.8558 244.316 48.8558 243.253 47.7935 242.191C46.7313 241.129 45.669 241.129 43.5446 241.129C41.4201 241.129 40.3578 241.129 39.2956 242.191C38.2334 243.253 37.1711 244.316 36.1089 245.378C36.1089 246.44 36.1089 248.565 35.0466 251.751Z" fill="#0F63AC"/>
<path d="M15.9336 205.013L16.9958 199.702L21.2448 196.515V197.577L18.0581 202.888L19.1203 208.199V209.262L15.9336 205.013ZM24.4315 207.137L39.3029 210.324V209.262C39.3029 207.137 39.3029 205.013 38.2406 203.951C37.1784 203.951 35.0539 202.888 31.8672 201.826V200.764L49.9253 205.013V206.075C47.8008 206.075 45.6763 206.075 44.6141 206.075C43.5518 206.075 42.4896 207.137 41.4274 208.199C40.3651 209.262 40.3651 210.324 40.3651 211.386L49.9253 213.511C52.0498 213.511 53.112 214.573 53.112 214.573C53.112 214.573 54.1743 214.573 54.1743 213.511C54.1743 213.511 55.2365 212.448 55.2365 211.386V209.262C56.2987 206.075 56.2987 202.888 55.2365 200.764C54.1743 198.639 52.0498 196.515 48.8631 194.39V193.328L59.4855 197.577L52.0498 228.382H50.9875V227.32C50.9875 226.258 50.9875 225.195 50.9875 225.195C50.9875 225.195 50.9875 224.133 49.9253 224.133C49.9253 224.133 48.8631 223.071 46.7386 223.071L23.3693 217.76C21.2448 217.76 21.2448 216.697 20.1826 216.697C19.1203 216.697 19.1203 216.697 18.0581 217.76C21.2448 217.76 21.2448 218.822 20.1826 219.884V220.946H19.1203L26.556 191.204L37.1784 193.328V194.39C33.9917 194.39 32.9294 194.39 30.805 195.453C29.7427 196.515 28.6805 197.577 27.6182 198.639C26.556 199.702 26.556 201.826 25.4938 203.951L24.4315 207.137ZM60.5477 213.511C60.5477 212.448 61.6099 211.386 62.6722 210.324C63.7344 209.262 64.7967 209.262 65.8589 209.262C66.9211 209.262 67.9834 210.324 69.0456 211.386C70.1079 212.448 70.1079 213.511 70.1079 214.573C70.1079 215.635 69.0456 216.697 67.9834 217.76C66.9211 218.822 65.8589 218.822 64.7967 218.822C63.7344 218.822 62.6722 217.76 61.6099 216.697C60.5477 216.697 60.5477 215.635 60.5477 213.511Z" fill="#0F63AC"/>
<path d="M35.0539 166.772L62.6722 159.336L48.863 152.963C46.7386 151.901 45.6763 151.901 44.6141 151.901C43.5518 151.901 42.4896 152.963 41.4274 155.087H40.3651L45.6763 144.465H46.7386C46.7386 145.527 45.6763 146.589 45.6763 147.652C45.6763 148.714 45.6763 148.714 46.7386 149.776C46.7386 150.838 47.8008 150.838 49.9253 151.901L77.5435 164.647V165.71L40.3651 176.332L61.6099 185.892C63.7344 186.954 64.7966 186.954 65.8589 185.892C66.9211 184.83 67.9834 184.83 67.9834 183.768V182.706H69.0456L63.7344 194.39H62.6722C63.7344 192.266 63.7344 191.203 63.7344 190.141C63.7344 189.079 62.6722 188.017 60.5477 186.954L37.1784 176.332H36.1162C35.0539 176.332 33.9917 177.394 33.9917 177.394C33.9917 177.394 32.9294 178.457 32.9294 179.519H31.8672L35.0539 166.772Z" fill="#0F63AC"/>
<path d="M73.2976 134.905L82.8577 141.278C83.92 142.341 84.9822 143.403 86.0444 143.403C86.0444 143.403 87.1067 143.403 88.1689 143.403C89.2312 143.403 89.2312 142.341 90.2934 141.278L91.3556 140.216L92.4179 141.278L81.7955 156.15L80.7332 155.088L81.7955 154.025C82.8577 152.963 82.8577 151.901 82.8577 151.901C82.8577 151.901 82.8577 150.839 82.8577 149.776C82.8577 149.776 81.7955 148.714 80.7332 147.652L61.6129 133.843C60.5507 132.781 59.4884 131.718 58.4262 131.718C58.4262 131.718 57.3639 131.718 56.3017 131.718C55.2395 131.718 55.2395 132.781 54.1772 133.843L53.115 134.905L52.0527 133.843L62.6751 118.971L63.7374 120.034L62.6751 121.096C61.6129 122.158 61.6129 123.22 61.6129 123.22C61.6129 123.22 61.6129 124.283 61.6129 125.345C61.6129 125.345 62.6751 126.407 63.7374 127.469L72.2353 133.843L79.671 123.22L71.1731 116.847C70.1108 115.785 69.0486 114.722 67.9863 114.722C67.9863 114.722 66.9241 114.722 65.8619 114.722C65.8619 115.785 64.7996 116.847 63.7374 116.847V117.909L62.6751 116.847L73.2976 101.976L74.3598 103.038V104.1C73.2975 105.162 73.2976 105.162 73.2976 106.225C73.2976 106.225 73.2976 107.287 73.2976 108.349C73.2976 108.349 74.3598 109.411 75.422 110.474L95.6046 124.283C96.6668 125.345 97.7291 126.407 98.7913 126.407C98.7913 126.407 99.8536 126.407 100.916 126.407C101.978 126.407 101.978 125.345 103.04 124.283L104.103 123.22L105.165 124.283L94.5424 139.154L91.3556 138.092L92.4179 137.03C93.4801 135.967 93.4801 134.905 93.4801 134.905C93.4801 134.905 93.4801 133.843 93.4801 132.781C93.4801 132.781 92.4179 131.718 91.3556 130.656L81.7955 124.283L73.2976 134.905Z" fill="#0F63AC"/>
<path d="M122.155 59.4858C122.155 61.6103 121.092 62.6726 121.092 63.7348C121.092 64.797 121.092 66.9215 122.155 71.1705L129.59 100.913L128.528 101.975L101.972 86.0419C98.7853 83.9174 96.6608 83.9174 95.5986 82.8551C94.5363 82.8551 93.4741 82.8551 92.4118 83.9174H91.3496L105.159 73.295H106.221C104.096 74.3572 104.096 75.4194 103.034 76.4817V77.5439C103.034 77.5439 103.034 77.5439 104.097 78.6062C104.097 78.6062 105.159 79.6684 107.283 80.7307L124.279 90.2908L120.03 73.295C118.968 71.1705 118.968 70.1082 118.968 69.046C118.968 67.9838 117.906 67.9838 117.906 67.9838L116.843 66.9215H115.781C114.719 66.9215 113.657 67.9838 112.594 67.9838L111.532 66.9215L122.155 59.4858Z" fill="#0F63AC"/>
<path d="M162.515 76.4815L146.582 87.1039V86.0417L147.644 84.9794C148.706 84.9794 148.706 83.9172 149.769 83.9172C149.769 83.9172 149.769 82.855 149.769 81.7927C149.769 81.7927 149.769 80.7305 148.706 78.606L137.022 58.4234C135.959 56.2989 135.959 56.2989 134.897 55.2367C134.897 55.2367 133.835 55.2367 132.773 55.2367C131.71 55.2367 131.71 55.2367 130.648 56.2989L129.586 57.3612V56.2989L145.52 46.7388V47.801L144.457 48.8632C143.395 48.8632 143.395 49.9255 142.333 50.9877C142.333 50.9877 142.333 52.05 142.333 53.1122C142.333 53.1122 142.333 54.1745 143.395 56.2989L156.142 74.357C157.204 76.4815 157.204 76.4815 158.266 77.5438C158.266 77.5438 159.329 77.5438 160.391 77.5438C160.391 77.5438 161.453 77.5437 162.515 76.4815Z" fill="#0F63AC"/>
<path d="M166.776 38.2411L172.087 52.0502H173.149C175.274 50.9879 176.336 49.9257 177.398 47.8012C177.398 45.6767 177.398 43.5523 177.398 41.4278H178.461L185.896 59.4859H184.834C183.772 57.3614 182.71 56.2991 181.647 55.2369C178.461 54.1747 177.398 53.1124 176.336 53.1124C175.274 53.1124 174.212 53.1124 172.087 54.1747L176.336 63.7348C177.398 65.8593 177.398 66.9216 177.398 66.9216L178.461 67.9838C179.523 67.9838 179.523 67.9838 180.585 67.9838L182.71 66.9216C185.896 65.8593 188.021 63.7348 189.083 61.6104C191.207 59.4859 192.27 56.2991 192.27 53.1124H193.332L195.456 63.7348L166.776 75.4195V74.3572H167.838C168.9 74.3572 169.963 73.295 169.963 73.295V72.2328C169.963 72.2328 169.963 71.1705 168.9 69.046L160.402 46.739C159.34 44.6145 159.34 43.5523 158.278 42.49L157.216 41.4278C156.154 41.4278 155.091 41.4278 154.029 41.4278H152.967V40.3655L181.647 29.7431L185.896 39.3033H184.834C183.772 37.1788 181.647 35.0543 180.585 35.0543C179.523 33.9921 177.398 33.9921 176.336 33.9921C175.274 33.9921 173.149 35.0543 171.025 36.1166L166.776 38.2411ZM164.651 29.7431L168.9 27.6187L174.212 29.7431H173.149H166.776L162.527 32.9299H161.465L164.651 29.7431ZM181.647 72.2328C182.71 72.2328 183.772 72.2328 184.834 72.2328C185.896 72.2328 186.959 73.295 186.959 74.3572C186.959 75.4195 186.959 76.4817 186.959 77.544C186.959 78.6062 185.896 79.6684 184.834 79.6684C183.772 79.6684 182.71 79.6684 181.647 79.6684C180.585 79.6684 179.523 78.6062 179.523 77.544C179.523 76.4817 179.523 75.4195 179.523 74.3572C179.523 73.295 180.585 72.2328 181.647 72.2328Z" fill="#0F63AC"/>
<path d="M206.083 24.4316L227.328 43.5519L224.141 28.6805C224.141 26.5561 223.079 25.4938 222.017 24.4316C220.954 23.3693 219.892 23.3693 217.768 23.3693V22.3071L229.452 20.1826V21.2449C228.39 21.2449 227.328 22.3071 226.266 22.3071C226.266 22.3071 225.203 23.3693 225.203 24.4316C225.203 25.4938 225.203 26.5561 225.203 27.6183L230.515 57.361H229.452L201.834 31.8673L206.083 54.1743C206.083 56.2988 207.145 57.361 208.208 58.4233C209.27 59.4855 210.332 59.4855 211.394 58.4233H212.457V59.4855L199.71 61.61V60.5478C201.834 60.5478 202.896 59.4855 203.959 58.4233C205.021 57.361 205.021 56.2988 203.959 54.1743L199.71 28.6805L198.647 27.6183C197.585 26.5561 196.523 26.5561 196.523 26.5561C195.461 26.5561 195.461 26.5561 194.398 26.5561V25.4938L206.083 24.4316Z" fill="#0F63AC"/>
<path d="M270.871 19.1206L286.805 43.5521L287.867 27.6185C287.867 25.494 287.867 24.4318 286.805 23.3695C286.805 22.3073 285.742 21.2451 283.618 21.2451V20.1828L295.303 21.2451V22.3073C294.24 22.3073 293.178 22.3073 292.116 22.3073C291.054 22.3073 291.054 23.3695 291.054 23.3695C291.054 24.4318 289.991 25.494 289.991 26.5563L287.867 56.299H286.805L264.498 24.4318L262.373 47.8011C262.373 49.9256 262.373 50.9878 263.435 52.05C264.498 53.1123 265.56 53.1123 266.622 53.1123H267.684V54.1745H254.938V53.1123C257.062 53.1123 258.124 53.1123 259.186 52.05C260.249 50.9878 260.249 49.9256 260.249 47.8011L262.373 22.3073L261.311 21.2451C260.249 20.1828 260.249 19.1206 259.186 19.1206C258.124 19.1206 258.124 18.0583 257.062 18.0583V16.9961L270.871 19.1206Z" fill="#0F63AC"/>
<path d="M313.369 45.6764L310.182 56.2988C309.12 58.4233 309.12 59.4855 309.12 59.4855C309.12 59.4855 309.12 60.5478 310.182 60.5478C310.182 60.5478 311.244 61.61 312.306 61.61H313.369V62.6723L295.311 57.3611V56.2988H296.373C297.435 56.2988 298.497 56.2988 298.497 56.2988C298.497 56.2988 299.56 56.2988 299.56 55.2366C299.56 55.2366 300.622 54.1743 300.622 52.0499L306.995 28.6806C308.057 26.5561 308.057 25.4939 308.057 25.4939C308.057 25.4939 308.057 24.4316 306.995 24.4316C306.995 24.4316 305.933 23.3694 304.871 23.3694H303.808V22.3071L321.867 27.6183V28.6806H320.804C319.742 28.6806 318.68 28.6806 318.68 28.6806C318.68 28.6806 317.618 28.6806 317.618 29.7428C317.618 29.7428 316.555 30.8051 316.555 32.9295L313.369 42.4897L326.116 45.6764L329.302 37.1785C330.364 35.054 330.365 33.9918 330.365 33.9918C330.365 33.9918 330.364 32.9295 329.302 32.9295C329.302 32.9295 328.24 31.8673 327.178 31.8673H326.116V30.8051L344.174 36.1163V37.1785H343.111C342.049 37.1785 340.987 37.1785 340.987 37.1785C340.987 37.1785 339.925 37.1785 339.925 38.2407C339.925 38.2407 338.862 39.303 338.862 41.4275L332.489 64.7968C331.427 66.9212 331.427 67.9835 331.427 67.9835C331.427 67.9835 331.427 69.0457 332.489 69.0457C332.489 69.0457 333.551 70.108 334.613 70.108H335.676V71.1702L317.618 65.859V64.7968H318.68C319.742 64.7968 320.804 64.7968 320.804 64.7968C320.804 64.7968 321.867 64.7968 321.867 63.7345C321.867 63.7345 322.929 62.6723 322.929 60.5478L326.116 49.9254L313.369 45.6764Z" fill="#0F63AC"/>
<path d="M353.719 78.6059L336.723 71.1702V70.1079H337.785C338.847 70.1079 339.909 71.1702 339.909 71.1702C339.909 71.1702 340.972 71.1702 340.972 70.1079C340.972 70.1079 342.034 69.0457 343.096 66.9212L353.719 45.6764C354.781 43.5519 354.781 42.4897 354.781 42.4897C354.781 42.4897 354.781 41.4274 353.719 40.3652C353.719 39.303 352.656 39.303 351.594 39.303H350.532V38.2407L367.528 46.7386V47.8009H366.465C365.403 47.8009 364.341 46.7386 364.341 46.7386C364.341 46.7386 363.279 46.7386 363.279 47.8009C363.279 47.8009 362.216 48.8631 361.154 50.9876L350.532 72.2324C350.532 73.2947 350.532 75.4191 350.532 75.4191C350.532 75.4191 350.532 76.4814 351.594 77.5436C351.594 78.6059 352.656 78.6059 353.719 78.6059V78.6059Z" fill="#0F63AC"/>
<path d="M369.668 89.2286H370.73C371.792 90.2908 371.792 90.2908 372.855 90.2908C373.917 90.2908 373.917 90.2908 374.979 90.2908C374.979 90.2908 376.041 89.2286 377.104 88.1663L384.539 78.6062L380.29 74.3572L382.415 73.295L386.664 76.4817L393.037 69.046C394.1 67.9838 395.162 66.9215 395.162 65.8593C395.162 65.8593 395.162 64.797 395.162 63.7348C395.162 62.6726 394.1 62.6726 394.1 61.6103L393.037 60.5481L394.1 59.4858L406.846 70.1082C410.033 73.295 412.158 75.4194 414.282 78.6062C413.22 81.7929 414.282 84.9796 413.22 88.1663C412.158 91.3531 411.095 94.5398 408.971 97.7265C406.846 99.851 405.784 100.913 403.66 101.975C401.535 103.038 399.411 104.1 398.348 104.1C396.224 104.1 394.1 104.1 393.037 104.1C390.913 104.1 388.788 103.038 386.664 101.975C385.602 101.975 384.539 100.913 382.415 98.7887L369.668 89.2286ZM401.535 71.1705L393.037 81.7929L399.411 87.1041L398.348 88.1663L391.975 82.8551L384.539 92.4153C382.415 94.5398 382.415 94.5398 382.415 95.602V96.6643C382.415 96.6643 383.477 97.7265 383.477 98.7887C385.602 100.913 387.726 100.913 390.913 100.913C394.1 99.851 397.286 97.7265 401.535 93.4775C404.722 90.2908 405.784 86.0419 406.846 83.9174C406.846 81.7929 406.846 79.6684 405.784 77.5439C405.784 74.3572 403.66 73.295 401.535 71.1705Z" fill="#0F63AC"/>
<path d="M441.9 106.224C446.149 110.473 447.212 115.785 447.212 120.034C447.212 125.345 444.025 129.594 439.776 132.78C435.527 135.967 432.34 138.092 428.091 138.092C421.718 138.092 417.469 135.967 413.22 130.656C408.971 125.345 407.909 120.034 408.971 114.722C410.033 110.473 412.158 106.224 416.407 104.1C420.656 100.913 424.905 98.7887 430.216 99.851C434.465 99.851 438.714 101.975 441.9 106.224ZM440.838 108.349C438.714 106.224 435.527 105.162 432.34 106.224C429.154 107.287 425.967 108.349 421.718 112.598C416.407 116.847 414.282 120.034 413.22 124.283C412.158 126.407 413.22 128.531 415.344 130.656C416.407 131.718 417.469 132.78 419.593 133.843C421.718 133.843 423.842 133.843 425.967 132.78C428.091 131.718 431.278 130.656 434.465 127.469C437.652 124.283 440.838 122.158 441.9 120.034C442.963 117.909 444.025 115.785 444.025 114.722C441.9 110.473 441.9 109.411 440.838 108.349ZM445.087 100.913L448.274 105.162V110.473L447.212 109.411L445.087 104.1L439.776 100.913L438.714 99.851L445.087 100.913ZM447.212 93.4775L452.523 99.851L450.398 103.038L449.336 100.913L447.212 93.4775Z" fill="#0F63AC"/>
<path d="M465.254 142.34L453.57 168.896L467.379 161.461C469.503 160.398 470.566 159.336 470.566 158.274C470.566 157.212 470.566 155.087 469.503 154.025H470.566L475.877 164.647H474.815C473.752 163.585 473.752 162.523 472.69 162.523C472.69 162.523 471.628 162.523 470.566 162.523C469.503 162.523 468.441 162.523 467.379 163.585L440.823 177.394V176.332L456.756 140.216L436.574 150.838C434.449 151.901 433.387 152.963 433.387 154.025C433.387 155.087 433.387 156.15 434.449 157.212V158.274H433.387L427.014 146.589H428.076C429.138 148.714 430.2 149.776 431.263 149.776C432.325 149.776 433.387 149.776 435.512 148.714L457.819 137.029V135.967C457.819 134.905 458.881 133.842 458.881 132.78C458.881 131.718 458.881 131.718 457.819 130.656H458.881L465.254 142.34Z" fill="#0F63AC"/>
<path d="M491.826 208.2L479.079 212.449V211.386C482.265 209.262 484.39 207.137 485.452 203.951C486.514 200.764 486.514 198.639 485.452 195.453C484.39 193.328 483.328 191.204 481.203 189.079C479.079 188.017 476.954 186.955 473.767 186.955C470.581 186.955 468.456 186.955 465.27 188.017C462.083 189.079 458.896 190.141 456.772 191.204C454.647 192.266 452.523 194.39 452.523 196.515C451.46 198.639 451.46 200.764 452.523 202.888C452.523 203.951 453.585 205.013 453.585 205.013C453.585 206.075 454.647 207.137 454.647 207.137L462.083 205.013C463.145 205.013 464.207 203.951 464.207 203.951L465.27 202.888C465.27 201.826 465.27 201.826 465.27 200.764V199.702H466.332L471.643 216.697H470.581C470.581 215.635 469.519 214.573 469.519 214.573C469.519 214.573 468.456 213.511 467.394 213.511C467.394 213.511 466.332 213.511 465.27 213.511L457.834 215.635C455.709 213.511 454.647 211.386 453.585 209.262C452.523 207.137 451.46 205.013 450.398 201.826C449.336 198.639 449.336 195.453 449.336 193.328C449.336 191.204 450.398 189.079 451.46 186.955C452.523 184.83 453.585 182.706 455.709 181.644C457.834 179.519 459.958 178.457 463.145 177.395C468.456 176.332 473.767 176.332 478.016 179.519C482.265 182.706 485.452 185.893 487.577 192.266C487.577 194.39 488.639 195.453 488.639 197.577C488.639 198.639 488.639 199.702 488.639 201.826C488.639 203.951 488.639 205.013 488.639 205.013C488.639 205.013 488.639 206.075 489.701 206.075C489.701 207.137 489.701 207.137 491.826 208.2Z" fill="#0F63AC"/>
<path d="M496.073 256L466.33 257.063C464.206 257.063 463.144 257.063 462.082 257.063C461.019 257.063 461.019 258.125 461.019 258.125C461.019 259.187 459.957 260.249 461.019 261.312V262.374H459.957V243.253H461.019V244.316C461.019 245.378 461.019 246.44 462.082 247.502C462.082 248.565 463.144 248.565 463.144 248.565C464.206 248.565 465.268 248.565 467.393 248.565H486.513C488.638 248.565 489.7 248.565 489.7 248.565C489.7 248.565 490.762 248.565 490.762 247.502V246.44C490.762 245.378 490.762 244.316 489.7 243.253H490.762L496.073 256Z" fill="#0F63AC"/>
<path d="M254.936 394.091C307.149 394.091 349.475 351.764 349.475 299.552C349.475 247.339 307.149 205.012 254.936 205.012C202.723 205.012 160.396 247.339 160.396 299.552C160.396 351.764 202.723 394.091 254.936 394.091Z" fill="#0F63AC"/>
<path d="M257.063 175.27C281.703 175.27 301.677 155.295 301.677 130.656C301.677 106.016 281.703 86.0415 257.063 86.0415C232.424 86.0415 212.449 106.016 212.449 130.656C212.449 155.295 232.424 175.27 257.063 175.27Z" fill="#0F63AC"/>
<path d="M254.939 389.842C205.014 389.842 164.648 349.477 164.648 299.552C164.648 279.369 171.022 260.249 183.769 244.315C184.831 242.191 188.018 242.191 190.142 243.253C192.267 244.315 192.267 247.502 191.204 249.626C179.52 264.498 174.209 281.494 174.209 299.552C174.209 344.166 210.325 380.282 254.939 380.282C299.553 380.282 335.669 344.166 335.669 299.552C335.669 281.494 329.296 263.435 318.673 249.626C317.611 247.502 317.611 245.377 319.736 243.253C321.86 242.191 323.985 242.191 326.109 244.315C338.856 260.249 345.229 279.369 345.229 299.552C345.229 349.477 304.864 389.842 254.939 389.842Z" fill="white"/>
<path d="M257.067 272.996C273.493 272.996 286.81 259.679 286.81 243.253C286.81 226.827 273.493 213.51 257.067 213.51C240.641 213.51 227.324 226.827 227.324 243.253C227.324 259.679 240.641 272.996 257.067 272.996Z" fill="#4DC8F4"/>
<path d="M257.071 267.685C213.519 267.685 178.465 302.738 178.465 346.29C178.465 381.344 201.834 411.087 232.639 421.709V389.842C240.075 394.091 248.573 396.216 257.071 396.216C264.506 396.216 271.942 394.091 279.378 390.904V421.709C312.307 412.149 336.739 382.407 336.739 346.29C335.676 302.738 300.623 267.685 257.071 267.685Z" fill="#4DC8F4"/>
<path d="M254.943 176.332C186.959 176.332 131.723 231.569 131.723 299.552C131.723 306.988 132.785 314.423 133.847 320.797C135.972 334.606 141.283 347.353 147.656 359.037H186.959C177.399 348.415 171.026 335.668 167.839 320.797C165.714 314.423 165.714 306.988 165.714 299.552C165.714 249.627 206.08 208.199 257.067 208.199C306.992 208.199 348.42 248.564 348.42 299.552C348.42 332.481 330.362 362.224 303.806 378.158V414.274C348.42 396.216 380.287 351.602 380.287 300.614C379.225 231.569 323.988 176.332 254.943 176.332Z" fill="#0F63AC"/>
<path d="M243.254 320.797V359.038H146.59C140.217 347.353 135.968 334.606 132.781 320.797H243.254V320.797Z" fill="#0F63AC"/>
</svg>
