<svg width="166" height="72" viewBox="0 0 166 72" fill="none" xmlns="http://www.w3.org/2000/svg">
<path d="M20.0798 15.9509C22.067 13.6709 24.955 12.4067 27.9653 12.4699C30.7356 12.4112 33.3837 13.3684 35.4298 15.1743C36.6339 16.2534 37.5392 17.635 38.0779 19.1385C38.7388 21.0573 39.0421 23.0394 38.9787 25.0214V39.3699C38.9787 39.4918 38.8565 39.5505 38.7977 39.5505H36.0862C34.4611 39.5505 33.1393 38.2276 33.1393 36.6068V25.5C33.1393 22.9175 32.8405 21.0573 32.2385 19.8563C31.4554 18.4748 30.129 17.7569 28.264 17.7569C27.3587 17.7569 26.399 17.9962 25.6159 18.4161C24.8328 18.7773 24.2308 19.3778 23.8098 20.1588C23.1489 21.3011 22.8456 23.2832 22.8456 26.0418V39.3699C22.8456 39.4918 22.7867 39.5505 22.6645 39.5505H20.0164C18.4502 39.5505 17.1284 38.2863 17.1284 36.6655V25.5C17.1284 22.9175 16.8296 21.0573 16.2276 19.8563C15.4444 18.4748 14.1226 17.7569 12.1943 17.7569C11.2301 17.7569 10.3293 17.9962 9.4873 18.4161C8.70419 18.7773 8.10213 19.3778 7.68115 20.0956C7.02025 21.2379 6.71697 23.2155 6.71697 25.9786V39.3067C6.71697 39.4241 6.59927 39.4873 6.47705 39.4873H3.88778C2.32154 39.4873 1.05859 38.2276 1.05859 36.6068V15.3549C1.05859 13.7928 2.32154 12.4744 3.94663 12.4744H6.59474C6.71244 12.4744 6.77581 12.5331 6.77581 12.655V15.057C8.34205 13.3774 10.5692 12.4157 12.8552 12.4157C15.621 12.4744 18.0337 13.6754 20.0798 15.9599M59.9871 23.7031C59.6884 22.3215 59.023 20.9399 58.181 19.8022C56.9769 18.2987 55.1707 17.4589 53.2469 17.5221C51.6218 17.4634 49.9967 18.0639 48.7926 19.143C47.5297 20.344 46.6877 21.9648 46.3844 23.7076H59.9871V23.7031ZM46.5021 28.2045C46.742 29.4641 47.2264 30.6651 48.0095 31.6855C49.3313 33.4869 51.4407 34.4441 53.6679 34.3267C54.9308 34.3267 56.1983 34.0287 57.3979 33.4282C57.9999 33.0671 58.5431 32.6472 58.9641 32.1054C59.9871 31.0263 61.6711 30.7238 62.9974 31.3243L65.4644 32.4666C65.5867 32.5253 65.5867 32.6472 65.5867 32.7645C62.3953 37.4465 58.4254 39.6679 53.6679 39.4918C49.7568 39.3112 46.5655 38.1102 44.0984 35.2297C41.8713 32.6472 40.6083 29.4054 40.6672 25.9831C40.5495 22.0777 42.1112 18.2987 45.0626 15.6574C47.2897 13.558 50.2412 12.4157 53.3103 12.4157C56.8003 12.357 60.1139 13.856 62.341 16.4385C63.6673 17.9375 64.5682 19.6803 65.1114 21.6036C65.5323 23.1658 65.7723 24.8453 65.7723 26.4662V28.0871L46.5112 28.2045H46.5021ZM80.8145 17.5763C78.7684 17.5176 76.7812 18.4161 75.396 19.9782C74.0108 21.4772 73.3499 23.4593 73.3499 25.9244C73.3499 28.7463 74.1919 30.9676 75.9392 32.4666C77.3244 33.6675 79.0717 34.3267 80.9322 34.3267C82.9782 34.3854 84.9654 33.5456 86.2918 31.9835C87.6769 30.4845 88.4012 28.4438 88.4012 25.8612C88.4012 23.0394 87.5592 20.8767 85.8708 19.3778C84.4268 18.1181 82.6206 17.5176 80.8145 17.5763ZM93.8151 39.5505H91.1082C89.4242 39.5505 88.0979 38.2276 88.0979 36.5481C85.5087 38.5301 82.9194 39.5505 80.2713 39.5505C78.103 39.5505 75.9981 38.95 74.1331 37.8077C72.087 36.6068 70.4031 34.9272 69.199 32.8278C67.9949 30.7283 67.3928 28.3264 67.3928 25.9244C67.334 22.0822 68.959 18.3574 71.8471 15.7794C74.1331 13.6167 77.1433 12.4157 80.2758 12.4157C82.8651 12.4157 85.5132 13.4361 88.1024 15.4182V6.04514C88.1024 2.9208 90.6329 0.342773 93.8197 0.342773V39.546L93.8151 39.5505ZM108.925 17.5763C106.879 17.5176 104.892 18.3574 103.566 19.9195C102.18 21.4185 101.52 23.4638 101.52 25.9831C101.52 28.805 102.362 30.9631 104.05 32.4666C105.376 33.6675 107.182 34.3267 108.984 34.268C110.369 34.268 111.691 33.9068 112.9 33.2477C115.308 31.7442 116.512 29.3467 116.512 25.9831C116.512 23.1613 115.67 20.9399 113.923 19.441C112.538 18.24 110.79 17.5176 108.93 17.5808M101.524 12.2983V15.3008C104.113 13.3187 106.703 12.2983 109.351 12.2983C111.515 12.2983 113.624 12.8988 115.489 14.0411C117.535 15.2421 119.219 16.9216 120.428 19.0256C121.632 21.125 122.234 23.527 122.234 25.9921C122.351 29.8931 120.726 33.6179 117.779 36.2004C115.493 38.3586 112.483 39.5641 109.355 39.5641C106.766 39.5641 104.118 38.5437 101.529 36.5616V46.4674C101.529 49.5917 99.0027 52.1698 95.8114 52.1698V17.933C95.7526 14.8132 98.3418 12.2893 101.529 12.2893M126.991 13.1878L129.639 13.1291C129.757 13.1291 129.82 13.251 129.879 13.3097V15.2917C130.662 14.5693 131.627 13.9734 132.586 13.549C133.487 13.251 134.392 13.0704 135.357 13.1291C135.655 13.1291 137.041 13.1878 137.462 13.251V17.2151C137.462 17.8743 136.918 18.3574 136.316 18.3574H135.474C133.188 18.3574 131.681 19.1385 130.839 20.6374C130.237 21.8384 129.938 23.7572 129.938 26.5204V39.3654C129.938 39.4873 129.82 39.546 129.698 39.546H127.05C125.484 39.546 124.221 38.2818 124.221 36.7242V16.0728C124.221 14.5107 125.484 13.251 126.991 13.1923M152.513 17.5763C150.408 17.5176 148.421 18.4161 147.036 19.9782C145.709 21.4185 145.048 23.4006 145.048 25.8612C145.048 28.683 145.89 30.8412 147.638 32.4034C149.023 33.6043 150.77 34.3267 152.635 34.2635C154.74 34.3222 156.786 33.4237 158.235 31.8616C159.561 30.3626 160.222 28.3805 160.222 25.8567C160.222 23.0936 159.38 20.9941 157.691 19.4319C156.306 18.1723 154.441 17.5086 152.513 17.5718M152.753 12.2893C156.483 12.2306 160.095 13.8515 162.503 16.6733C164.789 19.1339 166.052 22.4389 165.993 25.798C166.116 29.6989 164.49 33.4237 161.539 36.0018C159.072 38.2231 155.881 39.4241 152.631 39.3654C148.837 39.4873 145.166 37.8664 142.699 34.9814C140.413 32.4575 139.145 29.2203 139.209 25.798C139.091 18.4748 144.926 12.4112 152.273 12.2893H152.753Z" fill="#00B5F1"/>
<path d="M94.1775 46.21C94.1775 46.5079 93.9376 46.7472 93.6343 46.7472H1.6609C1.29876 46.7472 1 46.5666 1 46.3273V46.1467C1 45.9075 1.29876 45.7269 1.6609 45.7269H93.5755C93.9376 45.7269 94.1775 45.9075 94.1775 46.21ZM103.869 45.7269H165.509C165.749 45.7269 165.93 45.9075 165.93 46.1467V46.3273C165.93 46.5666 165.749 46.7472 165.509 46.7472H103.933C103.634 46.7472 103.389 46.5079 103.389 46.21C103.389 45.912 103.57 45.6682 103.869 45.7269C103.869 45.6877 103.869 45.6877 103.869 45.7269Z" fill="#00B5F1"/>
<path d="M2.29014 67.2384V60.9701H0.998047V59.7963H2.29014V54.115H6.80338C8.85374 54.115 10.4188 54.6353 11.4986 55.676C12.5784 56.7167 13.1183 58.2777 13.1183 60.359C13.1183 64.9392 11.0133 67.2323 6.79731 67.2323H2.29014V67.2384ZM4.04327 55.5852V59.7963H7.98628V60.9701H4.04327V65.7681H6.95503C7.27654 65.7681 7.58591 65.7499 7.88316 65.7015C8.18647 65.6592 8.56257 65.5382 9.01753 65.3325C9.4725 65.1267 9.86073 64.8605 10.1762 64.5157C10.4916 64.1708 10.7767 63.6626 11.0133 62.991C11.2499 62.3194 11.3712 61.5207 11.3712 60.601C11.3712 58.9614 11.0254 57.715 10.34 56.8619C9.65448 56.0088 8.53224 55.5852 6.98536 55.5852H4.0372H4.04327Z" fill="#00B5F1"/>
<path d="M21.2839 61.7446L23.862 61.4118C24.2321 61.3634 24.4747 61.2122 24.6021 60.952C24.6749 60.8068 24.7113 60.595 24.7113 60.3288C24.7113 59.2881 23.9591 58.7678 22.4426 58.7678C21.5812 58.7678 20.9806 58.9917 20.6348 59.4455C20.4407 59.6754 20.3073 60.0505 20.2466 60.5648H18.7361C18.7483 59.3789 19.1304 58.55 19.8766 58.0841C20.6409 57.6182 21.5023 57.3883 22.4729 57.3883C23.6012 57.3883 24.5172 57.6061 25.2209 58.0478C25.9306 58.4653 26.2885 59.1308 26.2885 60.0505V65.5806C26.2885 65.7621 26.3249 65.9013 26.3977 65.992C26.4705 66.0828 26.61 66.1312 26.8223 66.1312C26.883 66.1312 27.0589 66.1191 27.3562 66.0949V67.2686C26.974 67.3775 26.5979 67.432 26.2339 67.432C25.6819 67.432 25.2755 67.2384 25.0146 66.8451C24.8933 66.6394 24.8023 66.3429 24.7356 65.9618C24.3777 66.4155 23.8924 66.7967 23.2676 67.0992C22.6427 67.4017 21.9815 67.5591 21.2657 67.5591C20.3801 67.5591 19.6521 67.2868 19.0758 66.7483C18.5117 66.1977 18.2266 65.5201 18.2266 64.7093C18.2266 63.8381 18.4935 63.1544 19.0394 62.6522C19.5793 62.15 20.3194 61.8414 21.2657 61.7325L21.2839 61.7446ZM21.6722 66.1917C22.2363 66.1917 22.7823 66.0586 23.31 65.7863C24.2199 65.3567 24.6749 64.6488 24.6749 63.6565V62.3497C24.2806 62.5977 23.7165 62.7611 22.9824 62.8458L22.0058 62.9728C21.4295 63.0455 20.9867 63.1665 20.6773 63.3419C20.1859 63.6142 19.9433 64.0559 19.9433 64.6851C19.9433 65.1389 20.1071 65.5019 20.4407 65.7802C20.7744 66.0586 21.1808 66.1917 21.6722 66.1917ZM20.0889 53.8972H20.9927C21.0777 54.2784 21.2172 54.5688 21.4174 54.7806C21.7753 55.1376 22.297 55.313 22.9824 55.313C23.6679 55.313 24.135 55.1376 24.4565 54.7806C24.6506 54.5749 24.7962 54.2784 24.8812 53.8972H25.7668C25.5484 55.549 24.5597 56.3779 22.8187 56.3779C21.751 56.3779 20.9867 56.0209 20.5317 55.313C20.2951 54.9439 20.1495 54.472 20.0889 53.8972ZM22.1696 70.2515V68.3759H23.862V70.2515H22.1696Z" fill="#00B5F1"/>
<path d="M34.7924 57.7394H36.6911V59.1189H34.7924V65.0181C34.7924 65.3871 34.8652 65.617 35.0108 65.7138C35.1563 65.8107 35.4778 65.8591 35.9692 65.8591H36.685V67.2386H35.49C34.6407 67.2386 34.0523 67.0994 33.7187 66.8271C33.385 66.5488 33.2212 65.9982 33.2212 65.1633V59.1189H31.6016V57.7394H33.2212V54.8896H34.7863V57.7394H34.7924Z" fill="#00B5F1"/>
<path d="M44.6389 54.1147H46.204V61.8895L50.5534 57.7389H52.6523L48.8731 61.1937L52.9253 67.2381H50.9356L47.672 62.2768L46.1979 63.6381V67.2381H44.6328V54.1147H44.6389Z" fill="#00B5F1"/>
<path d="M57.7969 54.1147H59.3619V59.1305H59.3983C59.6167 58.5921 60.0171 58.1867 60.5873 57.9205C61.1575 57.6542 61.7642 57.5151 62.4011 57.5151C63.5779 57.5151 64.4211 57.8176 64.9246 58.4226C65.4281 59.0277 65.6768 59.8868 65.6768 60.988V67.2381H64.1118V60.8065C64.1118 60.2196 63.9419 59.7537 63.5961 59.4089C63.2504 59.064 62.7772 58.8946 62.1767 58.8946C61.2546 58.8946 60.557 59.1668 60.0778 59.7114C59.5985 60.2559 59.3619 60.9759 59.3619 61.8714V67.2381H57.7969V54.1147Z" fill="#00B5F1"/>
<path d="M80.1627 67.202C79.8897 67.3593 79.5196 67.438 79.0404 67.438C78.1547 67.438 77.7119 66.954 77.7119 65.9859C76.8991 66.954 75.7829 67.438 74.3573 67.438C73.4231 67.438 72.6649 67.2262 72.0825 66.7966C71.5002 66.3671 71.209 65.7015 71.209 64.794C71.209 64.2797 71.2939 63.844 71.4698 63.481C71.6397 63.118 71.8945 62.8336 72.2342 62.6279C72.5739 62.4222 72.9014 62.2649 73.229 62.156C73.5566 62.0531 73.957 61.9563 74.4362 61.8716C74.6667 61.8232 74.9457 61.7748 75.2672 61.7264C75.5888 61.678 75.8435 61.6417 76.0437 61.6175C76.2378 61.5933 76.4502 61.5509 76.6807 61.4965C76.9051 61.442 77.081 61.3755 77.2024 61.2968C77.3237 61.2182 77.4268 61.1093 77.5178 60.9761C77.6027 60.843 77.6452 60.6736 77.6452 60.48C77.6452 59.4272 76.9415 58.9009 75.5281 58.9009C74.0055 58.9009 73.2108 59.4998 73.1502 60.7039H71.5851C71.6336 59.6027 72.0279 58.798 72.7619 58.2837C73.502 57.7755 74.4483 57.5214 75.6191 57.5214C78.0031 57.5214 79.1921 58.3926 79.1921 60.1291V65.0178C79.1921 65.4474 79.2163 65.7318 79.2649 65.8709C79.3134 66.0101 79.4529 66.0827 79.6895 66.0827C79.7987 66.0827 79.9564 66.0525 80.1687 65.9919V67.202H80.1627ZM77.6209 62.3314C77.3722 62.513 76.9658 62.6582 76.3895 62.755C75.8132 62.8518 75.2733 62.9244 74.7759 62.9667C74.2785 63.0091 73.8356 63.1724 73.4474 63.4508C73.0592 63.7351 72.865 64.1405 72.865 64.679C72.865 65.157 73.041 65.5079 73.3928 65.7378C73.7446 65.9677 74.1814 66.0767 74.7092 66.0767C75.6555 66.0767 76.3774 65.8528 76.8748 65.399C77.3722 64.9452 77.6209 64.4551 77.6209 63.9288V62.3314ZM75.9649 53.8064H77.9728L75.5584 56.4323H74.3816L75.9649 53.8064Z" fill="#00B5F1"/>
<path d="M85.3066 57.7389H86.7807V59.1366H86.8171C87.5269 58.0596 88.552 57.5211 89.8927 57.5211C91.2333 57.5211 92.1554 58.0596 92.5072 59.1366C93.1805 58.0596 94.1754 57.5211 95.4918 57.5211C97.6028 57.5211 98.6583 58.4408 98.6583 60.2801V67.2441H97.0932V61.0122C97.0932 60.3406 96.9658 59.8203 96.705 59.4512C96.4441 59.0821 95.9588 58.9006 95.2491 58.9006C94.4726 58.9006 93.866 59.1184 93.4232 59.5601C92.9804 60.0018 92.762 60.5887 92.762 61.3268V67.2441H91.1969V61.0122C91.1969 60.3406 91.0634 59.8203 90.8026 59.4512C90.5357 59.0821 90.0747 58.9006 89.4134 58.9006C88.6006 58.9006 87.9758 59.1789 87.5329 59.7356C87.0901 60.2922 86.8717 60.8246 86.8717 61.3268V67.2441H85.3066V57.745V57.7389Z" fill="#00B5F1"/>
<path d="M109.472 61.2039V67.1598H107.947V57.2591H109.421V58.8061H109.55C109.783 58.3033 110.136 57.8994 110.61 57.5943C111.084 57.2849 111.696 57.1302 112.445 57.1302C113.117 57.1302 113.705 57.2677 114.209 57.5427C114.714 57.8134 115.106 58.226 115.386 58.7803C115.666 59.3303 115.806 60.0265 115.806 60.8687V67.1598H114.281V60.9718C114.281 60.1941 114.078 59.5882 113.673 59.1541C113.268 58.7158 112.712 58.4967 112.006 58.4967C111.519 58.4967 111.084 58.602 110.7 58.8125C110.321 59.0231 110.022 59.3303 109.802 59.7343C109.582 60.1382 109.472 60.6281 109.472 61.2039Z" fill="#00B5F1"/>
<path d="M121.756 61.2039V67.1598H120.231V53.9589H121.756V58.8061H121.885C122.118 58.2947 122.467 57.8886 122.932 57.5878C123.402 57.2827 124.026 57.1302 124.806 57.1302C125.482 57.1302 126.075 57.2655 126.583 57.5363C127.092 57.8027 127.486 58.2131 127.766 58.7674C128.05 59.3174 128.192 60.0179 128.192 60.8687V67.1598H126.667V60.9718C126.667 60.1855 126.463 59.5774 126.053 59.1477C125.648 58.7137 125.086 58.4967 124.367 58.4967C123.867 58.4967 123.419 58.602 123.022 58.8125C122.63 59.0231 122.32 59.3303 122.092 59.7343C121.868 60.1382 121.756 60.6281 121.756 61.2039Z" fill="#00B5F1"/>
<path d="M135.542 67.3918C134.913 67.3918 134.342 67.2737 133.829 67.0373C133.316 66.7967 132.909 66.4507 132.608 65.9995C132.306 65.544 132.155 64.994 132.155 64.3494C132.155 63.7822 132.267 63.3224 132.491 62.97C132.715 62.6134 133.015 62.3341 133.39 62.1321C133.764 61.9301 134.178 61.7797 134.63 61.6809C135.087 61.5778 135.546 61.4961 136.007 61.4359C136.61 61.3586 137.099 61.3006 137.474 61.2619C137.853 61.2189 138.129 61.148 138.301 61.0492C138.478 60.9504 138.566 60.7785 138.566 60.5335V60.482C138.566 59.846 138.392 59.3518 138.043 58.9994C137.698 58.6471 137.174 58.4709 136.472 58.4709C135.744 58.4709 135.173 58.6299 134.76 58.9479C134.346 59.2659 134.055 59.6053 133.887 59.9663L132.44 59.4506C132.698 58.849 133.043 58.3807 133.474 58.0455C133.909 57.706 134.383 57.4697 134.895 57.3364C135.412 57.1989 135.921 57.1302 136.42 57.1302C136.739 57.1302 137.105 57.1689 137.519 57.2462C137.937 57.3193 138.34 57.4718 138.728 57.7038C139.12 57.9359 139.445 58.2861 139.703 58.7545C139.962 59.2229 140.091 59.8503 140.091 60.6367V67.1598H138.566V65.8191H138.488C138.385 66.0339 138.213 66.2638 137.971 66.5088C137.73 66.7537 137.409 66.9621 137.009 67.134C136.608 67.3059 136.119 67.3918 135.542 67.3918ZM135.774 66.0253C136.377 66.0253 136.886 65.9072 137.299 65.6708C137.717 65.4345 138.032 65.1294 138.243 64.7555C138.458 64.3817 138.566 63.9885 138.566 63.5759V62.1837C138.501 62.261 138.359 62.3319 138.14 62.3964C137.924 62.4565 137.674 62.5102 137.39 62.5575C137.11 62.6005 136.836 62.6392 136.569 62.6735C136.306 62.7036 136.093 62.7294 135.929 62.7509C135.533 62.8024 135.162 62.8862 134.818 63.0023C134.477 63.114 134.202 63.2837 133.991 63.5115C133.784 63.7349 133.68 64.04 133.68 64.4268C133.68 64.9553 133.876 65.355 134.268 65.6257C134.665 65.8921 135.167 66.0253 135.774 66.0253Z" fill="#00B5F1"/>
<path d="M146.038 61.2039V67.1598H144.513V57.2591H145.986V58.8061H146.116C146.348 58.3033 146.701 57.8994 147.175 57.5943C147.649 57.2849 148.261 57.1302 149.011 57.1302C149.683 57.1302 150.271 57.2677 150.775 57.5427C151.279 57.8134 151.671 58.226 151.951 58.7803C152.231 59.3303 152.371 60.0265 152.371 60.8687V67.1598H150.846V60.9718C150.846 60.1941 150.644 59.5882 150.239 59.1541C149.834 58.7158 149.278 58.4967 148.571 58.4967C148.084 58.4967 147.649 58.602 147.266 58.8125C146.887 59.0231 146.587 59.3303 146.368 59.7343C146.148 60.1382 146.038 60.6281 146.038 61.2039Z" fill="#00B5F1"/>
<path d="M158.321 61.2039V67.1598H156.796V53.9589H158.321V58.8061H158.451C158.683 58.2947 159.032 57.8886 159.497 57.5878C159.967 57.2827 160.592 57.1302 161.372 57.1302C162.048 57.1302 162.64 57.2655 163.149 57.5363C163.657 57.8027 164.051 58.2131 164.331 58.7674C164.616 59.3174 164.758 60.0179 164.758 60.8687V67.1598H163.233V60.9718C163.233 60.1855 163.028 59.5774 162.619 59.1477C162.214 58.7137 161.652 58.4967 160.932 58.4967C160.432 58.4967 159.984 58.602 159.588 58.8125C159.196 59.0231 158.886 59.3303 158.657 59.7343C158.433 60.1382 158.321 60.6281 158.321 61.2039Z" fill="#00B5F1"/>
</svg>
