<svg width="25" height="24" viewBox="0 0 25 24" fill="none" xmlns="http://www.w3.org/2000/svg">
<g clip-path="url(#clip0_5225_60815)">
<path fill-rule="evenodd" clip-rule="evenodd" d="M11.6 2.85345C9.05714 1.10649 5.52744 0.310949 2.89319 0.0132819C1.57571 -0.135593 0.5 0.964584 0.5 2.32197V15.8397C0.5 17.1971 1.57571 18.2977 2.89319 18.4465C5.52744 18.7442 9.05714 19.5397 11.6 21.2867V2.85345ZM13.4 21.2867C15.9429 19.5397 19.4726 18.7442 22.1068 18.4465C23.4243 18.2977 24.5 17.1971 24.5 15.8397V2.32197C24.5 0.964584 23.4243 -0.135593 22.1068 0.0132819C19.4726 0.310949 15.9429 1.10649 13.4 2.85345V21.2867ZM3.21021 6.16744C3.28628 5.67624 3.74615 5.33971 4.23735 5.41578C5.80068 5.6579 7.56126 6.06258 9.22422 6.70564C9.68782 6.88492 9.91831 7.40607 9.73903 7.86967C9.55976 8.33327 9.0386 8.56376 8.575 8.38449C7.06463 7.80043 5.4364 7.42294 3.96187 7.19458C3.47067 7.11851 3.13414 6.65864 3.21021 6.16744ZM4.23735 10.2158C3.74615 10.1398 3.28628 10.4763 3.21021 10.9675C3.13414 11.4587 3.47067 11.9186 3.96187 11.9946C4.70496 12.1097 5.48937 12.263 6.27944 12.4623C6.7614 12.5839 7.25067 12.2918 7.37226 11.8099C7.49386 11.3279 7.20173 10.8386 6.71978 10.717C5.86897 10.5024 5.02903 10.3384 4.23735 10.2158Z" fill="#00B5F1"/>
</g>
<defs>
<clipPath id="clip0_5225_60815">
<rect width="24" height="24" fill="white" transform="translate(0.5 -0.000244141)"/>
</clipPath>
</defs>
</svg>
