<svg width="24" height="24" viewBox="0 0 24 24" fill="none" xmlns="http://www.w3.org/2000/svg">
<path fill-rule="evenodd" clip-rule="evenodd" d="M2.94283 7.20379C2.99904 6.84085 3.33883 6.59219 3.70177 6.6484C5.25351 6.88872 6.99681 7.28984 8.63985 7.92521C8.9824 8.05767 9.15271 8.44275 9.02024 8.7853C8.88778 9.12785 8.5027 9.29815 8.16015 9.16569C6.62986 8.57392 4.98435 8.19289 3.49823 7.96273C3.13528 7.90652 2.88663 7.56673 2.94283 7.20379ZM2.94283 12.0038C2.99904 11.6408 3.33883 11.3922 3.70177 11.4484C4.48711 11.57 5.3198 11.7326 6.16268 11.9452C6.51879 12.0351 6.73464 12.3966 6.64479 12.7527C6.55495 13.1088 6.19343 13.3247 5.83732 13.2348C5.03932 13.0335 4.24766 12.8788 3.49823 12.7627C3.13528 12.7065 2.88663 12.3667 2.94283 12.0038ZM11.6226 4.11646C11.8693 4.18349 12.1307 4.1835 12.3774 4.11646C12.5332 4.07414 12.6831 4.0051 12.8198 3.90934C15.3682 2.12358 18.9448 1.31434 21.6068 1.01353C22.9243 0.864651 24 1.96483 24 3.32222V16.8399C24 18.1973 22.9243 19.2979 21.6068 19.4468C18.9448 19.7476 15.3682 20.5568 12.8198 22.3426C12.33 22.6858 11.67 22.6858 11.1802 22.3426C8.63175 20.5568 5.05525 19.7476 2.39319 19.4468C1.07571 19.2979 0 18.1973 0 16.8399V3.32222C0 1.96483 1.07571 0.864651 2.39319 1.01353C5.05525 1.31434 8.63175 2.12358 11.1802 3.90934C11.3169 4.0051 11.4668 4.07414 11.6226 4.11646ZM11.335 5.41587C11.0117 5.33597 10.7 5.19686 10.417 4.99854C8.14169 3.40421 4.83138 2.6275 2.24386 2.33512C1.83804 2.28926 1.33 2.62936 1.33 3.32222V16.8399C1.33 17.4665 1.84239 18.0461 2.54253 18.1252C5.08706 18.4127 8.58789 19.1607 11.335 20.8537V5.41587ZM12.665 20.8537V5.41587C12.9883 5.33597 13.3 5.19686 13.583 4.99854C15.8583 3.40421 19.1686 2.6275 21.7561 2.33512C22.162 2.28926 22.67 2.62936 22.67 3.32222V16.8399C22.67 17.4665 22.1576 18.0461 21.4575 18.1252C18.9129 18.4127 15.4121 19.1607 12.665 20.8537Z" fill="#003553"/>
</svg>
