<svg width="25" height="24" viewBox="0 0 25 24" fill="none" xmlns="http://www.w3.org/2000/svg">
<path d="M24.5 12.5835C24.4394 12.5929 24.4384 12.6497 24.4225 12.6887C24.0268 13.6761 23.2928 14.1876 22.2411 14.1773C22.0179 14.1749 21.9597 14.2242 21.9606 14.4539C21.9705 16.7541 21.97 19.0543 21.9653 21.3546C21.9625 22.6181 21.1796 23.6177 19.9719 23.9202C19.7431 23.9775 19.51 23.9939 19.2746 23.9939C18.0693 23.992 16.8639 23.9939 15.6586 23.993C15.1018 23.993 14.8311 23.7182 14.8311 23.1526C14.8306 21.3611 14.8118 19.5692 14.84 17.7781C14.8523 16.9993 14.3128 16.4126 13.4975 16.4408C12.841 16.4638 12.1827 16.4446 11.5253 16.4455C10.6888 16.4469 10.2119 16.919 10.2114 17.7495C10.2105 19.541 10.2114 21.3325 10.2114 23.1244C10.2114 23.7341 9.95155 23.993 9.34067 23.993C8.16683 23.993 6.99205 23.9676 5.81868 23.9991C4.25247 24.0418 3.03775 22.8003 3.06594 21.2409C3.10635 18.9961 3.07628 16.7504 3.07628 14.5051C3.07628 14.2916 2.97024 14.1843 2.75815 14.1834C1.44005 14.1768 0.448067 13.1608 0.502106 11.863C0.522783 11.3632 0.702759 10.9198 1.02841 10.5384C1.1097 10.4435 1.19898 10.3552 1.28733 10.2664C4.41882 7.13524 7.55359 4.00645 10.6809 0.870144C11.0662 0.484035 11.4727 0.151005 12.0055 -0.000244141H13.0859C13.6935 0.193749 14.1215 0.629648 14.5567 1.06602C17.457 3.9731 20.3624 6.87502 23.2684 9.77647C23.7566 10.2636 24.2787 10.7225 24.5 11.4092V12.583V12.5835ZM4.48507 17.4841C4.48507 18.7594 4.48413 20.0346 4.48507 21.3099C4.48601 22.0958 4.97284 22.5829 5.75618 22.5838C6.68755 22.5852 7.61891 22.5772 8.55028 22.5894C8.75375 22.5923 8.80779 22.5467 8.80685 22.3367C8.79792 20.7406 8.78758 19.1445 8.80967 17.5489C8.82799 16.2525 9.82092 15.1792 11.108 15.0678C12.0201 14.9889 12.9378 15.0303 13.8532 15.0542C13.9618 15.057 14.0717 15.0735 14.1784 15.0974C15.4274 15.3746 16.2352 16.391 16.2394 17.7025C16.2441 19.2591 16.2441 20.8163 16.2361 22.3729C16.2352 22.5519 16.2827 22.5913 16.4561 22.5894C17.3794 22.58 18.3033 22.5852 19.2267 22.5852C20.0899 22.5852 20.5574 22.1174 20.5574 21.2526C20.5574 18.6941 20.5574 16.136 20.5579 13.5774C20.5579 13.0626 20.8417 12.7784 21.3544 12.7761C21.6909 12.7742 22.0278 12.7808 22.3643 12.7733C22.7082 12.7653 22.9921 12.5431 23.0959 12.2152C23.2233 11.8132 23.032 11.5299 22.7613 11.2603C19.5763 8.08173 16.395 4.89986 13.2123 1.71892C12.7254 1.23277 12.3161 1.23558 11.8227 1.72832C8.9887 4.56072 6.15514 7.39359 3.32157 10.226C2.93437 10.613 2.54481 10.9982 2.15948 11.3881C1.90338 11.6474 1.82773 11.9564 1.9734 12.2918C2.1139 12.615 2.37799 12.7766 2.73512 12.7766C3.04057 12.7766 3.34554 12.7766 3.65098 12.7766C4.20924 12.778 4.48413 13.0528 4.48413 13.6131C4.4846 14.9039 4.48413 16.1952 4.48413 17.486L4.48507 17.4841Z" fill="#003553"/>
</svg>
