<svg width="25" height="24" viewBox="0 0 25 24" fill="none" xmlns="http://www.w3.org/2000/svg">
<path d="M9.63986 23.9995H5.2336C5.17638 23.894 5.06618 23.954 4.98365 23.9283C4.42184 23.7524 3.94586 23.4565 3.58898 22.9853C3.29542 22.5979 3.0858 22.1661 3.08392 21.6732C3.07361 19.2771 3.07501 16.8809 3.07267 14.4843C3.07267 14.4219 3.07501 14.3591 3.07173 14.2972C3.06939 14.2545 3.07548 14.1931 2.99951 14.2245C2.78332 14.3136 2.56995 14.2208 2.36268 14.1945C1.8881 14.135 1.48714 13.9071 1.1434 13.5699C0.815135 13.2478 0.635996 12.8483 0.5 12.4216V11.5311C0.627555 11.1602 0.782778 10.8029 1.06509 10.5206C4.34165 7.23958 7.62056 3.95999 10.9013 0.681333C10.9989 0.584268 11.1035 0.493298 11.2113 0.405142C11.4697 0.195069 11.7975 0.152397 12.0775 0H12.8742C12.8799 0.0623657 12.9483 0.0689305 12.9765 0.0740886C13.5204 0.179125 13.9266 0.513462 14.2975 0.888125C16.0471 2.65453 17.8278 4.38951 19.5573 6.17655C20.9519 7.61705 22.3869 9.01911 23.8088 10.4334C24.1141 10.7372 24.3382 11.0781 24.4053 11.509C24.4151 11.5709 24.4456 11.6047 24.5 11.6244V11.7651C24.4236 11.8274 24.4465 11.8903 24.5 11.9526V12.0464C24.4461 12.1088 24.4236 12.1716 24.5 12.234V12.4216C24.4165 12.4455 24.4222 12.5139 24.4025 12.5829C24.2477 13.132 23.9194 13.5582 23.4453 13.8691C23.0439 14.1326 22.5961 14.233 22.1187 14.2016C21.9836 14.1926 21.9184 14.2067 21.9189 14.3807C21.9269 16.5288 21.9273 18.6769 21.9208 20.825C21.9198 21.1335 21.9316 21.4402 21.8837 21.753C21.7477 22.642 21.2736 23.2727 20.5153 23.7187C20.2527 23.8729 19.953 23.9076 19.6712 23.9991H15.3114C14.9249 23.8392 14.7946 23.548 14.7974 23.1363C14.8105 21.3628 14.8021 19.5894 14.8044 17.8164C14.8044 17.5913 14.7904 17.3677 14.6895 17.166C14.4297 16.6469 13.9758 16.4645 13.4243 16.4645C12.7757 16.4645 12.1272 16.4791 11.4791 16.4608C10.7696 16.4406 10.1585 16.9728 10.1782 17.7597C10.2228 19.5242 10.1857 21.2906 10.1965 23.0561C10.1993 23.4973 10.0657 23.827 9.6394 24L9.63986 23.9995Z" fill="#00B5F1"/>
</svg>
