<svg width="25" height="25" viewBox="0 0 25 25" fill="none" xmlns="http://www.w3.org/2000/svg">
<path fill-rule="evenodd" clip-rule="evenodd" d="M22.0992 12.0341V4.50024C22.0992 2.2911 20.3084 0.500244 18.0992 0.500244H6.89922C4.69008 0.500244 2.89922 2.29111 2.89922 4.50024V12.0341C3.28515 11.9465 3.68679 11.9002 4.09922 11.9002H5.29922C6.6212 11.9002 7.86603 12.5227 8.65922 13.5802L10.0992 15.5002C10.6658 16.2557 11.5549 16.7002 12.4992 16.7002C13.4435 16.7002 14.3327 16.2557 14.8992 15.5002L16.3392 13.5802C17.1324 12.5227 18.3772 11.9002 19.6992 11.9002H20.8992C21.3117 11.9002 21.7133 11.9465 22.0992 12.0341ZM13.3996 4.10024C13.3996 3.60319 12.9967 3.20024 12.4996 3.20024C12.0026 3.20024 11.5996 3.60319 11.5996 4.10024V6.80024H8.89961C8.40255 6.80024 7.99961 7.20319 7.99961 7.70024C7.99961 8.1973 8.40255 8.60024 8.89961 8.60024H11.5996V11.3002C11.5996 11.7973 12.0026 12.2002 12.4996 12.2002C12.9967 12.2002 13.3996 11.7973 13.3996 11.3002V8.60024H16.0996C16.5967 8.60024 16.9996 8.1973 16.9996 7.70024C16.9996 7.20319 16.5967 6.80024 16.0996 6.80024H13.3996V4.10024ZM24.5 16.7002V21.5002C24.5 23.1571 23.1569 24.5002 21.5 24.5002H3.5C1.84315 24.5002 0.5 23.1571 0.5 21.5002V16.7002C0.5 15.0434 1.84315 13.7002 3.5 13.7002H5.5C6.12951 13.7002 6.72229 13.9966 7.1 14.5002L8.9 16.9002C9.65542 17.9075 10.841 18.5002 12.1 18.5002H12.9C14.159 18.5002 15.3446 17.9075 16.1 16.9002L17.9 14.5002C18.2777 13.9966 18.8705 13.7002 19.5 13.7002H21.5C23.1569 13.7002 24.5 15.0434 24.5 16.7002Z" fill="#00B5F1"/>
</svg>
