<svg width="25" height="24" viewBox="0 0 25 24" fill="none" xmlns="http://www.w3.org/2000/svg">
<g clip-path="url(#clip0_5225_60766)">
<path d="M13.1667 5.25C13.1667 4.88181 12.8682 4.58333 12.5 4.58333C12.1318 4.58333 11.8333 4.88181 11.8333 5.25H13.1667ZM11.8333 12C11.8333 12.3682 12.1318 12.6667 12.5 12.6667C12.8682 12.6667 13.1667 12.3682 13.1667 12H11.8333ZM15.875 9.29167C16.2432 9.29167 16.5417 8.99319 16.5417 8.625C16.5417 8.25681 16.2432 7.95833 15.875 7.95833V9.29167ZM9.125 7.95833C8.75681 7.95833 8.45833 8.25681 8.45833 8.625C8.45833 8.99319 8.75681 9.29167 9.125 9.29167V7.95833ZM7.55 14.025L7.01667 14.425L7.01667 14.425L7.55 14.025ZM8.9 15.825L9.43333 15.425L8.9 15.825ZM16.1 15.825L15.5667 15.425H15.5667L16.1 15.825ZM17.45 14.025L16.9167 13.625V13.625L17.45 14.025ZM11.8333 5.25V12H13.1667V5.25H11.8333ZM15.875 7.95833H9.125V9.29167H15.875V7.95833ZM23.0833 16.5V19.875H24.4167V16.5H23.0833ZM20.375 22.5833H4.625V23.9167H20.375V22.5833ZM1.91667 19.875V16.5H0.583333V19.875H1.91667ZM4.625 13.7917H5.75V12.4583H4.625V13.7917ZM7.01667 14.425L8.36667 16.225L9.43333 15.425L8.08333 13.625L7.01667 14.425ZM19.25 13.7917H20.375V12.4583H19.25V13.7917ZM16.6333 16.225L17.9833 14.425L16.9167 13.625L15.5667 15.425L16.6333 16.225ZM12.5 18.2917C14.1262 18.2917 15.6576 17.526 16.6333 16.225L15.5667 15.425C14.8427 16.3903 13.7066 16.9583 12.5 16.9583V18.2917ZM19.25 12.4583C18.332 12.4583 17.4675 12.8906 16.9167 13.625L17.9833 14.425C18.2824 14.0263 18.7516 13.7917 19.25 13.7917V12.4583ZM8.36667 16.225C9.34241 17.526 10.8738 18.2917 12.5 18.2917V16.9583C11.2934 16.9583 10.1573 16.3903 9.43333 15.425L8.36667 16.225ZM5.75 13.7917C6.24837 13.7917 6.71765 14.0263 7.01667 14.425L8.08333 13.625C7.53251 12.8906 6.66804 12.4583 5.75 12.4583V13.7917ZM4.625 22.5833C3.12923 22.5833 1.91667 21.3708 1.91667 19.875H0.583333C0.583333 22.1072 2.39285 23.9167 4.625 23.9167V22.5833ZM23.0833 19.875C23.0833 21.3708 21.8708 22.5833 20.375 22.5833V23.9167C22.6072 23.9167 24.4167 22.1072 24.4167 19.875H23.0833ZM24.4167 16.5C24.4167 14.2679 22.6072 12.4583 20.375 12.4583V13.7917C21.8708 13.7917 23.0833 15.0042 23.0833 16.5H24.4167ZM1.91667 16.5C1.91667 15.0042 3.12923 13.7917 4.625 13.7917V12.4583C2.39285 12.4583 0.583333 14.2679 0.583333 16.5H1.91667ZM22.1667 13.125V5.25H20.8333V13.125H22.1667ZM17 0.0833333H8V1.41667H17V0.0833333ZM2.83333 5.25V13.125H4.16667V5.25H2.83333ZM8 0.0833333C5.14653 0.0833333 2.83333 2.39653 2.83333 5.25H4.16667C4.16667 3.13291 5.88291 1.41667 8 1.41667V0.0833333ZM22.1667 5.25C22.1667 2.39653 19.8535 0.0833333 17 0.0833333V1.41667C19.1171 1.41667 20.8333 3.13291 20.8333 5.25H22.1667Z" fill="#003553"/>
</g>
<defs>
<clipPath id="clip0_5225_60766">
<rect width="24" height="24" fill="white" transform="translate(0.5)"/>
</clipPath>
</defs>
</svg>
