<svg width="173" height="52" viewBox="0 0 173 52" fill="none" xmlns="http://www.w3.org/2000/svg">
<path d="M5.17148 0H167.556C170.417 0 172.727 2.33008 172.727 5.2166V46.6016C172.727 49.4881 170.417 51.8182 167.556 51.8182H5.17148C2.30993 51.8182 0 49.4881 0 46.6016V5.2166C0 2.33008 2.30993 0 5.17148 0Z" fill="black"/>
<path d="M40.31 35.0326C39.8473 36.0945 39.3076 37.0805 38.6521 37.9527C37.7653 39.1663 37.0714 40.0006 36.5316 40.4936C35.6834 41.2521 34.758 41.6692 33.7942 41.6692C33.1002 41.6692 32.252 41.4796 31.2495 41.0625C30.2471 40.6832 29.3603 40.4557 28.5121 40.4557C27.6253 40.4557 26.7 40.6453 25.6976 41.0625C24.6951 41.4417 23.8855 41.6692 23.2686 41.7072C22.3433 41.7451 21.4179 41.3279 20.4541 40.4936C19.8757 40.0006 19.1046 39.0904 18.2179 37.8769C17.254 36.5496 16.4829 35.0326 15.866 33.2882C15.2877 31.392 14.9407 29.5338 14.9407 27.7893C14.9407 25.7794 15.4033 23.997 16.2901 22.5559C16.9841 21.3802 17.9094 20.4322 19.1046 19.7495C20.2613 19.0669 21.5336 18.7256 22.883 18.6877C23.6156 18.6877 24.618 18.9152 25.8132 19.3703C27.0085 19.8254 27.7796 20.0529 28.1266 20.0529C28.3964 20.0529 29.2447 19.7875 30.7097 19.2565C32.0977 18.7635 33.2544 18.5739 34.2183 18.6498C36.8015 18.8394 38.7678 19.8633 40.0401 21.6836C37.7268 23.0489 36.5701 24.983 36.6087 27.4859C36.6472 29.42 37.3412 31.0128 38.7292 32.3022C39.3461 32.9089 40.0787 33.364 40.8498 33.6674C40.6955 34.1225 40.5028 34.5776 40.31 35.0326ZM34.3725 12.0511C34.3725 13.568 33.7942 14.9712 32.6761 16.2985C31.3266 17.8534 29.6688 18.7635 27.8952 18.6118C27.8567 18.4222 27.8567 18.2326 27.8567 18.043C27.8567 16.6019 28.5121 15.047 29.6302 13.7577C30.2085 13.113 30.9411 12.582 31.7893 12.1649C32.6761 11.7477 33.4857 11.5202 34.2954 11.4823C34.3725 11.6339 34.3725 11.8615 34.3725 12.0511Z" fill="white"/>
<path d="M49.8664 12.6305V11.8147H54.7274V12.6305H52.7677V18.0957H51.8231V12.6305H49.8664ZM55.59 18.0957H54.584L56.8443 11.8147H57.9392L60.1995 18.0957H59.1936L57.4178 12.9556H57.3688L55.59 18.0957ZM55.7586 15.6361H59.0218V16.4334H55.7586V15.6361ZM57.7675 11.1645H57.0437L57.0191 10.5389C57.2359 10.5287 57.3892 10.5 57.4792 10.453C57.5691 10.4039 57.6131 10.3334 57.611 10.2414C57.6131 10.131 57.5507 10.0523 57.424 10.0052C57.2992 9.95822 57.1469 9.93471 56.967 9.93471L56.9946 9.42867C57.4587 9.42867 57.8104 9.50227 58.0496 9.64949C58.2909 9.7967 58.4105 9.99502 58.4084 10.2445C58.4105 10.4469 58.344 10.5961 58.2091 10.6922C58.0762 10.7863 57.929 10.8456 57.7675 10.8701V11.1645ZM62.0542 11.8147V18.0957H61.1065V11.8147H62.0542ZM71.3783 11.4866H72.1358C72.1358 11.8934 72.0765 12.2369 71.958 12.517C71.8414 12.7971 71.6492 13.0108 71.3814 13.158C71.1156 13.3032 70.7588 13.3758 70.311 13.3758V12.744C70.6055 12.744 70.8293 12.6959 70.9827 12.5998C71.1381 12.5017 71.2424 12.3596 71.2955 12.1735C71.3507 11.9854 71.3783 11.7564 71.3783 11.4866ZM69.759 11.8147H70.7097V15.9458C70.7097 16.3854 70.6065 16.7749 70.4 17.1143C70.1935 17.4517 69.9031 17.7175 69.529 17.9117C69.1548 18.1039 68.7163 18.2 68.2133 18.2C67.7124 18.2 67.2748 18.1039 66.9007 17.9117C66.5265 17.7175 66.2362 17.4517 66.0297 17.1143C65.8232 16.7749 65.7199 16.3854 65.7199 15.9458V11.8147H66.6676V15.8691C66.6676 16.1533 66.7299 16.4058 66.8547 16.6267C66.9814 16.8475 67.1603 17.0213 67.3914 17.148C67.6224 17.2728 67.8964 17.3351 68.2133 17.3351C68.5322 17.3351 68.8072 17.2728 69.0383 17.148C69.2714 17.0213 69.4492 16.8475 69.5719 16.6267C69.6966 16.4058 69.759 16.1533 69.759 15.8691V11.8147ZM67.8361 11.186L68.5537 9.77216H69.5198L68.569 11.186H67.8361ZM78.2788 11.8147V18.0957H77.4078L74.2152 13.4892H74.1569V18.0957H73.2093V11.8147H74.0864L77.2821 16.4273H77.3404V11.8147H78.2788ZM83.9119 13.799C83.8526 13.6129 83.7729 13.4463 83.6727 13.2991C83.5746 13.1498 83.457 13.0231 83.32 12.9188C83.183 12.8125 83.0266 12.7317 82.8508 12.6765C82.677 12.6213 82.4858 12.5937 82.2773 12.5937C81.9236 12.5937 81.6046 12.6847 81.3204 12.8667C81.0362 13.0486 80.8113 13.3154 80.6457 13.6671C80.4821 14.0167 80.4003 14.4451 80.4003 14.9521C80.4003 15.4612 80.4832 15.8916 80.6488 16.2433C80.8144 16.595 81.0413 16.8618 81.3296 17.0438C81.6179 17.2257 81.9461 17.3167 82.3141 17.3167C82.6555 17.3167 82.953 17.2472 83.2066 17.1082C83.4621 16.9691 83.6594 16.7729 83.7985 16.5193C83.9395 16.2637 84.0101 15.9632 84.0101 15.6177L84.2554 15.6637H82.4582V14.8816H84.9271V15.5962C84.9271 16.1237 84.8146 16.5817 84.5897 16.9702C84.3669 17.3566 84.0581 17.6551 83.6635 17.8657C83.271 18.0763 82.8211 18.1816 82.3141 18.1816C81.7457 18.1816 81.2468 18.0507 80.8174 17.789C80.3901 17.5273 80.0569 17.1562 79.8176 16.6757C79.5784 16.1932 79.4588 15.6207 79.4588 14.9583C79.4588 14.4573 79.5283 14.0075 79.6674 13.6088C79.8064 13.2101 80.0016 12.8718 80.2531 12.5937C80.5067 12.3136 80.8042 12.0999 81.1456 11.9527C81.4891 11.8035 81.8643 11.7288 82.2711 11.7288C82.6106 11.7288 82.9264 11.7789 83.2188 11.8791C83.5132 11.9793 83.7749 12.1214 84.0039 12.3054C84.235 12.4894 84.4262 12.7082 84.5775 12.9617C84.7288 13.2132 84.831 13.4923 84.8841 13.799H83.9119ZM90.449 18.0957H88.4157V11.8147H90.5134C91.1288 11.8147 91.6574 11.9405 92.099 12.1919C92.5406 12.4414 92.879 12.8002 93.1141 13.2684C93.3513 13.7346 93.4699 14.2938 93.4699 14.946C93.4699 15.6003 93.3503 16.1625 93.1111 16.6328C92.8739 17.1031 92.5304 17.4649 92.0806 17.7185C91.6308 17.97 91.0869 18.0957 90.449 18.0957ZM89.3633 17.2676H90.3969C90.8753 17.2676 91.273 17.1777 91.5899 16.9978C91.9068 16.8158 92.144 16.5531 92.3014 16.2096C92.4588 15.864 92.5376 15.4428 92.5376 14.946C92.5376 14.4533 92.4588 14.0351 92.3014 13.6916C92.146 13.3482 91.914 13.0875 91.6052 12.9096C91.2965 12.7317 90.9131 12.6428 90.4551 12.6428H89.3633V17.2676ZM98.6874 11.8147H99.6382V15.9458C99.6382 16.3854 99.5349 16.7749 99.3284 17.1143C99.1219 17.4517 98.8316 17.7175 98.4574 17.9117C98.0833 18.1039 97.6447 18.2 97.1417 18.2C96.6408 18.2 96.2033 18.1039 95.8291 17.9117C95.4549 17.7175 95.1646 17.4517 94.9581 17.1143C94.7516 16.7749 94.6484 16.3854 94.6484 15.9458V11.8147H95.596V15.8691C95.596 16.1533 95.6584 16.4058 95.7831 16.6267C95.9099 16.8475 96.0888 17.0213 96.3198 17.148C96.5508 17.2728 96.8248 17.3351 97.1417 17.3351C97.4607 17.3351 97.7357 17.2728 97.9667 17.148C98.1998 17.0213 98.3777 16.8475 98.5004 16.6267C98.6251 16.4058 98.6874 16.1533 98.6874 15.8691V11.8147ZM97.1417 19.7825C96.9843 19.7825 96.8483 19.7293 96.7338 19.623C96.6193 19.5167 96.5621 19.3879 96.5621 19.2366C96.5621 19.0853 96.6193 18.9565 96.7338 18.8502C96.8483 18.7438 96.9843 18.6907 97.1417 18.6907C97.3012 18.6907 97.4372 18.7438 97.5496 18.8502C97.6641 18.9565 97.7214 19.0853 97.7214 19.2366C97.7214 19.3879 97.6641 19.5167 97.5496 19.623C97.4372 19.7293 97.3012 19.7825 97.1417 19.7825ZM106.086 11.8147V18.0957H105.215L102.022 13.4892H101.964V18.0957H101.016V11.8147H101.893L105.089 16.4273H105.147V11.8147H106.086ZM111.719 13.799C111.659 13.6129 111.58 13.4463 111.479 13.2991C111.381 13.1498 111.264 13.0231 111.127 12.9188C110.99 12.8125 110.833 12.7317 110.658 12.6765C110.484 12.6213 110.293 12.5937 110.084 12.5937C109.73 12.5937 109.411 12.6847 109.127 12.8667C108.843 13.0486 108.618 13.3154 108.452 13.6671C108.289 14.0167 108.207 14.4451 108.207 14.9521C108.207 15.4612 108.29 15.8916 108.455 16.2433C108.621 16.595 108.848 16.8618 109.136 17.0438C109.425 17.2257 109.753 17.3167 110.121 17.3167C110.462 17.3167 110.76 17.2472 111.013 17.1082C111.269 16.9691 111.466 16.7729 111.605 16.5193C111.746 16.2637 111.817 15.9632 111.817 15.6177L112.062 15.6637H110.265V14.8816H112.734V15.5962C112.734 16.1237 112.621 16.5817 112.396 16.9702C112.174 17.3566 111.865 17.6551 111.47 17.8657C111.078 18.0763 110.628 18.1816 110.121 18.1816C109.552 18.1816 109.054 18.0507 108.624 17.789C108.197 17.5273 107.864 17.1562 107.624 16.6757C107.385 16.1932 107.266 15.6207 107.266 14.9583C107.266 14.4573 107.335 14.0075 107.474 13.6088C107.613 13.2101 107.808 12.8718 108.06 12.5937C108.313 12.3136 108.611 12.0999 108.952 11.9527C109.296 11.8035 109.671 11.7288 110.078 11.7288C110.417 11.7288 110.733 11.7789 111.026 11.8791C111.32 11.9793 111.582 12.1214 111.811 12.3054C112.042 12.4894 112.233 12.7082 112.384 12.9617C112.535 13.2132 112.638 13.4923 112.691 13.799H111.719Z" fill="white"/>
<path d="M52.1501 38.0955H49.9546L54.8878 24.387H57.2775L62.2106 38.0955H60.0151L56.1395 26.877H56.0324L52.1501 38.0955ZM52.5183 32.7272H59.6403V34.4676H52.5183V32.7272ZM64.0296 41.951V27.8141H65.9842V29.4808H66.1515C66.2675 29.2666 66.4349 29.019 66.6535 28.7378C66.8722 28.4567 67.1756 28.2113 67.5639 28.0016C67.9521 27.7874 68.4653 27.6803 69.1034 27.6803C69.9334 27.6803 70.6742 27.89 71.3257 28.3095C71.9772 28.7289 72.4881 29.3336 72.8585 30.1234C73.2334 30.9133 73.4208 31.8638 73.4208 32.9749C73.4208 34.086 73.2356 35.0388 72.8652 35.8331C72.4948 36.6229 71.9861 37.232 71.3391 37.6604C70.692 38.0844 69.9535 38.2963 69.1235 38.2963C68.4987 38.2963 67.9878 38.1915 67.5906 37.9817C67.1979 37.772 66.89 37.5266 66.6669 37.2454C66.4438 36.9643 66.272 36.7144 66.1515 36.4957H66.031V41.951H64.0296ZM65.9909 32.9548C65.9909 33.6777 66.0957 34.3114 66.3055 34.8558C66.5152 35.4002 66.8186 35.8264 67.2158 36.1343C67.6129 36.4377 68.0994 36.5895 68.675 36.5895C69.273 36.5895 69.7728 36.431 70.1744 36.1142C70.576 35.7929 70.8794 35.3578 71.0847 34.809C71.2944 34.2601 71.3993 33.642 71.3993 32.9548C71.3993 32.2765 71.2967 31.6674 71.0914 31.1275C70.8906 30.5875 70.5871 30.1614 70.1811 29.849C69.7794 29.5366 69.2774 29.3804 68.675 29.3804C68.0949 29.3804 67.604 29.5299 67.2024 29.8289C66.8053 30.1279 66.504 30.5451 66.2988 31.0806C66.0935 31.6161 65.9909 32.2408 65.9909 32.9548ZM75.6631 41.951V27.8141H77.6177V29.4808H77.785C77.901 29.2666 78.0684 29.019 78.287 28.7378C78.5057 28.4567 78.8091 28.2113 79.1974 28.0016C79.5856 27.7874 80.0988 27.6803 80.7369 27.6803C81.5669 27.6803 82.3077 27.89 82.9592 28.3095C83.6107 28.7289 84.1216 29.3336 84.492 30.1234C84.8669 30.9133 85.0543 31.8638 85.0543 32.9749C85.0543 34.086 84.8691 35.0388 84.4987 35.8331C84.1283 36.6229 83.6196 37.232 82.9726 37.6604C82.3255 38.0844 81.587 38.2963 80.757 38.2963C80.1322 38.2963 79.6213 38.1915 79.2241 37.9817C78.8314 37.772 78.5235 37.5266 78.3004 37.2454C78.0773 36.9643 77.9055 36.7144 77.785 36.4957H77.6645V41.951H75.6631ZM77.6244 32.9548C77.6244 33.6777 77.7292 34.3114 77.939 34.8558C78.1487 35.4002 78.4521 35.8264 78.8493 36.1343C79.2464 36.4377 79.7329 36.5895 80.3085 36.5895C80.9065 36.5895 81.4063 36.431 81.8079 36.1142C82.2095 35.7929 82.5129 35.3578 82.7182 34.809C82.9279 34.2601 83.0328 33.642 83.0328 32.9548C83.0328 32.2765 82.9302 31.6674 82.7249 31.1275C82.5241 30.5875 82.2206 30.1614 81.8146 29.849C81.4129 29.5366 80.9109 29.3804 80.3085 29.3804C79.7284 29.3804 79.2375 29.5299 78.8359 29.8289C78.4388 30.1279 78.1375 30.5451 77.9323 31.0806C77.727 31.6161 77.6244 32.2408 77.6244 32.9548ZM99.9225 27.9882C99.8511 27.3545 99.5565 26.8636 99.0389 26.5156C98.5213 26.163 97.8698 25.9868 97.0844 25.9868C96.5221 25.9868 96.0357 26.076 95.6252 26.2545C95.2146 26.4286 94.8956 26.6695 94.668 26.9774C94.4449 27.2809 94.3333 27.6267 94.3333 28.0149C94.3333 28.3407 94.4092 28.6218 94.5609 28.8583C94.7171 29.0948 94.9201 29.2934 95.17 29.4541C95.4244 29.6102 95.6966 29.7419 95.9866 29.849C96.2767 29.9516 96.5556 30.0364 96.8233 30.1033L98.162 30.4514C98.5994 30.5585 99.0478 30.7035 99.5075 30.8865C99.9671 31.0695 100.393 31.3104 100.786 31.6094C101.179 31.9084 101.495 32.2788 101.736 32.7205C101.982 33.1623 102.105 33.6911 102.105 34.3069C102.105 35.0834 101.904 35.7728 101.502 36.3753C101.105 36.9777 100.527 37.4529 99.7685 37.801C99.0144 38.1491 98.1018 38.3231 97.0308 38.3231C96.0045 38.3231 95.1165 38.1602 94.3668 37.8345C93.6171 37.5087 93.0303 37.0469 92.6063 36.4489C92.1824 35.8465 91.9481 35.1325 91.9035 34.3069H93.9785C94.0187 34.8023 94.1793 35.215 94.4605 35.5453C94.7461 35.871 95.1098 36.1142 95.5515 36.2749C95.9978 36.431 96.4864 36.5091 97.0174 36.5091C97.602 36.5091 98.1219 36.4177 98.577 36.2347C99.0367 36.0473 99.3981 35.7885 99.6614 35.4582C99.9247 35.1236 100.056 34.7331 100.056 34.2869C100.056 33.8808 99.9403 33.5483 99.7083 33.2895C99.4807 33.0307 99.1706 32.8165 98.7779 32.6469C98.3896 32.4773 97.9501 32.3279 97.4592 32.1984L95.8394 31.7567C94.7416 31.4577 93.8714 31.0181 93.2289 30.438C92.5907 29.8579 92.2717 29.0904 92.2717 28.1354C92.2717 27.3456 92.4859 26.6561 92.9143 26.0671C93.3426 25.4781 93.9228 25.0207 94.6546 24.6949C95.3864 24.3647 96.212 24.1996 97.1312 24.1996C98.0594 24.1996 98.8783 24.3625 99.5878 24.6882C100.302 25.014 100.864 25.4624 101.275 26.0336C101.685 26.6004 101.899 27.2519 101.917 27.9882H99.9225ZM109.215 27.8141V29.4206H103.599V27.8141H109.215ZM105.105 25.3509H107.106V35.0767C107.106 35.4649 107.164 35.7572 107.28 35.9536C107.396 36.1454 107.546 36.2771 107.729 36.3485C107.916 36.4154 108.119 36.4489 108.338 36.4489C108.499 36.4489 108.639 36.4377 108.76 36.4154C108.88 36.3931 108.974 36.3753 109.041 36.3619L109.402 38.0152C109.286 38.0598 109.121 38.1044 108.907 38.1491C108.693 38.1982 108.425 38.2249 108.104 38.2294C107.577 38.2383 107.086 38.1446 106.631 37.9483C106.176 37.7519 105.808 37.4485 105.527 37.0379C105.246 36.6274 105.105 36.112 105.105 35.4917V25.3509ZM115.649 38.303C114.685 38.303 113.844 38.0821 113.126 37.6404C112.407 37.1986 111.849 36.5805 111.452 35.7862C111.055 34.9919 110.856 34.0637 110.856 33.0017C110.856 31.9352 111.055 31.0025 111.452 30.2037C111.849 29.405 112.407 28.7847 113.126 28.3429C113.844 27.9011 114.685 27.6803 115.649 27.6803C116.613 27.6803 117.454 27.9011 118.173 28.3429C118.891 28.7847 119.449 29.405 119.846 30.2037C120.243 31.0025 120.442 31.9352 120.442 33.0017C120.442 34.0637 120.243 34.9919 119.846 35.7862C119.449 36.5805 118.891 37.1986 118.173 37.6404C117.454 38.0821 116.613 38.303 115.649 38.303ZM115.656 36.6229C116.281 36.6229 116.798 36.4578 117.209 36.1276C117.619 35.7974 117.923 35.3578 118.119 34.809C118.32 34.2601 118.42 33.6554 118.42 32.995C118.42 32.339 118.32 31.7366 118.119 31.1877C117.923 30.6344 117.619 30.1904 117.209 29.8557C116.798 29.521 116.281 29.3537 115.656 29.3537C115.027 29.3537 114.505 29.521 114.089 29.8557C113.679 30.1904 113.373 30.6344 113.172 31.1877C112.976 31.7366 112.878 32.339 112.878 32.995C112.878 33.6554 112.976 34.2601 113.172 34.809C113.373 35.3578 113.679 35.7974 114.089 36.1276C114.505 36.4578 115.027 36.6229 115.656 36.6229ZM122.676 38.0955V27.8141H124.61V29.4474H124.717C124.905 28.894 125.235 28.4589 125.708 28.1421C126.185 27.8208 126.725 27.6602 127.328 27.6602C127.453 27.6602 127.6 27.6646 127.77 27.6736C127.944 27.6825 128.08 27.6936 128.178 27.707V29.6214C128.098 29.5991 127.955 29.5745 127.749 29.5478C127.544 29.5165 127.339 29.5009 127.134 29.5009C126.661 29.5009 126.239 29.6013 125.869 29.8021C125.503 29.9985 125.213 30.2729 124.998 30.6254C124.784 30.9735 124.677 31.3707 124.677 31.8169V38.0955H122.676ZM133.973 38.303C132.96 38.303 132.088 38.0866 131.356 37.6537C130.628 37.2164 130.066 36.6028 129.669 35.813C129.276 35.0187 129.08 34.0883 129.08 33.0218C129.08 31.9686 129.276 31.0405 129.669 30.2372C130.066 29.434 130.619 28.807 131.329 28.3563C132.043 27.9056 132.877 27.6803 133.832 27.6803C134.412 27.6803 134.975 27.7762 135.519 27.9681C136.064 28.16 136.552 28.4612 136.985 28.8717C137.418 29.2823 137.759 29.8155 138.009 30.4715C138.259 31.123 138.384 31.9151 138.384 32.8477V33.5572H130.211V32.0579H136.423C136.423 31.5313 136.316 31.065 136.101 30.6589C135.887 30.2484 135.586 29.9248 135.198 29.6883C134.814 29.4518 134.363 29.3336 133.846 29.3336C133.283 29.3336 132.793 29.4719 132.373 29.7486C131.958 30.0208 131.637 30.3778 131.409 30.8196C131.186 31.2569 131.075 31.7321 131.075 32.2453V33.4167C131.075 34.1039 131.195 34.6885 131.436 35.1704C131.681 35.6524 132.023 36.0205 132.46 36.2749C132.897 36.5248 133.408 36.6497 133.993 36.6497C134.372 36.6497 134.718 36.5962 135.03 36.4891C135.343 36.3775 135.613 36.2124 135.84 35.9937C136.068 35.7751 136.242 35.5051 136.362 35.1838L138.257 35.5252C138.105 36.083 137.833 36.5716 137.44 36.9911C137.052 37.4061 136.563 37.7296 135.974 37.9616C135.39 38.1892 134.723 38.303 133.973 38.303Z" fill="white"/>
</svg>
