<svg width="173" height="52" viewBox="0 0 173 52" fill="none" xmlns="http://www.w3.org/2000/svg">
<path d="M5.4443 0.000106812H167.829C170.69 0.000106812 173 2.33019 173 5.2167V46.6017C173 49.4882 170.69 51.8183 167.829 51.8183H5.4443C2.58275 51.8183 0.272827 49.4882 0.272827 46.6017V5.2167C0.272827 2.33019 2.58275 0.000106812 5.4443 0.000106812Z" fill="black"/>
<path d="M29.2252 26.0675L15.8735 38.6266C15.2163 38.0425 14.8704 37.2636 14.8704 36.4199V16.7536C14.8704 15.9098 15.2163 15.131 15.8735 14.5468L29.2252 26.0675Z" fill="#2196F3"/>
<path d="M40.7797 26.5867C40.7797 27.7225 40.1225 28.7285 39.0502 29.2802L35.2453 31.2598L30.5065 27.2033L29.2267 26.0999L34.2076 21.4267L39.0156 23.9256C40.1225 24.4448 40.7797 25.4508 40.7797 26.5867Z" fill="#FFC107"/>
<path d="M29.227 26.0677L15.9099 14.5471C16.0829 14.3848 16.2904 14.255 16.5325 14.1252C17.6048 13.5086 18.9192 13.5086 20.0607 14.0927L34.2425 21.427L29.227 26.0677Z" fill="#4CAF50"/>
<path d="M35.2079 31.292L20.023 39.1455C19.5041 39.4376 18.8815 39.5674 18.2935 39.5674C17.6709 39.5674 17.0482 39.4376 16.4948 39.113C16.2527 38.9508 16.0451 38.7885 15.8722 38.6263L29.2239 26.0996L30.5037 27.203L35.2079 31.292Z" fill="#F44336"/>
<path d="M49.7963 12.2001V11.3843H54.6573V12.2001H52.6976V17.6653H51.753V12.2001H49.7963ZM55.5199 17.6653H54.514L56.7743 11.3843H57.8691L60.1294 17.6653H59.1235L57.3478 12.5252H57.2987L55.5199 17.6653ZM55.6886 15.2057H58.9517V16.003H55.6886V15.2057ZM57.6974 10.7341H56.9736L56.9491 10.1085C57.1658 10.0983 57.3191 10.0696 57.4091 10.0226C57.4991 9.97354 57.543 9.903 57.541 9.81099C57.543 9.70058 57.4807 9.62187 57.3539 9.57484C57.2292 9.52781 57.0769 9.5043 56.8969 9.5043L56.9245 8.99826C57.3887 8.99826 57.7403 9.07187 57.9795 9.21908C58.2208 9.36629 58.3404 9.56462 58.3384 9.81406C58.3404 10.0165 58.274 10.1657 58.139 10.2618C58.0061 10.3559 57.8589 10.4152 57.6974 10.4397V10.7341ZM61.9841 11.3843V17.6653H61.0365V11.3843H61.9841ZM71.3082 11.0561H72.0658C72.0658 11.463 72.0065 11.8065 71.8879 12.0866C71.7714 12.3667 71.5792 12.5804 71.3113 12.7276C71.0455 12.8728 70.6887 12.9454 70.241 12.9454V12.3136C70.5354 12.3136 70.7593 12.2655 70.9126 12.1694C71.068 12.0713 71.1723 11.9292 71.2254 11.7431C71.2806 11.555 71.3082 11.326 71.3082 11.0561ZM69.6889 11.3843H70.6397V15.5154C70.6397 15.955 70.5364 16.3445 70.3299 16.6839C70.1234 17.0213 69.8331 17.287 69.4589 17.4813C69.0848 17.6735 68.6462 17.7696 68.1432 17.7696C67.6423 17.7696 67.2047 17.6735 66.8306 17.4813C66.4564 17.287 66.1661 17.0213 65.9596 16.6839C65.7531 16.3445 65.6498 15.955 65.6498 15.5154V11.3843H66.5975V15.4387C66.5975 15.7229 66.6599 15.9754 66.7846 16.1963C66.9114 16.4171 67.0903 16.5909 67.3213 16.7176C67.5523 16.8423 67.8263 16.9047 68.1432 16.9047C68.4622 16.9047 68.7372 16.8423 68.9682 16.7176C69.2013 16.5909 69.3792 16.4171 69.5019 16.1963C69.6266 15.9754 69.6889 15.7229 69.6889 15.4387V11.3843ZM67.766 10.7556L68.4836 9.34176H69.4497L68.499 10.7556H67.766ZM78.2088 11.3843V17.6653H77.3378L74.1451 13.0588H74.0869V17.6653H73.1392V11.3843H74.0163L77.212 15.9969H77.2703V11.3843H78.2088ZM83.8419 13.3686C83.7826 13.1825 83.7028 13.0159 83.6027 12.8687C83.5045 12.7194 83.3869 12.5927 83.25 12.4884C83.113 12.3821 82.9566 12.3013 82.7807 12.2461C82.6069 12.1909 82.4158 12.1633 82.2072 12.1633C81.8535 12.1633 81.5345 12.2543 81.2503 12.4362C80.9661 12.6182 80.7412 12.885 80.5756 13.2367C80.4121 13.5863 80.3303 14.0147 80.3303 14.5217C80.3303 15.0308 80.4131 15.4612 80.5787 15.8129C80.7443 16.1646 80.9713 16.4314 81.2595 16.6134C81.5478 16.7953 81.876 16.8863 82.244 16.8863C82.5855 16.8863 82.883 16.8168 83.1365 16.6778C83.3921 16.5387 83.5894 16.3424 83.7284 16.0889C83.8695 15.8333 83.94 15.5328 83.94 15.1873L84.1854 15.2333H82.3882V14.4512H84.857V15.1658C84.857 15.6933 84.7446 16.1513 84.5197 16.5397C84.2968 16.9262 83.9881 17.2247 83.5934 17.4353C83.2009 17.6459 82.7511 17.7512 82.244 17.7512C81.6756 17.7512 81.1767 17.6203 80.7474 17.3586C80.3201 17.0969 79.9868 16.7258 79.7476 16.2453C79.5084 15.7628 79.3887 15.1903 79.3887 14.5279C79.3887 14.0269 79.4583 13.5771 79.5973 13.1784C79.7363 12.7797 79.9316 12.4414 80.1831 12.1633C80.4366 11.8832 80.7341 11.6695 81.0755 11.5223C81.419 11.3731 81.7942 11.2984 82.2011 11.2984C82.5405 11.2984 82.8564 11.3485 83.1488 11.4487C83.4432 11.5489 83.7049 11.691 83.9339 11.875C84.1649 12.059 84.3561 12.2778 84.5074 12.5313C84.6587 12.7828 84.7609 13.0619 84.8141 13.3686H83.8419ZM90.3789 17.6653H88.3456V11.3843H90.4433C91.0588 11.3843 91.5873 11.51 92.0289 11.7615C92.4706 12.011 92.8089 12.3698 93.0441 12.838C93.2812 13.3042 93.3998 13.8634 93.3998 14.5156C93.3998 15.1699 93.2802 15.7321 93.041 16.2024C92.8038 16.6726 92.4603 17.0345 92.0105 17.2881C91.5607 17.5396 91.0169 17.6653 90.3789 17.6653ZM89.2933 16.8372H90.3268C90.8052 16.8372 91.2029 16.7473 91.5198 16.5674C91.8367 16.3854 92.0739 16.1227 92.2313 15.7792C92.3888 15.4336 92.4675 15.0124 92.4675 14.5156C92.4675 14.0229 92.3888 13.6047 92.2313 13.2612C92.076 12.9178 91.8439 12.6571 91.5352 12.4792C91.2264 12.3013 90.8431 12.2124 90.3851 12.2124H89.2933V16.8372ZM98.6174 11.3843H99.5681V15.5154C99.5681 15.955 99.4649 16.3445 99.2584 16.6839C99.0519 17.0213 98.7615 17.287 98.3874 17.4813C98.0132 17.6735 97.5746 17.7696 97.0717 17.7696C96.5707 17.7696 96.1332 17.6735 95.759 17.4813C95.3849 17.287 95.0945 17.0213 94.888 16.6839C94.6815 16.3445 94.5783 15.955 94.5783 15.5154V11.3843H95.526V15.4387C95.526 15.7229 95.5883 15.9754 95.713 16.1963C95.8398 16.4171 96.0187 16.5909 96.2497 16.7176C96.4808 16.8423 96.7548 16.9047 97.0717 16.9047C97.3906 16.9047 97.6656 16.8423 97.8967 16.7176C98.1297 16.5909 98.3076 16.4171 98.4303 16.1963C98.555 15.9754 98.6174 15.7229 98.6174 15.4387V11.3843ZM97.0717 19.3521C96.9142 19.3521 96.7783 19.2989 96.6638 19.1926C96.5493 19.0863 96.492 18.9575 96.492 18.8062C96.492 18.6549 96.5493 18.5261 96.6638 18.4198C96.7783 18.3134 96.9142 18.2603 97.0717 18.2603C97.2311 18.2603 97.3671 18.3134 97.4796 18.4198C97.5941 18.5261 97.6513 18.6549 97.6513 18.8062C97.6513 18.9575 97.5941 19.0863 97.4796 19.1926C97.3671 19.2989 97.2311 19.3521 97.0717 19.3521ZM106.015 11.3843V17.6653H105.144L101.952 13.0588H101.894V17.6653H100.946V11.3843H101.823L105.019 15.9969H105.077V11.3843H106.015ZM111.649 13.3686C111.589 13.1825 111.51 13.0159 111.409 12.8687C111.311 12.7194 111.194 12.5927 111.057 12.4884C110.92 12.3821 110.763 12.3013 110.587 12.2461C110.414 12.1909 110.222 12.1633 110.014 12.1633C109.66 12.1633 109.341 12.2543 109.057 12.4362C108.773 12.6182 108.548 12.885 108.382 13.2367C108.219 13.5863 108.137 14.0147 108.137 14.5217C108.137 15.0308 108.22 15.4612 108.385 15.8129C108.551 16.1646 108.778 16.4314 109.066 16.6134C109.355 16.7953 109.683 16.8863 110.051 16.8863C110.392 16.8863 110.69 16.8168 110.943 16.6778C111.199 16.5387 111.396 16.3424 111.535 16.0889C111.676 15.8333 111.747 15.5328 111.747 15.1873L111.992 15.2333H110.195V14.4512H112.664V15.1658C112.664 15.6933 112.551 16.1513 112.326 16.5397C112.104 16.9262 111.795 17.2247 111.4 17.4353C111.008 17.6459 110.558 17.7512 110.051 17.7512C109.482 17.7512 108.983 17.6203 108.554 17.3586C108.127 17.0969 107.794 16.7258 107.554 16.2453C107.315 15.7628 107.195 15.1903 107.195 14.5279C107.195 14.0269 107.265 13.5771 107.404 13.1784C107.543 12.7797 107.738 12.4414 107.99 12.1633C108.243 11.8832 108.541 11.6695 108.882 11.5223C109.226 11.3731 109.601 11.2984 110.008 11.2984C110.347 11.2984 110.663 11.3485 110.955 11.4487C111.25 11.5489 111.512 11.691 111.741 11.875C111.972 12.059 112.163 12.2778 112.314 12.5313C112.465 12.7828 112.568 13.0619 112.621 13.3686H111.649Z" fill="white"/>
<path d="M60.1995 29.1828C60.0701 28.7767 59.8961 28.413 59.6774 28.0917C59.4633 27.766 59.2067 27.4893 58.9077 27.2617C58.6087 27.0297 58.2673 26.8534 57.8836 26.7329C57.5043 26.6124 57.087 26.5522 56.6319 26.5522C55.8599 26.5522 55.1637 26.7508 54.5434 27.1479C53.9232 27.5451 53.4323 28.1274 53.0709 28.895C52.7139 29.658 52.5354 30.5929 52.5354 31.6996C52.5354 32.8107 52.7161 33.7501 53.0775 34.5176C53.439 35.2851 53.9343 35.8675 54.5635 36.2646C55.1927 36.6618 55.9089 36.8604 56.7122 36.8604C57.4574 36.8604 58.1067 36.7086 58.66 36.4052C59.2178 36.1018 59.6484 35.6734 59.9519 35.12C60.2598 34.5622 60.4137 33.9063 60.4137 33.1521L60.9492 33.2525H57.0268V31.5456H62.4151V33.1053C62.4151 34.2566 62.1697 35.2561 61.6788 36.104C61.1924 36.9474 60.5186 37.5989 59.6574 38.0585C58.8006 38.5182 57.8189 38.748 56.7122 38.748C55.4716 38.748 54.3828 38.4624 53.4457 37.8912C52.513 37.32 51.7857 36.5101 51.2636 35.4614C50.7415 34.4083 50.4804 33.1588 50.4804 31.713C50.4804 30.6197 50.6321 29.638 50.9356 28.7678C51.239 27.8976 51.6652 27.1591 52.2141 26.5522C52.7674 25.9409 53.4167 25.4745 54.1619 25.1532C54.9116 24.8275 55.7304 24.6646 56.6185 24.6646C57.3592 24.6646 58.0487 24.7739 58.6868 24.9926C59.3294 25.2112 59.9006 25.5214 60.4004 25.923C60.9046 26.3246 61.3218 26.8021 61.6521 27.3554C61.9823 27.9043 62.2054 28.5134 62.3214 29.1828H60.1995ZM69.2108 38.768C68.2469 38.768 67.4058 38.5472 66.6873 38.1054C65.9689 37.6636 65.4111 37.0456 65.0139 36.2512C64.6168 35.4569 64.4182 34.5288 64.4182 33.4667C64.4182 32.4002 64.6168 31.4675 65.0139 30.6688C65.4111 29.87 65.9689 29.2497 66.6873 28.808C67.4058 28.3662 68.2469 28.1453 69.2108 28.1453C70.1747 28.1453 71.0159 28.3662 71.7343 28.808C72.4528 29.2497 73.0106 29.87 73.4077 30.6688C73.8049 31.4675 74.0035 32.4002 74.0035 33.4667C74.0035 34.5288 73.8049 35.4569 73.4077 36.2512C73.0106 37.0456 72.4528 37.6636 71.7343 38.1054C71.0159 38.5472 70.1747 38.768 69.2108 38.768ZM69.2175 37.088C69.8423 37.088 70.3599 36.9228 70.7704 36.5926C71.181 36.2624 71.4844 35.8229 71.6808 35.274C71.8816 34.7251 71.982 34.1204 71.982 33.46C71.982 32.804 71.8816 32.2016 71.6808 31.6527C71.4844 31.0994 71.181 30.6554 70.7704 30.3207C70.3599 29.986 69.8423 29.8187 69.2175 29.8187C68.5883 29.8187 68.0662 29.986 67.6512 30.3207C67.2407 30.6554 66.935 31.0994 66.7342 31.6527C66.5378 32.2016 66.4397 32.804 66.4397 33.46C66.4397 34.1204 66.5378 34.7251 66.7342 35.274C66.935 35.8229 67.2407 36.2624 67.6512 36.5926C68.0662 36.9228 68.5883 37.088 69.2175 37.088ZM80.5682 38.768C79.6043 38.768 78.7632 38.5472 78.0447 38.1054C77.3263 37.6636 76.7685 37.0456 76.3713 36.2512C75.9742 35.4569 75.7756 34.5288 75.7756 33.4667C75.7756 32.4002 75.9742 31.4675 76.3713 30.6688C76.7685 29.87 77.3263 29.2497 78.0447 28.808C78.7632 28.3662 79.6043 28.1453 80.5682 28.1453C81.5321 28.1453 82.3733 28.3662 83.0917 28.808C83.8102 29.2497 84.368 29.87 84.7651 30.6688C85.1623 31.4675 85.3608 32.4002 85.3608 33.4667C85.3608 34.5288 85.1623 35.4569 84.7651 36.2512C84.368 37.0456 83.8102 37.6636 83.0917 38.1054C82.3733 38.5472 81.5321 38.768 80.5682 38.768ZM80.5749 37.088C81.1996 37.088 81.7173 36.9228 82.1278 36.5926C82.5384 36.2624 82.8418 35.8229 83.0382 35.274C83.239 34.7251 83.3394 34.1204 83.3394 33.46C83.3394 32.804 83.239 32.2016 83.0382 31.6527C82.8418 31.0994 82.5384 30.6554 82.1278 30.3207C81.7173 29.986 81.1996 29.8187 80.5749 29.8187C79.9457 29.8187 79.4236 29.986 79.0086 30.3207C78.5981 30.6554 78.2924 31.0994 78.0916 31.6527C77.8952 32.2016 77.7971 32.804 77.7971 33.46C77.7971 34.1204 77.8952 34.7251 78.0916 35.274C78.2924 35.8229 78.5981 36.2624 79.0086 36.5926C79.4236 36.9228 79.9457 37.088 80.5749 37.088ZM91.9055 42.6303C91.0889 42.6303 90.3861 42.5232 89.797 42.309C89.2125 42.0948 88.735 41.8114 88.3646 41.4589C87.9942 41.1064 87.7176 40.7204 87.5346 40.3009L89.2549 39.5914C89.3753 39.7877 89.536 39.9952 89.7368 40.2139C89.9421 40.437 90.2187 40.6266 90.5668 40.7828C90.9193 40.939 91.3723 41.0171 91.9256 41.0171C92.6842 41.0171 93.3112 40.8319 93.8065 40.4615C94.3018 40.0956 94.5495 39.511 94.5495 38.7078V36.6863H94.4223C94.3018 36.905 94.1278 37.1482 93.9002 37.4159C93.6771 37.6837 93.3692 37.9157 92.9765 38.1121C92.5838 38.3084 92.0729 38.4066 91.4437 38.4066C90.6315 38.4066 89.8997 38.2169 89.2482 37.8376C88.6011 37.4539 88.0879 36.8894 87.7086 36.1442C87.3338 35.3945 87.1464 34.473 87.1464 33.3797C87.1464 32.2864 87.3316 31.3493 87.7019 30.5684C88.0768 29.7875 88.59 29.1895 89.2415 28.7745C89.893 28.355 90.6315 28.1453 91.4571 28.1453C92.0952 28.1453 92.6106 28.2524 93.0033 28.4666C93.396 28.6763 93.7016 28.9217 93.9203 29.2029C94.1434 29.484 94.3152 29.7317 94.4357 29.9459H94.583V28.2792H96.5442V38.7881C96.5442 39.6717 96.3389 40.3968 95.9284 40.9636C95.5178 41.5303 94.9623 41.9497 94.2617 42.222C93.5655 42.4942 92.7802 42.6303 91.9055 42.6303ZM91.8854 36.7466C92.4611 36.7466 92.9475 36.6127 93.3447 36.345C93.7463 36.0728 94.0497 35.6845 94.255 35.1803C94.4647 34.6716 94.5696 34.0624 94.5696 33.3529C94.5696 32.6612 94.4669 32.0521 94.2617 31.5256C94.0564 30.999 93.7552 30.5885 93.358 30.2939C92.9609 29.995 92.47 29.8455 91.8854 29.8455C91.283 29.8455 90.781 30.0016 90.3794 30.314C89.9778 30.6219 89.6743 31.0414 89.469 31.5724C89.2682 32.1034 89.1678 32.6969 89.1678 33.3529C89.1678 34.0267 89.2705 34.618 89.4757 35.1267C89.681 35.6354 89.9845 36.0326 90.3861 36.3182C90.7922 36.6038 91.2919 36.7466 91.8854 36.7466ZM101.23 24.852V38.5605H99.2283V24.852H101.23ZM108.353 38.768C107.34 38.768 106.468 38.5516 105.736 38.1188C105.009 37.6815 104.447 37.0679 104.049 36.278C103.657 35.4837 103.46 34.5533 103.46 33.4868C103.46 32.4337 103.657 31.5055 104.049 30.7022C104.447 29.899 105 29.272 105.709 28.8213C106.423 28.3706 107.258 28.1453 108.213 28.1453C108.793 28.1453 109.355 28.2412 109.9 28.4331C110.444 28.625 110.933 28.9262 111.366 29.3367C111.798 29.7473 112.14 30.2805 112.39 30.9365C112.64 31.588 112.765 32.3801 112.765 33.3128V34.0223H104.592V32.5229H110.803C110.803 31.9963 110.696 31.53 110.482 31.1239C110.268 30.7134 109.967 30.3899 109.578 30.1534C109.195 29.9169 108.744 29.7986 108.226 29.7986C107.664 29.7986 107.173 29.9369 106.754 30.2136C106.339 30.4858 106.017 30.8428 105.79 31.2846C105.567 31.7219 105.455 32.1972 105.455 32.7103V33.8817C105.455 34.5689 105.576 35.1535 105.817 35.6354C106.062 36.1174 106.403 36.4855 106.841 36.7399C107.278 36.9898 107.789 37.1147 108.373 37.1147C108.753 37.1147 109.099 37.0612 109.411 36.9541C109.723 36.8425 109.993 36.6774 110.221 36.4588C110.449 36.2401 110.623 35.9701 110.743 35.6488L112.637 35.9902C112.486 36.548 112.213 37.0366 111.821 37.4561C111.432 37.8711 110.944 38.1946 110.355 38.4267C109.77 38.6543 109.103 38.768 108.353 38.768ZM120.134 38.5605V24.852H125.021C126.087 24.852 126.971 25.0461 127.671 25.4344C128.372 25.8226 128.896 26.3536 129.244 27.0274C129.592 27.6968 129.766 28.451 129.766 29.2899C129.766 30.1333 129.59 30.8919 129.237 31.5657C128.889 32.2351 128.363 32.7661 127.658 33.1588C126.957 33.547 126.076 33.7411 125.014 33.7411H121.654V31.9874H124.826C125.5 31.9874 126.047 31.8714 126.466 31.6394C126.886 31.4028 127.194 31.0815 127.39 30.6755C127.586 30.2694 127.685 29.8075 127.685 29.2899C127.685 28.7723 127.586 28.3126 127.39 27.911C127.194 27.5094 126.884 27.1948 126.46 26.9672C126.04 26.7396 125.487 26.6258 124.8 26.6258H122.202V38.5605H120.134ZM134.032 24.852V38.5605H132.03V24.852H134.032ZM139.716 38.7881C139.065 38.7881 138.476 38.6676 137.949 38.4267C137.423 38.1812 137.005 37.8265 136.698 37.3624C136.394 36.8983 136.242 36.3293 136.242 35.6555C136.242 35.0754 136.354 34.5979 136.577 34.2231C136.8 33.8482 137.101 33.5515 137.481 33.3328C137.86 33.1142 138.284 32.9491 138.752 32.8375C139.221 32.7259 139.698 32.6412 140.185 32.5831C140.801 32.5118 141.3 32.4537 141.684 32.4091C142.068 32.36 142.347 32.2819 142.521 32.1748C142.695 32.0677 142.782 31.8937 142.782 31.6527V31.6059C142.782 31.0213 142.617 30.5684 142.287 30.2471C141.961 29.9258 141.475 29.7651 140.827 29.7651C140.154 29.7651 139.623 29.9146 139.234 30.2136C138.851 30.5081 138.585 30.8361 138.438 31.1976L136.557 30.7692C136.78 30.1444 137.106 29.6402 137.534 29.2564C137.967 28.8682 138.465 28.5871 139.027 28.413C139.589 28.2345 140.18 28.1453 140.801 28.1453C141.211 28.1453 141.646 28.1944 142.106 28.2925C142.57 28.3863 143.003 28.5603 143.405 28.8146C143.811 29.069 144.143 29.4327 144.402 29.9057C144.661 30.3743 144.79 30.9834 144.79 31.7331V38.5605H142.836V37.1549H142.755C142.626 37.4137 142.432 37.6681 142.173 37.918C141.914 38.1679 141.582 38.3754 141.176 38.5405C140.769 38.7056 140.283 38.7881 139.716 38.7881ZM140.151 37.1817C140.705 37.1817 141.178 37.0723 141.57 36.8537C141.968 36.635 142.269 36.3494 142.474 35.9969C142.684 35.6399 142.789 35.2584 142.789 34.8523V33.5269C142.717 33.5983 142.579 33.6653 142.374 33.7278C142.173 33.7858 141.943 33.8371 141.684 33.8817C141.425 33.9219 141.173 33.9598 140.928 33.9955C140.682 34.0267 140.477 34.0535 140.312 34.0758C139.924 34.1249 139.569 34.2075 139.248 34.3235C138.931 34.4395 138.677 34.6069 138.485 34.8255C138.297 35.0397 138.204 35.3253 138.204 35.6823C138.204 36.1776 138.387 36.5525 138.752 36.8068C139.118 37.0567 139.585 37.1817 140.151 37.1817ZM148.353 42.4161C148.054 42.4161 147.782 42.3915 147.536 42.3424C147.291 42.2978 147.108 42.2487 146.987 42.1952L147.469 40.5552C147.835 40.6534 148.161 40.6958 148.446 40.6824C148.732 40.669 148.984 40.5619 149.203 40.3611C149.426 40.1603 149.622 39.8323 149.792 39.3772L150.04 38.6944L146.278 28.2792H148.42L151.024 36.2579H151.131L153.734 28.2792H155.883L151.646 39.9327C151.45 40.4682 151.2 40.9212 150.896 41.2915C150.593 41.6664 150.231 41.9475 149.812 42.1349C149.393 42.3224 148.906 42.4161 148.353 42.4161Z" fill="white"/>
</svg>
