<?xml version="1.0" encoding="iso-8859-1"?>
<!-- Generator: Adobe Illustrator 19.0.0, SVG Export Plug-In . SVG Version: 6.00 Build 0)  -->
<svg version="1.1" id="Capa_1" xmlns="http://www.w3.org/2000/svg" xmlns:xlink="http://www.w3.org/1999/xlink" x="0px" y="0px"
	 viewBox="0 0 512 512" style="enable-background:new 0 0 512 512;" xml:space="preserve">
<path style="fill:#303C42;" d="M494.771,295.688C502.854,284.281,512,271.354,512,256c0-15.354-9.146-28.281-17.229-39.688
	c-5.292-7.49-10.313-14.563-12.042-21.063c-1.875-6.969-1.063-15.896-0.229-25.344c1.292-14.333,2.625-29.156-4.771-41.938
	c-7.521-12.979-21.75-19.542-34.313-25.323c-8.5-3.927-16.521-7.625-21.479-12.573c-4.958-4.958-8.667-12.99-12.583-21.5
	C403.563,56.021,397,41.781,384.042,34.281c-12.771-7.385-27.563-6.063-41.958-4.792c-9.438,0.854-18.375,1.635-25.333-0.208
	c-6.5-1.74-13.563-6.75-21.063-12.052C284.292,9.156,271.354,0,256,0c-15.354,0-28.292,9.156-39.688,17.229
	c-7.5,5.302-14.563,10.313-21.063,12.052c-6.979,1.865-15.896,1.052-25.333,0.208c-14.313-1.26-29.167-2.615-41.938,4.781
	c-12.979,7.5-19.542,21.74-25.333,34.292c-3.917,8.51-7.625,16.552-12.583,21.5c-4.958,4.948-12.979,8.656-21.5,12.583
	c-12.542,5.781-26.771,12.344-34.292,25.323c-7.396,12.771-6.063,27.604-4.771,41.938c0.833,9.448,1.646,18.375-0.229,25.333
	c-1.729,6.51-6.75,13.583-12.042,21.073C9.146,227.719,0,240.646,0,256c0,15.354,9.146,28.281,17.229,39.688
	c5.292,7.49,10.313,14.563,12.042,21.063c1.875,6.969,1.063,15.896,0.229,25.344c-1.292,14.333-2.625,29.156,4.771,41.938
	c7.521,12.979,21.75,19.542,34.313,25.323c8.5,3.927,16.521,7.625,21.479,12.573c4.958,4.958,8.667,12.99,12.583,21.5
	c5.792,12.552,12.354,26.792,25.313,34.292c12.771,7.385,27.583,6.063,41.958,4.792c9.438-0.854,18.375-1.646,25.333,0.208
	c6.5,1.74,13.563,6.75,21.063,12.052C227.708,502.844,240.646,512,256,512c15.354,0,28.292-9.156,39.688-17.229
	c7.5-5.302,14.563-10.313,21.063-12.052c6.979-1.865,15.896-1.052,25.333-0.208c14.333,1.292,29.188,2.625,41.938-4.781
	c12.979-7.5,19.542-21.74,25.333-34.292c3.917-8.51,7.625-16.552,12.583-21.5c4.958-4.948,12.979-8.656,21.5-12.583
	c12.542-5.781,26.771-12.344,34.292-25.323c7.396-12.771,6.063-27.604,4.771-41.938c-0.833-9.448-1.646-18.375,0.229-25.333
	C484.458,310.25,489.479,303.177,494.771,295.688z"/>
<path style="fill:#BAD982;" d="M477.354,283.354c-6.146,8.698-12.521,17.698-15.25,27.896c-2.833,10.615-1.813,21.865-0.854,32.75
	c1.042,11.531,2.021,22.427-1.979,29.354c-4.125,7.115-14.146,11.74-24.771,16.635c-9.833,4.531-20,9.219-27.646,16.865
	c-7.646,7.646-12.333,17.813-16.875,27.656c-4.896,10.615-9.521,20.635-16.646,24.76c-6.896,4.021-17.771,3.042-29.354,1.99
	c-10.854-0.969-22.125-2-32.729,0.854c-10.208,2.729-19.188,9.094-27.896,15.25c-9.646,6.844-18.792,13.302-27.354,13.302
	s-17.708-6.458-27.354-13.302c-8.708-6.156-17.688-12.521-27.896-15.25c-5.208-1.396-10.563-1.854-15.938-1.854
	c-5.604,0-11.25,0.5-16.813,1c-11.583,1.031-22.458,1.979-29.354-2c-7.104-4.125-11.729-14.146-16.625-24.76
	c-4.542-9.844-9.229-20.01-16.875-27.656C97.5,399.198,87.333,394.51,77.5,389.99c-10.604-4.896-20.646-9.521-24.771-16.635
	c-4-6.938-3.021-17.823-1.979-29.354c0.958-10.885,1.979-22.135-0.854-32.76c-2.729-10.188-9.104-19.188-15.25-27.885
	c-6.854-9.656-13.313-18.792-13.313-27.354s6.458-17.698,13.313-27.354c6.146-8.698,12.521-17.698,15.25-27.896
	c2.833-10.615,1.813-21.865,0.854-32.75c-1.042-11.531-2.021-22.427,1.979-29.354c4.125-7.115,14.146-11.74,24.771-16.635
	c9.833-4.531,20-9.219,27.646-16.865s12.333-17.813,16.875-27.656c4.896-10.615,9.521-20.635,16.646-24.76
	c6.875-4.01,17.792-3.031,29.354-1.99c10.833,0.969,22.125,1.99,32.729-0.854c10.208-2.729,19.188-9.094,27.896-15.25
	c9.646-6.844,18.792-13.302,27.354-13.302s17.708,6.458,27.354,13.302c8.708,6.156,17.688,12.521,27.896,15.25
	c10.625,2.844,21.854,1.833,32.75,0.854c11.542-1.031,22.417-2.021,29.354,2c7.104,4.125,11.729,14.146,16.625,24.76
	c4.542,9.844,9.229,20.01,16.875,27.656c7.646,7.646,17.813,12.333,27.646,16.854c10.604,4.896,20.646,9.521,24.771,16.635
	c4,6.938,3.021,17.823,1.979,29.354c-0.958,10.885-1.979,22.135,0.854,32.76c2.729,10.188,9.104,19.188,15.25,27.885
	c6.854,9.656,13.313,18.792,13.313,27.354S484.208,273.698,477.354,283.354z"/>
<path style="opacity:0.2;fill:#FFFFFF;enable-background:new    ;" d="M154.648,459.26c-6.135-4.125-10.129-14.146-14.358-24.76
	c-3.922-9.844-7.97-20.01-14.573-27.656c-6.604-7.646-15.384-12.333-23.876-16.854c-9.159-4.896-17.831-9.521-21.393-16.635
	c-3.454-6.938-2.609-17.823-1.71-29.354c0.828-10.885,1.71-22.135-0.737-32.76c-2.357-10.188-7.863-19.188-13.171-27.885
	c-5.919-9.656-11.497-18.792-11.497-27.354s5.578-17.698,11.497-27.354c5.307-8.698,10.814-17.698,13.171-27.896
	c2.447-10.615,1.565-21.865,0.737-32.75c-0.9-11.531-1.745-22.427,1.71-29.354c3.563-7.115,12.217-11.74,21.393-16.635
	c8.492-4.531,17.272-9.219,23.876-16.865c6.603-7.646,10.651-17.813,14.573-27.656c4.229-10.615,8.223-20.635,14.376-24.76
	c2.104-1.421,4.755-2.07,7.604-2.458c-9.344-0.732-17.892-0.874-23.604,2.458c-7.125,4.125-11.75,14.146-16.646,24.76
	c-4.542,9.844-9.229,20.01-16.875,27.656S87.333,117.479,77.5,122.01c-10.625,4.896-20.646,9.521-24.771,16.635
	c-4,6.927-3.021,17.823-1.979,29.354c0.958,10.885,1.979,22.135-0.854,32.75c-2.729,10.198-9.104,19.198-15.25,27.896
	c-6.854,9.656-13.313,18.792-13.313,27.354s6.458,17.698,13.313,27.354c6.146,8.698,12.521,17.698,15.25,27.885
	c2.833,10.625,1.813,21.875,0.854,32.76c-1.042,11.531-2.021,22.417,1.979,29.354c4.125,7.115,14.167,11.74,24.771,16.635
	c9.833,4.521,20,9.208,27.646,16.854c7.646,7.646,12.333,17.813,16.875,27.656c4.896,10.615,9.521,20.635,16.625,24.76
	c5.746,3.315,14.302,3.18,23.682,2.456C159.452,461.332,156.776,460.682,154.648,459.26z"/>
<path style="opacity:0.1;enable-background:new    ;" d="M477.354,283.354c6.854-9.656,13.313-18.792,13.313-27.354
	s-6.458-17.698-13.313-27.354c-6.146-8.698-12.521-17.698-15.25-27.885c-2.833-10.625-1.813-21.875-0.854-32.76
	c1.042-11.531,2.021-22.417-1.979-29.354c-4.125-7.115-14.167-11.74-24.771-16.635c-9.833-4.521-20-9.208-27.646-16.854
	c-7.646-7.646-12.333-17.813-16.875-27.656c-4.896-10.615-9.521-20.635-16.625-24.76c-5.768-3.344-14.306-3.193-23.639-2.464
	c2.853,0.387,5.513,1.038,7.637,2.464c6.135,4.125,10.129,14.146,14.358,24.76c3.922,9.844,7.97,20.01,14.573,27.656
	c6.604,7.646,15.384,12.333,23.876,16.854c9.159,4.896,17.831,9.521,21.393,16.635c3.454,6.938,2.609,17.823,1.71,29.354
	c-0.828,10.885-1.71,22.135,0.737,32.76c2.357,10.188,7.863,19.188,13.171,27.885c5.919,9.656,11.497,18.792,11.497,27.354
	s-5.578,17.698-11.497,27.354c-5.307,8.698-10.814,17.698-13.171,27.896c-2.447,10.615-1.565,21.865-0.737,32.75
	c0.9,11.531,1.745,22.427-1.71,29.354c-3.563,7.115-12.217,11.74-21.393,16.635c-8.492,4.531-17.272,9.219-23.876,16.865
	c-6.603,7.646-10.651,17.813-14.573,27.656c-4.229,10.615-8.223,20.635-14.376,24.76c-2.105,1.422-4.751,2.073-7.591,2.462
	c9.342,0.736,17.863,0.878,23.591-2.462c7.125-4.125,11.75-14.146,16.646-24.76c4.542-9.844,9.229-20.01,16.875-27.656
	c7.646-7.646,17.813-12.333,27.646-16.865c10.625-4.896,20.646-9.521,24.771-16.635c4-6.927,3.021-17.823,1.979-29.354
	c-0.958-10.885-1.979-22.135,0.854-32.75C464.833,301.052,471.208,292.052,477.354,283.354z"/>
<path style="fill:#303C42;" d="M247.594,89.438c-4.01,5.135-98.26,126.813-98.26,208.604c0,55.482,42.25,100.733,96,106.207v33.085
	c0,5.896,4.771,10.667,10.667,10.667c5.896,0,10.667-4.771,10.667-10.667v-33.085c53.75-5.474,96-50.725,96-106.207
	c0-81.792-94.25-203.469-98.26-208.604C260.365,84.25,251.635,84.25,247.594,89.438z"/>
<g>
	<path style="fill:#69B342;" d="M245.333,222.557l-38.26-31.892c13.072-23.885,27.25-45.757,38.26-61.721V222.557z"/>
	<path style="fill:#69B342;" d="M245.333,250.336v58.139l-66.816-53.465c4.701-14.801,11.117-30.048,18.464-44.973L245.333,250.336z
		"/>
	<path style="fill:#69B342;" d="M266.667,250.336l48.353-40.298c7.346,14.924,13.763,30.172,18.464,44.973l-66.816,53.465V250.336z"
		/>
	<path style="fill:#69B342;" d="M266.667,222.557v-93.613c11.01,15.965,25.189,37.836,38.26,61.721L266.667,222.557z"/>
	<path style="fill:#69B342;" d="M170.667,298.042c0-6.444,0.827-13.283,2.098-20.301l72.569,58.059v47.113
		C203.354,377.555,170.667,341.758,170.667,298.042z"/>
	<path style="fill:#69B342;" d="M266.667,382.913v-47.113l72.569-58.059c1.271,7.018,2.098,13.857,2.098,20.301
		C341.333,341.758,308.646,377.555,266.667,382.913z"/>
</g>
<path style="opacity:0.1;enable-background:new    ;" d="M266.667,250.336l48.353-40.298c7.346,14.924,13.763,30.172,18.464,44.973
	l-66.816,53.465V250.336z"/>
<path style="opacity:0.1;enable-background:new    ;" d="M266.667,222.557v-93.613c11.01,15.965,25.189,37.836,38.26,61.721
	L266.667,222.557z"/>
<path style="opacity:0.1;enable-background:new    ;" d="M266.667,382.913v-47.113l72.569-58.059
	c1.271,7.018,2.098,13.857,2.098,20.301C341.333,341.758,308.646,377.555,266.667,382.913z"/>
<linearGradient id="SVGID_1_" gradientUnits="userSpaceOnUse" x1="-45.5446" y1="639.5422" x2="-23.8616" y2="629.4266" gradientTransform="matrix(21.3333 0 0 -21.3333 996.3334 13791.667)">
	<stop  offset="0" style="stop-color:#FFFFFF;stop-opacity:0.2"/>
	<stop  offset="1" style="stop-color:#FFFFFF;stop-opacity:0"/>
</linearGradient>
<path style="fill:url(#SVGID_1_);" d="M494.771,295.688C502.854,284.281,512,271.354,512,256c0-15.354-9.146-28.281-17.229-39.688
	c-5.292-7.49-10.313-14.563-12.042-21.063c-1.875-6.969-1.063-15.896-0.229-25.344c1.292-14.333,2.625-29.156-4.771-41.938
	c-7.521-12.979-21.75-19.542-34.313-25.323c-8.5-3.927-16.521-7.625-21.479-12.573c-4.958-4.958-8.667-12.99-12.583-21.5
	C403.563,56.021,397,41.781,384.042,34.281c-12.771-7.385-27.563-6.063-41.958-4.792c-9.438,0.854-18.375,1.635-25.333-0.208
	c-6.5-1.74-13.563-6.75-21.063-12.052C284.292,9.156,271.354,0,256,0c-15.354,0-28.292,9.156-39.688,17.229
	c-7.5,5.302-14.563,10.313-21.063,12.052c-6.979,1.865-15.896,1.052-25.333,0.208c-14.313-1.26-29.167-2.615-41.938,4.781
	c-12.979,7.5-19.542,21.74-25.333,34.292c-3.917,8.51-7.625,16.552-12.583,21.5c-4.958,4.948-12.979,8.656-21.5,12.583
	c-12.542,5.781-26.771,12.344-34.292,25.323c-7.396,12.771-6.063,27.604-4.771,41.938c0.833,9.448,1.646,18.375-0.229,25.333
	c-1.729,6.51-6.75,13.583-12.042,21.073C9.146,227.719,0,240.646,0,256c0,15.354,9.146,28.281,17.229,39.688
	c5.292,7.49,10.313,14.563,12.042,21.063c1.875,6.969,1.063,15.896,0.229,25.344c-1.292,14.333-2.625,29.156,4.771,41.938
	c7.521,12.979,21.75,19.542,34.313,25.323c8.5,3.927,16.521,7.625,21.479,12.573c4.958,4.958,8.667,12.99,12.583,21.5
	c5.792,12.552,12.354,26.792,25.313,34.292c12.771,7.385,27.583,6.063,41.958,4.792c9.438-0.854,18.375-1.646,25.333,0.208
	c6.5,1.74,13.563,6.75,21.063,12.052C227.708,502.844,240.646,512,256,512c15.354,0,28.292-9.156,39.688-17.229
	c7.5-5.302,14.563-10.313,21.063-12.052c6.979-1.865,15.896-1.052,25.333-0.208c14.333,1.292,29.188,2.625,41.938-4.781
	c12.979-7.5,19.542-21.74,25.333-34.292c3.917-8.51,7.625-16.552,12.583-21.5c4.958-4.948,12.979-8.656,21.5-12.583
	c12.542-5.781,26.771-12.344,34.292-25.323c7.396-12.771,6.063-27.604,4.771-41.938c-0.833-9.448-1.646-18.375,0.229-25.333
	C484.458,310.25,489.479,303.177,494.771,295.688z"/>
<g>
</g>
<g>
</g>
<g>
</g>
<g>
</g>
<g>
</g>
<g>
</g>
<g>
</g>
<g>
</g>
<g>
</g>
<g>
</g>
<g>
</g>
<g>
</g>
<g>
</g>
<g>
</g>
<g>
</g>
</svg>
