<?xml version="1.0" encoding="UTF-8"?>
<svg width="512px" height="512px" viewBox="0 0 512 512" version="1.1" xmlns="http://www.w3.org/2000/svg" xmlns:xlink="http://www.w3.org/1999/xlink">
    <!-- Generator: Sketch 56.2 (81672) - https://sketch.com -->
    <title>facebook-circular</title>
    <desc>Created with Sketch.</desc>
    <g id="Page-1" stroke="none" stroke-width="1" fill="none" fill-rule="evenodd">
        <g id="facebook-circular" fill="#3B5998" fill-rule="nonzero">
            <path d="M256,0 C114.609,0 0,114.609 0,256 C0,397.391 114.609,512 256,512 C397.391,512 512,397.391 512,256 C512,114.609 397.391,0 256,0 Z M256,472 C136.703,472 40,375.297 40,256 C40,136.703 136.703,40 256,40 C375.297,40 472,136.703 472,256 C472,375.297 375.297,472 256,472 Z" id="Shape"></path>
            <path d="M316.75,216.812 L272.219,216.812 L272.219,184.312 C272.219,174.343 282.531,172.031 287.344,172.031 C292.125,172.031 316.111,172.031 316.111,172.031 L316.111,128.172 L283.141,128 C238.158,128 227.891,160.703 227.891,181.672 L227.891,216.813 L195.25,216.813 L195.25,262 L227.891,262 C227.891,320.016 227.891,384 227.891,384 L272.219,384 C272.219,384 272.219,319.359 272.219,262 L309.875,262 L316.75,216.812 Z" id="Path"></path>
        </g>
    </g>
</svg>